0
SECTION
2
HEADER
9
$INSUNITS
70
4
9
$ACADVER
1
AC1014
9
$HANDSEED
5
FFFF
0
ENDSEC
0
SECTION
2
TABLES
0
TABLE
2
VPORT
5
8
100
AcDbSymbolTable
0
ENDTAB
0
TABLE
2
LTYPE
5
5
100
AcDbSymbolTable
0
LTYPE
5
14
100
AcDbSymbolTableRecord
100
AcDbLinetypeTableRecord
2
BYBLOCK
70
0
0
LTYPE
5
15
100
AcDbSymbolTableRecord
100
AcDbLinetypeTableRecord
2
BYLAYER
70
0
0
ENDTAB
0
TABLE
2
LAYER
5
2
100
AcDbSymbolTable
70
2
0
LAYER
5
50
100
AcDbSymbolTableRecord
100
AcDbLayerTableRecord
2
0
70
0
6
CONTINUOUS
0
ENDTAB
0
TABLE
2
STYLE
5
3
100
AcDbSymbolTable
70
1
0
STYLE
5
11
100
AcDbSymbolTableRecord
100
AcDbTextStyleTableRecord
2
STANDARD
70
0
0
ENDTAB
0
TABLE
2
VIEW
5
6
100
AcDbSymbolTable
70
0
0
ENDTAB
0
TABLE
2
UCS
5
7
100
AcDbSymbolTable
70
0
0
ENDTAB
0
TABLE
2
APPID
5
9
100
AcDbSymbolTable
70
2
0
APPID
5
12
100
AcDbSymbolTableRecord
100
AcDbRegAppTableRecord
2
ACAD
70
0
0
ENDTAB
0
TABLE
2
DIMSTYLE
5
A
100
AcDbSymbolTable
70
1
0
ENDTAB
0
TABLE
2
BLOCK_RECORD
5
1
100
AcDbSymbolTable
70
1
0
BLOCK_RECORD
5
1F
100
AcDbSymbolTableRecord
100
AcDbBlockTableRecord
2
*MODEL_SPACE
0
BLOCK_RECORD
5
1B
100
AcDbSymbolTableRecord
100
AcDbBlockTableRecord
2
*PAPER_SPACE
0
ENDTAB
0
ENDSEC
0
SECTION
2
BLOCKS
0
BLOCK
5
20
100
AcDbEntity
100
AcDbBlockBegin
2
*MODEL_SPACE
0
ENDBLK
5
21
100
AcDbEntity
100
AcDbBlockEnd
0
BLOCK
5
1C
100
AcDbEntity
100
AcDbBlockBegin
2
*PAPER_SPACE
0
ENDBLK
5
1D
100
AcDbEntity
100
AcDbBlockEnd
0
ENDSEC
0
SECTION
2
ENTITIES
0
CIRCLE
5
100
100
AcDbEntity
8
0
100
AcDbCircle
10
210.47332159346871
20
128.72055868370069
30
0
40
1
210
0
220
0
230
1
0
LWPOLYLINE
5
101
100
AcDbEntity
8
0
100
AcDbPolyline
90
16
70
1
43
0.0
10
84.896254423826036
20
66.835174559322539
42
-0.41421356237309509
10
85.896254423826051
20
65.835174559322525
10
85.896254423826051
20
48.766550683700629
42
0.41421356237326157
10
86.896254423826065
20
47.766550683700544
10
257.57312827961772
20
47.766550683700757
42
0.41421356237327195
10
258.57312827961772
20
48.7665506837007
10
258.57312827961766
20
65.845511615738346
42
-0.41421356237309509
10
259.57312827961778
20
66.845511615738431
10
295.58321827961771
20
66.845511615738431
42
0.41421356237313667
10
296.58321827961782
20
67.845511615738374
10
296.58321827961777
20
124.04655868370071
42
0.41421356237313667
10
295.58321827961765
20
125.04655868370065
10
48.87312827961793
20
125.04655868370058
42
0.41421356237313667
10
47.873128279617916
20
124.04655868370064
10
47.873128279617987
20
67.835174559322553
42
0.41421356237326157
10
48.873128279618001
20
66.835174559322468
0
LWPOLYLINE
5
102
100
AcDbEntity
8
0
100
AcDbPolyline
90
10
70
1
43
0.0
10
50.611128279618072
20
-71.119449316299139
42
-0.41421356237309509
10
39.611128279618057
20
-60.119449316299125
10
39.611128279618057
20
-40.219529316299116
10
39.611128279618057
20
11.89055868370076
42
-0.41421356237309509
10
50.611128279618001
20
22.890558683700704
10
279.63002134799194
20
22.890558683700846
10
294.09221827961778
20
22.89055868370081
42
-0.41421356237309687
10
305.09221827961773
20
11.890558683700903
10
305.09221827961778
20
-60.119449316298983
42
-0.41421356237309598
10
294.09221827961784
20
-71.119449316298926
0
CIRCLE
5
103
100
AcDbEntity
8
0
100
AcDbCircle
10
286.47332159346865
20
128.72055868370069
30
0
40
1
210
0
220
0
230
1
0
LWPOLYLINE
5
104
100
AcDbEntity
8
0
100
AcDbPolyline
90
16
70
1
43
0.0
10
258.57312827961772
20
-61.233449316299158
42
-0.41421356237327195
10
257.57312827961778
20
-62.233449316299101
10
86.896254423826136
20
-62.233449316299314
42
-0.41421356237326157
10
85.896254423826122
20
-61.2334493162993
10
85.896254423826122
20
-44.164825440677333
42
0.41421356237309509
10
84.896254423826107
20
-43.16482544067739
10
48.873128279618072
20
-43.164825440677319
42
-0.41421356237326157
10
47.873128279618058
20
-42.164825440677305
10
47.873128279617916
20
14.046558683700709
42
-0.41421356237313667
10
48.873128279618001
20
15.046558683700653
10
295.58321827961771
20
15.046558683700795
42
-0.41421356237313667
10
296.58321827961782
20
14.046558683700852
10
296.58321827961788
20
-42.154488384261413
42
-0.41421356237313667
10
295.58321827961782
20
-43.154488384261356
10
259.57312827961783
20
-43.154488384261356
42
0.41421356237309509
10
258.57312827961783
20
-44.154488384261441
0
CIRCLE
5
105
100
AcDbEntity
8
0
100
AcDbCircle
10
133.87332159346931
20
43.050550683700877
30
0
40
1
210
0
220
0
230
1
0
CIRCLE
5
106
100
AcDbEntity
8
0
100
AcDbCircle
10
286.47332159346871
20
43.050550683700948
30
0
40
1
210
0
220
0
230
1
0
LWPOLYLINE
5
107
100
AcDbEntity
8
0
100
AcDbPolyline
90
10
70
1
43
0.0
10
294.09221827961767
20
132.89055868370073
42
-0.41421356237309787
10
305.09221827961773
20
121.89055868370083
10
305.09221827961778
20
49.880550683700875
42
-0.41421356237309687
10
294.09221827961778
20
38.880550683700932
10
50.611128279618001
20
38.88055068370079
42
-0.41421356237309509
10
39.611128279617986
20
49.880550683700804
10
39.611128279617986
20
69.780470683700742
10
39.611128279618057
20
121.89055868370076
42
-0.41421356237309509
10
50.61112827961793
20
132.89055868370065
10
279.63002134799189
20
132.8905586837007
0
CIRCLE
5
108
100
AcDbEntity
8
0
100
AcDbCircle
10
133.87332159346931
20
18.72055868370083
30
0
40
1
210
0
220
0
230
1
0
CIRCLE
5
109
100
AcDbEntity
8
0
100
AcDbCircle
10
210.4733215934688
20
43.050550683700948
30
0
40
1
210
0
220
0
230
1
0
CIRCLE
5
110
100
AcDbEntity
8
0
100
AcDbCircle
10
210.4733215934688
20
18.72055868370083
30
0
40
1
210
0
220
0
230
1
0
CIRCLE
5
111
100
AcDbEntity
8
0
100
AcDbCircle
10
57.873321593469313
20
18.720558683700688
30
0
40
1
210
0
220
0
230
1
0
CIRCLE
5
112
100
AcDbEntity
8
0
100
AcDbCircle
10
57.873321593469385
20
-66.949449316299052
30
0
40
1
210
0
220
0
230
1
0
CIRCLE
5
113
100
AcDbEntity
8
0
100
AcDbCircle
10
210.47332159346888
20
-66.94944931629891
30
0
40
1
210
0
220
0
230
1
0
CIRCLE
5
114
100
AcDbEntity
8
0
100
AcDbCircle
10
133.8733215934694
20
-66.94944931629891
30
0
40
1
210
0
220
0
230
1
0
CIRCLE
5
115
100
AcDbEntity
8
0
100
AcDbCircle
10
57.873321593469313
20
43.050550683700877
30
0
40
1
210
0
220
0
230
1
0
CIRCLE
5
116
100
AcDbEntity
8
0
100
AcDbCircle
10
286.47332159346871
20
18.72055868370083
30
0
40
1
210
0
220
0
230
1
0
CIRCLE
5
117
100
AcDbEntity
8
0
100
AcDbCircle
10
286.47332159346877
20
-66.94944931629891
30
0
40
1
210
0
220
0
230
1
0
CIRCLE
5
118
100
AcDbEntity
8
0
100
AcDbCircle
10
57.873321593469242
20
128.72055868370063
30
0
40
1
210
0
220
0
230
1
0
CIRCLE
5
119
100
AcDbEntity
8
0
100
AcDbCircle
10
133.87332159346926
20
128.72055868370063
30
0
40
1
210
0
220
0
230
1
0
ENDSEC
0
SECTION
2
OBJECTS
0
DICTIONARY
5
C
100
AcDbDictionary
3
ACAD_GROUP
350
D
3
ACAD_MLINESTYLE
350
17
0
DICTIONARY
5
D
100
AcDbDictionary
0
DICTIONARY
5
1A
330
C
100
AcDbDictionary
0
DICTIONARY
5
17
100
AcDbDictionary
0
ENDSEC
0
EOF
