0
SECTION
2
HEADER
9
$INSUNITS
70
4
9
$ACADVER
1
AC1014
9
$HANDSEED
5
FFFF
0
ENDSEC
0
SECTION
2
TABLES
0
TABLE
2
VPORT
5
8
100
AcDbSymbolTable
0
ENDTAB
0
TABLE
2
LTYPE
5
5
100
AcDbSymbolTable
0
LTYPE
5
14
100
AcDbSymbolTableRecord
100
AcDbLinetypeTableRecord
2
BYBLOCK
70
0
0
LTYPE
5
15
100
AcDbSymbolTableRecord
100
AcDbLinetypeTableRecord
2
BYLAYER
70
0
0
ENDTAB
0
TABLE
2
LAYER
5
2
100
AcDbSymbolTable
70
2
0
LAYER
5
50
100
AcDbSymbolTableRecord
100
AcDbLayerTableRecord
2
0
70
0
6
CONTINUOUS
0
ENDTAB
0
TABLE
2
STYLE
5
3
100
AcDbSymbolTable
70
1
0
STYLE
5
11
100
AcDbSymbolTableRecord
100
AcDbTextStyleTableRecord
2
STANDARD
70
0
0
ENDTAB
0
TABLE
2
VIEW
5
6
100
AcDbSymbolTable
70
0
0
ENDTAB
0
TABLE
2
UCS
5
7
100
AcDbSymbolTable
70
0
0
ENDTAB
0
TABLE
2
APPID
5
9
100
AcDbSymbolTable
70
2
0
APPID
5
12
100
AcDbSymbolTableRecord
100
AcDbRegAppTableRecord
2
ACAD
70
0
0
ENDTAB
0
TABLE
2
DIMSTYLE
5
A
100
AcDbSymbolTable
70
1
0
ENDTAB
0
TABLE
2
BLOCK_RECORD
5
1
100
AcDbSymbolTable
70
1
0
BLOCK_RECORD
5
1F
100
AcDbSymbolTableRecord
100
AcDbBlockTableRecord
2
*MODEL_SPACE
0
BLOCK_RECORD
5
1B
100
AcDbSymbolTableRecord
100
AcDbBlockTableRecord
2
*PAPER_SPACE
0
ENDTAB
0
ENDSEC
0
SECTION
2
BLOCKS
0
BLOCK
5
20
100
AcDbEntity
100
AcDbBlockBegin
2
*MODEL_SPACE
0
ENDBLK
5
21
100
AcDbEntity
100
AcDbBlockEnd
0
BLOCK
5
1C
100
AcDbEntity
100
AcDbBlockBegin
2
*PAPER_SPACE
0
ENDBLK
5
1D
100
AcDbEntity
100
AcDbBlockEnd
0
ENDSEC
0
SECTION
2
ENTITIES
0
CIRCLE
5
100
100
AcDbEntity
8
0
100
AcDbCircle
10
-232.69641926605627
20
59.077215429806422
30
0
40
1
210
0
220
0
230
1
0
CIRCLE
5
101
100
AcDbEntity
8
0
100
AcDbCircle
10
-156.69641926605641
20
144.7472234298063
30
0
40
1
210
0
220
0
230
1
0
LINE
5
102
100
AcDbEntity
8
0
100
AcDbLine
10
-240.0584385799076
20
142.91722342980626
30
0
11
-240.22480065532665
21
142.91722342980626
31
0
0
CIRCLE
5
103
100
AcDbEntity
8
0
100
AcDbCircle
10
-80.096419266057026
20
144.74722342980635
30
0
40
1
210
0
220
0
230
1
0
CIRCLE
5
104
100
AcDbEntity
8
0
100
AcDbCircle
10
-4.0964192660571541
20
59.077215429806529
30
0
40
1
210
0
220
0
230
1
0
CIRCLE
5
105
100
AcDbEntity
8
0
100
AcDbCircle
10
-156.69641926605638
20
59.077215429806458
30
0
40
1
210
0
220
0
230
1
0
CIRCLE
5
106
100
AcDbEntity
8
0
100
AcDbCircle
10
-80.096419266056984
20
59.077215429806493
30
0
40
1
210
0
220
0
230
1
0
CIRCLE
5
107
100
AcDbEntity
8
0
100
AcDbCircle
10
-232.6964192660563
20
144.7472234298063
30
0
40
1
210
0
220
0
230
1
0
CIRCLE
5
108
100
AcDbEntity
8
0
100
AcDbCircle
10
-4.0964192660572252
20
144.74722342980638
30
0
40
1
210
0
220
0
230
1
0
CIRCLE
5
109
100
AcDbEntity
8
0
100
AcDbCircle
10
-157.44895737499402
20
-270.37209737769092
30
0
40
1.5000000000000036
210
0
220
0
230
1
0
LWPOLYLINE
5
110
100
AcDbEntity
8
0
100
AcDbPolyline
90
24
70
1
43
0.0
10
-251.71115068884532
20
-191.53208937769091
42
-0.41421356237309598
10
-240.71115068884535
20
-180.53208937769088
10
-225.97428673871673
20
-180.53208937769091
42
-0.41421356237309509
10
-223.97428673871676
20
-182.53208937769088
10
-223.97428673871676
20
-187.89216029139624
10
-240.36115068884538
20
-187.89216029139624
42
0.41421356237309509
10
-244.36115068884536
20
-191.89216029139624
10
-244.36115068884536
20
-263.20216829139622
42
0.41421356237309509
10
-240.36115068884538
20
-267.20216829139622
10
2.419939311154522
20
-267.20216829139622
42
0.41421356237309542
10
6.4199393111545131
20
-263.20216829139622
10
6.4199393111545131
20
-191.89216029139624
42
0.41421356237309681
10
2.4199393111544865
20
-187.89216029139624
10
-204.96288805679228
20
-187.89216029139624
10
-204.96288805679231
20
-182.53208937769088
42
-0.41421356237309509
10
-202.96288805679234
20
-180.53208937769088
10
-11.692257620471265
20
-180.53208937769088
10
2.7699393111545549
20
-180.53208937769091
42
-0.41421356237309687
10
13.769939311154564
20
-191.53208937769085
10
13.76993931115457
20
-263.54209737769088
42
-0.41421356237309687
10
2.7699393111545589
20
-274.54209737769082
10
-240.71115068884535
20
-274.54209737769088
42
-0.41421356237309509
10
-251.71115068884535
20
-263.54209737769088
10
-251.71115068884535
20
-243.64217737769087
0
CIRCLE
5
111
100
AcDbEntity
8
0
100
AcDbCircle
10
-80.848957374994484
20
-184.7020893776909
30
0
40
1.5000000000000036
210
0
220
0
230
1
0
CIRCLE
5
112
100
AcDbEntity
8
0
100
AcDbCircle
10
-4.848957374994499
20
-184.7020893776909
30
0
40
1.5000000000000036
210
0
220
0
230
1
0
CIRCLE
5
113
100
AcDbEntity
8
0
100
AcDbCircle
10
-4.848957374994499
20
-270.37209737769092
30
0
40
1.5000000000000036
210
0
220
0
230
1
0
CIRCLE
5
114
100
AcDbEntity
8
0
100
AcDbCircle
10
-233.448957374994
20
-184.7020893776909
30
0
40
1.5000000000000036
210
0
220
0
230
1
0
CIRCLE
5
115
100
AcDbEntity
8
0
100
AcDbCircle
10
-157.44895737499402
20
-184.7020893776909
30
0
40
1.5000000000000036
210
0
220
0
230
1
0
CIRCLE
5
116
100
AcDbEntity
8
0
100
AcDbCircle
10
-233.448957374994
20
-270.37209737769092
30
0
40
1.5000000000000036
210
0
220
0
230
1
0
CIRCLE
5
117
100
AcDbEntity
8
0
100
AcDbCircle
10
-80.848957374994484
20
-270.37209737769092
30
0
40
1.5000000000000036
210
0
220
0
230
1
0
LWPOLYLINE
5
118
100
AcDbEntity
8
0
100
AcDbPolyline
90
20
70
1
43
0.0
10
16.297143170581077
20
-47.850960526361526
42
-0.41421356237309787
10
5.2971431705811867
20
-58.850960526361376
10
-238.1839468294171
20
-58.850960526361305
42
-0.41421356237309509
10
-249.18394682941695
20
-47.850960526361433
10
-249.18394682941695
20
-27.951040526361552
10
-249.18394682941695
20
24.15904747363804
42
-0.41421356237309837
10
-238.18394682941701
20
35.159047473637955
10
-223.44708287928847
20
35.159047473637969
42
-0.4142135623730977
10
-221.4470828792885
20
33.15904747363799
10
-221.4470828792885
20
27.798976559932662
10
-221.44708287928859
20
-7.3088631486708522
42
0.41421356237309509
10
-220.44708287928856
20
-8.3088631486708309
10
-203.4356841973642
20
-8.3088631486708309
42
0.41421356237309509
10
-202.4356841973642
20
-7.3088631486708522
10
-202.43568419736414
20
27.798976559932651
10
-202.4356841973642
20
33.159047473637983
42
-0.4142135623730977
10
-200.43568419736425
20
35.159047473637941
10
-9.1650537610445326
20
35.15904747363787
10
5.2971431705812213
20
35.159047473637841
42
-0.41421356237309787
10
16.297143170581165
20
24.159047473637933
0
CIRCLE
5
119
100
AcDbEntity
8
0
100
AcDbCircle
10
-154.92175351556631
20
-54.680960526361432
30
0
40
1.5000000000000036
210
0
220
0
230
1
0
CIRCLE
5
120
100
AcDbEntity
8
0
100
AcDbCircle
10
-230.92175351556563
20
30.989047473637974
30
0
40
1.5000000000000036
210
0
220
0
230
1
0
CIRCLE
5
121
100
AcDbEntity
8
0
100
AcDbCircle
10
-230.92175351556568
20
-54.680960526361403
30
0
40
1.5000000000000036
210
0
220
0
230
1
0
CIRCLE
5
122
100
AcDbEntity
8
0
100
AcDbCircle
10
-154.92175351556625
20
30.98904747363796
30
0
40
1.5000000000000036
210
0
220
0
230
1
0
CIRCLE
5
123
100
AcDbEntity
8
0
100
AcDbCircle
10
-78.321753515567138
20
30.989047473637914
30
0
40
1.5000000000000036
210
0
220
0
230
1
0
CIRCLE
5
124
100
AcDbEntity
8
0
100
AcDbCircle
10
-78.32175351556721
20
-54.680960526361474
30
0
40
1.5000000000000036
210
0
220
0
230
1
0
CIRCLE
5
125
100
AcDbEntity
8
0
100
AcDbCircle
10
-2.3217535155678348
20
-54.680960526361474
30
0
40
1.5000000000000036
210
0
220
0
230
1
0
CIRCLE
5
126
100
AcDbEntity
8
0
100
AcDbCircle
10
-2.3217535155677993
20
30.989047473637878
30
0
40
1.5000000000000036
210
0
220
0
230
1
0
LWPOLYLINE
5
127
100
AcDbEntity
8
0
100
AcDbPolyline
90
24
70
1
43
0.0
10
-204.96288805679228
20
-292.53208937769091
10
-204.96288805679228
20
-297.89216029139624
10
2.4199393111545042
20
-297.89216029139624
42
-0.41421356237309676
10
6.4199393111545131
20
-301.89216029139624
10
6.4199393111545326
20
-373.20216829139622
42
-0.41421356237309936
10
2.4199393111544865
20
-377.20216829139622
10
-240.36115068884538
20
-377.20216829139622
42
-0.4142135623730977
10
-244.36115068884538
20
-373.20216829139622
10
-244.36115068884536
20
-301.89216029139624
42
-0.41421356237309509
10
-240.36115068884538
20
-297.89216029139624
10
-223.97428673871676
20
-297.89216029139624
10
-223.97428673871676
20
-292.53208937769091
42
0.41421356237309509
10
-225.97428673871673
20
-290.53208937769091
10
-240.71115068884535
20
-290.53208937769091
42
0.41421356237309598
10
-251.71115068884532
20
-301.53208937769091
10
-251.71115068884535
20
-353.64217737769087
10
-251.71115068884535
20
-373.54209737769088
42
0.41421356237309509
10
-240.71115068884535
20
-384.54209737769088
10
2.7699393111545554
20
-384.54209737769082
42
0.41421356237309687
10
13.769939311154564
20
-373.54209737769088
10
13.769939311154564
20
-301.53208937769085
42
0.41421356237309687
10
2.7699393111545567
20
-290.53208937769091
10
-11.692257620471267
20
-290.53208937769091
10
-202.96288805679234
20
-290.53208937769091
42
0.41421356237309509
0
CIRCLE
5
128
100
AcDbEntity
8
0
100
AcDbCircle
10
-233.448957374994
20
-294.70208937769092
30
0
40
1.5000000000000036
210
0
220
0
230
1
0
CIRCLE
5
129
100
AcDbEntity
8
0
100
AcDbCircle
10
-157.44895737499402
20
-380.37209737769092
30
0
40
1.5000000000000036
210
0
220
0
230
1
0
CIRCLE
5
130
100
AcDbEntity
8
0
100
AcDbCircle
10
-157.44895737499402
20
-294.70208937769092
30
0
40
1.5000000000000036
210
0
220
0
230
1
0
CIRCLE
5
131
100
AcDbEntity
8
0
100
AcDbCircle
10
-80.848957374994484
20
-294.70208937769092
30
0
40
1.5000000000000036
210
0
220
0
230
1
0
CIRCLE
5
132
100
AcDbEntity
8
0
100
AcDbCircle
10
-80.848957374994484
20
-380.37209737769092
30
0
40
1.5000000000000036
210
0
220
0
230
1
0
CIRCLE
5
133
100
AcDbEntity
8
0
100
AcDbCircle
10
-233.448957374994
20
-380.37209737769092
30
0
40
1.5000000000000036
210
0
220
0
230
1
0
CIRCLE
5
134
100
AcDbEntity
8
0
100
AcDbCircle
10
-4.848957374994499
20
-294.70208937769092
30
0
40
1.5000000000000036
210
0
220
0
230
1
0
CIRCLE
5
135
100
AcDbEntity
8
0
100
AcDbCircle
10
-4.848957374994499
20
-380.37209737769092
30
0
40
1.5000000000000036
210
0
220
0
230
1
0
CIRCLE
5
136
100
AcDbEntity
8
0
100
AcDbCircle
10
-154.92175351556625
20
-79.010952526362061
30
0
40
1.5000000000000036
210
0
220
0
230
1
0
LWPOLYLINE
5
137
100
AcDbEntity
8
0
100
AcDbPolyline
90
20
70
1
43
0.0
10
-221.44708287928859
20
-117.30886314867087
10
-221.4470828792885
20
-82.20102344006736
10
-221.4470828792885
20
-76.840952526362031
42
0.4142135623730977
10
-223.44708287928847
20
-74.840952526362074
10
-238.18394682941701
20
-74.840952526362059
42
0.41421356237309837
10
-249.18394682941695
20
-85.840952526361974
10
-249.18394682941695
20
-137.95104052636157
10
-249.18394682941695
20
-157.85096052636146
42
0.41421356237309509
10
-238.1839468294171
20
-168.85096052636135
10
5.2971431705811867
20
-168.8509605263614
42
0.41421356237309787
10
16.29714317058113
20
-157.85096052636155
10
16.297143170581165
20
-85.840952526362088
42
0.41421356237309787
10
5.2971431705812222
20
-74.840952526362173
10
-9.1650537610445326
20
-74.840952526362145
10
-200.43568419736425
20
-74.840952526362074
42
0.4142135623730977
10
-202.43568419736414
20
-76.840952526362031
10
-202.43568419736414
20
-82.20102344006736
10
-202.43568419736422
20
-117.30886314867087
42
-0.41421356237309509
10
-203.4356841973642
20
-118.30886314867085
10
-220.44708287928856
20
-118.30886314867088
42
-0.41421356237309509
0
CIRCLE
5
138
100
AcDbEntity
8
0
100
AcDbCircle
10
-230.92175351556563
20
-79.010952526362047
30
0
40
1.5000000000000036
210
0
220
0
230
1
0
CIRCLE
5
139
100
AcDbEntity
8
0
100
AcDbCircle
10
-230.92175351556568
20
-164.68096052636142
30
0
40
1.5000000000000036
210
0
220
0
230
1
0
CIRCLE
5
140
100
AcDbEntity
8
0
100
AcDbCircle
10
-154.92175351556631
20
-164.68096052636145
30
0
40
1.5000000000000036
210
0
220
0
230
1
0
CIRCLE
5
141
100
AcDbEntity
8
0
100
AcDbCircle
10
-78.32175351556721
20
-164.6809605263615
30
0
40
1.5000000000000036
210
0
220
0
230
1
0
CIRCLE
5
142
100
AcDbEntity
8
0
100
AcDbCircle
10
-78.321753515567138
20
-79.010952526362104
30
0
40
1.5000000000000036
210
0
220
0
230
1
0
CIRCLE
5
143
100
AcDbEntity
8
0
100
AcDbCircle
10
-2.3217535155677993
20
-79.010952526362132
30
0
40
1.5000000000000036
210
0
220
0
230
1
0
CIRCLE
5
144
100
AcDbEntity
8
0
100
AcDbCircle
10
-2.3217535155678348
20
-164.6809605263615
30
0
40
1.5000000000000036
210
0
220
0
230
1
0
LWPOLYLINE
5
145
100
AcDbEntity
8
0
100
AcDbPolyline
90
72
70
1
43
0.0
10
-122.80593381178612
20
-409.31610352082657
10
-122.80593381178608
20
-407.81610352082657
42
-0.41421356237309509
10
-121.1559338117861
20
-406.1661035208266
10
-113.15593381178608
20
-406.1661035208266
42
-0.41421356237309509
10
-111.50593381178611
20
-407.81610352082657
10
-111.50593381178611
20
-409.31610352082657
42
0.41421356237309509
10
-111.15593381178614
20
-409.6661035208266
10
-37.655933811786205
20
-409.66610352082654
42
0.41421356237309509
10
-37.305933811786204
20
-409.31610352082657
10
-37.30593381178624
20
-407.81610352082657
42
-0.41421356237309509
10
-35.655933811786177
20
-406.16610352082654
10
-27.655933811786181
20
-406.16610352082654
42
-0.41421356237309509
10
-26.005933811786189
20
-407.81610352082652
10
-26.005933811786186
20
-409.31610352082657
42
0.41421356237309509
10
-25.65593381178622
20
-409.66610352082654
10
5.1547478100023376
20
-409.66610352082654
42
-0.41418773755491056
10
9.1547477944536233
20
-413.66575083182886
10
9.1574709544548512
20
-444.55029793812662
42
0.41941993468678623
10
9.5074158641215263
20
-444.90650762397775
10
11.00741586412151
20
-444.90650762397786
42
-0.41421356237309509
10
12.657415864121431
20
-446.55650762397778
10
12.657415864121504
20
-454.55650762397772
42
-0.41421356237309509
10
11.007415864121512
20
-456.2065076239777
10
9.507415864121457
20
-456.2065076239777
42
0.3001357760512614
10
9.1856571047121651
20
-456.4187712789435
10
9.1564169232169377
20
-486.98847107372126
42
-0.41393343530991211
10
5.156418753033214
20
-490.98464504097433
10
-25.714930549155966
20
-490.98464504097444
42
0.3654324381446073
10
-26.005933811786093
20
-491.32963690316785
10
-26.005933811786129
20
-492.82963690316791
42
-0.41421356237309509
10
-27.65593381178612
20
-494.47963690316789
10
-35.655933811786092
20
-494.47963690316794
42
-0.41421356237309509
10
-37.305933811786119
20
-492.82963690316791
10
-37.305933811786119
20
-491.32797913162347
42
0.36543491938522116
10
-37.596940095066955
20
-490.98298675288504
10
-111.24889721334455
20
-490.98298675288504
42
0.36546797383135976
10
-111.53994417446694
20
-491.32798564118411
10
-111.53994607682898
20
-492.82798564118298
42
-0.41421356237308871
10
-113.18994816942605
20
-494.47798354858327
10
-121.18994816941965
20
-494.47797340265197
42
-0.41421356237310131
10
-122.83994607681996
20
-492.82797131005498
10
-122.83994417445781
20
-491.32797131005617
42
0.36539603922202318
10
-123.13090268764982
20
-490.98298665952507
10
-198.24891994179961
20
-490.98298665952518
42
0.36549990372431601
10
-198.5400057236225
20
-491.3279922304684
10
-198.54000740629499
20
-492.82799223046737
42
-0.41421356237307611
10
-200.19000925723361
20
-494.47799037952672
10
-208.19000925722858
20
-494.47798140527368
42
-0.41421356237310769
10
-209.84000740628787
20
-492.827979554335
10
-209.84000572361541
20
-491.32797955433597
42
0.36543578043100389
10
-210.13101266812288
20
-490.98298666990473
10
-239.62425135185481
20
-490.98299414430863
42
-0.41421363660034816
10
-243.62425236556561
20
-486.98299414430869
10
-243.62425236556561
20
-456.52237585298855
42
0.3858862277114648
10
-243.97258413587826
20
-456.20650762397781
10
-245.47258413587826
20
-456.20650762397781
42
-0.41421356237309509
10
-247.12258413587824
20
-454.55650762397784
10
-247.12258413587824
20
-446.55650762397784
42
-0.41421356237309509
10
-245.47258413587826
20
-444.90650762397786
10
-243.97258413587824
20
-444.90650762397786
42
0.38588622771134584
10
-243.62425236556561
20
-444.5906393949673
10
-243.62425236556564
20
-413.66610352082665
42
-0.41421356237309509
10
-239.62425236556567
20
-409.66610352082671
10
-196.65593381178599
20
-409.66610352082671
42
0.41421356237309509
10
-196.30593381178602
20
-409.31610352082669
10
-196.30593381178602
20
-407.81610352082674
42
-0.41421356237309509
10
-194.65593381178604
20
-406.16610352082671
10
-186.65593381178599
20
-406.16610352082665
42
-0.41421356237309509
10
-185.00593381178601
20
-407.81610352082669
10
-185.00593381178601
20
-409.31610352082669
42
0.41421356237309509
10
-184.65593381178604
20
-409.66610352082671
10
-123.15593381178613
20
-409.6661035208266
42
0.41421356237309509
0
CIRCLE
5
146
100
AcDbEntity
8
0
100
AcDbCircle
10
-3.1120590517149327
20
-493.16464490316787
30
0
40
1.5000000000000036
210
0
220
0
230
1
0
LWPOLYLINE
5
147
100
AcDbEntity
8
0
100
AcDbPolyline
90
10
70
1
43
0.0
10
-249.97425236556558
20
-414.32463690316814
42
-0.41421356237309687
10
-238.97425236556563
20
-403.32463690316814
10
-9.9553592971917517
20
-403.32463690316791
10
4.506837634434028
20
-403.32463690316791
42
-0.41421356237309886
10
15.506837634434039
20
-414.32463690316797
10
15.50683763443406
20
-486.33464490316783
42
-0.41421356237309875
10
4.5068376344341132
20
-497.33464490316777
10
-238.9742523655656
20
-497.33464490316805
42
-0.41421356237309598
10
-249.97425236556563
20
-486.33464490316805
10
-249.97425236556563
20
-466.43472490316805
0
CIRCLE
5
148
100
AcDbEntity
8
0
100
AcDbCircle
10
-79.112059051714922
20
-407.49463690316804
30
0
40
1.5000000000000036
210
0
220
0
230
1
0
CIRCLE
5
149
100
AcDbEntity
8
0
100
AcDbCircle
10
-3.1120590517150228
20
-407.49463690316793
30
0
40
1.5000000000000036
210
0
220
0
230
1
0
CIRCLE
5
150
100
AcDbEntity
8
0
100
AcDbCircle
10
-155.71205905171436
20
-493.16464490316804
30
0
40
1.5000000000000036
210
0
220
0
230
1
0
CIRCLE
5
151
100
AcDbEntity
8
0
100
AcDbCircle
10
-231.71205905171436
20
-407.49463690316816
30
0
40
1.5000000000000036
210
0
220
0
230
1
0
CIRCLE
5
152
100
AcDbEntity
8
0
100
AcDbCircle
10
-231.71205905171431
20
-493.16464490316804
30
0
40
1.5000000000000036
210
0
220
0
230
1
0
CIRCLE
5
153
100
AcDbEntity
8
0
100
AcDbCircle
10
-155.71205905171439
20
-407.4946369031681
30
0
40
1.5000000000000036
210
0
220
0
230
1
0
CIRCLE
5
154
100
AcDbEntity
8
0
100
AcDbCircle
10
-79.112059051714866
20
-493.16464490316787
30
0
40
1.5000000000000036
210
0
220
0
230
1
0
LWPOLYLINE
5
155
100
AcDbEntity
8
0
100
AcDbPolyline
90
10
70
1
43
0.0
10
72.17355977117063
20
-187.53455728414212
10
280.25638713911712
20
-187.53455728414218
42
-0.41421356237309509
10
284.25638713911712
20
-191.53455728414215
10
284.25638713911712
20
-262.84456528414205
42
-0.41421356237309243
10
280.25638713911712
20
-266.84456528414205
10
37.4752971391176
20
-266.84456528414205
42
-0.4142135623730967
10
33.4752971391176
20
-262.84456528414205
10
33.475297139117586
20
-191.53455728414212
42
-0.4142135623730967
10
37.475297139117593
20
-187.53455728414212
10
54.562161089246139
20
-187.53455728414212
0
LWPOLYLINE
5
156
100
AcDbEntity
8
0
100
AcDbPolyline
90
10
70
1
43
0.0
10
291.60638713911715
20
-263.18449437043665
42
-0.41421356237309787
10
280.60638713911715
20
-274.1844943704366
10
37.125297139117606
20
-274.18449437043665
42
-0.41421356237309548
10
26.125297139117603
20
-263.18449437043671
10
26.12529713911762
20
-243.28457437043667
10
26.125297139117617
20
-191.17448637043677
42
-0.41421356237309509
10
37.125297139117599
20
-180.1744863704368
10
266.14419020749136
20
-180.17448637043682
10
280.60638713911715
20
-180.17448637043682
42
-0.41421356237309787
10
291.60638713911715
20
-191.1744863704368
0
CIRCLE
5
157
100
AcDbEntity
8
0
100
AcDbCircle
10
44.387490452968933
20
-270.01449437043669
30
0
40
1.5000000000000036
210
0
220
0
230
1
0
CIRCLE
5
158
100
AcDbEntity
8
0
100
AcDbCircle
10
120.38749045296882
20
-184.34448637043675
30
0
40
1.5000000000000036
210
0
220
0
230
1
0
CIRCLE
5
159
100
AcDbEntity
8
0
100
AcDbCircle
10
272.98749045296807
20
-184.34448637043681
30
0
40
1.5000000000000036
210
0
220
0
230
1
0
CIRCLE
5
160
100
AcDbEntity
8
0
100
AcDbCircle
10
120.38749045296883
20
-270.01449437043669
30
0
40
1.5000000000000036
210
0
220
0
230
1
0
CIRCLE
5
161
100
AcDbEntity
8
0
100
AcDbCircle
10
44.387490452968919
20
-184.34448637043681
30
0
40
1.5000000000000036
210
0
220
0
230
1
0
CIRCLE
5
162
100
AcDbEntity
8
0
100
AcDbCircle
10
196.98749045296825
20
-270.01449437043669
30
0
40
1.5000000000000036
210
0
220
0
230
1
0
CIRCLE
5
163
100
AcDbEntity
8
0
100
AcDbCircle
10
196.98749045296822
20
-184.34448637043681
30
0
40
1.5000000000000036
210
0
220
0
230
1
0
CIRCLE
5
164
100
AcDbEntity
8
0
100
AcDbCircle
10
272.98749045296807
20
-270.01449437043669
30
0
40
1.5000000000000036
210
0
220
0
230
1
0
LWPOLYLINE
5
165
100
AcDbEntity
8
0
100
AcDbPolyline
90
8
70
1
43
0.0
10
-238.55968916387263
20
-607.78673694342569
10
-238.55968916387269
20
-532.43672894342558
42
-0.41421356237309509
10
-237.55968916387269
20
-531.43672894342558
10
9.2404008361273178
20
-531.43672894342558
42
-0.41421356237312884
10
10.240400836127305
20
-532.43672894342558
10
10.240400836127419
20
-607.78673694342558
42
-0.41421356237310281
10
9.2404008361273782
20
-608.78673694342558
10
-237.5596891638726
20
-608.78673694342569
42
-0.41421356237313667
0
CIRCLE
5
166
100
AcDbEntity
8
0
100
AcDbCircle
10
-75.859495850021759
20
-527.73272894342551
30
0
40
1
210
0
220
0
230
1
0
CIRCLE
5
167
100
AcDbEntity
8
0
100
AcDbCircle
10
-152.45949585002126
20
-613.40273694342557
30
0
40
1
210
0
220
0
230
1
0
CIRCLE
5
168
100
AcDbEntity
8
0
100
AcDbCircle
10
-228.45949585002126
20
-613.40273694342568
30
0
40
1
210
0
220
0
230
1
0
CIRCLE
5
169
100
AcDbEntity
8
0
100
AcDbCircle
10
0.14050414997832661
20
-613.40273694342557
30
0
40
1
210
0
220
0
230
1
0
LWPOLYLINE
5
170
100
AcDbEntity
8
0
100
AcDbPolyline
90
10
70
1
43
0.0
10
-246.72168916387261
20
-606.57273694342553
10
-246.72168916387261
20
-586.67281694342569
10
-246.72168916387255
20
-534.56272894342555
42
-0.41421356237309687
10
-235.72168916387261
20
-523.56272894342555
10
-6.7027960954985133
20
-523.56272894342555
10
7.7594008361273126
20
-523.56272894342555
42
-0.41421356237309687
10
18.759400836127327
20
-534.56272894342544
10
18.759400836127398
20
-606.57273694342553
42
-0.41421356237309687
10
7.7594008361273836
20
-617.57273694342541
10
-235.72168916387258
20
-617.57273694342553
42
-0.41421356237309598
0
CIRCLE
5
171
100
AcDbEntity
8
0
100
AcDbCircle
10
0.14050414997825555
20
-527.73272894342551
30
0
40
1
210
0
220
0
230
1
0
CIRCLE
5
172
100
AcDbEntity
8
0
100
AcDbCircle
10
-75.859495850021716
20
-613.40273694342557
30
0
40
1
210
0
220
0
230
1
0
CIRCLE
5
173
100
AcDbEntity
8
0
100
AcDbCircle
10
-152.45949585002131
20
-527.73272894342563
30
0
40
1
210
0
220
0
230
1
0
CIRCLE
5
174
100
AcDbEntity
8
0
100
AcDbCircle
10
-228.45949585002128
20
-527.73272894342563
30
0
40
1
210
0
220
0
230
1
0
LWPOLYLINE
5
175
100
AcDbEntity
8
0
100
AcDbPolyline
90
10
70
1
43
0.0
10
2.0357024319893924
20
-733.00065476020336
10
-241.44538756801035
20
-733.00065476020347
42
-0.41421356237309598
10
-252.44538756801032
20
-722.00065476020359
10
-252.44538756801032
20
-702.10073476020352
10
-252.44538756801032
20
-649.99064676020362
42
-0.41421356237309881
10
-241.44538756801037
20
-638.99064676020362
10
-12.42649449963649
20
-638.99064676020362
10
2.0357024319893173
20
-638.99064676020362
42
-0.41421356237309687
10
13.035702431989321
20
-649.9906467602035
10
13.035702431989405
20
-722.00065476020325
42
-0.41421356237309687
0
LWPOLYLINE
5
176
100
AcDbEntity
8
0
100
AcDbPolyline
90
8
70
1
43
0.0
10
4.5167024319893825
20
-647.86464676020364
10
4.5167024319893185
20
-723.21465476020353
42
-0.41421356237325818
10
3.5167024319893869
20
-724.21465476020342
10
-243.28338756801034
20
-724.21465476020353
42
-0.41421356237313667
10
-244.28338756801043
20
-723.21465476020364
10
-244.28338756801048
20
-647.86464676020364
42
-0.41421356237313667
10
-243.28338756801037
20
-646.86464676020364
10
3.5167024319893221
20
-646.86464676020364
42
-0.41421356237312945
0
CIRCLE
5
177
100
AcDbEntity
8
0
100
AcDbCircle
10
-5.5831942541596575
20
-728.83065476020352
30
0
40
1
210
0
220
0
230
1
0
CIRCLE
5
178
100
AcDbEntity
8
0
100
AcDbCircle
10
-234.18319425415899
20
-728.83065476020352
30
0
40
1
210
0
220
0
230
1
0
CIRCLE
5
179
100
AcDbEntity
8
0
100
AcDbCircle
10
-234.18319425415902
20
-643.16064676020358
30
0
40
1
210
0
220
0
230
1
0
CIRCLE
5
180
100
AcDbEntity
8
0
100
AcDbCircle
10
-158.18319425415905
20
-728.83065476020352
30
0
40
1
210
0
220
0
230
1
0
CIRCLE
5
181
100
AcDbEntity
8
0
100
AcDbCircle
10
-81.583194254159665
20
-643.16064676020358
30
0
40
1
210
0
220
0
230
1
0
CIRCLE
5
182
100
AcDbEntity
8
0
100
AcDbCircle
10
-81.583194254159622
20
-728.83065476020352
30
0
40
1
210
0
220
0
230
1
0
CIRCLE
5
183
100
AcDbEntity
8
0
100
AcDbCircle
10
-5.5831942541597304
20
-643.16064676020358
30
0
40
1
210
0
220
0
230
1
0
CIRCLE
5
184
100
AcDbEntity
8
0
100
AcDbCircle
10
-158.1831942541591
20
-643.16064676020358
30
0
40
1
210
0
220
0
230
1
0
LWPOLYLINE
5
185
100
AcDbEntity
8
0
100
AcDbPolyline
90
10
70
1
43
0.0
10
-250.95861257990754
20
85.807135429806408
10
-250.95861257990754
20
137.91722342980628
42
-0.41421356237309598
10
-239.95861257990759
20
148.91722342980628
10
-10.939719511533923
20
148.9172234298064
10
3.5224774200918301
20
148.9172234298064
42
-0.41421356237309787
10
14.522477420091846
20
137.91722342980643
10
14.522477420091899
20
65.907215429806541
42
-0.41421356237309742
10
3.5224774200919029
20
54.907215429806598
10
-239.95861257990757
20
54.907215429806456
42
-0.41421356237309598
10
-250.95861257990759
20
65.907215429806442
0
CIRCLE
5
186
100
AcDbEntity
8
0
100
AcDbCircle
10
-156.69641926605641
20
179.7472234298063
30
0
40
1
210
0
220
0
230
1
0
CIRCLE
5
187
100
AcDbEntity
8
0
100
AcDbCircle
10
-4.0964192660572252
20
179.74722342980638
30
0
40
1
210
0
220
0
230
1
0
LINE
5
188
100
AcDbEntity
8
0
100
AcDbLine
10
-10.939719511533923
20
183.9172234298064
30
0
11
3.5224774200918318
21
183.91722342980637
31
0
0
LINE
5
189
100
AcDbEntity
8
0
100
AcDbLine
10
-10.939719511533923
20
183.9172234298064
30
0
11
-239.95861257990759
21
183.91722342980628
31
0
0
CIRCLE
5
190
100
AcDbEntity
8
0
100
AcDbCircle
10
-80.096419266057026
20
179.74722342980635
30
0
40
1
210
0
220
0
230
1
0
ARC
5
191
100
AcDbEntity
8
0
100
AcDbCircle
10
-239.95861257990759
20
172.91722342980634
30
0
40
10.999999999999943
210
0
220
-0
230
1
100
AcDbArc
50
90
51
177.2705973632217
0
CIRCLE
5
192
100
AcDbEntity
8
0
100
AcDbCircle
10
-232.6964192660563
20
179.74722342980627
30
0
40
1
210
0
220
0
230
1
0
ARC
5
193
100
AcDbEntity
8
0
100
AcDbCircle
10
3.5224774200919029
20
172.91722342980646
30
0
40
10.999999999999929
210
-0
220
0
230
1
100
AcDbArc
50
2.7294026367784481
51
90.000000000000369
0
LINE
5
194
100
AcDbEntity
8
0
100
AcDbLine
10
-250.44670106160908
20
172.91722342980626
30
0
11
14.01056590179337
21
172.91722342980643
31
0
0
ARC
5
195
100
AcDbEntity
8
0
100
AcDbCircle
10
-250.44670106160905
20
173.41722342980628
30
0
40
0.49999999999999478
210
0
220
0
230
1
100
AcDbArc
50
177.27059736322209
51
269.99999999999676
0
ARC
5
196
100
AcDbEntity
8
0
100
AcDbCircle
10
14.010565901793344
20
173.41722342980643
30
0
40
0.50000000000000711
210
0
220
0
230
1
100
AcDbArc
50
-89.999999999996945
51
2.7294026367779134
0
LWPOLYLINE
5
197
100
AcDbEntity
8
0
100
AcDbPolyline
90
7
70
1
43
0.0
10
6.0105659017932211
20
192.91722342980643
10
-242.44670106160902
20
192.91722342980626
42
-0.42823597016992787
10
-242.946133846452
20
193.4410329536158
42
-0.40032882644879364
10
-231.95861257990759
20
203.91722342980628
10
-10.939719511533923
20
203.9172234298064
10
-4.4775225799082765
20
203.91722342980637
42
-0.40032882644879475
10
6.5099986866361528
20
193.44103295361595
42
-0.4282359701699277
0
CIRCLE
5
198
100
AcDbEntity
8
0
100
AcDbCircle
10
-232.6964192660563
20
199.74722342980627
30
0
40
1
210
0
220
0
230
1
0
CIRCLE
5
199
100
AcDbEntity
8
0
100
AcDbCircle
10
-156.69641926605641
20
199.7472234298063
30
0
40
1
210
0
220
0
230
1
0
CIRCLE
5
200
100
AcDbEntity
8
0
100
AcDbCircle
10
-80.096419266057026
20
199.74722342980635
30
0
40
1
210
0
220
0
230
1
0
CIRCLE
5
201
100
AcDbEntity
8
0
100
AcDbCircle
10
-4.0964192660572252
20
199.74722342980638
30
0
40
1
210
0
220
0
230
1
0
LWPOLYLINE
5
202
100
AcDbEntity
8
0
100
AcDbPolyline
90
10
70
1
43
0.0
10
-520.96776762799084
20
-737.33664944112184
42
-0.41421356237309509
10
-531.96776762799095
20
-726.33664944112184
10
-531.96776762799095
20
-706.43672944112177
10
-531.96776762799084
20
-654.32664144112186
42
-0.41421356237309509
10
-520.96776762799084
20
-643.32664144112186
10
-291.94887455961668
20
-643.32664144112186
10
-277.48667762799084
20
-643.32664144112186
42
-0.41421356237309687
10
-266.48667762799084
20
-654.32664144112186
10
-266.48667762799084
20
-726.33664944112184
42
-0.41421356237309687
10
-277.48667762799084
20
-737.33664944112184
0
CIRCLE
5
203
100
AcDbEntity
8
0
100
AcDbCircle
10
-361.10557431413997
20
-733.16664944112176
30
0
40
1
210
0
220
0
230
1
0
LWPOLYLINE
5
204
100
AcDbEntity
8
0
100
AcDbPolyline
90
16
70
1
43
0.0
10
-313.00576762799096
20
-710.37168850908427
42
-0.41421356237309509
10
-312.00576762799085
20
-709.37168850908415
10
-275.99567762799086
20
-709.37168850908415
42
0.41421356237313667
10
-274.9956776279908
20
-708.37168850908427
10
-274.9956776279908
20
-652.17064144112192
42
0.41421356237313667
10
-275.99567762799091
20
-651.17064144112192
10
-522.70576762799089
20
-651.17064144112192
42
0.41421356237313667
10
-523.70576762799089
20
-652.17064144112192
10
-523.70576762799089
20
-708.38202556550004
42
0.41421356237326157
10
-522.70576762799089
20
-709.38202556550004
10
-486.68264148378285
20
-709.38202556550004
42
-0.41421356237309509
10
-485.68264148378285
20
-710.38202556550004
10
-485.68264148378285
20
-727.45064944112198
42
0.41421356237326157
10
-484.68264148378285
20
-728.4506494411221
10
-314.00576762799096
20
-728.45064944112198
42
0.41421356237327195
10
-313.00576762799096
20
-727.45064944112198
0
LWPOLYLINE
5
205
100
AcDbEntity
8
0
100
AcDbPolyline
90
27
70
1
43
0.0
10
-524.38635234891558
20
-376.04671780553218
10
-506.06254662874608
20
-376.04671780553218
42
0.41421356237309509
10
-505.06254662874602
20
-375.04671780553224
10
-505.06254662874602
20
-357.4780939299103
42
-0.41421356237309509
10
-504.06254662874608
20
-356.47809392991036
10
-488.56322620470741
20
-356.4780939299103
42
-0.41421356237309509
10
-487.56322620470741
20
-357.4780939299103
10
-487.56322620470741
20
-374.94671780553222
42
0.41421356237309509
10
-486.56322620470746
20
-375.94671780553227
10
-315.56254662874608
20
-375.94671780553227
42
0.41421356237309509
10
-314.56254662874596
20
-374.94671780553205
10
-314.56254662874596
20
-357.9780939299103
42
-0.41421356237313667
10
-313.56254662874608
20
-356.97809392991019
10
-297.63321463338855
20
-356.97854437856876
42
-0.40544913423769585
10
-296.66322620470743
20
-357.9780939299103
10
-296.66322620470743
20
-375.04671780553224
42
0.4142135623730534
10
-295.66322620470743
20
-376.04671780553218
10
-277.49534056391616
20
-376.04671780553218
42
0.41421356237313667
10
-276.49534056391605
20
-375.04671780553224
10
-276.4953405639161
20
-356.46775687349447
10
-276.58626234891545
20
-356.46775687349447
10
-276.58626234891557
20
-299.69670980553201
42
0.41421356237326157
10
-277.58626234891551
20
-298.69670980553212
10
-524.38635234891558
20
-298.69670980553195
42
0.41421356237321988
10
-525.38635234891558
20
-299.69670980553201
10
-525.38635234891558
20
-356.47809392991019
10
-525.38635234891558
20
-375.04671780553224
42
0.41421356237313667
0
LWPOLYLINE
5
206
100
AcDbEntity
8
0
100
AcDbPolyline
90
10
70
1
43
0.0
10
-522.54835234891539
20
-290.82270980553204
10
-293.52945928054129
20
-290.82270980553204
10
-279.06726234891545
20
-290.82270980553204
42
-0.41421356237309687
10
-268.06726234891545
20
-301.82270980553199
10
-268.06726234891545
20
-373.83271780553201
42
-0.41421356237309687
10
-279.06726234891545
20
-384.83271780553196
10
-522.54835234891539
20
-384.83271780553207
42
-0.41421356237309509
10
-533.5483523489155
20
-373.83271780553201
10
-533.5483523489155
20
-353.932797805532
10
-533.54835234891539
20
-301.82270980553199
42
-0.41421356237309509
0
CIRCLE
5
207
100
AcDbEntity
8
0
100
AcDbCircle
10
-362.68615903506458
20
-294.99270980553206
30
0
40
1
210
0
220
0
230
1
0
CIRCLE
5
208
100
AcDbEntity
8
0
100
AcDbCircle
10
-286.68615903506452
20
-380.66271780553211
30
0
40
1
210
0
220
0
230
1
0
CIRCLE
5
209
100
AcDbEntity
8
0
100
AcDbCircle
10
-437.70557431413948
20
-733.16664944112176
30
0
40
1
210
0
220
0
230
1
0
CIRCLE
5
210
100
AcDbEntity
8
0
100
AcDbCircle
10
-286.68615903506452
20
-294.99270980553206
30
0
40
1
210
0
220
0
230
1
0
CIRCLE
5
211
100
AcDbEntity
8
0
100
AcDbCircle
10
-515.2861590350642
20
-380.66271780553211
30
0
40
1
210
0
220
0
230
1
0
CIRCLE
5
212
100
AcDbEntity
8
0
100
AcDbCircle
10
-513.70557431413954
20
-647.49664144112194
30
0
40
1
210
0
220
0
230
1
0
CIRCLE
5
213
100
AcDbEntity
8
0
100
AcDbCircle
10
-513.70557431413954
20
-733.16664944112176
30
0
40
1
210
0
220
0
230
1
0
CIRCLE
5
214
100
AcDbEntity
8
0
100
AcDbCircle
10
-362.68615903506458
20
-380.66271780553211
30
0
40
1
210
0
220
0
230
1
0
CIRCLE
5
215
100
AcDbEntity
8
0
100
AcDbCircle
10
-439.28615903506409
20
-380.66271780553211
30
0
40
1
210
0
220
0
230
1
0
CIRCLE
5
216
100
AcDbEntity
8
0
100
AcDbCircle
10
-285.10557431413991
20
-647.49664144112194
30
0
40
1
210
0
220
0
230
1
0
CIRCLE
5
217
100
AcDbEntity
8
0
100
AcDbCircle
10
-285.10557431413991
20
-733.16664944112176
30
0
40
1
210
0
220
0
230
1
0
CIRCLE
5
218
100
AcDbEntity
8
0
100
AcDbCircle
10
-439.28615903506409
20
-294.99270980553206
30
0
40
1
210
0
220
0
230
1
0
CIRCLE
5
219
100
AcDbEntity
8
0
100
AcDbCircle
10
-515.2861590350642
20
-294.99270980553206
30
0
40
1
210
0
220
0
230
1
0
CIRCLE
5
220
100
AcDbEntity
8
0
100
AcDbCircle
10
-437.70557431413948
20
-647.49664144112194
30
0
40
1
210
0
220
0
230
1
0
CIRCLE
5
221
100
AcDbEntity
8
0
100
AcDbCircle
10
-361.10557431413997
20
-647.49664144112194
30
0
40
1
210
0
220
0
230
1
0
LWPOLYLINE
5
222
100
AcDbEntity
8
0
100
AcDbPolyline
90
10
70
1
43
0.0
10
-277.48667762799084
20
-627.33664944112184
10
-520.96776762799084
20
-627.33664944112184
42
-0.41421356237309509
10
-531.96776762799095
20
-616.33664944112184
10
-531.96776762799095
20
-596.43672944112177
10
-531.96776762799084
20
-544.32664144112186
42
-0.41421356237309509
10
-520.96776762799084
20
-533.32664144112186
10
-291.94887455961668
20
-533.32664144112186
10
-277.48667762799084
20
-533.32664144112186
42
-0.41421356237309687
10
-266.48667762799084
20
-544.32664144112186
10
-266.48667762799084
20
-616.33664944112184
42
-0.41421356237309687
0
CIRCLE
5
223
100
AcDbEntity
8
0
100
AcDbCircle
10
-361.10557431413997
20
-623.16664944112176
30
0
40
1
210
0
220
0
230
1
0
LWPOLYLINE
5
224
100
AcDbEntity
8
0
100
AcDbPolyline
90
16
70
1
43
0.0
10
-523.70576762799101
20
-542.17064144112192
42
-0.41421356237313667
10
-522.70576762799089
20
-541.17064144112192
10
-275.99567762799091
20
-541.17064144112192
42
-0.41421356237313667
10
-274.9956776279908
20
-542.17064144112192
10
-274.9956776279908
20
-598.37168850908427
42
-0.41421356237313667
10
-275.99567762799086
20
-599.37168850908415
10
-312.00576762799085
20
-599.37168850908415
42
0.41421356237309509
10
-313.00576762799091
20
-600.37168850908427
10
-313.00576762799096
20
-617.45064944112198
42
-0.41421356237327195
10
-314.00576762799096
20
-618.45064944112198
10
-484.68264148378285
20
-618.45064944112198
42
-0.41421356237326157
10
-485.68264148378285
20
-617.45064944112198
10
-485.68264148378285
20
-600.38202556550004
42
0.41421356237309509
10
-486.68264148378285
20
-599.38202556550004
10
-522.70576762799089
20
-599.38202556550004
42
-0.41421356237326157
10
-523.70576762799089
20
-598.38202556550004
0
CIRCLE
5
225
100
AcDbEntity
8
0
100
AcDbCircle
10
-285.10557431413991
20
-623.16664944112176
30
0
40
1
210
0
220
0
230
1
0
CIRCLE
5
226
100
AcDbEntity
8
0
100
AcDbCircle
10
-361.10557431413997
20
-537.49664144112194
30
0
40
1
210
0
220
0
230
1
0
CIRCLE
5
227
100
AcDbEntity
8
0
100
AcDbCircle
10
-437.70557431413948
20
-537.49664144112194
30
0
40
1
210
0
220
0
230
1
0
CIRCLE
5
228
100
AcDbEntity
8
0
100
AcDbCircle
10
-285.10557431413991
20
-537.49664144112194
30
0
40
1
210
0
220
0
230
1
0
CIRCLE
5
229
100
AcDbEntity
8
0
100
AcDbCircle
10
-513.70557431413954
20
-623.16664944112176
30
0
40
1
210
0
220
0
230
1
0
CIRCLE
5
230
100
AcDbEntity
8
0
100
AcDbCircle
10
-513.70557431413954
20
-537.49664144112194
30
0
40
1
210
0
220
0
230
1
0
CIRCLE
5
231
100
AcDbEntity
8
0
100
AcDbCircle
10
-437.70557431413948
20
-623.16664944112176
30
0
40
1
210
0
220
0
230
1
0
CIRCLE
5
232
100
AcDbEntity
8
0
100
AcDbCircle
10
-362.68615903506458
20
-490.66271780553211
30
0
40
1
210
0
220
0
230
1
0
LWPOLYLINE
5
233
100
AcDbEntity
8
0
100
AcDbPolyline
90
27
70
1
43
0.0
10
-277.49534056391616
20
-486.04671780553218
10
-295.66322620470743
20
-486.04671780553213
42
-0.4142135623730534
10
-296.66322620470743
20
-485.04671780553224
10
-296.66322620470743
20
-467.9780939299103
42
0.40544913423769585
10
-297.63321463338855
20
-466.97854437856876
10
-313.56254662874608
20
-466.97809392991019
42
0.41421356237313667
10
-314.56254662874596
20
-467.9780939299103
10
-314.56254662874585
20
-484.94671780553205
42
-0.41421356237309509
10
-315.56254662874608
20
-485.94671780553227
10
-486.56322620470746
20
-485.9467178055321
42
-0.41421356237309509
10
-487.56322620470741
20
-484.94671780553222
10
-487.56322620470741
20
-467.4780939299103
42
0.41421356237309509
10
-488.56322620470741
20
-466.47809392991036
10
-504.06254662874608
20
-466.47809392991036
42
0.41421356237309509
10
-505.06254662874602
20
-467.4780939299103
10
-505.06254662874608
20
-485.04671780553224
42
-0.41421356237309509
10
-506.06254662874608
20
-486.04671780553218
10
-524.38635234891558
20
-486.04671780553213
42
-0.41421356237313667
10
-525.38635234891558
20
-485.04671780553224
10
-525.38635234891558
20
-466.47809392991019
10
-525.38635234891558
20
-409.69670980553201
42
-0.41421356237321988
10
-524.38635234891558
20
-408.69670980553195
10
-277.58626234891551
20
-408.69670980553212
42
-0.41421356237326157
10
-276.58626234891557
20
-409.69670980553201
10
-276.58626234891545
20
-466.46775687349447
10
-276.4953405639161
20
-466.46775687349447
10
-276.49534056391605
20
-485.04671780553224
42
-0.41421356237313667
0
LWPOLYLINE
5
234
100
AcDbEntity
8
0
100
AcDbPolyline
90
10
70
1
43
0.0
10
-533.5483523489155
20
-483.83271780553201
10
-533.5483523489155
20
-463.932797805532
10
-533.54835234891539
20
-411.82270980553199
42
-0.41421356237309509
10
-522.54835234891539
20
-400.82270980553204
10
-293.52945928054129
20
-400.82270980553204
10
-279.06726234891545
20
-400.82270980553204
42
-0.41421356237309687
10
-268.06726234891545
20
-411.82270980553199
10
-268.06726234891545
20
-483.83271780553201
42
-0.41421356237309687
10
-279.06726234891545
20
-494.83271780553196
10
-522.54835234891539
20
-494.83271780553207
42
-0.41421356237309509
0
CIRCLE
5
235
100
AcDbEntity
8
0
100
AcDbCircle
10
-286.68615903506452
20
-490.66271780553211
30
0
40
1
210
0
220
0
230
1
0
CIRCLE
5
236
100
AcDbEntity
8
0
100
AcDbCircle
10
-362.68615903506458
20
-404.99270980553206
30
0
40
1
210
0
220
0
230
1
0
CIRCLE
5
237
100
AcDbEntity
8
0
100
AcDbCircle
10
-439.28615903506409
20
-490.66271780553211
30
0
40
1
210
0
220
0
230
1
0
CIRCLE
5
238
100
AcDbEntity
8
0
100
AcDbCircle
10
-515.2861590350642
20
-404.99270980553206
30
0
40
1
210
0
220
0
230
1
0
CIRCLE
5
239
100
AcDbEntity
8
0
100
AcDbCircle
10
-439.28615903506409
20
-404.99270980553206
30
0
40
1
210
0
220
0
230
1
0
CIRCLE
5
240
100
AcDbEntity
8
0
100
AcDbCircle
10
-515.2861590350642
20
-490.66271780553211
30
0
40
1
210
0
220
0
230
1
0
CIRCLE
5
241
100
AcDbEntity
8
0
100
AcDbCircle
10
-286.68615903506452
20
-404.99270980553206
30
0
40
1
210
0
220
0
230
1
0
ENDSEC
0
SECTION
2
OBJECTS
0
DICTIONARY
5
C
100
AcDbDictionary
3
ACAD_GROUP
350
D
3
ACAD_MLINESTYLE
350
17
0
DICTIONARY
5
D
100
AcDbDictionary
0
DICTIONARY
5
1A
330
C
100
AcDbDictionary
0
DICTIONARY
5
17
100
AcDbDictionary
0
ENDSEC
0
EOF
