0
SECTION
2
HEADER
9
$INSUNITS
70
4
9
$ACADVER
1
AC1014
9
$HANDSEED
5
FFFF
0
ENDSEC
0
SECTION
2
TABLES
0
TABLE
2
VPORT
5
8
100
AcDbSymbolTable
0
ENDTAB
0
TABLE
2
LTYPE
5
5
100
AcDbSymbolTable
0
LTYPE
5
14
100
AcDbSymbolTableRecord
100
AcDbLinetypeTableRecord
2
BYBLOCK
70
0
0
LTYPE
5
15
100
AcDbSymbolTableRecord
100
AcDbLinetypeTableRecord
2
BYLAYER
70
0
0
ENDTAB
0
TABLE
2
LAYER
5
2
100
AcDbSymbolTable
70
2
0
LAYER
5
50
100
AcDbSymbolTableRecord
100
AcDbLayerTableRecord
2
0
70
0
6
CONTINUOUS
0
ENDTAB
0
TABLE
2
STYLE
5
3
100
AcDbSymbolTable
70
1
0
STYLE
5
11
100
AcDbSymbolTableRecord
100
AcDbTextStyleTableRecord
2
STANDARD
70
0
0
ENDTAB
0
TABLE
2
VIEW
5
6
100
AcDbSymbolTable
70
0
0
ENDTAB
0
TABLE
2
UCS
5
7
100
AcDbSymbolTable
70
0
0
ENDTAB
0
TABLE
2
APPID
5
9
100
AcDbSymbolTable
70
2
0
APPID
5
12
100
AcDbSymbolTableRecord
100
AcDbRegAppTableRecord
2
ACAD
70
0
0
ENDTAB
0
TABLE
2
DIMSTYLE
5
A
100
AcDbSymbolTable
70
1
0
ENDTAB
0
TABLE
2
BLOCK_RECORD
5
1
100
AcDbSymbolTable
70
1
0
BLOCK_RECORD
5
1F
100
AcDbSymbolTableRecord
100
AcDbBlockTableRecord
2
*MODEL_SPACE
0
BLOCK_RECORD
5
1B
100
AcDbSymbolTableRecord
100
AcDbBlockTableRecord
2
*PAPER_SPACE
0
ENDTAB
0
ENDSEC
0
SECTION
2
BLOCKS
0
BLOCK
5
20
100
AcDbEntity
100
AcDbBlockBegin
2
*MODEL_SPACE
0
ENDBLK
5
21
100
AcDbEntity
100
AcDbBlockEnd
0
BLOCK
5
1C
100
AcDbEntity
100
AcDbBlockBegin
2
*PAPER_SPACE
0
ENDBLK
5
1D
100
AcDbEntity
100
AcDbBlockEnd
0
ENDSEC
0
SECTION
2
ENTITIES
0
LWPOLYLINE
5
100
100
AcDbEntity
8
0
100
AcDbPolyline
90
72
70
1
43
0.0
10
292.29677390537262
20
-75.984613667519184
42
-0.41418773755491128
10
288.29677392092134
20
-71.984966356516864
10
288.29405076092013
20
-41.100419250219105
42
0.41941993468678623
10
287.94410585125343
20
-40.744209564367964
10
286.44410585125348
20
-40.744209564367893
42
-0.41421356237309509
10
284.79410585125356
20
-39.094209564367972
10
284.79410585125351
20
-31.094209564368001
42
-0.41421356237309509
10
286.44410585125348
20
-29.444209564368009
10
287.94410585125354
20
-29.444209564368009
42
0.3001357760512614
10
288.26586461066285
20
-29.23194590940227
10
288.29510479215804
20
1.3377538853755053
42
-0.41393343530991111
10
292.29510296234179
20
5.3339278526286193
10
323.16645226453096
20
5.3339278526286193
42
0.36543243814463566
10
323.45745552716107
20
5.6789197148220438
10
323.45745552716119
20
7.1789197148221007
42
-0.41421356237309509
10
325.10745552716116
20
8.8289197148220921
10
333.10745552716116
20
8.8289197148220921
42
-0.41421356237309509
10
334.75745552716114
20
7.1789197148221007
10
334.75745552716114
20
5.677261943277685
42
0.36543491938527783
10
335.04846181044201
20
5.3322695645392315
10
408.7004189287195
20
5.3322695645392315
42
0.36546797383135976
10
408.99146588984189
20
5.6772684528382911
10
408.99146779220393
20
7.17726845283714
42
-0.41421356237309509
10
410.64146988480104
20
8.8272663602374735
10
418.64146988479462
20
8.8272562143061606
42
-0.41421356237309509
10
420.29146779219491
20
7.1772541217091401
10
420.29146588983281
20
5.6772541217103623
42
0.36539603922205155
10
420.58242440302479
20
5.3322694711792451
10
495.70044165717457
20
5.3322694711793872
42
0.36549990372431601
10
495.99152743899742
20
5.6772750421225737
10
495.99152912166994
20
7.1772750421216358
42
-0.41421356237308243
10
497.64153097260862
20
8.8272731911808933
10
505.6415309726035
20
8.8272642169279436
42
-0.41421356237310769
10
507.29152912166285
20
7.1772623659892076
10
507.29152743899033
20
5.6772623659901456
42
0.36543578043100389
10
507.58253438349783
20
5.3322694815589244
10
537.07577306722976
20
5.3322769559628247
42
-0.41421363660035077
10
541.07577408094062
20
1.3322769559628966
10
541.07577408094062
20
-29.128341335357248
42
0.3858862277114648
10
541.42410585125322
20
-29.444209564368009
10
542.92410585125322
20
-29.444209564368009
42
-0.41421356237309509
10
544.57410585125319
20
-31.094209564368001
10
544.57410585125319
20
-39.094209564367972
42
-0.41421356237309509
10
542.92410585125322
20
-40.744209564367964
10
541.42410585125322
20
-40.744209564367964
42
0.38588622771134307
10
541.07577408094062
20
-41.060077793378511
10
541.07577408094062
20
-71.984613667519142
42
-0.41421356237309509
10
537.07577408094062
20
-75.984613667519127
10
494.10745552716094
20
-75.984613667519127
42
0.41421356237309509
10
493.75745552716097
20
-76.334613667519093
10
493.75745552716097
20
-77.834613667519079
42
-0.41421356237309509
10
492.10745552716099
20
-79.484613667519071
10
484.10745552716094
20
-79.484613667519142
42
-0.41421356237309509
10
482.45745552716096
20
-77.83461366751915
10
482.45745552716096
20
-76.334613667519093
42
0.41421356237309509
10
482.10745552716099
20
-75.984613667519127
10
420.60745552716105
20
-75.984613667519199
42
0.41421356237309509
10
420.25745552716108
20
-76.334613667519235
10
420.25745552716103
20
-77.834613667519221
42
-0.41421356237309509
10
418.60745552716105
20
-79.484613667519213
10
410.60745552716105
20
-79.484613667519213
42
-0.41421356237309509
10
408.95745552716107
20
-77.834613667519221
10
408.95745552716107
20
-76.334613667519235
42
0.41421356237309509
10
408.60745552716111
20
-75.984613667519199
10
335.10745552716116
20
-75.98461366751927
42
0.41421356237309509
10
334.7574555271612
20
-76.334613667519235
10
334.7574555271612
20
-77.834613667519221
42
-0.41421356237309509
10
333.10745552716116
20
-79.484613667519284
10
325.10745552716116
20
-79.484613667519355
42
-0.41421356237309509
10
323.45745552716107
20
-77.834613667519292
10
323.45745552716107
20
-76.334613667519235
42
0.41421356237309509
10
323.10745552716116
20
-75.98461366751927
0
LWPOLYLINE
5
101
100
AcDbEntity
8
0
100
AcDbPolyline
90
24
70
1
43
0.0
10
283.68158240422036
20
-112.10861981065484
42
-0.41421356237309687
10
294.68158240422036
20
-101.1086198106549
10
538.1626724042203
20
-101.10861981065483
42
-0.41421356237309315
10
549.1626724042203
20
-112.10861981065491
10
549.16267240422019
20
-132.00853981065492
10
549.16267240422019
20
-184.11862781065503
42
-0.41421356237309509
10
538.16267240422019
20
-195.11862781065497
10
523.42580845409157
20
-195.11862781065489
42
-0.41421356237309509
10
521.42580845409168
20
-193.11862781065491
10
521.42580845409168
20
-187.75855689694959
10
537.81267240422028
20
-187.75855689694959
42
0.41421356237309509
10
541.81267240422028
20
-183.75855689694964
10
541.81267240422028
20
-112.44854889694956
42
0.41421356237309509
10
537.81267240422028
20
-108.44854889694957
10
295.03158240422044
20
-108.4485488969495
42
0.4142135623730977
10
291.03158240422044
20
-112.44854889694949
10
291.03158240422044
20
-183.75855689694953
42
0.4142135623730977
10
295.03158240422044
20
-187.75855689694959
10
502.41440977216718
20
-187.75855689694959
10
502.41440977216723
20
-193.11862781065491
42
-0.41421356237309509
10
500.41440977216723
20
-195.11862781065497
10
309.1437793358462
20
-195.11862781065497
10
294.68158240422036
20
-195.11862781065497
42
-0.41421356237309687
10
283.68158240422036
20
-184.11862781065503
0
LWPOLYLINE
5
102
100
AcDbEntity
8
0
100
AcDbPolyline
90
10
70
1
43
0.0
10
292.94468408094093
20
-82.32608028517781
42
-0.41421356237309881
10
281.94468408094093
20
-71.326080285177795
10
281.94468408094099
20
0.68392771482208992
42
-0.41421356237309881
10
292.94468408094087
20
11.683927714822033
10
536.42577408094053
20
11.683927714822175
42
-0.41421356237309687
10
547.42577408094053
20
0.68392771482223225
10
547.42577408094053
20
-19.215992285177776
10
547.42577408094053
20
-71.326080285177653
42
-0.41421356237309687
10
536.42577408094053
20
-82.326080285177667
10
307.40688101256671
20
-82.326080285177881
0
CIRCLE
5
103
100
AcDbEntity
8
0
100
AcDbCircle
10
300.56358076708995
20
7.5139277148221595
30
0
40
1.5000000000000036
210
0
220
0
230
1
0
CIRCLE
5
104
100
AcDbEntity
8
0
100
AcDbCircle
10
302.30047909036944
20
-105.27861981065485
30
0
40
1.5000000000000036
210
0
220
0
230
1
0
CIRCLE
5
105
100
AcDbEntity
8
0
100
AcDbCircle
10
376.56358076708983
20
7.5139277148220884
30
0
40
1.5000000000000036
210
0
220
0
230
1
0
CIRCLE
5
106
100
AcDbEntity
8
0
100
AcDbCircle
10
376.56358076708989
20
-78.156080285177794
30
0
40
1.5000000000000036
210
0
220
0
230
1
0
CIRCLE
5
107
100
AcDbEntity
8
0
100
AcDbCircle
10
300.56358076709
20
-78.156080285177794
30
0
40
1.5000000000000036
210
0
220
0
230
1
0
CIRCLE
5
108
100
AcDbEntity
8
0
100
AcDbCircle
10
378.30047909036944
20
-105.27861981065492
30
0
40
1.5000000000000036
210
0
220
0
230
1
0
LWPOLYLINE
5
109
100
AcDbEntity
8
0
100
AcDbPolyline
90
10
70
1
43
0.0
10
537.41013429528243
20
-634.56794061815197
10
308.39124122690873
20
-634.56794061815208
10
293.92904429528295
20
-634.56794061815208
42
-0.41421356237309598
10
282.92904429528301
20
-623.56794061815219
10
282.92904429528306
20
-551.55793261815222
42
-0.4142135623731007
10
293.92904429528295
20
-540.55793261815234
10
537.41013429528243
20
-540.55793261815211
42
-0.41421356237309509
10
548.41013429528243
20
-551.55793261815211
10
548.41013429528232
20
-571.45785261815217
10
548.41013429528232
20
-623.56794061815197
42
-0.41421356237309509
0
LWPOLYLINE
5
110
100
AcDbEntity
8
0
100
AcDbPolyline
90
24
70
1
43
0.0
10
502.41440977216718
20
-297.75855689694959
10
295.03158240422039
20
-297.75855689694953
42
-0.41421356237309509
10
291.03158240422039
20
-293.75855689694953
10
291.0315824042205
20
-222.44854889694955
42
-0.41421356237309509
10
295.03158240422044
20
-218.44854889694966
10
537.81267240422028
20
-218.44854889694957
42
-0.41421356237309509
10
541.81267240422028
20
-222.44854889694955
10
541.81267240422017
20
-293.75855689694964
42
-0.41421356237309509
10
537.81267240422028
20
-297.75855689694959
10
521.42580845409168
20
-297.75855689694959
10
521.42580845409168
20
-303.11862781065491
42
0.41421356237309509
10
523.42580845409157
20
-305.11862781065497
10
538.16267240422019
20
-305.11862781065497
42
0.41421356237309509
10
549.16267240422019
20
-294.11862781065503
10
549.16267240422019
20
-242.00853981065501
10
549.16267240422019
20
-222.108619810655
42
0.41421356237309509
10
538.16267240422019
20
-211.10861981065506
10
294.68158240422036
20
-211.10861981065506
42
0.41421356237309687
10
283.68158240422036
20
-222.108619810655
10
283.68158240422031
20
-294.11862781065503
42
0.41421356237309687
10
294.68158240422036
20
-305.11862781065497
10
309.14377933584615
20
-305.11862781065497
10
500.41440977216723
20
-305.11862781065497
42
0.41421356237309509
10
502.41440977216718
20
-303.11862781065491
0
LWPOLYLINE
5
111
100
AcDbEntity
8
0
100
AcDbPolyline
90
20
70
1
43
0.0
10
497.88720591273909
20
-520.80976466198354
10
306.61657547641937
20
-520.80976466198354
10
292.15437854479364
20
-520.80976466198354
42
-0.41421356237309687
10
281.15437854479364
20
-509.80976466198365
10
281.15437854479381
20
-437.7997566619843
42
-0.4142135623731007
10
292.1543785447937
20
-426.79975666198436
10
535.63546854479193
20
-426.79975666198459
42
-0.41421356237309509
10
546.63546854479182
20
-437.79975666198447
10
546.63546854479182
20
-457.69967666198431
10
546.63546854479182
20
-509.80976466198376
42
-0.41421356237309687
10
535.63546854479182
20
-520.80976466198376
10
520.89860459466331
20
-520.80976466198365
42
-0.41421356237309509
10
518.89860459466331
20
-518.80976466198365
10
518.89860459466331
20
-513.44969374827838
10
518.89860459466342
20
-478.3418540396749
42
0.41421356237309509
10
517.89860459466342
20
-477.34185403967479
10
500.88720591273903
20
-477.34185403967479
42
0.41421356237309509
10
499.88720591273903
20
-478.3418540396749
10
499.88720591273898
20
-513.44969374827838
10
499.88720591273898
20
-518.80976466198365
42
-0.41421356237309509
0
LWPOLYLINE
5
112
100
AcDbEntity
8
0
100
AcDbPolyline
90
20
70
1
43
0.0
10
292.1543785447937
20
-316.79975666198436
10
535.63546854479205
20
-316.79975666198465
42
-0.41421356237309509
10
546.63546854479182
20
-327.79975666198447
10
546.63546854479182
20
-347.69967666198431
10
546.63546854479171
20
-399.80976466198393
42
-0.41421356237309687
10
535.63546854479182
20
-410.80976466198371
10
520.89860459466331
20
-410.80976466198376
42
-0.41421356237309509
10
518.89860459466331
20
-408.80976466198382
10
518.89860459466331
20
-403.44969374827849
10
518.89860459466342
20
-368.34185403967501
42
0.41421356237309509
10
517.89860459466342
20
-367.34185403967496
10
500.88720591273903
20
-367.34185403967496
42
0.41421356237309509
10
499.88720591273903
20
-368.3418540396749
10
499.88720591273898
20
-403.44969374827849
10
499.88720591273898
20
-408.80976466198382
42
-0.41421356237309509
10
497.88720591273909
20
-410.80976466198371
10
306.61657547641943
20
-410.80976466198371
10
292.15437854479364
20
-410.80976466198365
42
-0.41421356237309687
10
281.1543785447937
20
-399.80976466198376
10
281.15437854479387
20
-327.7997566619843
42
-0.4142135623731007
0
LWPOLYLINE
5
113
100
AcDbEntity
8
0
100
AcDbPolyline
90
8
70
1
43
0.0
10
293.93481928338565
20
238.56393757185759
10
540.73490928338538
20
238.56393757185771
42
-0.41421356237313667
10
541.73490928338549
20
237.56393757185776
10
541.73490928338549
20
162.2139295718577
42
-0.41421356237313667
10
540.73490928338538
20
161.21392957185776
10
293.93481928338571
20
161.21392957185782
42
-0.41421356237312629
10
292.93481928338565
20
162.21392957185776
10
292.93481928338576
20
237.56393757185765
42
-0.41421356237325113
0
LWPOLYLINE
5
114
100
AcDbEntity
8
0
100
AcDbPolyline
90
10
70
1
43
0.0
10
289.69212087924762
20
131.92201975507965
10
533.17321087924756
20
131.9220197550797
42
-0.41421356237309509
10
544.17321087924756
20
120.92201975507969
10
544.17321087924756
20
101.02209975507975
10
544.17321087924756
20
48.912011755079732
42
-0.41421356237309687
10
533.17321087924756
20
37.912011755079718
10
304.15431781087352
20
37.912011755079718
10
289.69212087924768
20
37.912011755079753
42
-0.41421356237309687
10
278.69212087924774
20
48.912011755079661
10
278.69212087924762
20
120.92201975507969
42
-0.41421356237309687
0
LWPOLYLINE
5
115
100
AcDbEntity
8
0
100
AcDbPolyline
90
10
70
1
43
0.0
10
295.4158192833857
20
153.33992957185782
42
-0.41421356237309687
10
284.4158192833857
20
164.33992957185774
10
284.4158192833857
20
236.34993757185757
42
-0.41421356237309687
10
295.4158192833857
20
247.34993757185751
10
538.89690928338541
20
247.34993757185762
42
-0.41421356237309509
10
549.8969092833853
20
236.34993757185768
10
549.8969092833853
20
216.45001757185767
10
549.8969092833853
20
164.33992957185779
42
-0.41421356237309881
10
538.89690928338541
20
153.33992957185771
10
309.87801621501154
20
153.33992957185771
0
CIRCLE
5
116
100
AcDbEntity
8
0
100
AcDbCircle
10
379.03471596953466
20
157.50992957185773
30
0
40
1
210
0
220
0
230
1
0
LWPOLYLINE
5
117
100
AcDbEntity
8
0
100
AcDbPolyline
90
8
70
1
43
0.0
10
288.21112087924763
20
123.13601975507979
10
535.01121087924753
20
123.13601975507979
42
-0.41421356237313667
10
536.01121087924764
20
122.13601975507977
10
536.01121087924764
20
46.786011755079713
42
-0.41421356237309509
10
535.01121087924764
20
45.786011755079699
10
288.21112087924769
20
45.78601175507977
42
-0.41421356237313667
10
287.21112087924769
20
46.786011755079784
10
287.21112087924757
20
122.13601975507977
42
-0.41421356237310542
0
CIRCLE
5
118
100
AcDbEntity
8
0
100
AcDbCircle
10
297.3110175653967
20
127.75201975507976
30
0
40
1
210
0
220
0
230
1
0
CIRCLE
5
119
100
AcDbEntity
8
0
100
AcDbCircle
10
379.03471596953466
20
243.17993757185764
30
0
40
1
210
0
220
0
230
1
0
CIRCLE
5
120
100
AcDbEntity
8
0
100
AcDbCircle
10
453.16358076708929
20
7.5139277148222305
30
0
40
1.5000000000000036
210
0
220
0
230
1
0
CIRCLE
5
121
100
AcDbEntity
8
0
100
AcDbCircle
10
529.16358076708923
20
7.5139277148222305
30
0
40
1.5000000000000036
210
0
220
0
230
1
0
CIRCLE
5
122
100
AcDbEntity
8
0
100
AcDbCircle
10
373.31101756539675
20
127.75201975507969
30
0
40
1
210
0
220
0
230
1
0
CIRCLE
5
123
100
AcDbEntity
8
0
100
AcDbCircle
10
378.30047909036944
20
-215.2786198106549
30
0
40
1.5000000000000036
210
0
220
0
230
1
0
CIRCLE
5
124
100
AcDbEntity
8
0
100
AcDbCircle
10
452.37327523094109
20
-406.63976466198369
30
0
40
1.5000000000000036
210
0
220
0
230
1
0
CIRCLE
5
125
100
AcDbEntity
8
0
100
AcDbCircle
10
299.77327523094277
20
-320.96975666198426
30
0
40
1.5000000000000036
210
0
220
0
230
1
0
CIRCLE
5
126
100
AcDbEntity
8
0
100
AcDbCircle
10
528.37327523094064
20
-320.96975666198438
30
0
40
1.5000000000000036
210
0
220
0
230
1
0
CIRCLE
5
127
100
AcDbEntity
8
0
100
AcDbCircle
10
302.30047909036944
20
-190.94862781065495
30
0
40
1.5000000000000036
210
0
220
0
230
1
0
CIRCLE
5
128
100
AcDbEntity
8
0
100
AcDbCircle
10
530.90047909036889
20
-300.94862781065495
30
0
40
1.5000000000000036
210
0
220
0
230
1
0
CIRCLE
5
129
100
AcDbEntity
8
0
100
AcDbCircle
10
378.30047909036932
20
-300.94862781065495
30
0
40
1.5000000000000036
210
0
220
0
230
1
0
CIRCLE
5
130
100
AcDbEntity
8
0
100
AcDbCircle
10
373.31101756539681
20
42.082011755079662
30
0
40
1
210
0
220
0
230
1
0
CIRCLE
5
131
100
AcDbEntity
8
0
100
AcDbCircle
10
528.37327523094041
20
-406.63976466198386
30
0
40
1.5000000000000036
210
0
220
0
230
1
0
CIRCLE
5
132
100
AcDbEntity
8
0
100
AcDbCircle
10
302.30047909036944
20
-215.2786198106549
30
0
40
1.5000000000000036
210
0
220
0
230
1
0
CIRCLE
5
133
100
AcDbEntity
8
0
100
AcDbCircle
10
377.54794098143179
20
-630.39794061815212
30
0
40
1
210
0
220
0
230
1
0
CIRCLE
5
134
100
AcDbEntity
8
0
100
AcDbCircle
10
375.77327523094209
20
-320.96975666198426
30
0
40
1.5000000000000036
210
0
220
0
230
1
0
CIRCLE
5
135
100
AcDbEntity
8
0
100
AcDbCircle
10
375.77327523094203
20
-430.96975666198438
30
0
40
1.5000000000000036
210
0
220
0
230
1
0
CIRCLE
5
136
100
AcDbEntity
8
0
100
AcDbCircle
10
299.77327523094272
20
-430.96975666198438
30
0
40
1.5000000000000036
210
0
220
0
230
1
0
CIRCLE
5
137
100
AcDbEntity
8
0
100
AcDbCircle
10
378.30047909036944
20
-190.94862781065495
30
0
40
1.5000000000000036
210
0
220
0
230
1
0
CIRCLE
5
138
100
AcDbEntity
8
0
100
AcDbCircle
10
301.54794098143208
20
-630.39794061815212
30
0
40
1
210
0
220
0
230
1
0
CIRCLE
5
139
100
AcDbEntity
8
0
100
AcDbCircle
10
377.54794098143179
20
-544.72793261815218
30
0
40
1
210
0
220
0
230
1
0
CIRCLE
5
140
100
AcDbEntity
8
0
100
AcDbCircle
10
530.90047909036889
20
-105.27861981065492
30
0
40
1.5000000000000036
210
0
220
0
230
1
0
CIRCLE
5
141
100
AcDbEntity
8
0
100
AcDbCircle
10
303.03471596953472
20
243.17993757185764
30
0
40
1
210
0
220
0
230
1
0
CIRCLE
5
142
100
AcDbEntity
8
0
100
AcDbCircle
10
302.30047909036944
20
-300.94862781065495
30
0
40
1.5000000000000036
210
0
220
0
230
1
0
CIRCLE
5
143
100
AcDbEntity
8
0
100
AcDbCircle
10
299.77327523094266
20
-516.63976466198358
30
0
40
1.5000000000000036
210
0
220
0
230
1
0
CIRCLE
5
144
100
AcDbEntity
8
0
100
AcDbCircle
10
375.77327523094198
20
-516.63976466198358
30
0
40
1.5000000000000036
210
0
220
0
230
1
0
CIRCLE
5
145
100
AcDbEntity
8
0
100
AcDbCircle
10
299.77327523094266
20
-406.63976466198369
30
0
40
1.5000000000000036
210
0
220
0
230
1
0
CIRCLE
5
146
100
AcDbEntity
8
0
100
AcDbCircle
10
454.90047909036895
20
-105.27861981065492
30
0
40
1.5000000000000036
210
0
220
0
230
1
0
CIRCLE
5
147
100
AcDbEntity
8
0
100
AcDbCircle
10
375.77327523094198
20
-406.63976466198369
30
0
40
1.5000000000000036
210
0
220
0
230
1
0
CIRCLE
5
148
100
AcDbEntity
8
0
100
AcDbCircle
10
452.3732752309412
20
-320.96975666198438
30
0
40
1.5000000000000036
210
0
220
0
230
1
0
CIRCLE
5
149
100
AcDbEntity
8
0
100
AcDbCircle
10
454.90047909036889
20
-300.94862781065495
30
0
40
1.5000000000000036
210
0
220
0
230
1
0
CIRCLE
5
150
100
AcDbEntity
8
0
100
AcDbCircle
10
454.90047909036895
20
-215.2786198106549
30
0
40
1.5000000000000036
210
0
220
0
230
1
0
CIRCLE
5
151
100
AcDbEntity
8
0
100
AcDbCircle
10
301.54794098143202
20
-544.72793261815218
30
0
40
1
210
0
220
0
230
1
0
CIRCLE
5
152
100
AcDbEntity
8
0
100
AcDbCircle
10
529.16358076708934
20
-78.156080285177651
30
0
40
1.5000000000000036
210
0
220
0
230
1
0
CIRCLE
5
153
100
AcDbEntity
8
0
100
AcDbCircle
10
453.16358076708934
20
-78.156080285177723
30
0
40
1.5000000000000036
210
0
220
0
230
1
0
CIRCLE
5
154
100
AcDbEntity
8
0
100
AcDbCircle
10
528.37327523094052
20
-430.96975666198438
30
0
40
1.5000000000000036
210
0
220
0
230
1
0
CIRCLE
5
155
100
AcDbEntity
8
0
100
AcDbCircle
10
530.14794098143102
20
-544.72793261815207
30
0
40
1
210
0
220
0
230
1
0
CIRCLE
5
156
100
AcDbEntity
8
0
100
AcDbCircle
10
297.31101756539675
20
42.082011755079733
30
0
40
1
210
0
220
0
230
1
0
CIRCLE
5
157
100
AcDbEntity
8
0
100
AcDbCircle
10
303.03471596953477
20
157.50992957185781
30
0
40
1
210
0
220
0
230
1
0
CIRCLE
5
158
100
AcDbEntity
8
0
100
AcDbCircle
10
454.90047909036895
20
-190.94862781065495
30
0
40
1.5000000000000036
210
0
220
0
230
1
0
CIRCLE
5
159
100
AcDbEntity
8
0
100
AcDbCircle
10
452.37327523094109
20
-516.63976466198369
30
0
40
1.5000000000000036
210
0
220
0
230
1
0
CIRCLE
5
160
100
AcDbEntity
8
0
100
AcDbCircle
10
530.90047909036889
20
-215.2786198106549
30
0
40
1.5000000000000036
210
0
220
0
230
1
0
CIRCLE
5
161
100
AcDbEntity
8
0
100
AcDbCircle
10
531.634715969534
20
157.50992957185773
30
0
40
1
210
0
220
0
230
1
0
CIRCLE
5
162
100
AcDbEntity
8
0
100
AcDbCircle
10
455.63471596953411
20
243.17993757185761
30
0
40
1
210
0
220
0
230
1
0
CIRCLE
5
163
100
AcDbEntity
8
0
100
AcDbCircle
10
452.37327523094115
20
-430.96975666198438
30
0
40
1.5000000000000036
210
0
220
0
230
1
0
LINE
5
164
100
AcDbEntity
8
0
100
AcDbLine
10
537.50996029528233
20
-628.56794061815197
30
0
11
537.67632237070143
21
-628.56794061815197
31
0
0
CIRCLE
5
165
100
AcDbEntity
8
0
100
AcDbCircle
10
530.90047909036889
20
-190.94862781065495
30
0
40
1.5000000000000036
210
0
220
0
230
1
0
CIRCLE
5
166
100
AcDbEntity
8
0
100
AcDbCircle
10
525.91101756539626
20
42.082011755079733
30
0
40
1
210
0
220
0
230
1
0
CIRCLE
5
167
100
AcDbEntity
8
0
100
AcDbCircle
10
525.91101756539626
20
127.75201975507976
30
0
40
1
210
0
220
0
230
1
0
CIRCLE
5
168
100
AcDbEntity
8
0
100
AcDbCircle
10
530.14794098143102
20
-630.39794061815189
30
0
40
1
210
0
220
0
230
1
0
CIRCLE
5
169
100
AcDbEntity
8
0
100
AcDbCircle
10
455.63471596953411
20
157.50992957185773
30
0
40
1
210
0
220
0
230
1
0
CIRCLE
5
170
100
AcDbEntity
8
0
100
AcDbCircle
10
528.37327523094041
20
-516.63976466198369
30
0
40
1.5000000000000036
210
0
220
0
230
1
0
CIRCLE
5
171
100
AcDbEntity
8
0
100
AcDbCircle
10
454.14794098143119
20
-544.72793261815218
30
0
40
1
210
0
220
0
230
1
0
CIRCLE
5
172
100
AcDbEntity
8
0
100
AcDbCircle
10
531.634715969534
20
243.17993757185761
30
0
40
1
210
0
220
0
230
1
0
CIRCLE
5
173
100
AcDbEntity
8
0
100
AcDbCircle
10
454.14794098143119
20
-630.39794061815189
30
0
40
1
210
0
220
0
230
1
0
CIRCLE
5
174
100
AcDbEntity
8
0
100
AcDbCircle
10
449.91101756539626
20
127.75201975507969
30
0
40
1
210
0
220
0
230
1
0
CIRCLE
5
175
100
AcDbEntity
8
0
100
AcDbCircle
10
449.91101756539626
20
42.082011755079733
30
0
40
1
210
0
220
0
230
1
0
LWPOLYLINE
5
176
100
AcDbEntity
8
0
100
AcDbPolyline
90
10
70
1
43
0.0
10
9.5516700922259155
20
-220.31446729571059
10
26.638534042354465
20
-220.31446729571059
10
44.249932724278942
20
-220.31446729571059
10
252.33276009222536
20
-220.31446729571059
42
-0.41421356237309509
10
256.33276009222533
20
-224.31446729571059
10
256.33276009222539
20
-295.6244752957104
42
-0.41421356237309243
10
252.33276009222544
20
-299.62447529571034
10
9.5516700922259403
20
-299.62447529571045
42
-0.4142135623730967
10
5.5516700922259421
20
-295.62447529571045
10
5.551670092225911
20
-224.31446729571059
42
-0.41421356237309637
0
LWPOLYLINE
5
177
100
AcDbEntity
8
0
100
AcDbPolyline
90
10
70
1
43
0.0
10
252.68276009222541
20
-212.9543963820052
42
-0.41421356237309881
10
263.68276009222541
20
-223.9543963820052
10
263.68276009222546
20
-295.964404382005
42
-0.41421356237309687
10
252.68276009222544
20
-306.964404382005
10
9.2016700922259496
20
-306.96440438200506
42
-0.41421356237309565
10
-1.7983299077740522
20
-295.96440438200511
10
-1.7983299077740389
20
-276.06448438200511
10
-1.7983299077740211
20
-223.9543963820052
42
-0.41421356237309492
10
9.2016700922259176
20
-212.95439638200526
10
238.2205631605996
20
-212.9543963820052
0
CIRCLE
5
178
100
AcDbEntity
8
0
100
AcDbCircle
10
16.463863406077248
20
-217.12439638200527
30
0
40
1.5000000000000036
210
0
220
0
230
1
0
CIRCLE
5
179
100
AcDbEntity
8
0
100
AcDbCircle
10
245.06386340607636
20
-302.79440438200504
30
0
40
1.5000000000000036
210
0
220
0
230
1
0
CIRCLE
5
180
100
AcDbEntity
8
0
100
AcDbCircle
10
92.46386340607711
20
-217.12439638200522
30
0
40
1.5000000000000036
210
0
220
0
230
1
0
CIRCLE
5
181
100
AcDbEntity
8
0
100
AcDbCircle
10
169.06386340607651
20
-217.12439638200522
30
0
40
1.5000000000000036
210
0
220
0
230
1
0
CIRCLE
5
182
100
AcDbEntity
8
0
100
AcDbCircle
10
92.463863406077138
20
-302.7944043820051
30
0
40
1.5000000000000036
210
0
220
0
230
1
0
CIRCLE
5
183
100
AcDbEntity
8
0
100
AcDbCircle
10
245.06386340607634
20
-217.12439638200522
30
0
40
1.5000000000000036
210
0
220
0
230
1
0
CIRCLE
5
184
100
AcDbEntity
8
0
100
AcDbCircle
10
16.463863406077273
20
-302.7944043820051
30
0
40
1.5000000000000036
210
0
220
0
230
1
0
CIRCLE
5
185
100
AcDbEntity
8
0
100
AcDbCircle
10
169.06386340607656
20
-302.7944043820051
30
0
40
1.5000000000000036
210
0
220
0
230
1
0
ENDSEC
0
SECTION
2
OBJECTS
0
DICTIONARY
5
C
100
AcDbDictionary
3
ACAD_GROUP
350
D
3
ACAD_MLINESTYLE
350
17
0
DICTIONARY
5
D
100
AcDbDictionary
0
DICTIONARY
5
1A
330
C
100
AcDbDictionary
0
DICTIONARY
5
17
100
AcDbDictionary
0
ENDSEC
0
EOF
