0
SECTION
2
HEADER
9
$INSUNITS
70
4
9
$ACADVER
1
AC1014
9
$HANDSEED
5
FFFF
0
ENDSEC
0
SECTION
2
TABLES
0
TABLE
2
VPORT
5
8
100
AcDbSymbolTable
0
ENDTAB
0
TABLE
2
LTYPE
5
5
100
AcDbSymbolTable
0
LTYPE
5
14
100
AcDbSymbolTableRecord
100
AcDbLinetypeTableRecord
2
BYBLOCK
70
0
0
LTYPE
5
15
100
AcDbSymbolTableRecord
100
AcDbLinetypeTableRecord
2
BYLAYER
70
0
0
ENDTAB
0
TABLE
2
LAYER
5
2
100
AcDbSymbolTable
70
2
0
LAYER
5
50
100
AcDbSymbolTableRecord
100
AcDbLayerTableRecord
2
0
70
0
6
CONTINUOUS
0
ENDTAB
0
TABLE
2
STYLE
5
3
100
AcDbSymbolTable
70
1
0
STYLE
5
11
100
AcDbSymbolTableRecord
100
AcDbTextStyleTableRecord
2
STANDARD
70
0
0
ENDTAB
0
TABLE
2
VIEW
5
6
100
AcDbSymbolTable
70
0
0
ENDTAB
0
TABLE
2
UCS
5
7
100
AcDbSymbolTable
70
0
0
ENDTAB
0
TABLE
2
APPID
5
9
100
AcDbSymbolTable
70
2
0
APPID
5
12
100
AcDbSymbolTableRecord
100
AcDbRegAppTableRecord
2
ACAD
70
0
0
ENDTAB
0
TABLE
2
DIMSTYLE
5
A
100
AcDbSymbolTable
70
1
0
ENDTAB
0
TABLE
2
BLOCK_RECORD
5
1
100
AcDbSymbolTable
70
1
0
BLOCK_RECORD
5
1F
100
AcDbSymbolTableRecord
100
AcDbBlockTableRecord
2
*MODEL_SPACE
0
BLOCK_RECORD
5
1B
100
AcDbSymbolTableRecord
100
AcDbBlockTableRecord
2
*PAPER_SPACE
0
ENDTAB
0
ENDSEC
0
SECTION
2
BLOCKS
0
BLOCK
5
20
100
AcDbEntity
100
AcDbBlockBegin
2
*MODEL_SPACE
0
ENDBLK
5
21
100
AcDbEntity
100
AcDbBlockEnd
0
BLOCK
5
1C
100
AcDbEntity
100
AcDbBlockBegin
2
*PAPER_SPACE
0
ENDBLK
5
1D
100
AcDbEntity
100
AcDbBlockEnd
0
ENDSEC
0
SECTION
2
ENTITIES
0
LWPOLYLINE
5
100
100
AcDbEntity
8
0
100
AcDbPolyline
90
27
70
1
43
0.0
10
-293.09836182513777
20
93.259004493211648
10
-293.09836182513789
20
150.03005156117393
10
-293.18928361013724
20
150.03005156117393
10
-293.18928361013724
20
168.60901249321165
42
-0.41421356237313667
10
-292.18928361013718
20
169.60901249321157
10
-274.02139796934597
20
169.60901249321151
42
-0.4142135623730534
10
-273.02139796934591
20
168.60901249321162
10
-273.02139796934597
20
151.54038861758971
42
0.40544913423769585
10
-272.05140954066485
20
150.54083906624817
10
-256.12207754530743
20
150.5403886175896
42
0.41421356237313667
10
-255.12207754530749
20
151.54038861758971
10
-255.12207754530755
20
168.50901249321143
42
-0.41421356237309509
10
-254.12207754530732
20
169.50901249321163
10
-83.121397969346603
20
169.50901249321134
42
-0.41421356237309509
10
-82.121397969346674
20
168.50901249321143
10
-82.121397969346674
20
151.0403886175896
42
0.41421356237309509
10
-81.121397969346674
20
150.04038861758966
10
-65.622077545308045
20
150.04038861758966
42
0.41421356237309509
10
-64.622077545308102
20
151.0403886175896
10
-64.622077545308002
20
168.60901249321148
42
-0.41421356237309509
10
-63.622077545308088
20
169.6090124932114
10
-45.298271825138642
20
169.60901249321137
42
-0.41421356237313667
10
-44.298271825138627
20
168.60901249321148
10
-44.298271825138627
20
150.04038861758949
10
-44.298271825138649
20
93.259004493211563
42
-0.41421356237321988
10
-45.298271825138592
20
92.259004493211478
10
-292.09836182513783
20
92.259004493211705
42
-0.41421356237326157
0
LWPOLYLINE
5
101
100
AcDbEntity
8
0
100
AcDbPolyline
90
10
70
1
43
0.0
10
-290.617361825138
20
84.385004493211753
42
-0.41421356237309598
10
-301.61736182513783
20
95.385004493211596
10
-301.61736182513789
20
167.39501249321142
42
-0.41421356237309787
10
-290.61736182513789
20
178.39501249321134
10
-47.136271825138735
20
178.39501249321131
42
-0.41421356237309453
10
-36.136271825138699
20
167.39501249321125
10
-36.136271825138699
20
147.4950924932113
10
-36.136271825138863
20
95.385004493211483
42
-0.41421356237309548
10
-47.136271825138785
20
84.385004493211568
10
-276.15516489351216
20
84.385004493211682
0
LWPOLYLINE
5
102
100
AcDbEntity
8
0
100
AcDbPolyline
90
10
70
1
43
0.0
10
-290.61736182513789
20
194.38500449321137
42
-0.41421356237309687
10
-301.61736182513783
20
205.38500449321128
10
-301.61736182513778
20
277.39501249321103
42
-0.41421356237309687
10
-290.61736182513783
20
288.39501249321086
10
-47.136271825138692
20
288.39501249321091
42
-0.41421356237309509
10
-36.13627182513865
20
277.39501249321086
10
-36.13627182513865
20
257.4950924932109
10
-36.13627182513882
20
205.38500449321108
42
-0.41421356237309509
10
-47.136271825138749
20
194.38500449321117
10
-276.15516489351205
20
194.38500449321134
0
LWPOLYLINE
5
103
100
AcDbEntity
8
0
100
AcDbPolyline
90
27
70
1
43
0.0
10
-45.298271825138556
20
202.25900449321108
10
-292.09836182513783
20
202.25900449321136
42
-0.41421356237326157
10
-293.09836182513777
20
203.25900449321131
10
-293.09836182513783
20
260.03005156117359
10
-293.18928361013712
20
260.03005156117359
10
-293.18928361013724
20
278.60901249321125
42
-0.41421356237313667
10
-292.18928361013712
20
279.6090124932112
10
-274.02139796934591
20
279.60901249321114
42
-0.4142135623730534
10
-273.02139796934591
20
278.60901249321125
10
-273.02139796934591
20
261.54038861758931
42
0.40544913423769585
10
-272.05140954066479
20
260.54083906624777
10
-256.12207754530732
20
260.5403886175892
42
0.41421356237313667
10
-255.12207754530738
20
261.54038861758931
10
-255.12207754530755
20
278.50901249321106
42
-0.41421356237309509
10
-254.12207754530732
20
279.50901249321129
10
-83.12139796934656
20
279.509012493211
42
-0.41421356237309509
10
-82.121397969346631
20
278.50901249321106
10
-82.121397969346646
20
261.04038861758926
42
0.41421356237309509
10
-81.121397969346631
20
260.04038861758931
10
-65.622077545308002
20
260.04038861758931
42
0.41421356237309509
10
-64.622077545308059
20
261.04038861758926
10
-64.622077545307988
20
278.60901249321108
42
-0.41421356237309509
10
-63.622077545308045
20
279.60901249321103
10
-45.298271825138592
20
279.60901249321097
42
-0.41421356237313667
10
-44.298271825138578
20
278.60901249321108
10
-44.298271825138578
20
260.04038861758914
10
-44.298271825138649
20
203.25900449321114
42
-0.41421356237321988
0
CIRCLE
5
104
100
AcDbEntity
8
0
100
AcDbCircle
10
-282.99846513898888
20
198.55500449321136
30
0
40
1
210
0
220
0
230
1
0
CIRCLE
5
105
100
AcDbEntity
8
0
100
AcDbCircle
10
-206.99846513898902
20
174.22501249321141
30
0
40
1
210
0
220
0
230
1
0
CIRCLE
5
106
100
AcDbEntity
8
0
100
AcDbCircle
10
-282.99846513898888
20
174.22501249321144
30
0
40
1
210
0
220
0
230
1
0
CIRCLE
5
107
100
AcDbEntity
8
0
100
AcDbCircle
10
-54.398465138989955
20
198.55500449321119
30
0
40
1
210
0
220
0
230
1
0
CIRCLE
5
108
100
AcDbEntity
8
0
100
AcDbCircle
10
-54.39846513898992
20
284.22501249321095
30
0
40
1
210
0
220
0
230
1
0
CIRCLE
5
109
100
AcDbEntity
8
0
100
AcDbCircle
10
-130.39846513898971
20
198.55500449321127
30
0
40
1
210
0
220
0
230
1
0
CIRCLE
5
110
100
AcDbEntity
8
0
100
AcDbCircle
10
-130.39846513898971
20
174.22501249321135
30
0
40
1
210
0
220
0
230
1
0
CIRCLE
5
111
100
AcDbEntity
8
0
100
AcDbCircle
10
-130.39846513898968
20
284.22501249321095
30
0
40
1
210
0
220
0
230
1
0
CIRCLE
5
112
100
AcDbEntity
8
0
100
AcDbCircle
10
-206.99846513898902
20
198.5550044932113
30
0
40
1
210
0
220
0
230
1
0
CIRCLE
5
113
100
AcDbEntity
8
0
100
AcDbCircle
10
-206.99846513898899
20
284.22501249321101
30
0
40
1
210
0
220
0
230
1
0
CIRCLE
5
114
100
AcDbEntity
8
0
100
AcDbCircle
10
-130.39846513898976
20
88.555004493211626
30
0
40
1
210
0
220
0
230
1
0
CIRCLE
5
115
100
AcDbEntity
8
0
100
AcDbCircle
10
-54.398465138989991
20
88.555004493211584
30
0
40
1
210
0
220
0
230
1
0
CIRCLE
5
116
100
AcDbEntity
8
0
100
AcDbCircle
10
-206.99846513898908
20
88.555004493211669
30
0
40
1
210
0
220
0
230
1
0
CIRCLE
5
117
100
AcDbEntity
8
0
100
AcDbCircle
10
-282.99846513898893
20
88.555004493211698
30
0
40
1
210
0
220
0
230
1
0
CIRCLE
5
118
100
AcDbEntity
8
0
100
AcDbCircle
10
-54.398465138989955
20
174.2250124932113
30
0
40
1
210
0
220
0
230
1
0
CIRCLE
5
119
100
AcDbEntity
8
0
100
AcDbCircle
10
-282.99846513898876
20
284.22501249321107
30
0
40
1
210
0
220
0
230
1
0
ENDSEC
0
SECTION
2
OBJECTS
0
DICTIONARY
5
C
100
AcDbDictionary
3
ACAD_GROUP
350
D
3
ACAD_MLINESTYLE
350
17
0
DICTIONARY
5
D
100
AcDbDictionary
0
DICTIONARY
5
1A
330
C
100
AcDbDictionary
0
DICTIONARY
5
17
100
AcDbDictionary
0
ENDSEC
0
EOF
