0
SECTION
2
HEADER
9
$INSUNITS
70
4
9
$ACADVER
1
AC1014
9
$HANDSEED
5
FFFF
0
ENDSEC
0
SECTION
2
TABLES
0
TABLE
2
VPORT
5
8
100
AcDbSymbolTable
0
ENDTAB
0
TABLE
2
LTYPE
5
5
100
AcDbSymbolTable
0
LTYPE
5
14
100
AcDbSymbolTableRecord
100
AcDbLinetypeTableRecord
2
BYBLOCK
70
0
0
LTYPE
5
15
100
AcDbSymbolTableRecord
100
AcDbLinetypeTableRecord
2
BYLAYER
70
0
0
ENDTAB
0
TABLE
2
LAYER
5
2
100
AcDbSymbolTable
70
2
0
LAYER
5
50
100
AcDbSymbolTableRecord
100
AcDbLayerTableRecord
2
0
70
0
6
CONTINUOUS
0
ENDTAB
0
TABLE
2
STYLE
5
3
100
AcDbSymbolTable
70
1
0
STYLE
5
11
100
AcDbSymbolTableRecord
100
AcDbTextStyleTableRecord
2
STANDARD
70
0
0
ENDTAB
0
TABLE
2
VIEW
5
6
100
AcDbSymbolTable
70
0
0
ENDTAB
0
TABLE
2
UCS
5
7
100
AcDbSymbolTable
70
0
0
ENDTAB
0
TABLE
2
APPID
5
9
100
AcDbSymbolTable
70
2
0
APPID
5
12
100
AcDbSymbolTableRecord
100
AcDbRegAppTableRecord
2
ACAD
70
0
0
ENDTAB
0
TABLE
2
DIMSTYLE
5
A
100
AcDbSymbolTable
70
1
0
ENDTAB
0
TABLE
2
BLOCK_RECORD
5
1
100
AcDbSymbolTable
70
1
0
BLOCK_RECORD
5
1F
100
AcDbSymbolTableRecord
100
AcDbBlockTableRecord
2
*MODEL_SPACE
0
BLOCK_RECORD
5
1B
100
AcDbSymbolTableRecord
100
AcDbBlockTableRecord
2
*PAPER_SPACE
0
ENDTAB
0
ENDSEC
0
SECTION
2
BLOCKS
0
BLOCK
5
20
100
AcDbEntity
100
AcDbBlockBegin
2
*MODEL_SPACE
0
ENDBLK
5
21
100
AcDbEntity
100
AcDbBlockEnd
0
BLOCK
5
1C
100
AcDbEntity
100
AcDbBlockBegin
2
*PAPER_SPACE
0
ENDBLK
5
1D
100
AcDbEntity
100
AcDbBlockEnd
0
ENDSEC
0
SECTION
2
ENTITIES
0
LINE
5
100
100
AcDbEntity
8
0
100
AcDbLine
10
83.645131191110465
20
-55.878031020507002
30
0
11
82.974566371365682
21
-56.240470261085562
31
0
0
LINE
5
101
100
AcDbEntity
8
0
100
AcDbLine
10
82.974566371365682
20
-56.240470261085562
30
0
11
82.386234399112169
21
-56.726824691481809
31
0
0
LINE
5
102
100
AcDbEntity
8
0
100
AcDbLine
10
82.386234399112169
20
-56.726824691481809
30
0
11
81.904242672807669
21
-57.318074845983276
31
0
0
LINE
5
103
100
AcDbEntity
8
0
100
AcDbLine
10
81.904242672807669
20
-57.318074845983276
30
0
11
81.545602691208785
21
-57.991962508200473
31
0
0
LINE
5
104
100
AcDbEntity
8
0
100
AcDbLine
10
81.545602691208785
20
-57.991962508200473
30
0
11
81.323005585269939
21
-58.730604211280166
31
0
0
LINE
5
105
100
AcDbEntity
8
0
100
AcDbLine
10
81.323005585269939
20
-58.730604211280166
30
0
11
81.259930000000011
21
-59.370930152779842
31
0
0
LINE
5
106
100
AcDbEntity
8
0
100
AcDbLine
10
81.259930000000011
20
-131.70001600000001
30
0
11
81.259930000000011
21
-131.81380271694604
31
0
0
LINE
5
107
100
AcDbEntity
8
0
100
AcDbLine
10
81.259930000000011
20
-131.81380271694604
30
0
11
81.330887808800327
21
-132.4867574197622
31
0
0
LINE
5
108
100
AcDbEntity
8
0
100
AcDbLine
10
81.330887808800327
20
-132.4867574197622
30
0
11
81.556566402848389
21
-133.21498880888961
31
0
0
LINE
5
109
100
AcDbEntity
8
0
100
AcDbLine
10
81.556566402848389
20
-133.21498880888961
30
0
11
81.919215306281529
21
-133.88594153512605
31
0
0
LINE
5
110
100
AcDbEntity
8
0
100
AcDbLine
10
81.919215306281529
20
-133.88594153512605
30
0
11
82.405360135349326
21
-134.47349722101006
31
0
0
LINE
5
111
100
AcDbEntity
8
0
100
AcDbLine
10
82.405360135349326
20
-134.47349722101006
30
0
11
82.997176741947669
21
-134.95647399191222
31
0
0
LINE
5
112
100
AcDbEntity
8
0
100
AcDbLine
10
82.997176741947669
20
-134.95647399191222
30
0
11
83.673782805662356
21
-135.31603630731394
31
0
0
LINE
5
113
100
AcDbEntity
8
0
100
AcDbLine
10
83.673782805662356
20
-135.31603630731394
30
0
11
84.404482558907489
21
-135.53676643185619
31
0
0
LINE
5
114
100
AcDbEntity
8
0
100
AcDbLine
10
84.404482558907489
20
-135.53676643185619
30
0
11
85.03325993636463
21
-135.59827775635716
31
0
0
LINE
5
115
100
AcDbEntity
8
0
100
AcDbLine
10
328.84110000000163
20
-135.59827775635716
30
0
11
328.96902600940194
21
-135.59827762114372
31
0
0
LINE
5
116
100
AcDbEntity
8
0
100
AcDbLine
10
328.96902600940194
20
-135.59827762114372
30
0
11
329.62699342095345
21
-135.52934770183828
31
0
0
LINE
5
117
100
AcDbEntity
8
0
100
AcDbLine
10
329.62699342095345
20
-135.52934770183828
30
0
11
330.35288590677953
21
-135.30374658394121
31
0
0
LINE
5
118
100
AcDbEntity
8
0
100
AcDbLine
10
330.35288590677953
20
-135.30374658394121
30
0
11
331.02703005898866
21
-134.94106748190006
31
0
0
LINE
5
119
100
AcDbEntity
8
0
100
AcDbLine
10
331.02703005898866
20
-134.94106748190006
30
0
11
331.61574985362967
21
-134.45169415260469
31
0
0
LINE
5
120
100
AcDbEntity
8
0
100
AcDbLine
10
331.61574985362967
20
-134.45169415260469
30
0
11
332.09343566441555
21
-133.86445213956247
31
0
0
LINE
5
121
100
AcDbEntity
8
0
100
AcDbLine
10
332.09343566441555
20
-133.86445213956247
30
0
11
332.45394059298724
21
-133.19150960622869
31
0
0
LINE
5
122
100
AcDbEntity
8
0
100
AcDbLine
10
332.45394059298724
20
-133.19150960622869
30
0
11
332.67324582562071
21
-132.46153647474901
31
0
0
LINE
5
123
100
AcDbEntity
8
0
100
AcDbLine
10
332.67324582562071
20
-132.46153647474901
30
0
11
332.74101999999999
21
-131.79689773800141
31
0
0
LINE
5
124
100
AcDbEntity
8
0
100
AcDbLine
10
332.74101999999999
20
-59.490102000000007
30
0
11
332.74101999999999
21
-59.364409549802005
31
0
0
LINE
5
125
100
AcDbEntity
8
0
100
AcDbLine
10
332.74101999999999
20
-59.364409549802005
30
0
11
332.66793037857087
21
-58.692898652921514
31
0
0
LINE
5
126
100
AcDbEntity
8
0
100
AcDbLine
10
332.66793037857087
20
-58.692898652921514
30
0
11
332.444968653464
21
-57.970087851063624
31
0
0
LINE
5
127
100
AcDbEntity
8
0
100
AcDbLine
10
332.444968653464
20
-57.970087851063624
30
0
11
332.08375141985329
21
-57.297909694605202
31
0
0
LINE
5
128
100
AcDbEntity
8
0
100
AcDbLine
10
332.08375141985329
20
-57.297909694605202
30
0
11
331.59334831098761
21
-56.704680127428873
31
0
0
LINE
5
129
100
AcDbEntity
8
0
100
AcDbLine
10
331.59334831098761
20
-56.704680127428873
30
0
11
331.00113607562463
21
-56.225715494968654
31
0
0
LINE
5
130
100
AcDbEntity
8
0
100
AcDbLine
10
331.00113607562463
20
-56.225715494968654
30
0
11
330.33299415507821
21
-55.867633184425756
31
0
0
LINE
5
131
100
AcDbEntity
8
0
100
AcDbLine
10
330.33299415507821
20
-55.867633184425756
30
0
11
329.59918658217362
21
-55.646966764288081
31
0
0
LINE
5
132
100
AcDbEntity
8
0
100
AcDbLine
10
329.59918658217362
20
-55.646966764288081
30
0
11
328.93442068186096
21
-55.581394617658603
31
0
0
LINE
5
133
100
AcDbEntity
8
0
100
AcDbLine
10
85.16010399999999
20
-55.581394617658603
30
0
11
85.046317283054037
21
-55.581394617658603
31
0
0
LINE
5
134
100
AcDbEntity
8
0
100
AcDbLine
10
85.046317283054037
20
-55.581394617658603
30
0
11
84.373362580237782
21
-55.65235242645894
31
0
0
LINE
5
135
100
AcDbEntity
8
0
100
AcDbLine
10
84.373362580237782
20
-55.65235242645894
30
0
11
83.645131191110465
21
-55.878031020507002
31
0
0
LINE
5
136
100
AcDbEntity
8
0
100
AcDbLine
10
127.5782485537797
20
-55.581394617658603
30
0
11
85.16010399999999
21
-55.581394617658603
31
0
0
LINE
5
137
100
AcDbEntity
8
0
100
AcDbLine
10
201.0782485537797
20
-55.581394617658603
30
0
11
139.5782485537797
21
-55.581394617658603
31
0
0
LINE
5
138
100
AcDbEntity
8
0
100
AcDbLine
10
328.93442068186096
20
-55.581394617658603
30
0
11
298.5782485537797
21
-55.581394617658603
31
0
0
LINE
5
139
100
AcDbEntity
8
0
100
AcDbLine
10
286.5782485537797
20
-55.581394617658603
30
0
11
213.0782485537797
21
-55.581394617658603
31
0
0
LINE
5
140
100
AcDbEntity
8
0
100
AcDbLine
10
85.03325993636463
20
-135.59827775635716
30
0
11
114.1441262322007
21
-135.59827775635716
31
0
0
LINE
5
141
100
AcDbEntity
8
0
100
AcDbLine
10
125.9443611498255
20
-135.59827775635716
30
0
11
201.14427032856406
21
-135.59827775635716
31
0
0
LINE
5
142
100
AcDbEntity
8
0
100
AcDbLine
10
298.49646657626243
20
-135.59827775635716
30
0
11
328.84110000000163
21
-135.59827775635716
31
0
0
LINE
5
143
100
AcDbEntity
8
0
100
AcDbLine
10
81.259930000000011
20
-59.370930152779842
30
0
11
81.259930000000011
21
-70.222806501026312
31
0
0
LINE
5
144
100
AcDbEntity
8
0
100
AcDbLine
10
81.259930000000011
20
-82.115868380384995
30
0
11
81.259930000000011
21
-89.879536718562377
31
0
0
LINE
5
145
100
AcDbEntity
8
0
100
AcDbLine
10
81.259930000000011
20
-101.7640607230574
30
0
11
81.259930000000011
21
-131.70001600000001
31
0
0
LINE
5
146
100
AcDbEntity
8
0
100
AcDbLine
10
138.5782485537797
20
-54.581394617658603
30
0
11
138.5782485537797
21
-53.081394617658603
31
0
0
LINE
5
147
100
AcDbEntity
8
0
100
AcDbLine
10
137.5782485537797
20
-52.081394617658603
30
0
11
129.5782485537797
21
-52.081394617658603
31
0
0
LINE
5
148
100
AcDbEntity
8
0
100
AcDbLine
10
128.5782485537797
20
-53.081394617658603
30
0
11
128.5782485537797
21
-54.581394617658603
31
0
0
ARC
5
149
100
AcDbEntity
8
0
100
AcDbCircle
10
129.5782485537797
20
-53.081394617658603
30
0
40
0.99999999999999645
210
0
220
-0
230
1
100
AcDbArc
50
90
51
180
0
ARC
5
150
100
AcDbEntity
8
0
100
AcDbCircle
10
137.5782485537797
20
-53.081394617658603
30
0
40
0.99999999999999645
210
0
220
0
230
1
100
AcDbArc
50
0
51
90
0
ARC
5
151
100
AcDbEntity
8
0
100
AcDbCircle
10
127.5782485537797
20
-54.581394617658603
30
0
40
0.99999999999999645
210
0
220
0
230
1
100
AcDbArc
50
-90
51
0
0
ARC
5
152
100
AcDbEntity
8
0
100
AcDbCircle
10
139.5782485537797
20
-54.581394617658603
30
0
40
0.99999999999999645
210
0
220
0
230
1
100
AcDbArc
50
180
51
270
0
LINE
5
153
100
AcDbEntity
8
0
100
AcDbLine
10
202.0782485537797
20
-53.081394617658603
30
0
11
202.0782485537797
21
-54.581394617658603
31
0
0
ARC
5
154
100
AcDbEntity
8
0
100
AcDbCircle
10
201.0782485537797
20
-54.581394617658603
30
0
40
0.99999999999999645
210
0
220
0
230
1
100
AcDbArc
50
-90
51
0
0
ARC
5
155
100
AcDbEntity
8
0
100
AcDbCircle
10
203.07824855377973
20
-53.081394617658603
30
0
40
0.99999999999999645
210
0
220
-0
230
1
100
AcDbArc
50
90
51
180
0
LINE
5
156
100
AcDbEntity
8
0
100
AcDbLine
10
211.07824855377973
20
-52.081394617658603
30
0
11
203.07824855377973
21
-52.081394617658603
31
0
0
ARC
5
157
100
AcDbEntity
8
0
100
AcDbCircle
10
211.07824855377973
20
-53.081394617658582
30
0
40
0.99999999999997868
210
0
220
0
230
1
100
AcDbArc
50
0
51
90
0
LINE
5
158
100
AcDbEntity
8
0
100
AcDbLine
10
212.0782485537797
20
-54.581394617658603
30
0
11
212.0782485537797
21
-53.081394617658582
31
0
0
ARC
5
159
100
AcDbEntity
8
0
100
AcDbCircle
10
213.0782485537797
20
-54.581394617658603
30
0
40
0.99999999999997868
210
0
220
0
230
1
100
AcDbArc
50
180
51
270
0
ARC
5
160
100
AcDbEntity
8
0
100
AcDbCircle
10
286.5782485537797
20
-54.581394617658603
30
0
40
0.99999999999999645
210
0
220
0
230
1
100
AcDbArc
50
-90
51
0
0
LINE
5
161
100
AcDbEntity
8
0
100
AcDbLine
10
287.5782485537797
20
-53.081394617658603
30
0
11
287.5782485537797
21
-54.581394617658603
31
0
0
ARC
5
162
100
AcDbEntity
8
0
100
AcDbCircle
10
288.57824855377976
20
-53.081394617658603
30
0
40
0.99999999999999645
210
0
220
-0
230
1
100
AcDbArc
50
90
51
180
0
LINE
5
163
100
AcDbEntity
8
0
100
AcDbLine
10
296.57824855377976
20
-52.081394617658603
30
0
11
288.57824855377976
21
-52.081394617658603
31
0
0
ARC
5
164
100
AcDbEntity
8
0
100
AcDbCircle
10
296.57824855377976
20
-53.081394617658582
30
0
40
0.99999999999997868
210
0
220
0
230
1
100
AcDbArc
50
0
51
90
0
LINE
5
165
100
AcDbEntity
8
0
100
AcDbLine
10
297.5782485537797
20
-54.581394617658603
30
0
11
297.5782485537797
21
-53.081394617658582
31
0
0
ARC
5
166
100
AcDbEntity
8
0
100
AcDbCircle
10
298.5782485537797
20
-54.581394617658603
30
0
40
0.99999999999997868
210
0
220
0
230
1
100
AcDbArc
50
180
51
270
0
LINE
5
167
100
AcDbEntity
8
0
100
AcDbLine
10
125.04417495927113
20
-138.09328259814134
30
0
11
125.04417664194358
21
-136.59328259814225
31
0
0
ARC
5
168
100
AcDbEntity
8
0
100
AcDbCircle
10
126.04417664194295
20
-136.5932837199239
30
0
40
1.000000000000004
210
0
220
-0
230
1
100
AcDbArc
50
89.999935726647507
51
179.99993573403543
0
ARC
5
169
100
AcDbEntity
8
0
100
AcDbCircle
10
124.04417495927171
20
-138.09328147635972
30
0
40
0.99999999999996847
210
0
220
0
230
1
100
AcDbArc
50
269.99993572664749
51
359.99993573403543
0
LINE
5
170
100
AcDbEntity
8
0
100
AcDbLine
10
116.04417383749515
20
-139.09327250210606
30
0
11
124.04417383749009
21
-139.09328147635907
31
0
0
ARC
5
171
100
AcDbEntity
8
0
100
AcDbCircle
10
116.04417495927677
20
-138.09327250210674
30
0
40
0.99999999999998623
210
0
220
0
230
1
100
AcDbArc
50
179.99993573403543
51
269.99993572664749
0
LINE
5
172
100
AcDbEntity
8
0
100
AcDbLine
10
115.04417664194987
20
-136.59327138032603
30
0
11
115.04417495927741
21
-138.09327138032512
31
0
0
ARC
5
173
100
AcDbEntity
8
0
100
AcDbCircle
10
114.0441766419505
20
-136.59327025854441
30
0
40
1.000000000000004
210
-0
220
0
230
1
100
AcDbArc
50
-6.4265964545740678e-05
51
89.999935726648332
0
LINE
5
174
100
AcDbEntity
8
0
100
AcDbLine
10
212.0442362887373
20
-138.09327591365812
30
0
11
212.0442381910994
21
-136.59327591365931
31
0
0
ARC
5
175
100
AcDbEntity
8
0
100
AcDbCircle
10
213.04423819109866
20
-136.59327718190073
30
0
40
1.0000000000000013
210
0
220
-0
230
1
100
AcDbArc
50
89.999927335120887
51
179.99992733388098
0
ARC
5
176
100
AcDbEntity
8
0
100
AcDbCircle
10
211.04423628873806
20
-138.09327464541667
30
0
40
1.0000000000000191
210
0
220
0
230
1
100
AcDbArc
50
269.9999273351209
51
359.99992733388098
0
LINE
5
177
100
AcDbEntity
8
0
100
AcDbLine
10
203.04423502050304
20
-139.09326449948458
30
0
11
211.04423502049667
21
-139.09327464541587
31
0
0
ARC
5
178
100
AcDbEntity
8
0
100
AcDbCircle
10
203.04423628874446
20
-138.09326449948543
30
0
40
0.99999999999996581
210
0
220
0
230
1
100
AcDbArc
50
179.99992733388098
51
269.99992733511925
0
LINE
5
179
100
AcDbEntity
8
0
100
AcDbLine
10
202.04423819110744
20
-136.59326323124515
30
0
11
202.04423628874531
21
-138.09326323124401
31
0
0
ARC
5
180
100
AcDbEntity
8
0
100
AcDbCircle
10
201.04423819110821
20
-136.59326196300373
30
0
40
1.0000000000000369
210
-0
220
0
230
1
100
AcDbArc
50
-7.2666119016511868e-05
51
89.999927335117633
0
LINE
5
181
100
AcDbEntity
8
0
100
AcDbLine
10
297.57824855377976
20
-138.09492800000004
30
0
11
297.57824855377976
21
-136.59492800000004
31
0
0
ARC
5
182
100
AcDbEntity
8
0
100
AcDbCircle
10
298.57824855377976
20
-136.59492800000004
30
0
40
0.99999999999999645
210
0
220
-0
230
1
100
AcDbArc
50
90
51
180
0
ARC
5
183
100
AcDbEntity
8
0
100
AcDbCircle
10
296.57824855377976
20
-138.09492800000004
30
0
40
0.99999999999999645
210
-0
220
0
230
1
100
AcDbArc
50
-90
51
0
0
LINE
5
184
100
AcDbEntity
8
0
100
AcDbLine
10
288.57824855377976
20
-139.09492800000004
30
0
11
296.57824855377976
21
-139.09492800000004
31
0
0
ARC
5
185
100
AcDbEntity
8
0
100
AcDbCircle
10
288.57824855377976
20
-138.09492800000001
30
0
40
1.0000000000000142
210
0
220
0
230
1
100
AcDbArc
50
180
51
270
0
LINE
5
186
100
AcDbEntity
8
0
100
AcDbLine
10
287.57824855377982
20
-136.59327022845559
30
0
11
287.57824855377976
21
-138.09492800000001
31
0
0
ARC
5
187
100
AcDbEntity
8
0
100
AcDbCircle
10
286.57824855377982
20
-136.59327022845562
30
0
40
0.99999999999997868
210
0
220
-0
230
1
100
AcDbArc
50
0
51
90.000269692029789
0
LINE
5
188
100
AcDbEntity
8
0
100
AcDbLine
10
212.94435754648714
20
-135.59827775635716
30
0
11
286.67819844356171
21
-135.59827775635716
31
0
0
ARC
5
189
100
AcDbEntity
8
0
100
AcDbCircle
10
80.261598229697455
20
-82.173606378312115
30
0
40
1.0000000000000167
210
-0
220
0
230
1
100
AcDbArc
50
0.00025741240037565526
51
3.3099844083063332
0
ARC
5
190
100
AcDbEntity
8
0
100
AcDbCircle
10
78.761598229687394
20
-91.821798720809738
30
0
40
0.99999999999999645
210
0
220
-0
230
1
100
AcDbArc
50
90
51
180
0
ARC
5
191
100
AcDbEntity
8
0
100
AcDbCircle
10
80.261598229687394
20
-89.821798720809753
30
0
40
0.99999999999999645
210
0
220
0
230
1
100
AcDbArc
50
-90
51
0
0
LINE
5
192
100
AcDbEntity
8
0
100
AcDbLine
10
80.261598229687394
20
-90.821798720809738
30
0
11
78.761598229687394
21
-90.821798720809738
31
0
0
LINE
5
193
100
AcDbEntity
8
0
100
AcDbLine
10
77.761598229687394
20
-91.821798720809738
30
0
11
77.761598229687394
21
-99.821798720809738
31
0
0
ARC
5
194
100
AcDbEntity
8
0
100
AcDbCircle
10
78.761598229687394
20
-99.821798720809738
30
0
40
0.99999999999999645
210
0
220
0
230
1
100
AcDbArc
50
180
51
269.99999999999835
0
LINE
5
195
100
AcDbEntity
8
0
100
AcDbLine
10
78.761598229687365
20
-100.82179872080972
30
0
11
80.261598229687365
21
-100.82179872080972
31
0
0
ARC
5
196
100
AcDbEntity
8
0
100
AcDbCircle
10
80.261598229687365
20
-101.82179872080972
30
0
40
1.0000000000000142
210
-0
220
0
230
1
100
AcDbArc
50
0
51
90
0
ARC
5
197
100
AcDbEntity
8
0
100
AcDbCircle
10
333.74159822968738
20
-101.8217987208098
30
0
40
0.99999999999999645
210
0
220
-0
230
1
100
AcDbArc
50
90
51
179.9988947459091
0
LINE
5
198
100
AcDbEntity
8
0
100
AcDbLine
10
333.74159822968738
20
-100.8217987208098
30
0
11
335.24159822968738
21
-100.8217987208098
31
0
0
ARC
5
199
100
AcDbEntity
8
0
100
AcDbCircle
10
335.24159822968738
20
-99.821798720809795
30
0
40
0.99999999999999645
210
0
220
0
230
1
100
AcDbArc
50
-90
51
0
0
LINE
5
200
100
AcDbEntity
8
0
100
AcDbLine
10
336.24159822968738
20
-99.821798720809795
30
0
11
336.24159822968738
21
-91.821798720809795
31
0
0
ARC
5
201
100
AcDbEntity
8
0
100
AcDbCircle
10
335.24159822968738
20
-91.821798720809795
30
0
40
0.99999999999994316
210
-0
220
0
230
1
100
AcDbArc
50
0
51
90
0
LINE
5
202
100
AcDbEntity
8
0
100
AcDbLine
10
335.24159822968738
20
-90.821798720809824
30
0
11
333.74159822968744
21
-90.821798720809824
31
0
0
ARC
5
203
100
AcDbEntity
8
0
100
AcDbCircle
10
333.74159822968744
20
-89.821798720809795
30
0
40
1.0000000000000839
210
0
220
0
230
1
100
AcDbArc
50
179.71711243278085
51
270
0
LINE
5
204
100
AcDbEntity
8
0
100
AcDbLine
10
81.26159822968738
20
-82.173601885615071
30
0
11
81.259930000000011
21
-70.222806501026312
31
0
0
LINE
5
205
100
AcDbEntity
8
0
100
AcDbLine
10
332.74101999999999
20
-131.79689773800141
30
0
11
332.74159822987349
21
-101.82177943048147
31
0
0
LINE
5
206
100
AcDbEntity
8
0
100
AcDbLine
10
332.7416104182243
20
-89.816861421408447
30
0
11
332.74101999999999
21
-59.490102000000007
31
0
0
LWPOLYLINE
5
207
100
AcDbEntity
8
0
100
AcDbPolyline
90
4
70
1
43
0.0
10
137.67212331385127
20
-73.613483595661947
10
123.57212331385129
20
-73.613483595661947
10
123.57212331385128
20
-59.513483595661974
10
137.67212331385127
20
-59.513483595661974
0
LWPOLYLINE
5
208
100
AcDbEntity
8
0
100
AcDbPolyline
90
4
70
1
43
0.0
10
99.57212331385135
20
-92.663483595661944
10
85.47212331385137
20
-92.663483595661944
10
85.472123313851341
20
-78.563483595661964
10
99.57212331385135
20
-78.56348359566195
0
LWPOLYLINE
5
209
100
AcDbEntity
8
0
100
AcDbPolyline
90
4
70
1
43
0.0
10
104.52212331385132
20
-78.56348359566195
10
118.6221233138513
20
-78.56348359566195
10
118.62212331385132
20
-92.66348359566193
10
104.52212331385132
20
-92.66348359566193
0
LWPOLYLINE
5
210
100
AcDbEntity
8
0
100
AcDbPolyline
90
4
70
1
43
0.0
10
99.57212331385135
20
-116.66348359566187
10
99.57212331385135
20
-130.76348359566185
10
85.47212331385137
20
-130.76348359566188
10
85.47212331385137
20
-116.66348359566187
0
LWPOLYLINE
5
211
100
AcDbEntity
8
0
100
AcDbPolyline
90
4
70
1
43
0.0
10
137.67212331385127
20
-97.613483595661904
10
137.6721233138513
20
-111.7134835956619
10
123.57212331385129
20
-111.7134835956619
10
123.57212331385129
20
-97.613483595661904
0
LWPOLYLINE
5
212
100
AcDbEntity
8
0
100
AcDbPolyline
90
4
70
1
43
0.0
10
99.57212331385135
20
-97.613483595661904
10
99.57212331385135
20
-111.7134835956619
10
85.47212331385137
20
-111.7134835956619
10
85.47212331385137
20
-97.613483595661918
0
LWPOLYLINE
5
213
100
AcDbEntity
8
0
100
AcDbPolyline
90
4
70
1
43
0.0
10
118.62212331385132
20
-111.7134835956619
10
104.52212331385132
20
-111.7134835956619
10
104.52212331385132
20
-97.613483595661904
10
118.62212331385132
20
-97.613483595661904
0
LWPOLYLINE
5
214
100
AcDbEntity
8
0
100
AcDbPolyline
90
4
70
1
43
0.0
10
99.57212331385135
20
-73.613483595661961
10
85.472123313851341
20
-73.613483595661961
10
85.472123313851341
20
-59.513483595661995
10
99.572123313851336
20
-59.513483595661981
0
LWPOLYLINE
5
215
100
AcDbEntity
8
0
100
AcDbPolyline
90
4
70
1
43
0.0
10
123.57212331385129
20
-78.56348359566195
10
137.67212331385127
20
-78.563483595661936
10
137.67212331385127
20
-92.66348359566193
10
123.57212331385129
20
-92.66348359566193
0
LWPOLYLINE
5
216
100
AcDbEntity
8
0
100
AcDbPolyline
90
4
70
1
43
0.0
10
123.57212331385129
20
-130.76348359566185
10
123.57212331385129
20
-116.66348359566187
10
137.6721233138513
20
-116.66348359566187
10
137.6721233138513
20
-130.76348359566185
0
LWPOLYLINE
5
217
100
AcDbEntity
8
0
100
AcDbPolyline
90
4
70
1
43
0.0
10
118.62212331385132
20
-130.76348359566185
10
104.52212331385134
20
-130.76348359566185
10
104.52212331385132
20
-116.66348359566187
10
118.62212331385132
20
-116.66348359566187
0
LWPOLYLINE
5
218
100
AcDbEntity
8
0
100
AcDbPolyline
90
4
70
1
43
0.0
10
104.52212331385132
20
-73.613483595661961
10
104.52212331385132
20
-59.513483595661981
10
118.6221233138513
20
-59.513483595661981
10
118.6221233138513
20
-73.613483595661947
0
LWPOLYLINE
5
219
100
AcDbEntity
8
0
100
AcDbPolyline
90
4
70
1
43
0.0
10
180.7221233138512
20
-97.613483595661876
10
194.82212331385116
20
-97.613483595661862
10
194.82212331385116
20
-111.71348359566187
10
180.7221233138512
20
-111.71348359566187
0
LWPOLYLINE
5
220
100
AcDbEntity
8
0
100
AcDbPolyline
90
4
70
1
43
0.0
10
194.82212331385116
20
-73.613483595661918
10
180.7221233138512
20
-73.613483595661918
10
180.7221233138512
20
-59.51348359566196
10
194.82212331385116
20
-59.513483595661953
0
LWPOLYLINE
5
221
100
AcDbEntity
8
0
100
AcDbPolyline
90
4
70
1
43
0.0
10
175.77212331385124
20
-92.663483595661916
10
161.67212331385122
20
-92.663483595661916
10
161.67212331385122
20
-78.563483595661936
10
175.77212331385118
20
-78.563483595661921
0
LWPOLYLINE
5
222
100
AcDbEntity
8
0
100
AcDbPolyline
90
4
70
1
43
0.0
10
142.62212331385126
20
-97.613483595661904
10
156.72212331385123
20
-97.613483595661904
10
156.72212331385123
20
-111.71348359566188
10
142.62212331385126
20
-111.71348359566188
0
LWPOLYLINE
5
223
100
AcDbEntity
8
0
100
AcDbPolyline
90
4
70
1
43
0.0
10
156.72212331385123
20
-73.613483595661947
10
142.62212331385126
20
-73.613483595661947
10
142.62212331385123
20
-59.513483595661974
10
156.72212331385123
20
-59.513483595661967
0
LWPOLYLINE
5
224
100
AcDbEntity
8
0
100
AcDbPolyline
90
4
70
1
43
0.0
10
142.62212331385126
20
-78.563483595661936
10
156.72212331385123
20
-78.563483595661936
10
156.72212331385123
20
-92.66348359566193
10
142.62212331385126
20
-92.66348359566193
0
LWPOLYLINE
5
225
100
AcDbEntity
8
0
100
AcDbPolyline
90
4
70
1
43
0.0
10
161.67212331385122
20
-97.613483595661904
10
175.77212331385124
20
-97.613483595661876
10
175.77212331385124
20
-111.71348359566187
10
161.67212331385127
20
-111.71348359566188
0
LWPOLYLINE
5
226
100
AcDbEntity
8
0
100
AcDbPolyline
90
4
70
1
43
0.0
10
175.77212331385118
20
-73.613483595661933
10
161.67212331385122
20
-73.613483595661933
10
161.67212331385122
20
-59.513483595661967
10
175.77212331385118
20
-59.51348359566196
0
LWPOLYLINE
5
227
100
AcDbEntity
8
0
100
AcDbPolyline
90
4
70
1
43
0.0
10
180.7221233138512
20
-78.563483595661921
10
194.82212331385116
20
-78.563483595661921
10
194.82212331385116
20
-92.663483595661887
10
180.7221233138512
20
-92.663483595661916
0
LWPOLYLINE
5
228
100
AcDbEntity
8
0
100
AcDbPolyline
90
15
70
1
43
0.0
10
267.56778434973353
20
-130.6795416433396
10
267.56778434973353
20
-132.6795416433396
10
267.56778434973353
20
-132.78910550771241
10
267.49705536385937
20
-132.78910550771241
10
260.53195229168387
20
-132.79288517894184
10
153.0970553638594
20
-132.7928851789419
10
153.0970553638594
20
-132.78910550771246
10
146.09705536385943
20
-132.78910550771246
10
146.09705536385943
20
-130.67954164333963
10
142.66778434973355
20
-130.67954164333963
10
142.66778434973355
20
-116.57954164333964
10
156.71778434973353
20
-116.57954164333964
10
257.01778434973352
20
-116.5795416433396
10
271.06778434973353
20
-116.5795416433396
10
271.06778434973353
20
-130.6795416433396
0
LWPOLYLINE
5
229
100
AcDbEntity
8
0
100
AcDbPolyline
90
4
70
1
43
0.0
10
271.02212331385101
20
-92.663483595661873
10
256.92212331385105
20
-92.663483595661873
10
256.92212331385105
20
-78.563483595661893
10
271.02212331385101
20
-78.563483595661893
0
LWPOLYLINE
5
230
100
AcDbEntity
8
0
100
AcDbPolyline
90
4
70
1
43
0.0
10
237.87212331385109
20
-97.613483595661862
10
251.97212331385106
20
-97.613483595661862
10
251.97212331385106
20
-111.71348359566184
10
237.87212331385109
20
-111.71348359566184
0
LWPOLYLINE
5
231
100
AcDbEntity
8
0
100
AcDbPolyline
90
4
70
1
43
0.0
10
251.97212331385106
20
-73.613483595661904
10
237.87212331385109
20
-73.613483595661904
10
237.87212331385109
20
-59.513483595661931
10
251.97212331385106
20
-59.513483595661931
0
LWPOLYLINE
5
232
100
AcDbEntity
8
0
100
AcDbPolyline
90
4
70
1
43
0.0
10
232.9221233138511
20
-73.613483595661904
10
218.82212331385114
20
-73.613483595661918
10
218.82212331385114
20
-59.513483595661938
10
232.9221233138511
20
-59.513483595661938
0
LWPOLYLINE
5
233
100
AcDbEntity
8
0
100
AcDbPolyline
90
4
70
1
43
0.0
10
218.82212331385116
20
-97.613483595661862
10
232.92212331385113
20
-97.613483595661862
10
232.92212331385113
20
-111.71348359566184
10
218.82212331385116
20
-111.71348359566187
0
LWPOLYLINE
5
234
100
AcDbEntity
8
0
100
AcDbPolyline
90
4
70
1
43
0.0
10
199.77212331385115
20
-111.71348359566187
10
199.77212331385115
20
-97.613483595661862
10
213.87212331385112
20
-97.613483595661862
10
213.87212331385112
20
-111.71348359566187
0
LWPOLYLINE
5
235
100
AcDbEntity
8
0
100
AcDbPolyline
90
4
70
1
43
0.0
10
213.87212331385112
20
-92.663483595661887
10
199.77212331385115
20
-92.663483595661887
10
199.77212331385115
20
-78.563483595661921
10
213.87212331385112
20
-78.563483595661921
0
LWPOLYLINE
5
236
100
AcDbEntity
8
0
100
AcDbPolyline
90
4
70
1
43
0.0
10
232.92212331385113
20
-92.663483595661887
10
218.82212331385116
20
-92.663483595661887
10
218.82212331385114
20
-78.563483595661907
10
232.9221233138511
20
-78.563483595661893
0
LWPOLYLINE
5
237
100
AcDbEntity
8
0
100
AcDbPolyline
90
4
70
1
43
0.0
10
213.87212331385112
20
-73.613483595661918
10
199.77212331385115
20
-73.613483595661918
10
199.77212331385115
20
-59.513483595661953
10
213.87212331385112
20
-59.513483595661938
0
LWPOLYLINE
5
238
100
AcDbEntity
8
0
100
AcDbPolyline
90
4
70
1
43
0.0
10
237.87212331385109
20
-78.563483595661893
10
251.97212331385106
20
-78.563483595661893
10
251.97212331385106
20
-92.663483595661873
10
237.87212331385109
20
-92.663483595661887
0
LWPOLYLINE
5
239
100
AcDbEntity
8
0
100
AcDbPolyline
90
4
70
1
43
0.0
10
256.92212331385105
20
-97.613483595661847
10
271.02212331385101
20
-97.613483595661847
10
271.02212331385101
20
-111.71348359566183
10
256.92212331385105
20
-111.71348359566183
0
LWPOLYLINE
5
240
100
AcDbEntity
8
0
100
AcDbPolyline
90
4
70
1
43
0.0
10
271.02212331385101
20
-73.61348359566189
10
256.92212331385105
20
-73.613483595661904
10
256.92212331385105
20
-59.513483595661924
10
271.02212331385101
20
-59.513483595661924
0
LWPOLYLINE
5
241
100
AcDbEntity
8
0
100
AcDbPolyline
90
4
70
1
43
0.0
10
328.17212331385093
20
-92.663483595661859
10
314.07212331385091
20
-92.663483595661859
10
314.07212331385091
20
-78.563483595661864
10
328.17212331385093
20
-78.563483595661864
0
LWPOLYLINE
5
242
100
AcDbEntity
8
0
100
AcDbPolyline
90
4
70
1
43
0.0
10
314.07212331385091
20
-116.6634835956618
10
328.17212331385093
20
-116.66348359566179
10
328.17212331385099
20
-130.76348359566177
10
314.07212331385102
20
-130.76348359566177
0
LWPOLYLINE
5
243
100
AcDbEntity
8
0
100
AcDbPolyline
90
4
70
1
43
0.0
10
295.02212331385101
20
-97.613483595661833
10
309.12212331385098
20
-97.613483595661833
10
309.12212331385098
20
-111.71348359566183
10
295.02212331385101
20
-111.71348359566183
0
LWPOLYLINE
5
244
100
AcDbEntity
8
0
100
AcDbPolyline
90
4
70
1
43
0.0
10
309.12212331385098
20
-73.613483595661876
10
295.02212331385101
20
-73.61348359566189
10
295.02212331385101
20
-59.51348359566191
10
309.12212331385098
20
-59.513483595661903
0
LWPOLYLINE
5
245
100
AcDbEntity
8
0
100
AcDbPolyline
90
4
70
1
43
0.0
10
290.07212331385102
20
-92.663483595661859
10
275.97212331385106
20
-92.663483595661873
10
275.97212331385106
20
-78.563483595661879
10
290.07212331385102
20
-78.563483595661879
0
LWPOLYLINE
5
246
100
AcDbEntity
8
0
100
AcDbPolyline
90
4
70
1
43
0.0
10
275.97212331385106
20
-116.6634835956618
10
290.07212331385102
20
-116.6634835956618
10
290.07212331385102
20
-130.7634835956618
10
275.97212331385106
20
-130.7634835956618
0
LWPOLYLINE
5
247
100
AcDbEntity
8
0
100
AcDbPolyline
90
4
70
1
43
0.0
10
290.07212331385102
20
-111.71348359566183
10
275.97212331385106
20
-111.71348359566183
10
275.97212331385106
20
-97.613483595661847
10
290.07212331385102
20
-97.613483595661833
0
LWPOLYLINE
5
248
100
AcDbEntity
8
0
100
AcDbPolyline
90
4
70
1
43
0.0
10
290.07212331385102
20
-73.61348359566189
10
275.97212331385106
20
-73.61348359566189
10
275.97212331385106
20
-59.513483595661924
10
290.07212331385102
20
-59.51348359566191
0
LWPOLYLINE
5
249
100
AcDbEntity
8
0
100
AcDbPolyline
90
4
70
1
43
0.0
10
295.02212331385101
20
-78.563483595661879
10
309.12212331385098
20
-78.563483595661864
10
309.12212331385098
20
-92.663483595661859
10
295.02212331385101
20
-92.663483595661859
0
LWPOLYLINE
5
250
100
AcDbEntity
8
0
100
AcDbPolyline
90
4
70
1
43
0.0
10
295.02212331385101
20
-116.6634835956618
10
309.12212331385098
20
-116.6634835956618
10
309.12212331385103
20
-130.76348359566177
10
295.02212331385107
20
-130.7634835956618
0
LWPOLYLINE
5
251
100
AcDbEntity
8
0
100
AcDbPolyline
90
4
70
1
43
0.0
10
328.17212331385093
20
-111.71348359566181
10
314.07212331385091
20
-111.71348359566183
10
314.07212331385091
20
-97.613483595661833
10
328.17212331385093
20
-97.613483595661833
0
LWPOLYLINE
5
252
100
AcDbEntity
8
0
100
AcDbPolyline
90
4
70
1
43
0.0
10
328.17212331385093
20
-73.613483595661876
10
314.07212331385091
20
-73.613483595661876
10
314.07212331385091
20
-59.513483595661903
10
328.17212331385093
20
-59.513483595661896
0
ENDSEC
0
SECTION
2
OBJECTS
0
DICTIONARY
5
C
100
AcDbDictionary
3
ACAD_GROUP
350
D
3
ACAD_MLINESTYLE
350
17
0
DICTIONARY
5
D
100
AcDbDictionary
0
DICTIONARY
5
1A
330
C
100
AcDbDictionary
0
DICTIONARY
5
17
100
AcDbDictionary
0
ENDSEC
0
EOF
