0
SECTION
2
HEADER
9
$INSUNITS
70
4
9
$ACADVER
1
AC1014
9
$HANDSEED
5
FFFF
0
ENDSEC
0
SECTION
2
TABLES
0
TABLE
2
VPORT
5
8
100
AcDbSymbolTable
0
ENDTAB
0
TABLE
2
LTYPE
5
5
100
AcDbSymbolTable
0
LTYPE
5
14
100
AcDbSymbolTableRecord
100
AcDbLinetypeTableRecord
2
BYBLOCK
70
0
0
LTYPE
5
15
100
AcDbSymbolTableRecord
100
AcDbLinetypeTableRecord
2
BYLAYER
70
0
0
ENDTAB
0
TABLE
2
LAYER
5
2
100
AcDbSymbolTable
70
2
0
LAYER
5
50
100
AcDbSymbolTableRecord
100
AcDbLayerTableRecord
2
0
70
0
6
CONTINUOUS
0
ENDTAB
0
TABLE
2
STYLE
5
3
100
AcDbSymbolTable
70
1
0
STYLE
5
11
100
AcDbSymbolTableRecord
100
AcDbTextStyleTableRecord
2
STANDARD
70
0
0
ENDTAB
0
TABLE
2
VIEW
5
6
100
AcDbSymbolTable
70
0
0
ENDTAB
0
TABLE
2
UCS
5
7
100
AcDbSymbolTable
70
0
0
ENDTAB
0
TABLE
2
APPID
5
9
100
AcDbSymbolTable
70
2
0
APPID
5
12
100
AcDbSymbolTableRecord
100
AcDbRegAppTableRecord
2
ACAD
70
0
0
ENDTAB
0
TABLE
2
DIMSTYLE
5
A
100
AcDbSymbolTable
70
1
0
ENDTAB
0
TABLE
2
BLOCK_RECORD
5
1
100
AcDbSymbolTable
70
1
0
BLOCK_RECORD
5
1F
100
AcDbSymbolTableRecord
100
AcDbBlockTableRecord
2
*MODEL_SPACE
0
BLOCK_RECORD
5
1B
100
AcDbSymbolTableRecord
100
AcDbBlockTableRecord
2
*PAPER_SPACE
0
ENDTAB
0
ENDSEC
0
SECTION
2
BLOCKS
0
BLOCK
5
20
100
AcDbEntity
100
AcDbBlockBegin
2
*MODEL_SPACE
0
ENDBLK
5
21
100
AcDbEntity
100
AcDbBlockEnd
0
BLOCK
5
1C
100
AcDbEntity
100
AcDbBlockBegin
2
*PAPER_SPACE
0
ENDBLK
5
1D
100
AcDbEntity
100
AcDbBlockEnd
0
ENDSEC
0
SECTION
2
ENTITIES
0
CIRCLE
5
100
100
AcDbEntity
8
0
100
AcDbCircle
10
-267.47787668614865
20
170.07006399999997
30
0
40
1
210
0
220
0
230
1
0
CIRCLE
5
101
100
AcDbEntity
8
0
100
AcDbCircle
10
-38.877876686149051
20
170.07006399999997
30
0
40
1
210
0
220
0
230
1
0
CIRCLE
5
102
100
AcDbEntity
8
0
100
AcDbCircle
10
-114.87787668614907
20
170.07006399999997
30
0
40
1
210
0
220
0
230
1
0
CIRCLE
5
103
100
AcDbEntity
8
0
100
AcDbCircle
10
-267.47787668614865
20
258.740072
30
0
40
1
210
0
220
0
230
1
0
LWPOLYLINE
5
104
100
AcDbEntity
8
0
100
AcDbPolyline
90
16
70
1
43
0.0
10
-17.758980000000051
20
250.41996606609345
10
-17.758980000000051
20
177.71999050648907
10
-17.758980000000058
20
176.90006399999999
42
-0.41421356237309509
10
-29.758980000000051
20
164.90006399999999
10
-31.158900000000003
20
164.90006399999999
10
-275.39623062795278
20
164.90006399999999
10
-276.24007
20
164.90006399999999
42
-0.4142135623731002
10
-288.24007
20
176.90006399999999
10
-288.24007
20
178.29998399999999
10
-288.24007
20
251.07011087068216
10
-288.24007000000006
20
251.91007200000001
42
-0.41421356237309936
10
-276.24007
20
263.91007200000001
10
-274.83989600000001
20
263.91007200000001
10
-30.598176079299648
20
263.91007200000001
10
-29.758980000000051
20
263.91007200000001
42
-0.41421356237309359
10
-17.758980000000051
20
251.91007200000001
0
CIRCLE
5
105
100
AcDbEntity
8
0
100
AcDbCircle
10
-114.87787668614907
20
258.740072
30
0
40
1
210
0
220
0
230
1
0
CIRCLE
5
106
100
AcDbEntity
8
0
100
AcDbCircle
10
-38.877876686149051
20
258.740072
30
0
40
1
210
0
220
0
230
1
0
CIRCLE
5
107
100
AcDbEntity
8
0
100
AcDbCircle
10
-191.47787668614865
20
258.740072
30
0
40
1
210
0
220
0
230
1
0
CIRCLE
5
108
100
AcDbEntity
8
0
100
AcDbCircle
10
-191.47787668614865
20
170.07006399999997
30
0
40
1
210
0
220
0
230
1
0
LINE
5
109
100
AcDbEntity
8
0
100
AcDbLine
10
-30.443801379952049
20
64.751703761989177
30
0
11
-29.783154579145616
21
64.957027084254236
31
0
0
LINE
5
110
100
AcDbEntity
8
0
100
AcDbLine
10
-31.082737889703438
20
143.99663111600563
30
0
11
-239.69174582018539
21
143.99663111600569
31
0
0
LINE
5
111
100
AcDbEntity
8
0
100
AcDbLine
10
-17.758918452238603
20
67.656549622494424
30
0
11
-17.758918452238603
21
140.44645711600563
31
0
0
LINE
5
112
100
AcDbEntity
8
0
100
AcDbLine
10
-27.60891845223874
20
68.157460232154364
30
0
11
-27.60891845223874
21
140.44645711600563
31
0
0
LINE
5
113
100
AcDbEntity
8
0
100
AcDbLine
10
-239.69174582018539
20
149.34663111600568
30
0
11
-239.69174582018539
21
143.99663111600569
31
0
0
LINE
5
114
100
AcDbEntity
8
0
100
AcDbLine
10
-239.69174582018539
20
151.34663111600565
30
0
11
-239.69174582018539
21
151.84663111603277
31
0
0
ARC
5
115
100
AcDbEntity
8
0
100
AcDbCircle
10
-237.69174582018539
20
151.84663111603277
30
0
40
1.9999999999999929
210
0
220
-0
230
1
100
AcDbArc
50
90
51
180
0
LINE
5
116
100
AcDbEntity
8
0
100
AcDbLine
10
-239.69174582018539
20
149.34663111600568
30
0
11
-239.69174582018539
21
151.34663111600565
31
0
0
LINE
5
117
100
AcDbEntity
8
0
100
AcDbLine
10
-237.69164579636751
20
153.84663111603277
30
0
11
-237.69174582018539
21
153.84663111603277
31
0
0
CIRCLE
5
118
100
AcDbEntity
8
0
100
AcDbCircle
10
-191.47781513838714
20
148.686702029711
30
0
40
1.5000000000000036
210
0
220
0
230
1
0
LINE
5
119
100
AcDbEntity
8
0
100
AcDbLine
10
-31.158838452238697
20
64.686623116005705
30
0
11
-31.065025727975737
21
64.686623116005705
31
0
0
LINE
5
120
100
AcDbEntity
8
0
100
AcDbLine
10
-29.783154579145616
20
64.957027084254236
30
0
11
-29.169645153573285
21
65.287085643438047
31
0
0
LINE
5
121
100
AcDbEntity
8
0
100
AcDbLine
10
-28.199182529095737
20
66.266949200866918
30
0
11
-27.871095463024247
21
66.879378390866862
31
0
0
LINE
5
122
100
AcDbEntity
8
0
100
AcDbLine
10
-29.801343274299157
20
143.73532559842275
30
0
11
-30.468964521945523
21
143.93608884503632
31
0
0
LINE
5
123
100
AcDbEntity
8
0
100
AcDbLine
10
-276.19544223708607
20
64.947572879743035
30
0
11
-275.53086258707702
21
64.746819399210608
31
0
0
LINE
5
124
100
AcDbEntity
8
0
100
AcDbLine
10
-28.20806103085971
20
142.43386562752465
30
0
11
-28.653982095674024
21
142.97328627044524
31
0
0
LINE
5
125
100
AcDbEntity
8
0
100
AcDbLine
10
-278.32944967180958
20
141.13747794353853
30
0
11
-278.39000845223842
21
140.52270191049462
31
0
0
LINE
5
126
100
AcDbEntity
8
0
100
AcDbLine
10
-257.30314450210989
20
143.99663111600569
30
0
11
-274.83983445223839
21
143.99663111600569
31
0
0
LINE
5
127
100
AcDbEntity
8
0
100
AcDbLine
10
-277.36417302297093
20
142.95337235510155
30
0
11
-277.80279909717217
21
142.41531802763782
31
0
0
LINE
5
128
100
AcDbEntity
8
0
100
AcDbLine
10
-277.78915762455603
20
66.247264649526642
30
0
11
-277.34674964057524
21
65.712569408672422
31
0
0
LINE
5
129
100
AcDbEntity
8
0
100
AcDbLine
10
-278.11919126988846
20
66.857874448671893
30
0
11
-277.78915762455603
21
66.247264649526642
31
0
0
CIRCLE
5
130
100
AcDbEntity
8
0
100
AcDbCircle
10
-38.877815138387746
20
60.016694029711068
30
0
40
1.5000000000000036
210
0
220
0
230
1
0
LINE
5
131
100
AcDbEntity
8
0
100
AcDbLine
10
-257.30314450210989
20
149.34663298391857
30
0
11
-257.30314450210989
21
143.99663111600569
31
0
0
CIRCLE
5
132
100
AcDbEntity
8
0
100
AcDbCircle
10
-267.47781513838709
20
60.016694029711118
30
0
40
1.5000000000000036
210
0
220
0
230
1
0
LINE
5
133
100
AcDbEntity
8
0
100
AcDbLine
10
-275.39616908019173
20
54.836623116005789
30
0
11
-31.158838452238697
21
54.83662311600574
31
0
0
LINE
5
134
100
AcDbEntity
8
0
100
AcDbLine
10
-27.879386313130965
20
141.8222448484467
30
0
11
-28.20806103085971
21
142.43386562752465
31
0
0
CIRCLE
5
135
100
AcDbEntity
8
0
100
AcDbCircle
10
-114.87781513838769
20
148.686702029711
30
0
40
1.5000000000000036
210
0
220
0
230
1
0
CIRCLE
5
136
100
AcDbEntity
8
0
100
AcDbCircle
10
-38.877815138387746
20
148.686702029711
30
0
40
1.5000000000000036
210
0
220
0
230
1
0
LINE
5
137
100
AcDbEntity
8
0
100
AcDbLine
10
-30.468964521945523
20
143.93608884503632
30
0
11
-31.082737889703438
21
143.99663111600563
31
0
0
LINE
5
138
100
AcDbEntity
8
0
100
AcDbLine
10
-29.193230189848407
20
143.40941499222487
30
0
11
-29.801343274299157
21
143.73532559842275
31
0
0
LINE
5
139
100
AcDbEntity
8
0
100
AcDbLine
10
-27.67632938991774
20
141.1639626369136
30
0
11
-27.879386313130965
21
141.8222448484467
31
0
0
LINE
5
140
100
AcDbEntity
8
0
100
AcDbLine
10
-29.169645153573285
20
65.287085643438047
30
0
11
-28.634167322994131
21
65.732201590107024
31
0
0
LINE
5
141
100
AcDbEntity
8
0
100
AcDbLine
10
-27.60891845223874
20
140.54462464698747
30
0
11
-27.67632938991774
21
141.1639626369136
31
0
0
CIRCLE
5
142
100
AcDbEntity
8
0
100
AcDbCircle
10
-114.87781513838769
20
60.016694029711104
30
0
40
1.5000000000000036
210
0
220
0
230
1
0
LINE
5
143
100
AcDbEntity
8
0
100
AcDbLine
10
-274.91552280320553
20
64.686623116005734
30
0
11
-31.158838452238697
21
64.686623116005705
31
0
0
LINE
5
144
100
AcDbEntity
8
0
100
AcDbLine
10
-28.653982095674024
20
142.97328627044524
30
0
11
-29.193230189848407
21
143.40941499222487
31
0
0
LINE
5
145
100
AcDbEntity
8
0
100
AcDbLine
10
-27.60891845223874
20
140.44645711600563
30
0
11
-27.60891845223874
21
140.54462464698747
31
0
0
LINE
5
146
100
AcDbEntity
8
0
100
AcDbLine
10
-259.30314450211711
20
153.84663111604326
30
0
11
-274.83973445223961
21
153.84663111600565
31
0
0
LINE
5
147
100
AcDbEntity
8
0
100
AcDbLine
10
-275.5557489235423
20
143.93120117374542
30
0
11
-276.21850311957223
21
143.72581393365576
31
0
0
LINE
5
148
100
AcDbEntity
8
0
100
AcDbLine
10
-274.93521979371894
20
143.99663111600569
30
0
11
-275.5557489235423
21
143.93120117374542
31
0
0
LINE
5
149
100
AcDbEntity
8
0
100
AcDbLine
10
-274.83983445223839
20
143.99663111600569
30
0
11
-274.93521979371894
21
143.99663111600569
31
0
0
LINE
5
150
100
AcDbEntity
8
0
100
AcDbLine
10
-277.80279909717217
20
142.41531802763782
30
0
11
-278.12916978199121
21
141.80206465630857
31
0
0
CIRCLE
5
151
100
AcDbEntity
8
0
100
AcDbCircle
10
-191.47781513838714
20
60.016694029711118
30
0
40
1.5000000000000036
210
0
220
0
230
1
0
LINE
5
152
100
AcDbEntity
8
0
100
AcDbLine
10
-257.30314450210989
20
149.34663298391857
30
0
11
-257.30104969698777
21
151.34663111600491
31
0
0
ARC
5
153
100
AcDbEntity
8
0
100
AcDbCircle
10
-259.30000229552388
20
151.84663111604326
30
0
40
1.9999999999999929
210
-0
220
0
230
1
100
AcDbArc
50
0
51
90
0
LINE
5
154
100
AcDbEntity
8
0
100
AcDbLine
10
-278.39000845223842
20
68.236543116005762
30
0
11
-278.39000845223842
21
68.141157774525411
31
0
0
LINE
5
155
100
AcDbEntity
8
0
100
AcDbLine
10
-278.12916978199121
20
141.80206465630857
30
0
11
-278.32944967180958
21
141.13747794353853
31
0
0
LINE
5
156
100
AcDbEntity
8
0
100
AcDbLine
10
-288.24000845223844
20
141.00666998668777
30
0
11
-288.24000845223844
21
68.236543116005777
31
0
0
LINE
5
157
100
AcDbEntity
8
0
100
AcDbLine
10
-276.80869547966824
20
65.273467737127589
30
0
11
-276.19544223708607
21
64.947572879743035
31
0
0
LINE
5
158
100
AcDbEntity
8
0
100
AcDbLine
10
-259.3030445021123
20
153.84663111604326
30
0
11
-259.30314450211711
21
153.84663111604326
31
0
0
LINE
5
159
100
AcDbEntity
8
0
100
AcDbLine
10
-259.3030445021123
20
153.84663111604326
30
0
11
-259.30000229552388
21
153.84663111604326
31
0
0
LINE
5
160
100
AcDbEntity
8
0
100
AcDbLine
10
-276.21850311957223
20
143.72581393365576
30
0
11
-276.82879289586174
21
143.39595326017846
31
0
0
LINE
5
161
100
AcDbEntity
8
0
100
AcDbLine
10
-257.30104969698777
20
151.34663111600491
30
0
11
-257.30048020316917
21
151.89035070187691
31
0
0
LINE
5
162
100
AcDbEntity
8
0
100
AcDbLine
10
-278.39000845223842
20
68.141157774525411
30
0
11
-278.3245785099781
21
67.520628644701958
31
0
0
CIRCLE
5
163
100
AcDbEntity
8
0
100
AcDbCircle
10
-267.47781513838709
20
148.68670202971103
30
0
40
1.5000000000000036
210
0
220
0
230
1
0
LINE
5
164
100
AcDbEntity
8
0
100
AcDbLine
10
-278.39000845223842
20
140.52270191049462
30
0
11
-278.39000845223842
21
68.236543116005762
31
0
0
LINE
5
165
100
AcDbEntity
8
0
100
AcDbLine
10
-275.53086258707702
20
64.746819399210608
30
0
11
-274.91552280320553
21
64.686623116005734
31
0
0
LINE
5
166
100
AcDbEntity
8
0
100
AcDbLine
10
-277.34674964057524
20
65.712569408672422
30
0
11
-276.80869547966824
21
65.273467737127589
31
0
0
LINE
5
167
100
AcDbEntity
8
0
100
AcDbLine
10
-278.3245785099781
20
67.520628644701958
30
0
11
-278.11919126988846
21
66.857874448671893
31
0
0
LINE
5
168
100
AcDbEntity
8
0
100
AcDbLine
10
-276.82879289586174
20
143.39595326017846
30
0
11
-277.36417302297093
21
142.95337235510155
31
0
0
LINE
5
169
100
AcDbEntity
8
0
100
AcDbLine
10
-30.598014519658463
20
153.84662125088823
30
0
11
-237.69164579636751
21
153.84663111603277
31
0
0
LINE
5
170
100
AcDbEntity
8
0
100
AcDbLine
10
-28.634167322994131
20
65.732201590107024
30
0
11
-28.199182529095737
21
66.266949200866918
31
0
0
LINE
5
171
100
AcDbEntity
8
0
100
AcDbLine
10
-27.671499646101694
20
67.543747324337602
30
0
11
-27.60891845223874
21
68.157460232154364
31
0
0
LINE
5
172
100
AcDbEntity
8
0
100
AcDbLine
10
-27.871095463024247
20
66.879378390866862
30
0
11
-27.671499646101694
21
67.543747324337602
31
0
0
LINE
5
173
100
AcDbEntity
8
0
100
AcDbLine
10
-31.065025727975737
20
64.686623116005705
30
0
11
-30.443801379952049
21
64.751703761989177
31
0
0
LINE
5
174
100
AcDbEntity
8
0
100
AcDbLine
10
-278.3245785099781
20
-52.479371355298042
30
0
11
-278.11919126988846
21
-53.142125551328107
31
0
0
LINE
5
175
100
AcDbEntity
8
0
100
AcDbLine
10
-274.91552280320553
20
-55.313376883994266
30
0
11
-31.158838452238697
21
-55.313376883994287
31
0
0
ARC
5
176
100
AcDbEntity
8
0
100
AcDbCircle
10
-237.69174582018809
20
31.346631116032793
30
0
40
1.9999999999999929
210
0
220
-0
230
1
100
AcDbArc
50
89.999999999846935
51
180
0
LINE
5
177
100
AcDbEntity
8
0
100
AcDbLine
10
-27.879386313130965
20
21.82224484844669
30
0
11
-28.20806103085971
21
22.433865627524643
31
0
0
LINE
5
178
100
AcDbEntity
8
0
100
AcDbLine
10
-274.83983445223839
20
23.996631116005691
30
0
11
-274.93521979371894
21
23.996631116005691
31
0
0
LINE
5
179
100
AcDbEntity
8
0
100
AcDbLine
10
-275.37177079201962
20
-64.663376883994218
30
0
11
-31.158838452238697
21
-64.663376883994275
31
0
0
LINE
5
180
100
AcDbEntity
8
0
100
AcDbLine
10
-259.30314450211711
20
33.346631116043248
30
0
11
-274.83973445223842
21
33.346631116005682
31
0
0
LINE
5
181
100
AcDbEntity
8
0
100
AcDbLine
10
-276.82879289586174
20
23.395953260178448
30
0
11
-277.36417302297093
21
22.953372355101553
31
0
0
LINE
5
182
100
AcDbEntity
8
0
100
AcDbLine
10
-259.3030445021123
20
33.346631116043248
30
0
11
-259.30314450211711
21
33.346631116043248
31
0
0
LINE
5
183
100
AcDbEntity
8
0
100
AcDbLine
10
-257.30314450210989
20
29.346631116005675
30
0
11
-257.30314450210989
21
23.996631116005691
31
0
0
LINE
5
184
100
AcDbEntity
8
0
100
AcDbLine
10
-275.5557489235423
20
23.931201173745418
30
0
11
-276.21850311957223
21
23.725813933655768
31
0
0
LINE
5
185
100
AcDbEntity
8
0
100
AcDbLine
10
-277.80279909717217
20
22.415318027637827
30
0
11
-278.12916978199121
21
21.802064656308584
31
0
0
LINE
5
186
100
AcDbEntity
8
0
100
AcDbLine
10
-278.12916978199121
20
21.802064656308584
30
0
11
-278.32944967180958
21
21.137477943538538
31
0
0
LINE
5
187
100
AcDbEntity
8
0
100
AcDbLine
10
-259.3030445021123
20
33.346631116043248
30
0
11
-259.30314450210983
21
33.346631116043248
31
0
0
LINE
5
188
100
AcDbEntity
8
0
100
AcDbLine
10
-31.082737889703438
20
23.996631116005638
30
0
11
-239.69174582018539
21
23.99663111600568
31
0
0
LINE
5
189
100
AcDbEntity
8
0
100
AcDbLine
10
-274.93521979371894
20
23.996631116005691
30
0
11
-275.5557489235423
21
23.931201173745418
31
0
0
LINE
5
190
100
AcDbEntity
8
0
100
AcDbLine
10
-276.21850311957223
20
23.725813933655768
30
0
11
-276.82879289586174
21
23.395953260178448
31
0
0
LINE
5
191
100
AcDbEntity
8
0
100
AcDbLine
10
-278.32944967180958
20
21.137477943538538
30
0
11
-278.39000845223842
21
20.522701910494607
31
0
0
LINE
5
192
100
AcDbEntity
8
0
100
AcDbLine
10
-277.36417302297093
20
22.953372355101553
30
0
11
-277.80279909717217
21
22.415318027637827
31
0
0
ARC
5
193
100
AcDbEntity
8
0
100
AcDbCircle
10
-259.30314450210983
20
31.346631116043262
30
0
40
1.9999999999999929
210
-0
220
0
230
1
100
AcDbArc
50
0
51
90
0
CIRCLE
5
194
100
AcDbEntity
8
0
100
AcDbCircle
10
-267.47781513838709
20
28.686702029711022
30
0
40
1.5000000000000036
210
0
220
0
230
1
0
LINE
5
195
100
AcDbEntity
8
0
100
AcDbLine
10
-257.30314450210989
20
29.346631116005675
30
0
11
-257.30314450210989
21
31.346631116005685
31
0
0
ARC
5
196
100
AcDbEntity
8
0
100
AcDbCircle
10
-259.30310737477032
20
33.346620231583827
30
0
40
1.0000108930965765
210
0
220
-0
230
1
100
AcDbArc
50
89.992129114873691
51
89.997858630416104
0
LINE
5
197
100
AcDbEntity
8
0
100
AcDbLine
10
-257.30314450210989
20
23.996631116005691
30
0
11
-274.83983445223839
21
23.996631116005691
31
0
0
LINE
5
198
100
AcDbEntity
8
0
100
AcDbLine
10
-237.69164582018556
20
33.346631116032782
30
0
11
-237.69174582018275
21
33.346631116032782
31
0
0
LINE
5
199
100
AcDbEntity
8
0
100
AcDbLine
10
-237.69164577254941
20
34.346631116032782
30
0
11
-237.69174609125744
21
34.346631116005639
31
0
0
LINE
5
200
100
AcDbEntity
8
0
100
AcDbLine
10
-239.69174582018539
20
29.346631116005668
30
0
11
-239.69174582018539
21
31.346631116005668
31
0
0
LINE
5
201
100
AcDbEntity
8
0
100
AcDbLine
10
-239.69174582018539
20
29.346631116005668
30
0
11
-239.69174582018539
21
23.99663111600568
31
0
0
CIRCLE
5
202
100
AcDbEntity
8
0
100
AcDbCircle
10
-191.47781513838714
20
-59.983305970288882
30
0
40
1.5000000000000036
210
0
220
0
230
1
0
LINE
5
203
100
AcDbEntity
8
0
100
AcDbLine
10
-259.30297000041384
20
34.346631115244648
30
0
11
-259.30287000041477
21
34.34663110151164
31
0
0
CIRCLE
5
204
100
AcDbEntity
8
0
100
AcDbCircle
10
-114.87781513838769
20
-59.983305970288896
30
0
40
1.5000000000000036
210
0
220
0
230
1
0
CIRCLE
5
205
100
AcDbEntity
8
0
100
AcDbCircle
10
-114.87781513838769
20
28.686702029711
30
0
40
1.5000000000000036
210
0
220
0
230
1
0
LINE
5
206
100
AcDbEntity
8
0
100
AcDbLine
10
-278.39000845223842
20
-51.858842225474589
30
0
11
-278.3245785099781
21
-52.479371355298042
31
0
0
LINE
5
207
100
AcDbEntity
8
0
100
AcDbLine
10
-237.69164577254941
20
34.346631116032782
30
0
11
-237.69174582018539
21
34.346631116032782
31
0
0
LINE
5
208
100
AcDbEntity
8
0
100
AcDbLine
10
-30.62261470200383
20
33.346621252060089
30
0
11
-237.69164582018556
21
33.346631116032782
31
0
0
CIRCLE
5
209
100
AcDbEntity
8
0
100
AcDbCircle
10
-191.47781513838714
20
28.686702029711011
30
0
40
1.5000000000000036
210
0
220
0
230
1
0
LINE
5
210
100
AcDbEntity
8
0
100
AcDbLine
10
-277.34674964057524
20
-54.287430591327578
30
0
11
-276.80869547966824
21
-54.726532262872411
31
0
0
LINE
5
211
100
AcDbEntity
8
0
100
AcDbLine
10
-27.60891845223874
20
20.446457116005625
30
0
11
-27.60891845223874
21
20.544624646987479
31
0
0
LINE
5
212
100
AcDbEntity
8
0
100
AcDbLine
10
-27.60891845223874
20
20.544624646987479
30
0
11
-27.67632938991774
21
21.163962636913602
31
0
0
LINE
5
213
100
AcDbEntity
8
0
100
AcDbLine
10
-287.74000845223844
20
20.982103079266814
30
0
11
-287.74000845223844
21
-51.763456883994223
31
0
0
LINE
5
214
100
AcDbEntity
8
0
100
AcDbLine
10
-30.443801379952049
20
-55.248296238010823
30
0
11
-29.783154579145616
21
-55.042972915745771
31
0
0
LINE
5
215
100
AcDbEntity
8
0
100
AcDbLine
10
-27.671499646101694
20
-52.456252675662398
30
0
11
-27.60891845223874
21
-51.842539767845643
31
0
0
LINE
5
216
100
AcDbEntity
8
0
100
AcDbLine
10
-18.258918452238646
20
-51.981400326999072
30
0
11
-18.258918452238646
21
19.819716167871437
31
0
0
LINE
5
217
100
AcDbEntity
8
0
100
AcDbLine
10
-27.60891845223874
20
-51.842539767845643
30
0
11
-27.60891845223874
21
20.446457116005625
31
0
0
LINE
5
218
100
AcDbEntity
8
0
100
AcDbLine
10
-29.783154579145616
20
-55.042972915745771
30
0
11
-29.169645153573285
21
-54.712914356561946
31
0
0
LINE
5
219
100
AcDbEntity
8
0
100
AcDbLine
10
-28.199182529095737
20
-53.733050799133082
30
0
11
-27.871095463024247
21
-53.120621609133138
31
0
0
LINE
5
220
100
AcDbEntity
8
0
100
AcDbLine
10
-29.169645153573285
20
-54.712914356561946
30
0
11
-28.634167322994131
21
-54.267798409892976
31
0
0
LINE
5
221
100
AcDbEntity
8
0
100
AcDbLine
10
-28.653982095674024
20
22.97328627044525
30
0
11
-29.193230189848407
21
23.409414992224882
31
0
0
LINE
5
222
100
AcDbEntity
8
0
100
AcDbLine
10
-276.19544223708607
20
-55.052427120256965
30
0
11
-275.53086258707702
21
-55.253180600789392
31
0
0
CIRCLE
5
223
100
AcDbEntity
8
0
100
AcDbCircle
10
-38.877815138387746
20
28.686702029710993
30
0
40
1.5000000000000036
210
0
220
0
230
1
0
LINE
5
224
100
AcDbEntity
8
0
100
AcDbLine
10
-28.20806103085971
20
22.433865627524643
30
0
11
-28.653982095674024
21
22.97328627044525
31
0
0
CIRCLE
5
225
100
AcDbEntity
8
0
100
AcDbCircle
10
-38.877815138387746
20
-59.983305970288932
30
0
40
1.5000000000000036
210
0
220
0
230
1
0
LINE
5
226
100
AcDbEntity
8
0
100
AcDbLine
10
-31.158838452238697
20
-55.313376883994287
30
0
11
-31.065025727975737
21
-55.313376883994287
31
0
0
LINE
5
227
100
AcDbEntity
8
0
100
AcDbLine
10
-31.065025727975737
20
-55.313376883994287
30
0
11
-30.443801379952049
21
-55.248296238010823
31
0
0
LINE
5
228
100
AcDbEntity
8
0
100
AcDbLine
10
-28.634167322994131
20
-54.267798409892976
30
0
11
-28.199182529095737
21
-53.733050799133082
31
0
0
LINE
5
229
100
AcDbEntity
8
0
100
AcDbLine
10
-278.39000845223842
20
-51.763456883994238
30
0
11
-278.39000845223842
21
-51.858842225474589
31
0
0
LINE
5
230
100
AcDbEntity
8
0
100
AcDbLine
10
-29.801343274299157
20
23.735325598422747
30
0
11
-30.468964521945523
21
23.936088845036334
31
0
0
LINE
5
231
100
AcDbEntity
8
0
100
AcDbLine
10
-277.78915762455603
20
-53.752735350473358
30
0
11
-277.34674964057524
21
-54.287430591327578
31
0
0
LINE
5
232
100
AcDbEntity
8
0
100
AcDbLine
10
-27.871095463024247
20
-53.120621609133138
30
0
11
-27.671499646101694
21
-52.456252675662398
31
0
0
LINE
5
233
100
AcDbEntity
8
0
100
AcDbLine
10
-275.53086258707702
20
-55.253180600789392
30
0
11
-274.91552280320553
21
-55.313376883994266
31
0
0
LINE
5
234
100
AcDbEntity
8
0
100
AcDbLine
10
-29.193230189848407
20
23.409414992224882
30
0
11
-29.801343274299157
21
23.735325598422747
31
0
0
LINE
5
235
100
AcDbEntity
8
0
100
AcDbLine
10
-278.39000845223842
20
20.522701910494607
30
0
11
-278.39000845223842
21
-51.763456883994238
31
0
0
LINE
5
236
100
AcDbEntity
8
0
100
AcDbLine
10
-27.67632938991774
20
21.163962636913602
30
0
11
-27.879386313130965
21
21.82224484844669
31
0
0
LINE
5
237
100
AcDbEntity
8
0
100
AcDbLine
10
-276.80869547966824
20
-54.726532262872411
30
0
11
-276.19544223708607
21
-55.052427120256965
31
0
0
LINE
5
238
100
AcDbEntity
8
0
100
AcDbLine
10
-30.468964521945523
20
23.936088845036334
30
0
11
-31.082737889703438
21
23.996631116005638
31
0
0
LINE
5
239
100
AcDbEntity
8
0
100
AcDbLine
10
-278.11919126988846
20
-53.142125551328107
30
0
11
-277.78915762455603
21
-53.752735350473358
31
0
0
CIRCLE
5
240
100
AcDbEntity
8
0
100
AcDbCircle
10
-267.47781513838709
20
-59.983305970288882
30
0
40
1.5000000000000036
210
0
220
0
230
1
0
LWPOLYLINE
5
241
100
AcDbEntity
8
0
100
AcDbPolyline
90
26
70
1
43
0.0
10
-241.69488836325439
20
-125.28397834418037
10
-241.69488836325434
20
-90.293936029499235
10
-241.69488836325439
20
-83.443936029499241
42
-0.4142135623731002
10
-239.69488836325439
20
-81.443936029499213
10
-239.6949883632544
20
-81.443936029499213
10
-33.156917884318808
20
-81.443936029500108
10
-33.268549850587263
20
-81.443936029500108
42
-0.41421356237309293
10
-21.268549850587306
20
-93.443936029500122
10
-21.268549850587313
20
-93.844110029499248
10
-21.268549850587295
20
-166.58316365400935
10
-21.268549850587295
20
-166.4539440294991
42
-0.4142135623730937
10
-33.268549850587306
20
-178.4539440294991
10
-33.668469850587357
20
-178.4539440294991
10
-277.85700390219637
20
-178.45394402949916
10
-277.74963985058702
20
-178.45394402949916
42
-0.4142135623731002
10
-289.74963985058702
20
-166.45394402949916
10
-289.74963985058702
20
-166.007965399141
10
-289.74963985058702
20
-93.333030973659106
10
-289.74963985058702
20
-93.443936029499241
42
-0.41421356237309809
10
-277.74963985058702
20
-81.443936029499255
10
-277.09890137983723
20
-81.443936029499255
10
-262.31267590045843
20
-81.443936029461099
10
-262.3127766620342
20
-81.44393602949944
42
-0.41421367390328767
10
-260.31277590045846
20
-83.443936029499241
10
-260.31277590045846
20
-90.293936029499235
10
-260.31277590045846
20
-125.28397834418037
0
CIRCLE
5
242
100
AcDbEntity
8
0
100
AcDbCircle
10
-117.38744653673633
20
-174.27387311579378
30
0
40
1.5000000000000036
210
0
220
0
230
1
0
CIRCLE
5
243
100
AcDbEntity
8
0
100
AcDbCircle
10
-269.98744653673566
20
-85.603865115793923
30
0
40
1.5000000000000036
210
0
220
0
230
1
0
CIRCLE
5
244
100
AcDbEntity
8
0
100
AcDbCircle
10
-117.38744653673633
20
-85.603865115793923
30
0
40
1.5000000000000036
210
0
220
0
230
1
0
CIRCLE
5
245
100
AcDbEntity
8
0
100
AcDbCircle
10
-193.98744653673575
20
-174.2738731157938
30
0
40
1.5000000000000036
210
0
220
0
230
1
0
CIRCLE
5
246
100
AcDbEntity
8
0
100
AcDbCircle
10
-269.98744653673566
20
-174.2738731157938
30
0
40
1.5000000000000036
210
0
220
0
230
1
0
CIRCLE
5
247
100
AcDbEntity
8
0
100
AcDbCircle
10
-41.387446536736419
20
-174.27387311579378
30
0
40
1.5000000000000036
210
0
220
0
230
1
0
CIRCLE
5
248
100
AcDbEntity
8
0
100
AcDbCircle
10
-41.387446536736448
20
-85.60386511579388
30
0
40
1.5000000000000036
210
0
220
0
230
1
0
CIRCLE
5
249
100
AcDbEntity
8
0
100
AcDbCircle
10
-193.98744653673575
20
-85.603865115793951
30
0
40
1.5000000000000036
210
0
220
0
230
1
0
CIRCLE
5
250
100
AcDbEntity
8
0
100
AcDbCircle
10
-270.80356620903478
20
-197.76152378645776
30
0
40
1.5000000000000036
210
0
220
0
230
1
0
LWPOLYLINE
5
251
100
AcDbEntity
8
0
100
AcDbPolyline
90
29
70
1
43
0.0
10
-34.484589522886395
20
-291.11160270016308
10
-278.69752186266732
20
-291.11160270016296
10
-279.06575952288614
20
-291.11160270016296
42
-0.4142135623731002
10
-291.06575952288614
20
-279.11160270016302
10
-291.06575952288614
20
-278.21168270016301
10
-291.06575952288614
20
-205.46612273690192
10
-291.06575952288614
20
-205.1015947001631
42
-0.4142135623730942
10
-279.06575952288614
20
-193.1015947001631
10
-278.16548552288492
20
-193.1015947001631
10
-263.12889557275759
20
-193.10159470016313
42
-0.41421356237309509
10
-261.12889557275759
20
-195.1015947001631
10
-261.12889557275759
20
-195.05496462798376
10
-261.12889557275759
20
-197.1015947001631
10
-261.12889557275759
20
-201.9515947001631
10
-261.12889557275759
20
-237.44163701484425
10
-242.51100803555346
20
-237.44163701484425
10
-242.51100803555346
20
-201.9515947001631
10
-242.51749689083309
20
-201.9515947001631
10
-242.51749689083309
20
-197.1015947001631
10
-242.51749689083312
20
-195.05496462798376
10
-242.51749689083309
20
-195.1015947001631
42
-0.41421356237310542
10
-240.51749689083309
20
-193.10159470016313
10
-33.94836577265167
20
-193.1016045641087
10
-33.584669522886344
20
-193.10160456410873
42
-0.41421356237309409
10
-21.584669522886344
20
-205.1016045641087
10
-21.584669522886344
20
-206.00176870016315
10
-21.584669522886344
20
-278.76624925917383
10
-21.584669522886358
20
-279.11160270016308
42
-0.41421356237309492
10
-33.584669522886344
20
-291.11160270016308
0
CIRCLE
5
252
100
AcDbEntity
8
0
100
AcDbCircle
10
-194.80356620903484
20
-197.76152378645776
30
0
40
1.5000000000000036
210
0
220
0
230
1
0
LINE
5
253
100
AcDbEntity
8
0
100
AcDbLine
10
-243.01749689083309
20
-202.45159470016378
30
0
11
-243.01100803555352
21
-202.45159470016378
31
0
0
CIRCLE
5
254
100
AcDbEntity
8
0
100
AcDbCircle
10
-270.80356620903478
20
-286.4315317864577
30
0
40
1.5000000000000036
210
0
220
0
230
1
0
CIRCLE
5
255
100
AcDbEntity
8
0
100
AcDbCircle
10
-118.20356620903539
20
-286.4315317864577
30
0
40
1.5000000000000036
210
0
220
0
230
1
0
LWPOLYLINE
5
256
100
AcDbEntity
8
0
100
AcDbPolyline
90
3
70
1
43
0.0
10
-241.01739689083325
20
-193.10159470013602
10
-241.01682784371644
20
-193.1015947001631
10
-241.01749689096044
20
-193.1015947001631
0
CIRCLE
5
257
100
AcDbEntity
8
0
100
AcDbCircle
10
-118.20356620903539
20
-197.76152378645779
30
0
40
1.5000000000000036
210
0
220
0
230
1
0
CIRCLE
5
258
100
AcDbEntity
8
0
100
AcDbCircle
10
-194.80356620903484
20
-286.4315317864577
30
0
40
1.5000000000000036
210
0
220
0
230
1
0
CIRCLE
5
259
100
AcDbEntity
8
0
100
AcDbCircle
10
-42.203566209035444
20
-197.76152378645779
30
0
40
1.5000000000000036
210
0
220
0
230
1
0
CIRCLE
5
260
100
AcDbEntity
8
0
100
AcDbCircle
10
-42.203566209035444
20
-286.4315317864577
30
0
40
1.5000000000000036
210
0
220
0
230
1
0
LWPOLYLINE
5
261
100
AcDbEntity
8
0
100
AcDbPolyline
90
103
70
1
43
0.0
10
-280.19293874450921
20
-321.53695794718078
10
-279.63041080715578
20
-320.84691554246632
10
-278.94373969391989
20
-320.27926742219131
10
-278.16123550775808
20
-319.85632512842471
10
-277.31140361716433
20
-319.59296259131105
10
-276.5410871359328
20
-319.51173874465053
10
-276.39312643597941
20
-319.51173874465053
10
-233.97498188219973
20
-319.51173874465053
42
0.41421356237309509
10
-233.62498188219973
20
-319.16173874465062
10
-233.62498188219973
20
-317.66173874465056
42
-0.41421356237309509
10
-231.97498188219976
20
-316.01173874465059
10
-223.97498188219973
20
-316.01173874465064
42
-0.41421356237309509
10
-222.32498188219975
20
-317.66173874465062
10
-222.32498188219975
20
-319.16173874465062
42
0.41421356237309509
10
-221.97498188219976
20
-319.51173874465059
10
-160.47498188219978
20
-319.51173874465059
42
0.41421356237309509
10
-160.12498188219979
20
-319.16173874465062
10
-160.12498188219976
20
-317.66173874465062
42
-0.41421356237309509
10
-158.47498188219976
20
-316.01173874465064
10
-150.47498188219976
20
-316.01173874465059
42
-0.41421356237309509
10
-148.82498188219978
20
-317.66173874465056
10
-148.82498188219978
20
-319.16173874465062
42
0.41421356237309509
10
-148.47498188219981
20
-319.51173874465059
10
-74.974981882199813
20
-319.51173874465059
42
0.41421356237309509
10
-74.624981882199819
20
-319.16173874465062
10
-74.624981882199791
20
-317.66173874465062
42
-0.41421356237309509
10
-72.974981882199785
20
-316.01173874465064
10
-64.974981882199785
20
-316.01173874465064
42
-0.41421356237309509
10
-63.324981882199793
20
-317.66173874465062
10
-63.324981882199793
20
-319.16173874465062
42
0.41421356237309509
10
-62.974981882199828
20
-319.51173874465064
10
-32.586829532513804
20
-319.51173874465064
10
-31.827363214599345
20
-319.58665208893467
10
-30.970638180500814
20
-319.84428154561715
10
-30.19101413577701
20
-320.26211130708634
10
-29.500439923921178
20
-320.82062834509605
10
-28.927427304673898
20
-321.51378877160494
10
-28.505773970139714
20
-322.29843062891234
10
-28.245846184373065
20
-323.14108024137442
10
-28.164266840654264
20
-323.89059046179091
10
-28.161577115958778
20
-354.39593316195072
42
0.41941993468678623
10
-27.811632206292103
20
-354.75214284780179
10
-26.311632206292117
20
-354.75214284780185
42
-0.41421356237309509
10
-24.661632206292197
20
-356.40214284780177
10
-24.661632206292197
20
-364.40214284780183
42
-0.41421356237309509
10
-26.311632206292117
20
-366.05214284780175
10
-27.811632206292174
20
-366.05214284780175
42
0.3001357760512105
10
-28.133390965701466
20
-366.26440650276749
10
-28.162225915029566
20
-396.41044867772843
10
-28.23962871703209
20
-397.16951215603416
10
-28.495537150271417
20
-398.02132165524506
10
-28.916246680628959
20
-398.80664611191219
10
-29.473234379920115
20
-399.49137772919306
10
-30.160832107819644
20
-400.06294334050961
10
-30.947583609496547
20
-400.48620345071407
10
-31.794646653216176
20
-400.7494633319277
10
-32.566079538899402
20
-400.83028011042785
10
-32.712130435987419
20
-400.83028026479849
10
-63.033978619569631
20
-400.83028026479849
42
0.36543243814461696
10
-63.324981882199758
20
-401.17527212699201
10
-63.324981882199793
20
-402.67527212699201
42
-0.41421356237309509
10
-64.974981882199785
20
-404.32527212699199
10
-72.974981882199756
20
-404.32527212699199
42
-0.41421356237309509
10
-74.624981882199791
20
-402.67527212699201
10
-74.624981882199791
20
-401.17361435544757
42
0.36543491938522116
10
-74.915988165480627
20
-400.82862197670914
10
-148.56794528375826
20
-400.82862197670914
42
0.36546797383135976
10
-148.85899224488065
20
-401.17362086500816
10
-148.8589941472427
20
-402.67362086500697
42
-0.41421356237310131
10
-150.50899623983977
20
-404.32361877240737
10
-158.50899623983338
20
-404.32360862647607
42
-0.41421356237310131
10
-160.15899414723367
20
-402.67360653387902
10
-160.15899224487154
20
-401.17360653388016
42
0.36539603922196567
10
-160.44995075806355
20
-400.82862188334911
10
-235.56796801221338
20
-400.82862188334911
42
0.36549990372431601
10
-235.85905379403627
20
-401.17362745429233
10
-235.85905547670876
20
-402.67362745429136
42
-0.41421356237307611
10
-237.50905732764738
20
-404.32362560335065
10
-245.50905732764235
20
-404.32361662909773
42
-0.41421356237310769
10
-247.15905547670164
20
-402.67361477815894
10
-247.15905379402921
20
-401.1736147781599
42
0.36543578043100389
10
-247.45006073853665
20
-400.82862189372867
10
-276.53461027334237
20
-400.82862926455937
10
-277.27927938730596
20
-400.75578061389695
10
-278.13156244418388
20
-400.49832254790681
10
-278.91808148981198
20
-400.08035022350737
10
-279.60812355664166
20
-399.51721244483025
10
-280.17549395515636
20
-398.83148736103408
10
-280.59871405220531
20
-398.04846919877065
10
-280.86207658931897
20
-397.1986373081769
10
-280.94330043597944
20
-396.42832082694554
10
-280.94330043597944
20
-396.28036012699198
10
-280.94330043597944
20
-366.36801107681242
42
0.3858862277114648
10
-281.29163220629209
20
-366.05214284780169
10
-282.79163220629209
20
-366.05214284780169
42
-0.41421356237308871
10
-284.44163220629201
20
-364.40214284780166
10
-284.44163220629201
20
-356.40214284780171
42
-0.41421356237309509
10
-282.79163220629204
20
-354.75214284780174
10
-281.29163220629204
20
-354.75214284780174
42
0.385886227711285
10
-280.94330043597944
20
-354.43627461879117
10
-280.94330043597944
20
-323.93653413531916
10
-280.86836057650277
20
-323.17576535497687
10
-280.61150742012779
20
-322.32345214961867
0
CIRCLE
5
262
100
AcDbEntity
8
0
100
AcDbCircle
10
-116.43110712212857
20
-404.51028012699197
30
0
40
1.5000000000000036
210
0
220
0
230
1
0
LWPOLYLINE
5
263
100
AcDbEntity
8
0
100
AcDbPolyline
90
16
70
1
43
0.0
10
-276.39312643597941
20
-310.17027212699196
10
-32.126806344814085
20
-310.17027212699202
10
-30.812210435979384
20
-310.17027212699202
42
-0.41421356237309975
10
-18.812210435979484
20
-322.17027212699202
10
-18.812210435979466
20
-324.07044612699201
10
-18.812210435979466
20
-396.88578055500392
10
-18.812210435979463
20
-398.18028012699193
42
-0.41421356237309098
10
-30.812210435979466
20
-410.18028012699199
10
-32.712130435979532
20
-410.18028012699199
10
-276.97385935210423
20
-410.18028012699187
10
-278.29330043597946
20
-410.18028012699187
42
-0.4142135623730907
10
-290.29330043597946
20
-398.18028012699187
10
-290.29330043597946
20
-396.28036012699198
10
-290.29330043597946
20
-323.4856663488888
10
-290.29330043597946
20
-322.17027212699207
42
-0.41421356237309587
10
-278.29330043597946
20
-310.17027212699196
0
CIRCLE
5
264
100
AcDbEntity
8
0
100
AcDbCircle
10
-40.43110712212858
20
-315.84027212699203
30
0
40
1.5000000000000036
210
0
220
0
230
1
0
CIRCLE
5
265
100
AcDbEntity
8
0
100
AcDbCircle
10
-193.03110712212811
20
-315.84027212699198
30
0
40
1.5000000000000036
210
0
220
0
230
1
0
CIRCLE
5
266
100
AcDbEntity
8
0
100
AcDbCircle
10
-193.03110712212811
20
-404.51028012699197
30
0
40
1.5000000000000036
210
0
220
0
230
1
0
CIRCLE
5
267
100
AcDbEntity
8
0
100
AcDbCircle
10
-269.03110712212811
20
-315.84027212699198
30
0
40
1.5000000000000036
210
0
220
0
230
1
0
CIRCLE
5
268
100
AcDbEntity
8
0
100
AcDbCircle
10
-116.43110712212857
20
-315.84027212699203
30
0
40
1.5000000000000036
210
0
220
0
230
1
0
CIRCLE
5
269
100
AcDbEntity
8
0
100
AcDbCircle
10
-40.43110712212858
20
-404.51028012699197
30
0
40
1.5000000000000036
210
0
220
0
230
1
0
CIRCLE
5
270
100
AcDbEntity
8
0
100
AcDbCircle
10
-269.03110712212811
20
-404.51028012699197
30
0
40
1.5000000000000036
210
0
220
0
230
1
0
LWPOLYLINE
5
271
100
AcDbEntity
8
0
100
AcDbPolyline
90
40
70
1
43
0.0
10
-34.304742549620357
20
-517.31608680816248
10
-277.10285749458325
20
-517.31608680816248
10
-277.6415180452737
20
-517.26339175429052
10
-278.20773125612851
20
-517.09235240212115
10
-278.73020634409664
20
-516.81469884489991
10
-279.18861880541868
20
-516.44059212359116
10
-279.56554648418376
20
-515.98503652043848
10
-279.84675042881673
20
-515.46476870356719
10
-280.02175861326577
20
-514.90004321948857
10
-280.07891254962033
20
-514.35800266180286
10
-280.07891254962033
20
-514.29016680816244
10
-280.07891254962038
20
-442.94175413265077
10
-280.02588945461252
20
-442.40347829919153
10
-279.85525395646982
20
-441.83726026853753
10
-279.57719501882968
20
-441.31478509270937
10
-279.20349352092012
20
-440.85637251772488
10
-278.74738987054144
20
-440.47932683341179
10
-278.22734044502511
20
-440.19824092896613
10
-277.60844645866615
20
-440.0064459489754
10
-277.15032248210241
20
-439.96607880816248
10
-277.05273854962036
20
-439.96607880816248
10
-34.254422965732658
20
-439.96607880816242
10
-33.716992703856761
20
-440.01909063671474
10
-33.148461840311256
20
-440.1900559892523
10
-32.630220499043716
20
-440.46780095808793
10
-32.170267290534369
20
-440.83979820216302
10
-31.790942200242895
20
-441.29865919848339
10
-31.510988277720315
20
-441.81961693256903
10
-31.337731686484958
20
-442.38129062601581
10
-31.278822549620386
20
-442.922518320959
10
-31.278822549620386
20
-442.99225280816245
10
-31.278822549620386
20
-514.34260226465813
10
-31.333629109795993
20
-514.88007193144642
10
-31.503717115768595
20
-515.44622200846936
10
-31.783270010554361
20
-515.96805407873603
10
-32.154325282026477
20
-516.4242100700784
10
-32.61009228641008
20
-516.80306639247237
10
-33.132822864103488
20
-517.08428733892129
10
-33.695787553623688
20
-517.25925190429734
10
-34.238302545062709
20
-517.31608680816248
0
CIRCLE
5
272
100
AcDbEntity
8
0
100
AcDbCircle
10
-41.378719235769452
20
-523.43208680816235
30
0
40
1
210
0
220
0
230
1
0
LWPOLYLINE
5
273
100
AcDbEntity
8
0
100
AcDbPolyline
90
16
70
1
43
0.0
10
-33.659742549620404
20
-528.10208680816243
10
-277.87267488940154
20
-528.10208680816243
10
-278.2409125496203
20
-528.10208680816243
42
-0.4142135623730907
10
-290.2409125496203
20
-516.10208680816243
10
-290.2409125496203
20
-515.20216680816236
10
-290.24091254962036
20
-442.45660684490133
10
-290.24091254962036
20
-442.09207880816251
42
-0.4142135623730907
10
-278.24091254962036
20
-430.09207880816246
10
-277.34073854962037
20
-430.09207880816246
10
-33.123618799385213
20
-430.0920788081624
10
-32.759822549620353
20
-430.0920788081624
42
-0.41421356237309098
10
-20.759822549620353
20
-442.09207880816246
10
-20.759822549620353
20
-442.99225280816239
10
-20.759822549620353
20
-515.75673336717284
10
-20.759822549620349
20
-516.10208680816231
42
-0.41421356237309098
10
-32.759822549620353
20
-528.10208680816243
0
CIRCLE
5
274
100
AcDbEntity
8
0
100
AcDbCircle
10
-193.97871923576898
20
-523.43208680816247
30
0
40
1
210
0
220
0
230
1
0
CIRCLE
5
275
100
AcDbEntity
8
0
100
AcDbCircle
10
-41.378719235769452
20
-434.76207880816241
30
0
40
1
210
0
220
0
230
1
0
CIRCLE
5
276
100
AcDbEntity
8
0
100
AcDbCircle
10
-269.97871923576895
20
-523.43208680816247
30
0
40
1
210
0
220
0
230
1
0
CIRCLE
5
277
100
AcDbEntity
8
0
100
AcDbCircle
10
-193.97871923576901
20
-434.76207880816247
30
0
40
1
210
0
220
0
230
1
0
CIRCLE
5
278
100
AcDbEntity
8
0
100
AcDbCircle
10
-269.97871923576901
20
-434.76207880816247
30
0
40
1
210
0
220
0
230
1
0
CIRCLE
5
279
100
AcDbEntity
8
0
100
AcDbCircle
10
-117.37871923576947
20
-434.76207880816241
30
0
40
1
210
0
220
0
230
1
0
CIRCLE
5
280
100
AcDbEntity
8
0
100
AcDbCircle
10
-117.37871923576944
20
-523.43208680816235
30
0
40
1
210
0
220
0
230
1
0
LWPOLYLINE
5
281
100
AcDbEntity
8
0
100
AcDbPolyline
90
40
70
1
43
0.0
10
-277.96583890868783
20
-557.75602512781245
10
-35.167523324800456
20
-557.75602512781245
10
-34.630093062924558
20
-557.80903695636471
10
-34.061562199379054
20
-557.98000230890227
10
-33.543320858111514
20
-558.25774727773796
10
-33.083367649602167
20
-558.62974452181311
10
-32.704042559310693
20
-559.08860551813348
10
-32.424088636788113
20
-559.60956325221912
10
-32.250832045552755
20
-560.1712369456659
10
-32.191922908688184
20
-560.71246464060903
10
-32.191922908688184
20
-560.78219912781242
10
-32.191922908688113
20
-632.13254858430798
10
-32.24672946886372
20
-632.67001825109628
10
-32.416817474836321
20
-633.23616832811922
10
-32.696370369622088
20
-633.758000398386
10
-33.067425641094204
20
-634.21415638972826
10
-33.523192645477806
20
-634.59301271212223
10
-34.045923223171215
20
-634.87423365857114
10
-34.608887912691415
20
-635.04919822394731
10
-35.151402904130435
20
-635.10603312781234
10
-35.217842908688084
20
-635.10603312781234
10
-278.01595785365072
20
-635.10603312781245
10
-278.55461840434117
20
-635.05333807394049
10
-279.12083161519598
20
-634.88229872177101
10
-279.64330670316417
20
-634.60464516454988
10
-280.10171916448616
20
-634.23053844324102
10
-280.47864684325123
20
-633.77498284008846
10
-280.7598507878842
20
-633.25471502321716
10
-280.93485897233325
20
-632.68998953913854
10
-280.99201290868785
20
-632.14794898145283
10
-280.99201290868785
20
-632.08011312781241
10
-280.99201290868785
20
-560.73170045230086
10
-280.93898981368
20
-560.19342461884162
10
-280.76835431553729
20
-559.62720658818762
10
-280.49029537789716
20
-559.10473141235934
10
-280.11659387998759
20
-558.64631883737491
10
-279.66049022960897
20
-558.26927315306182
10
-279.14044080409263
20
-557.9881872486161
10
-278.52154681773362
20
-557.79639226862537
10
-278.06342284116994
20
-557.75602512781245
0
LWPOLYLINE
5
282
100
AcDbEntity
8
0
100
AcDbPolyline
90
16
70
1
43
0.0
10
-278.25383890868784
20
-548.88202512781254
10
-34.085919499383621
20
-548.88202512781243
10
-34.672922908688093
20
-548.88202512781243
42
-0.41421356237309098
10
-22.672922908688093
20
-560.88202512781243
10
-22.672922908688093
20
-560.78219912781242
10
-22.672922908688022
20
-633.49582581782101
10
-22.672922908688019
20
-632.89203312781228
42
-0.41421356237309098
10
-34.672922908688022
20
-644.89203312781228
10
-34.572842908688131
20
-644.89203312781228
10
-278.73697867212542
20
-644.89203312781228
10
-278.15401290868778
20
-644.89203312781228
42
-0.4142135623730907
10
-290.15401290868778
20
-632.89203312781228
10
-290.15401290868778
20
-632.99211312781244
10
-290.15401290868783
20
-560.29568697939328
10
-290.15401290868783
20
-560.88202512781254
42
-0.4142135623730907
10
-278.15401290868783
20
-548.88202512781254
0
CIRCLE
5
283
100
AcDbEntity
8
0
100
AcDbCircle
10
-194.89181959483656
20
-641.22203312781244
30
0
40
1
210
0
220
0
230
1
0
CIRCLE
5
284
100
AcDbEntity
8
0
100
AcDbCircle
10
-118.29181959483716
20
-552.5520251278125
30
0
40
1
210
0
220
0
230
1
0
CIRCLE
5
285
100
AcDbEntity
8
0
100
AcDbCircle
10
-194.89181959483659
20
-552.5520251278125
30
0
40
1
210
0
220
0
230
1
0
CIRCLE
5
286
100
AcDbEntity
8
0
100
AcDbCircle
10
-270.89181959483648
20
-641.22203312781244
30
0
40
1
210
0
220
0
230
1
0
CIRCLE
5
287
100
AcDbEntity
8
0
100
AcDbCircle
10
-118.29181959483712
20
-641.22203312781244
30
0
40
1
210
0
220
0
230
1
0
CIRCLE
5
288
100
AcDbEntity
8
0
100
AcDbCircle
10
-42.291819594837179
20
-641.22203312781221
30
0
40
1
210
0
220
0
230
1
0
CIRCLE
5
289
100
AcDbEntity
8
0
100
AcDbCircle
10
-270.89181959483648
20
-552.5520251278125
30
0
40
1
210
0
220
0
230
1
0
CIRCLE
5
290
100
AcDbEntity
8
0
100
AcDbCircle
10
-42.29181959483725
20
-552.55202512781239
30
0
40
1
210
0
220
0
230
1
0
LINE
5
291
100
AcDbEntity
8
0
100
AcDbLine
10
-287.74000845223844
20
-51.763456883994223
30
0
11
-287.74000845223844
21
-52.663376883994218
31
0
0
LINE
5
292
100
AcDbEntity
8
0
100
AcDbLine
10
-275.37177079201962
20
-64.663376883994218
30
0
11
-275.74000845223844
21
-64.663376883994218
31
0
0
LINE
5
293
100
AcDbEntity
8
0
100
AcDbLine
10
-274.83973445223842
20
33.346631116005682
30
0
11
-275.74000845226715
21
33.346631116003508
31
0
0
LINE
5
294
100
AcDbEntity
8
0
100
AcDbLine
10
-287.74000845223844
20
20.982103079266814
30
0
11
-287.7400084522381
21
21.346631116015153
31
0
0
ARC
5
295
100
AcDbEntity
8
0
100
AcDbCircle
10
-275.74000845223799
20
21.346631116003412
30
0
40
12.000000000000099
210
0
220
0
230
1
100
AcDbArc
50
90.000000000139238
51
180
0
ARC
5
296
100
AcDbEntity
8
0
100
AcDbCircle
10
-275.74000845223844
20
-52.663376883994211
30
0
40
12.000000000000028
210
0
220
0
230
1
100
AcDbArc
50
180
51
270
0
LINE
5
297
100
AcDbEntity
8
0
100
AcDbLine
10
-31.158838452238697
20
-64.663376883994275
30
0
11
-30.258918452238646
21
-64.663376883994275
31
0
0
LINE
5
298
100
AcDbEntity
8
0
100
AcDbLine
10
-18.258918452238646
20
-51.981400326999072
30
0
11
-18.258918452238646
21
-52.663376883994275
31
0
0
LINE
5
299
100
AcDbEntity
8
0
100
AcDbLine
10
-18.258918452238646
20
19.819716167871437
30
0
11
-18.258918452238646
21
21.346621252060089
31
0
0
LINE
5
300
100
AcDbEntity
8
0
100
AcDbLine
10
-30.62261470200383
20
33.346621252060089
30
0
11
-30.258918452238646
21
33.346621252060089
31
0
0
ARC
5
301
100
AcDbEntity
8
0
100
AcDbCircle
10
-30.258918452238646
20
21.346621252060089
30
0
40
12.000000000000002
210
0
220
-0
230
1
100
AcDbArc
50
0
51
90
0
ARC
5
302
100
AcDbEntity
8
0
100
AcDbCircle
10
-30.258918452238646
20
-52.663376883994275
30
0
40
12.000000000000002
210
-0
220
0
230
1
100
AcDbArc
50
-90
51
0
0
LINE
5
303
100
AcDbEntity
8
0
100
AcDbLine
10
-30.598014519658463
20
153.84662125088823
30
0
11
-29.75892187981859
21
153.84662146551671
31
0
0
LINE
5
304
100
AcDbEntity
8
0
100
AcDbLine
10
-17.758918452238603
20
140.44645711600563
30
0
11
-17.758918810382369
21
141.84662453495369
31
0
0
LINE
5
305
100
AcDbEntity
8
0
100
AcDbLine
10
-17.758918452238603
20
67.656549622494424
30
0
11
-17.758917473151161
21
66.836639117387904
31
0
0
LINE
5
306
100
AcDbEntity
8
0
100
AcDbLine
10
-31.158838452238697
20
54.83662311600574
30
0
11
-29.758903143469816
21
54.83662478772365
31
0
0
LINE
5
307
100
AcDbEntity
8
0
100
AcDbLine
10
-288.24000845223844
20
68.236543116005777
30
0
11
-288.2400067805205
21
66.836607778681696
31
0
0
LINE
5
308
100
AcDbEntity
8
0
100
AcDbLine
10
-275.39616908019173
20
54.836623116005789
30
0
11
-276.23999245085628
21
54.836622108363059
31
0
0
LINE
5
309
100
AcDbEntity
8
0
100
AcDbLine
10
-288.24000845223844
20
141.00666998668777
30
0
11
-288.24000736756585
21
141.84664841990306
31
0
0
LINE
5
310
100
AcDbEntity
8
0
100
AcDbLine
10
-274.83973445223961
20
153.84663111600565
30
0
11
-276.23999187185495
21
153.84663292417218
31
0
0
ARC
5
311
100
AcDbEntity
8
0
100
AcDbCircle
10
-276.24000736757586
20
141.84663292418222
30
0
40
11.999999999999961
210
0
220
-0
230
1
100
AcDbArc
50
89.999926013382648
51
179.99992601668325
0
ARC
5
312
100
AcDbEntity
8
0
100
AcDbCircle
10
-276.24000678052914
20
66.836622108354391
30
0
40
11.999999999999879
210
0
220
0
230
1
100
AcDbArc
50
180.00006841918488
51
270.00006841914808
0
ARC
5
313
100
AcDbEntity
8
0
100
AcDbCircle
10
-29.758917473142645
20
66.836624787715124
30
0
40
12.000000000000039
210
0
220
0
230
1
100
AcDbArc
50
-89.999931580852078
51
6.8419184864153753e-05
0
ARC
5
314
100
AcDbEntity
8
0
100
AcDbCircle
10
-29.758918810382021
20
141.84662146551705
30
0
40
12.000000000000048
210
0
220
-0
230
1
100
AcDbArc
50
1.463916852406315e-05
51
90.000014655480072
0
LWPOLYLINE
5
315
100
AcDbEntity
8
0
100
AcDbPolyline
90
8
70
1
43
0.0
10
-274.83989600000001
20
303.91007200000001
10
-30.598176079299648
20
303.91007200000001
10
-29.758980000000051
20
303.91007200000001
42
-0.41421356237309359
10
-17.758980000000051
20
291.91007200000001
10
-17.758980000000051
20
290.41996606609348
10
-288.24007
20
291.07011087068213
10
-288.24007000000006
20
291.91007200000001
42
-0.41421356237309936
10
-276.24007
20
303.91007200000001
0
CIRCLE
5
316
100
AcDbEntity
8
0
100
AcDbCircle
10
-267.47787668614865
20
298.740072
30
0
40
1
210
0
220
0
230
1
0
CIRCLE
5
317
100
AcDbEntity
8
0
100
AcDbCircle
10
-191.47787668614865
20
298.740072
30
0
40
1
210
0
220
0
230
1
0
CIRCLE
5
318
100
AcDbEntity
8
0
100
AcDbCircle
10
-114.87787668614907
20
298.740072
30
0
40
1
210
0
220
0
230
1
0
CIRCLE
5
319
100
AcDbEntity
8
0
100
AcDbCircle
10
-38.877876686149051
20
298.740072
30
0
40
1
210
0
220
0
230
1
0
LWPOLYLINE
5
320
100
AcDbEntity
8
0
100
AcDbPolyline
90
8
70
1
43
0.0
10
-32.758980000000051
20
333.91007200000001
10
-33.598176079299655
20
333.91007200000001
10
-271.83989599999995
20
333.91007200000001
10
-273.24007
20
333.91007200000001
42
0.41421356237309936
10
-285.24007
20
321.91007200000001
10
-285.24006999999995
20
321.07011087068213
10
-20.758980000000051
20
320.41996606609348
10
-20.758980000000051
20
321.91007200000001
42
0.41421356237309448
0
CIRCLE
5
321
100
AcDbEntity
8
0
100
AcDbCircle
10
-38.877876686149051
20
328.740072
30
0
40
1
210
0
220
0
230
1
0
CIRCLE
5
322
100
AcDbEntity
8
0
100
AcDbCircle
10
-191.47787668614865
20
328.740072
30
0
40
1
210
0
220
0
230
1
0
CIRCLE
5
323
100
AcDbEntity
8
0
100
AcDbCircle
10
-114.87787668614907
20
328.740072
30
0
40
1
210
0
220
0
230
1
0
CIRCLE
5
324
100
AcDbEntity
8
0
100
AcDbCircle
10
-267.47787668614865
20
328.740072
30
0
40
1
210
0
220
0
230
1
0
ENDSEC
0
SECTION
2
OBJECTS
0
DICTIONARY
5
C
100
AcDbDictionary
3
ACAD_GROUP
350
D
3
ACAD_MLINESTYLE
350
17
0
DICTIONARY
5
D
100
AcDbDictionary
0
DICTIONARY
5
1A
330
C
100
AcDbDictionary
0
DICTIONARY
5
17
100
AcDbDictionary
0
ENDSEC
0
EOF
