G04 #@! TF.GenerationSoftware,KiCad,Pcbnew,(5.1.5-0-10_14)*
G04 #@! TF.CreationDate,2020-11-29T18:14:47+02:00*
G04 #@! TF.ProjectId,Louhi,4c6f7568-692e-46b6-9963-61645f706362,rev?*
G04 #@! TF.SameCoordinates,Original*
G04 #@! TF.FileFunction,Legend,Top*
G04 #@! TF.FilePolarity,Positive*
%FSLAX46Y46*%
G04 Gerber Fmt 4.6, Leading zero omitted, Abs format (unit mm)*
G04 Created by KiCad (PCBNEW (5.1.5-0-10_14)) date 2020-11-29 18:14:47*
%MOMM*%
%LPD*%
G04 APERTURE LIST*
%ADD10C,0.300000*%
%ADD11C,0.120000*%
%ADD12C,0.150000*%
G04 APERTURE END LIST*
D10*
X187450000Y-120068571D02*
X186592857Y-120068571D01*
X187021428Y-120068571D02*
X187021428Y-118568571D01*
X186878571Y-118782857D01*
X186735714Y-118925714D01*
X186592857Y-118997142D01*
X188735714Y-119068571D02*
X188735714Y-120068571D01*
X188092857Y-119068571D02*
X188092857Y-119854285D01*
X188164285Y-119997142D01*
X188307142Y-120068571D01*
X188521428Y-120068571D01*
X188664285Y-119997142D01*
X188735714Y-119925714D01*
X205381428Y-122008571D02*
X204524285Y-122008571D01*
X204952857Y-122008571D02*
X204952857Y-120508571D01*
X204810000Y-120722857D01*
X204667142Y-120865714D01*
X204524285Y-120937142D01*
X206667142Y-121008571D02*
X206667142Y-122008571D01*
X206024285Y-121008571D02*
X206024285Y-121794285D01*
X206095714Y-121937142D01*
X206238571Y-122008571D01*
X206452857Y-122008571D01*
X206595714Y-121937142D01*
X206667142Y-121865714D01*
X208452857Y-120437142D02*
X207167142Y-122365714D01*
X208810000Y-120508571D02*
X209810000Y-120508571D01*
X209167142Y-122008571D01*
X211024285Y-121008571D02*
X211024285Y-122008571D01*
X210381428Y-121008571D02*
X210381428Y-121794285D01*
X210452857Y-121937142D01*
X210595714Y-122008571D01*
X210810000Y-122008571D01*
X210952857Y-121937142D01*
X211024285Y-121865714D01*
X231150000Y-119758571D02*
X230292857Y-119758571D01*
X230721428Y-119758571D02*
X230721428Y-118258571D01*
X230578571Y-118472857D01*
X230435714Y-118615714D01*
X230292857Y-118687142D01*
X232435714Y-118758571D02*
X232435714Y-119758571D01*
X231792857Y-118758571D02*
X231792857Y-119544285D01*
X231864285Y-119687142D01*
X232007142Y-119758571D01*
X232221428Y-119758571D01*
X232364285Y-119687142D01*
X232435714Y-119615714D01*
X222328571Y-117448571D02*
X221471428Y-117448571D01*
X221900000Y-117448571D02*
X221900000Y-115948571D01*
X221757142Y-116162857D01*
X221614285Y-116305714D01*
X221471428Y-116377142D01*
X222971428Y-117305714D02*
X223042857Y-117377142D01*
X222971428Y-117448571D01*
X222900000Y-117377142D01*
X222971428Y-117305714D01*
X222971428Y-117448571D01*
X224400000Y-115948571D02*
X223685714Y-115948571D01*
X223614285Y-116662857D01*
X223685714Y-116591428D01*
X223828571Y-116520000D01*
X224185714Y-116520000D01*
X224328571Y-116591428D01*
X224400000Y-116662857D01*
X224471428Y-116805714D01*
X224471428Y-117162857D01*
X224400000Y-117305714D01*
X224328571Y-117377142D01*
X224185714Y-117448571D01*
X223828571Y-117448571D01*
X223685714Y-117377142D01*
X223614285Y-117305714D01*
X225757142Y-116448571D02*
X225757142Y-117448571D01*
X225114285Y-116448571D02*
X225114285Y-117234285D01*
X225185714Y-117377142D01*
X225328571Y-117448571D01*
X225542857Y-117448571D01*
X225685714Y-117377142D01*
X225757142Y-117305714D01*
X215662857Y-128981428D02*
X215734285Y-128910000D01*
X215877142Y-128838571D01*
X216234285Y-128838571D01*
X216377142Y-128910000D01*
X216448571Y-128981428D01*
X216520000Y-129124285D01*
X216520000Y-129267142D01*
X216448571Y-129481428D01*
X215591428Y-130338571D01*
X216520000Y-130338571D01*
X217805714Y-129338571D02*
X217805714Y-130338571D01*
X217162857Y-129338571D02*
X217162857Y-130124285D01*
X217234285Y-130267142D01*
X217377142Y-130338571D01*
X217591428Y-130338571D01*
X217734285Y-130267142D01*
X217805714Y-130195714D01*
X196562857Y-128301428D02*
X196634285Y-128230000D01*
X196777142Y-128158571D01*
X197134285Y-128158571D01*
X197277142Y-128230000D01*
X197348571Y-128301428D01*
X197420000Y-128444285D01*
X197420000Y-128587142D01*
X197348571Y-128801428D01*
X196491428Y-129658571D01*
X197420000Y-129658571D01*
X198705714Y-128658571D02*
X198705714Y-129658571D01*
X198062857Y-128658571D02*
X198062857Y-129444285D01*
X198134285Y-129587142D01*
X198277142Y-129658571D01*
X198491428Y-129658571D01*
X198634285Y-129587142D01*
X198705714Y-129515714D01*
X178312857Y-129431428D02*
X178384285Y-129360000D01*
X178527142Y-129288571D01*
X178884285Y-129288571D01*
X179027142Y-129360000D01*
X179098571Y-129431428D01*
X179170000Y-129574285D01*
X179170000Y-129717142D01*
X179098571Y-129931428D01*
X178241428Y-130788571D01*
X179170000Y-130788571D01*
X180455714Y-129788571D02*
X180455714Y-130788571D01*
X179812857Y-129788571D02*
X179812857Y-130574285D01*
X179884285Y-130717142D01*
X180027142Y-130788571D01*
X180241428Y-130788571D01*
X180384285Y-130717142D01*
X180455714Y-130645714D01*
X173298571Y-117388571D02*
X172441428Y-117388571D01*
X172870000Y-117388571D02*
X172870000Y-115888571D01*
X172727142Y-116102857D01*
X172584285Y-116245714D01*
X172441428Y-116317142D01*
X173941428Y-117245714D02*
X174012857Y-117317142D01*
X173941428Y-117388571D01*
X173870000Y-117317142D01*
X173941428Y-117245714D01*
X173941428Y-117388571D01*
X175370000Y-115888571D02*
X174655714Y-115888571D01*
X174584285Y-116602857D01*
X174655714Y-116531428D01*
X174798571Y-116460000D01*
X175155714Y-116460000D01*
X175298571Y-116531428D01*
X175370000Y-116602857D01*
X175441428Y-116745714D01*
X175441428Y-117102857D01*
X175370000Y-117245714D01*
X175298571Y-117317142D01*
X175155714Y-117388571D01*
X174798571Y-117388571D01*
X174655714Y-117317142D01*
X174584285Y-117245714D01*
X176727142Y-116388571D02*
X176727142Y-117388571D01*
X176084285Y-116388571D02*
X176084285Y-117174285D01*
X176155714Y-117317142D01*
X176298571Y-117388571D01*
X176512857Y-117388571D01*
X176655714Y-117317142D01*
X176727142Y-117245714D01*
X167370000Y-120268571D02*
X166512857Y-120268571D01*
X166941428Y-120268571D02*
X166941428Y-118768571D01*
X166798571Y-118982857D01*
X166655714Y-119125714D01*
X166512857Y-119197142D01*
X168655714Y-119268571D02*
X168655714Y-120268571D01*
X168012857Y-119268571D02*
X168012857Y-120054285D01*
X168084285Y-120197142D01*
X168227142Y-120268571D01*
X168441428Y-120268571D01*
X168584285Y-120197142D01*
X168655714Y-120125714D01*
D11*
X87100000Y-106820000D02*
X87100000Y-104320000D01*
X84600000Y-106820000D02*
X87100000Y-106820000D01*
X85300000Y-97300000D02*
X86800000Y-97300000D01*
X85300000Y-96300000D02*
X85300000Y-97300000D01*
X85300000Y-105520000D02*
X86800000Y-105520000D01*
X85300000Y-106520000D02*
X85300000Y-105520000D01*
X84490000Y-96800000D02*
X84490000Y-96300000D01*
X83280000Y-96800000D02*
X84490000Y-96800000D01*
X83280000Y-106020000D02*
X83280000Y-96800000D01*
X84490000Y-106020000D02*
X83280000Y-106020000D01*
X84490000Y-106520000D02*
X84490000Y-106020000D01*
X82780000Y-96300000D02*
X82780000Y-106520000D01*
X86800000Y-96300000D02*
X82780000Y-96300000D01*
X86800000Y-106520000D02*
X86800000Y-96300000D01*
X82780000Y-106520000D02*
X86800000Y-106520000D01*
X313730000Y-101240000D02*
X313430000Y-100940000D01*
X313430000Y-100940000D02*
X314030000Y-100940000D01*
X314030000Y-100940000D02*
X313730000Y-101240000D01*
X201190000Y-116770000D02*
X201490000Y-116470000D01*
X201490000Y-116470000D02*
X201490000Y-117070000D01*
X201490000Y-117070000D02*
X201190000Y-116770000D01*
D12*
X84442380Y-104243333D02*
X85156666Y-104243333D01*
X85299523Y-104290952D01*
X85394761Y-104386190D01*
X85442380Y-104529047D01*
X85442380Y-104624285D01*
X85442380Y-103243333D02*
X85442380Y-103814761D01*
X85442380Y-103529047D02*
X84442380Y-103529047D01*
X84585238Y-103624285D01*
X84680476Y-103719523D01*
X84728095Y-103814761D01*
X129595714Y-78620880D02*
X129595714Y-77620880D01*
X130167142Y-78620880D02*
X129738571Y-78049452D01*
X130167142Y-77620880D02*
X129595714Y-78192309D01*
X131119523Y-78620880D02*
X130548095Y-78620880D01*
X130833809Y-78620880D02*
X130833809Y-77620880D01*
X130738571Y-77763738D01*
X130643333Y-77858976D01*
X130548095Y-77906595D01*
X132024285Y-77620880D02*
X131548095Y-77620880D01*
X131500476Y-78097071D01*
X131548095Y-78049452D01*
X131643333Y-78001833D01*
X131881428Y-78001833D01*
X131976666Y-78049452D01*
X132024285Y-78097071D01*
X132071904Y-78192309D01*
X132071904Y-78430404D01*
X132024285Y-78525642D01*
X131976666Y-78573261D01*
X131881428Y-78620880D01*
X131643333Y-78620880D01*
X131548095Y-78573261D01*
X131500476Y-78525642D01*
X148645714Y-78620880D02*
X148645714Y-77620880D01*
X149217142Y-78620880D02*
X148788571Y-78049452D01*
X149217142Y-77620880D02*
X148645714Y-78192309D01*
X150169523Y-78620880D02*
X149598095Y-78620880D01*
X149883809Y-78620880D02*
X149883809Y-77620880D01*
X149788571Y-77763738D01*
X149693333Y-77858976D01*
X149598095Y-77906595D01*
X151026666Y-77620880D02*
X150836190Y-77620880D01*
X150740952Y-77668500D01*
X150693333Y-77716119D01*
X150598095Y-77858976D01*
X150550476Y-78049452D01*
X150550476Y-78430404D01*
X150598095Y-78525642D01*
X150645714Y-78573261D01*
X150740952Y-78620880D01*
X150931428Y-78620880D01*
X151026666Y-78573261D01*
X151074285Y-78525642D01*
X151121904Y-78430404D01*
X151121904Y-78192309D01*
X151074285Y-78097071D01*
X151026666Y-78049452D01*
X150931428Y-78001833D01*
X150740952Y-78001833D01*
X150645714Y-78049452D01*
X150598095Y-78097071D01*
X150550476Y-78192309D01*
X111021904Y-59570880D02*
X111021904Y-58570880D01*
X111593333Y-59570880D02*
X111164761Y-58999452D01*
X111593333Y-58570880D02*
X111021904Y-59142309D01*
X111974285Y-58666119D02*
X112021904Y-58618500D01*
X112117142Y-58570880D01*
X112355238Y-58570880D01*
X112450476Y-58618500D01*
X112498095Y-58666119D01*
X112545714Y-58761357D01*
X112545714Y-58856595D01*
X112498095Y-58999452D01*
X111926666Y-59570880D01*
X112545714Y-59570880D01*
X91971904Y-59570880D02*
X91971904Y-58570880D01*
X92543333Y-59570880D02*
X92114761Y-58999452D01*
X92543333Y-58570880D02*
X91971904Y-59142309D01*
X93495714Y-59570880D02*
X92924285Y-59570880D01*
X93210000Y-59570880D02*
X93210000Y-58570880D01*
X93114761Y-58713738D01*
X93019523Y-58808976D01*
X92924285Y-58856595D01*
X130071904Y-59570880D02*
X130071904Y-58570880D01*
X130643333Y-59570880D02*
X130214761Y-58999452D01*
X130643333Y-58570880D02*
X130071904Y-59142309D01*
X130976666Y-58570880D02*
X131595714Y-58570880D01*
X131262380Y-58951833D01*
X131405238Y-58951833D01*
X131500476Y-58999452D01*
X131548095Y-59047071D01*
X131595714Y-59142309D01*
X131595714Y-59380404D01*
X131548095Y-59475642D01*
X131500476Y-59523261D01*
X131405238Y-59570880D01*
X131119523Y-59570880D01*
X131024285Y-59523261D01*
X130976666Y-59475642D01*
X149121904Y-59570880D02*
X149121904Y-58570880D01*
X149693333Y-59570880D02*
X149264761Y-58999452D01*
X149693333Y-58570880D02*
X149121904Y-59142309D01*
X150550476Y-58904214D02*
X150550476Y-59570880D01*
X150312380Y-58523261D02*
X150074285Y-59237547D01*
X150693333Y-59237547D01*
X168171904Y-59570880D02*
X168171904Y-58570880D01*
X168743333Y-59570880D02*
X168314761Y-58999452D01*
X168743333Y-58570880D02*
X168171904Y-59142309D01*
X169648095Y-58570880D02*
X169171904Y-58570880D01*
X169124285Y-59047071D01*
X169171904Y-58999452D01*
X169267142Y-58951833D01*
X169505238Y-58951833D01*
X169600476Y-58999452D01*
X169648095Y-59047071D01*
X169695714Y-59142309D01*
X169695714Y-59380404D01*
X169648095Y-59475642D01*
X169600476Y-59523261D01*
X169505238Y-59570880D01*
X169267142Y-59570880D01*
X169171904Y-59523261D01*
X169124285Y-59475642D01*
X187221904Y-59570880D02*
X187221904Y-58570880D01*
X187793333Y-59570880D02*
X187364761Y-58999452D01*
X187793333Y-58570880D02*
X187221904Y-59142309D01*
X188650476Y-58570880D02*
X188460000Y-58570880D01*
X188364761Y-58618500D01*
X188317142Y-58666119D01*
X188221904Y-58808976D01*
X188174285Y-58999452D01*
X188174285Y-59380404D01*
X188221904Y-59475642D01*
X188269523Y-59523261D01*
X188364761Y-59570880D01*
X188555238Y-59570880D01*
X188650476Y-59523261D01*
X188698095Y-59475642D01*
X188745714Y-59380404D01*
X188745714Y-59142309D01*
X188698095Y-59047071D01*
X188650476Y-58999452D01*
X188555238Y-58951833D01*
X188364761Y-58951833D01*
X188269523Y-58999452D01*
X188221904Y-59047071D01*
X188174285Y-59142309D01*
X206271904Y-59570880D02*
X206271904Y-58570880D01*
X206843333Y-59570880D02*
X206414761Y-58999452D01*
X206843333Y-58570880D02*
X206271904Y-59142309D01*
X207176666Y-58570880D02*
X207843333Y-58570880D01*
X207414761Y-59570880D01*
X225321904Y-59570880D02*
X225321904Y-58570880D01*
X225893333Y-59570880D02*
X225464761Y-58999452D01*
X225893333Y-58570880D02*
X225321904Y-59142309D01*
X226464761Y-58999452D02*
X226369523Y-58951833D01*
X226321904Y-58904214D01*
X226274285Y-58808976D01*
X226274285Y-58761357D01*
X226321904Y-58666119D01*
X226369523Y-58618500D01*
X226464761Y-58570880D01*
X226655238Y-58570880D01*
X226750476Y-58618500D01*
X226798095Y-58666119D01*
X226845714Y-58761357D01*
X226845714Y-58808976D01*
X226798095Y-58904214D01*
X226750476Y-58951833D01*
X226655238Y-58999452D01*
X226464761Y-58999452D01*
X226369523Y-59047071D01*
X226321904Y-59094690D01*
X226274285Y-59189928D01*
X226274285Y-59380404D01*
X226321904Y-59475642D01*
X226369523Y-59523261D01*
X226464761Y-59570880D01*
X226655238Y-59570880D01*
X226750476Y-59523261D01*
X226798095Y-59475642D01*
X226845714Y-59380404D01*
X226845714Y-59189928D01*
X226798095Y-59094690D01*
X226750476Y-59047071D01*
X226655238Y-58999452D01*
X244371904Y-59570880D02*
X244371904Y-58570880D01*
X244943333Y-59570880D02*
X244514761Y-58999452D01*
X244943333Y-58570880D02*
X244371904Y-59142309D01*
X245419523Y-59570880D02*
X245610000Y-59570880D01*
X245705238Y-59523261D01*
X245752857Y-59475642D01*
X245848095Y-59332785D01*
X245895714Y-59142309D01*
X245895714Y-58761357D01*
X245848095Y-58666119D01*
X245800476Y-58618500D01*
X245705238Y-58570880D01*
X245514761Y-58570880D01*
X245419523Y-58618500D01*
X245371904Y-58666119D01*
X245324285Y-58761357D01*
X245324285Y-58999452D01*
X245371904Y-59094690D01*
X245419523Y-59142309D01*
X245514761Y-59189928D01*
X245705238Y-59189928D01*
X245800476Y-59142309D01*
X245848095Y-59094690D01*
X245895714Y-58999452D01*
X262945714Y-59570880D02*
X262945714Y-58570880D01*
X263517142Y-59570880D02*
X263088571Y-58999452D01*
X263517142Y-58570880D02*
X262945714Y-59142309D01*
X264469523Y-59570880D02*
X263898095Y-59570880D01*
X264183809Y-59570880D02*
X264183809Y-58570880D01*
X264088571Y-58713738D01*
X263993333Y-58808976D01*
X263898095Y-58856595D01*
X265088571Y-58570880D02*
X265183809Y-58570880D01*
X265279047Y-58618500D01*
X265326666Y-58666119D01*
X265374285Y-58761357D01*
X265421904Y-58951833D01*
X265421904Y-59189928D01*
X265374285Y-59380404D01*
X265326666Y-59475642D01*
X265279047Y-59523261D01*
X265183809Y-59570880D01*
X265088571Y-59570880D01*
X264993333Y-59523261D01*
X264945714Y-59475642D01*
X264898095Y-59380404D01*
X264850476Y-59189928D01*
X264850476Y-58951833D01*
X264898095Y-58761357D01*
X264945714Y-58666119D01*
X264993333Y-58618500D01*
X265088571Y-58570880D01*
X281995714Y-59570880D02*
X281995714Y-58570880D01*
X282567142Y-59570880D02*
X282138571Y-58999452D01*
X282567142Y-58570880D02*
X281995714Y-59142309D01*
X283519523Y-59570880D02*
X282948095Y-59570880D01*
X283233809Y-59570880D02*
X283233809Y-58570880D01*
X283138571Y-58713738D01*
X283043333Y-58808976D01*
X282948095Y-58856595D01*
X284471904Y-59570880D02*
X283900476Y-59570880D01*
X284186190Y-59570880D02*
X284186190Y-58570880D01*
X284090952Y-58713738D01*
X283995714Y-58808976D01*
X283900476Y-58856595D01*
X301045714Y-59570880D02*
X301045714Y-58570880D01*
X301617142Y-59570880D02*
X301188571Y-58999452D01*
X301617142Y-58570880D02*
X301045714Y-59142309D01*
X302569523Y-59570880D02*
X301998095Y-59570880D01*
X302283809Y-59570880D02*
X302283809Y-58570880D01*
X302188571Y-58713738D01*
X302093333Y-58808976D01*
X301998095Y-58856595D01*
X302950476Y-58666119D02*
X302998095Y-58618500D01*
X303093333Y-58570880D01*
X303331428Y-58570880D01*
X303426666Y-58618500D01*
X303474285Y-58666119D01*
X303521904Y-58761357D01*
X303521904Y-58856595D01*
X303474285Y-58999452D01*
X302902857Y-59570880D01*
X303521904Y-59570880D01*
X91495714Y-78620880D02*
X91495714Y-77620880D01*
X92067142Y-78620880D02*
X91638571Y-78049452D01*
X92067142Y-77620880D02*
X91495714Y-78192309D01*
X93019523Y-78620880D02*
X92448095Y-78620880D01*
X92733809Y-78620880D02*
X92733809Y-77620880D01*
X92638571Y-77763738D01*
X92543333Y-77858976D01*
X92448095Y-77906595D01*
X93352857Y-77620880D02*
X93971904Y-77620880D01*
X93638571Y-78001833D01*
X93781428Y-78001833D01*
X93876666Y-78049452D01*
X93924285Y-78097071D01*
X93971904Y-78192309D01*
X93971904Y-78430404D01*
X93924285Y-78525642D01*
X93876666Y-78573261D01*
X93781428Y-78620880D01*
X93495714Y-78620880D01*
X93400476Y-78573261D01*
X93352857Y-78525642D01*
X110545714Y-78620880D02*
X110545714Y-77620880D01*
X111117142Y-78620880D02*
X110688571Y-78049452D01*
X111117142Y-77620880D02*
X110545714Y-78192309D01*
X112069523Y-78620880D02*
X111498095Y-78620880D01*
X111783809Y-78620880D02*
X111783809Y-77620880D01*
X111688571Y-77763738D01*
X111593333Y-77858976D01*
X111498095Y-77906595D01*
X112926666Y-77954214D02*
X112926666Y-78620880D01*
X112688571Y-77573261D02*
X112450476Y-78287547D01*
X113069523Y-78287547D01*
X167695714Y-78620880D02*
X167695714Y-77620880D01*
X168267142Y-78620880D02*
X167838571Y-78049452D01*
X168267142Y-77620880D02*
X167695714Y-78192309D01*
X169219523Y-78620880D02*
X168648095Y-78620880D01*
X168933809Y-78620880D02*
X168933809Y-77620880D01*
X168838571Y-77763738D01*
X168743333Y-77858976D01*
X168648095Y-77906595D01*
X169552857Y-77620880D02*
X170219523Y-77620880D01*
X169790952Y-78620880D01*
X186745714Y-78620880D02*
X186745714Y-77620880D01*
X187317142Y-78620880D02*
X186888571Y-78049452D01*
X187317142Y-77620880D02*
X186745714Y-78192309D01*
X188269523Y-78620880D02*
X187698095Y-78620880D01*
X187983809Y-78620880D02*
X187983809Y-77620880D01*
X187888571Y-77763738D01*
X187793333Y-77858976D01*
X187698095Y-77906595D01*
X188840952Y-78049452D02*
X188745714Y-78001833D01*
X188698095Y-77954214D01*
X188650476Y-77858976D01*
X188650476Y-77811357D01*
X188698095Y-77716119D01*
X188745714Y-77668500D01*
X188840952Y-77620880D01*
X189031428Y-77620880D01*
X189126666Y-77668500D01*
X189174285Y-77716119D01*
X189221904Y-77811357D01*
X189221904Y-77858976D01*
X189174285Y-77954214D01*
X189126666Y-78001833D01*
X189031428Y-78049452D01*
X188840952Y-78049452D01*
X188745714Y-78097071D01*
X188698095Y-78144690D01*
X188650476Y-78239928D01*
X188650476Y-78430404D01*
X188698095Y-78525642D01*
X188745714Y-78573261D01*
X188840952Y-78620880D01*
X189031428Y-78620880D01*
X189126666Y-78573261D01*
X189174285Y-78525642D01*
X189221904Y-78430404D01*
X189221904Y-78239928D01*
X189174285Y-78144690D01*
X189126666Y-78097071D01*
X189031428Y-78049452D01*
X205795714Y-78620880D02*
X205795714Y-77620880D01*
X206367142Y-78620880D02*
X205938571Y-78049452D01*
X206367142Y-77620880D02*
X205795714Y-78192309D01*
X207319523Y-78620880D02*
X206748095Y-78620880D01*
X207033809Y-78620880D02*
X207033809Y-77620880D01*
X206938571Y-77763738D01*
X206843333Y-77858976D01*
X206748095Y-77906595D01*
X207795714Y-78620880D02*
X207986190Y-78620880D01*
X208081428Y-78573261D01*
X208129047Y-78525642D01*
X208224285Y-78382785D01*
X208271904Y-78192309D01*
X208271904Y-77811357D01*
X208224285Y-77716119D01*
X208176666Y-77668500D01*
X208081428Y-77620880D01*
X207890952Y-77620880D01*
X207795714Y-77668500D01*
X207748095Y-77716119D01*
X207700476Y-77811357D01*
X207700476Y-78049452D01*
X207748095Y-78144690D01*
X207795714Y-78192309D01*
X207890952Y-78239928D01*
X208081428Y-78239928D01*
X208176666Y-78192309D01*
X208224285Y-78144690D01*
X208271904Y-78049452D01*
X224845714Y-78620880D02*
X224845714Y-77620880D01*
X225417142Y-78620880D02*
X224988571Y-78049452D01*
X225417142Y-77620880D02*
X224845714Y-78192309D01*
X225798095Y-77716119D02*
X225845714Y-77668500D01*
X225940952Y-77620880D01*
X226179047Y-77620880D01*
X226274285Y-77668500D01*
X226321904Y-77716119D01*
X226369523Y-77811357D01*
X226369523Y-77906595D01*
X226321904Y-78049452D01*
X225750476Y-78620880D01*
X226369523Y-78620880D01*
X226988571Y-77620880D02*
X227083809Y-77620880D01*
X227179047Y-77668500D01*
X227226666Y-77716119D01*
X227274285Y-77811357D01*
X227321904Y-78001833D01*
X227321904Y-78239928D01*
X227274285Y-78430404D01*
X227226666Y-78525642D01*
X227179047Y-78573261D01*
X227083809Y-78620880D01*
X226988571Y-78620880D01*
X226893333Y-78573261D01*
X226845714Y-78525642D01*
X226798095Y-78430404D01*
X226750476Y-78239928D01*
X226750476Y-78001833D01*
X226798095Y-77811357D01*
X226845714Y-77716119D01*
X226893333Y-77668500D01*
X226988571Y-77620880D01*
X243895714Y-78620880D02*
X243895714Y-77620880D01*
X244467142Y-78620880D02*
X244038571Y-78049452D01*
X244467142Y-77620880D02*
X243895714Y-78192309D01*
X244848095Y-77716119D02*
X244895714Y-77668500D01*
X244990952Y-77620880D01*
X245229047Y-77620880D01*
X245324285Y-77668500D01*
X245371904Y-77716119D01*
X245419523Y-77811357D01*
X245419523Y-77906595D01*
X245371904Y-78049452D01*
X244800476Y-78620880D01*
X245419523Y-78620880D01*
X246371904Y-78620880D02*
X245800476Y-78620880D01*
X246086190Y-78620880D02*
X246086190Y-77620880D01*
X245990952Y-77763738D01*
X245895714Y-77858976D01*
X245800476Y-77906595D01*
X262945714Y-78620880D02*
X262945714Y-77620880D01*
X263517142Y-78620880D02*
X263088571Y-78049452D01*
X263517142Y-77620880D02*
X262945714Y-78192309D01*
X263898095Y-77716119D02*
X263945714Y-77668500D01*
X264040952Y-77620880D01*
X264279047Y-77620880D01*
X264374285Y-77668500D01*
X264421904Y-77716119D01*
X264469523Y-77811357D01*
X264469523Y-77906595D01*
X264421904Y-78049452D01*
X263850476Y-78620880D01*
X264469523Y-78620880D01*
X264850476Y-77716119D02*
X264898095Y-77668500D01*
X264993333Y-77620880D01*
X265231428Y-77620880D01*
X265326666Y-77668500D01*
X265374285Y-77716119D01*
X265421904Y-77811357D01*
X265421904Y-77906595D01*
X265374285Y-78049452D01*
X264802857Y-78620880D01*
X265421904Y-78620880D01*
X281995714Y-78620880D02*
X281995714Y-77620880D01*
X282567142Y-78620880D02*
X282138571Y-78049452D01*
X282567142Y-77620880D02*
X281995714Y-78192309D01*
X282948095Y-77716119D02*
X282995714Y-77668500D01*
X283090952Y-77620880D01*
X283329047Y-77620880D01*
X283424285Y-77668500D01*
X283471904Y-77716119D01*
X283519523Y-77811357D01*
X283519523Y-77906595D01*
X283471904Y-78049452D01*
X282900476Y-78620880D01*
X283519523Y-78620880D01*
X283852857Y-77620880D02*
X284471904Y-77620880D01*
X284138571Y-78001833D01*
X284281428Y-78001833D01*
X284376666Y-78049452D01*
X284424285Y-78097071D01*
X284471904Y-78192309D01*
X284471904Y-78430404D01*
X284424285Y-78525642D01*
X284376666Y-78573261D01*
X284281428Y-78620880D01*
X283995714Y-78620880D01*
X283900476Y-78573261D01*
X283852857Y-78525642D01*
X301045714Y-78620880D02*
X301045714Y-77620880D01*
X301617142Y-78620880D02*
X301188571Y-78049452D01*
X301617142Y-77620880D02*
X301045714Y-78192309D01*
X301998095Y-77716119D02*
X302045714Y-77668500D01*
X302140952Y-77620880D01*
X302379047Y-77620880D01*
X302474285Y-77668500D01*
X302521904Y-77716119D01*
X302569523Y-77811357D01*
X302569523Y-77906595D01*
X302521904Y-78049452D01*
X301950476Y-78620880D01*
X302569523Y-78620880D01*
X303426666Y-77954214D02*
X303426666Y-78620880D01*
X303188571Y-77573261D02*
X302950476Y-78287547D01*
X303569523Y-78287547D01*
X91495714Y-97670880D02*
X91495714Y-96670880D01*
X92067142Y-97670880D02*
X91638571Y-97099452D01*
X92067142Y-96670880D02*
X91495714Y-97242309D01*
X92448095Y-96766119D02*
X92495714Y-96718500D01*
X92590952Y-96670880D01*
X92829047Y-96670880D01*
X92924285Y-96718500D01*
X92971904Y-96766119D01*
X93019523Y-96861357D01*
X93019523Y-96956595D01*
X92971904Y-97099452D01*
X92400476Y-97670880D01*
X93019523Y-97670880D01*
X93924285Y-96670880D02*
X93448095Y-96670880D01*
X93400476Y-97147071D01*
X93448095Y-97099452D01*
X93543333Y-97051833D01*
X93781428Y-97051833D01*
X93876666Y-97099452D01*
X93924285Y-97147071D01*
X93971904Y-97242309D01*
X93971904Y-97480404D01*
X93924285Y-97575642D01*
X93876666Y-97623261D01*
X93781428Y-97670880D01*
X93543333Y-97670880D01*
X93448095Y-97623261D01*
X93400476Y-97575642D01*
X110545714Y-97670380D02*
X110545714Y-96670380D01*
X111117142Y-97670380D02*
X110688571Y-97098952D01*
X111117142Y-96670380D02*
X110545714Y-97241809D01*
X111498095Y-96765619D02*
X111545714Y-96718000D01*
X111640952Y-96670380D01*
X111879047Y-96670380D01*
X111974285Y-96718000D01*
X112021904Y-96765619D01*
X112069523Y-96860857D01*
X112069523Y-96956095D01*
X112021904Y-97098952D01*
X111450476Y-97670380D01*
X112069523Y-97670380D01*
X112926666Y-96670380D02*
X112736190Y-96670380D01*
X112640952Y-96718000D01*
X112593333Y-96765619D01*
X112498095Y-96908476D01*
X112450476Y-97098952D01*
X112450476Y-97479904D01*
X112498095Y-97575142D01*
X112545714Y-97622761D01*
X112640952Y-97670380D01*
X112831428Y-97670380D01*
X112926666Y-97622761D01*
X112974285Y-97575142D01*
X113021904Y-97479904D01*
X113021904Y-97241809D01*
X112974285Y-97146571D01*
X112926666Y-97098952D01*
X112831428Y-97051333D01*
X112640952Y-97051333D01*
X112545714Y-97098952D01*
X112498095Y-97146571D01*
X112450476Y-97241809D01*
X129595714Y-97670380D02*
X129595714Y-96670380D01*
X130167142Y-97670380D02*
X129738571Y-97098952D01*
X130167142Y-96670380D02*
X129595714Y-97241809D01*
X130548095Y-96765619D02*
X130595714Y-96718000D01*
X130690952Y-96670380D01*
X130929047Y-96670380D01*
X131024285Y-96718000D01*
X131071904Y-96765619D01*
X131119523Y-96860857D01*
X131119523Y-96956095D01*
X131071904Y-97098952D01*
X130500476Y-97670380D01*
X131119523Y-97670380D01*
X131452857Y-96670380D02*
X132119523Y-96670380D01*
X131690952Y-97670380D01*
X148645714Y-97670380D02*
X148645714Y-96670380D01*
X149217142Y-97670380D02*
X148788571Y-97098952D01*
X149217142Y-96670380D02*
X148645714Y-97241809D01*
X149598095Y-96765619D02*
X149645714Y-96718000D01*
X149740952Y-96670380D01*
X149979047Y-96670380D01*
X150074285Y-96718000D01*
X150121904Y-96765619D01*
X150169523Y-96860857D01*
X150169523Y-96956095D01*
X150121904Y-97098952D01*
X149550476Y-97670380D01*
X150169523Y-97670380D01*
X150740952Y-97098952D02*
X150645714Y-97051333D01*
X150598095Y-97003714D01*
X150550476Y-96908476D01*
X150550476Y-96860857D01*
X150598095Y-96765619D01*
X150645714Y-96718000D01*
X150740952Y-96670380D01*
X150931428Y-96670380D01*
X151026666Y-96718000D01*
X151074285Y-96765619D01*
X151121904Y-96860857D01*
X151121904Y-96908476D01*
X151074285Y-97003714D01*
X151026666Y-97051333D01*
X150931428Y-97098952D01*
X150740952Y-97098952D01*
X150645714Y-97146571D01*
X150598095Y-97194190D01*
X150550476Y-97289428D01*
X150550476Y-97479904D01*
X150598095Y-97575142D01*
X150645714Y-97622761D01*
X150740952Y-97670380D01*
X150931428Y-97670380D01*
X151026666Y-97622761D01*
X151074285Y-97575142D01*
X151121904Y-97479904D01*
X151121904Y-97289428D01*
X151074285Y-97194190D01*
X151026666Y-97146571D01*
X150931428Y-97098952D01*
X167695714Y-97670380D02*
X167695714Y-96670380D01*
X168267142Y-97670380D02*
X167838571Y-97098952D01*
X168267142Y-96670380D02*
X167695714Y-97241809D01*
X168648095Y-96765619D02*
X168695714Y-96718000D01*
X168790952Y-96670380D01*
X169029047Y-96670380D01*
X169124285Y-96718000D01*
X169171904Y-96765619D01*
X169219523Y-96860857D01*
X169219523Y-96956095D01*
X169171904Y-97098952D01*
X168600476Y-97670380D01*
X169219523Y-97670380D01*
X169695714Y-97670380D02*
X169886190Y-97670380D01*
X169981428Y-97622761D01*
X170029047Y-97575142D01*
X170124285Y-97432285D01*
X170171904Y-97241809D01*
X170171904Y-96860857D01*
X170124285Y-96765619D01*
X170076666Y-96718000D01*
X169981428Y-96670380D01*
X169790952Y-96670380D01*
X169695714Y-96718000D01*
X169648095Y-96765619D01*
X169600476Y-96860857D01*
X169600476Y-97098952D01*
X169648095Y-97194190D01*
X169695714Y-97241809D01*
X169790952Y-97289428D01*
X169981428Y-97289428D01*
X170076666Y-97241809D01*
X170124285Y-97194190D01*
X170171904Y-97098952D01*
X186745714Y-97670380D02*
X186745714Y-96670380D01*
X187317142Y-97670380D02*
X186888571Y-97098952D01*
X187317142Y-96670380D02*
X186745714Y-97241809D01*
X187650476Y-96670380D02*
X188269523Y-96670380D01*
X187936190Y-97051333D01*
X188079047Y-97051333D01*
X188174285Y-97098952D01*
X188221904Y-97146571D01*
X188269523Y-97241809D01*
X188269523Y-97479904D01*
X188221904Y-97575142D01*
X188174285Y-97622761D01*
X188079047Y-97670380D01*
X187793333Y-97670380D01*
X187698095Y-97622761D01*
X187650476Y-97575142D01*
X188888571Y-96670380D02*
X188983809Y-96670380D01*
X189079047Y-96718000D01*
X189126666Y-96765619D01*
X189174285Y-96860857D01*
X189221904Y-97051333D01*
X189221904Y-97289428D01*
X189174285Y-97479904D01*
X189126666Y-97575142D01*
X189079047Y-97622761D01*
X188983809Y-97670380D01*
X188888571Y-97670380D01*
X188793333Y-97622761D01*
X188745714Y-97575142D01*
X188698095Y-97479904D01*
X188650476Y-97289428D01*
X188650476Y-97051333D01*
X188698095Y-96860857D01*
X188745714Y-96765619D01*
X188793333Y-96718000D01*
X188888571Y-96670380D01*
X205795714Y-97670380D02*
X205795714Y-96670380D01*
X206367142Y-97670380D02*
X205938571Y-97098952D01*
X206367142Y-96670380D02*
X205795714Y-97241809D01*
X206700476Y-96670380D02*
X207319523Y-96670380D01*
X206986190Y-97051333D01*
X207129047Y-97051333D01*
X207224285Y-97098952D01*
X207271904Y-97146571D01*
X207319523Y-97241809D01*
X207319523Y-97479904D01*
X207271904Y-97575142D01*
X207224285Y-97622761D01*
X207129047Y-97670380D01*
X206843333Y-97670380D01*
X206748095Y-97622761D01*
X206700476Y-97575142D01*
X208271904Y-97670380D02*
X207700476Y-97670380D01*
X207986190Y-97670380D02*
X207986190Y-96670380D01*
X207890952Y-96813238D01*
X207795714Y-96908476D01*
X207700476Y-96956095D01*
X224845714Y-97670380D02*
X224845714Y-96670380D01*
X225417142Y-97670380D02*
X224988571Y-97098952D01*
X225417142Y-96670380D02*
X224845714Y-97241809D01*
X225750476Y-96670380D02*
X226369523Y-96670380D01*
X226036190Y-97051333D01*
X226179047Y-97051333D01*
X226274285Y-97098952D01*
X226321904Y-97146571D01*
X226369523Y-97241809D01*
X226369523Y-97479904D01*
X226321904Y-97575142D01*
X226274285Y-97622761D01*
X226179047Y-97670380D01*
X225893333Y-97670380D01*
X225798095Y-97622761D01*
X225750476Y-97575142D01*
X226750476Y-96765619D02*
X226798095Y-96718000D01*
X226893333Y-96670380D01*
X227131428Y-96670380D01*
X227226666Y-96718000D01*
X227274285Y-96765619D01*
X227321904Y-96860857D01*
X227321904Y-96956095D01*
X227274285Y-97098952D01*
X226702857Y-97670380D01*
X227321904Y-97670380D01*
X243895714Y-97670380D02*
X243895714Y-96670380D01*
X244467142Y-97670380D02*
X244038571Y-97098952D01*
X244467142Y-96670380D02*
X243895714Y-97241809D01*
X244800476Y-96670380D02*
X245419523Y-96670380D01*
X245086190Y-97051333D01*
X245229047Y-97051333D01*
X245324285Y-97098952D01*
X245371904Y-97146571D01*
X245419523Y-97241809D01*
X245419523Y-97479904D01*
X245371904Y-97575142D01*
X245324285Y-97622761D01*
X245229047Y-97670380D01*
X244943333Y-97670380D01*
X244848095Y-97622761D01*
X244800476Y-97575142D01*
X245752857Y-96670380D02*
X246371904Y-96670380D01*
X246038571Y-97051333D01*
X246181428Y-97051333D01*
X246276666Y-97098952D01*
X246324285Y-97146571D01*
X246371904Y-97241809D01*
X246371904Y-97479904D01*
X246324285Y-97575142D01*
X246276666Y-97622761D01*
X246181428Y-97670380D01*
X245895714Y-97670380D01*
X245800476Y-97622761D01*
X245752857Y-97575142D01*
X262945714Y-97670380D02*
X262945714Y-96670380D01*
X263517142Y-97670380D02*
X263088571Y-97098952D01*
X263517142Y-96670380D02*
X262945714Y-97241809D01*
X263850476Y-96670380D02*
X264469523Y-96670380D01*
X264136190Y-97051333D01*
X264279047Y-97051333D01*
X264374285Y-97098952D01*
X264421904Y-97146571D01*
X264469523Y-97241809D01*
X264469523Y-97479904D01*
X264421904Y-97575142D01*
X264374285Y-97622761D01*
X264279047Y-97670380D01*
X263993333Y-97670380D01*
X263898095Y-97622761D01*
X263850476Y-97575142D01*
X265326666Y-97003714D02*
X265326666Y-97670380D01*
X265088571Y-96622761D02*
X264850476Y-97337047D01*
X265469523Y-97337047D01*
X281995714Y-97670380D02*
X281995714Y-96670380D01*
X282567142Y-97670380D02*
X282138571Y-97098952D01*
X282567142Y-96670380D02*
X281995714Y-97241809D01*
X282900476Y-96670380D02*
X283519523Y-96670380D01*
X283186190Y-97051333D01*
X283329047Y-97051333D01*
X283424285Y-97098952D01*
X283471904Y-97146571D01*
X283519523Y-97241809D01*
X283519523Y-97479904D01*
X283471904Y-97575142D01*
X283424285Y-97622761D01*
X283329047Y-97670380D01*
X283043333Y-97670380D01*
X282948095Y-97622761D01*
X282900476Y-97575142D01*
X284424285Y-96670380D02*
X283948095Y-96670380D01*
X283900476Y-97146571D01*
X283948095Y-97098952D01*
X284043333Y-97051333D01*
X284281428Y-97051333D01*
X284376666Y-97098952D01*
X284424285Y-97146571D01*
X284471904Y-97241809D01*
X284471904Y-97479904D01*
X284424285Y-97575142D01*
X284376666Y-97622761D01*
X284281428Y-97670380D01*
X284043333Y-97670380D01*
X283948095Y-97622761D01*
X283900476Y-97575142D01*
X301045714Y-97670380D02*
X301045714Y-96670380D01*
X301617142Y-97670380D02*
X301188571Y-97098952D01*
X301617142Y-96670380D02*
X301045714Y-97241809D01*
X301950476Y-96670380D02*
X302569523Y-96670380D01*
X302236190Y-97051333D01*
X302379047Y-97051333D01*
X302474285Y-97098952D01*
X302521904Y-97146571D01*
X302569523Y-97241809D01*
X302569523Y-97479904D01*
X302521904Y-97575142D01*
X302474285Y-97622761D01*
X302379047Y-97670380D01*
X302093333Y-97670380D01*
X301998095Y-97622761D01*
X301950476Y-97575142D01*
X303426666Y-96670380D02*
X303236190Y-96670380D01*
X303140952Y-96718000D01*
X303093333Y-96765619D01*
X302998095Y-96908476D01*
X302950476Y-97098952D01*
X302950476Y-97479904D01*
X302998095Y-97575142D01*
X303045714Y-97622761D01*
X303140952Y-97670380D01*
X303331428Y-97670380D01*
X303426666Y-97622761D01*
X303474285Y-97575142D01*
X303521904Y-97479904D01*
X303521904Y-97241809D01*
X303474285Y-97146571D01*
X303426666Y-97098952D01*
X303331428Y-97051333D01*
X303140952Y-97051333D01*
X303045714Y-97098952D01*
X302998095Y-97146571D01*
X302950476Y-97241809D01*
X91495714Y-116720380D02*
X91495714Y-115720380D01*
X92067142Y-116720380D02*
X91638571Y-116148952D01*
X92067142Y-115720380D02*
X91495714Y-116291809D01*
X92400476Y-115720380D02*
X93019523Y-115720380D01*
X92686190Y-116101333D01*
X92829047Y-116101333D01*
X92924285Y-116148952D01*
X92971904Y-116196571D01*
X93019523Y-116291809D01*
X93019523Y-116529904D01*
X92971904Y-116625142D01*
X92924285Y-116672761D01*
X92829047Y-116720380D01*
X92543333Y-116720380D01*
X92448095Y-116672761D01*
X92400476Y-116625142D01*
X93352857Y-115720380D02*
X94019523Y-115720380D01*
X93590952Y-116720380D01*
X110545714Y-116720380D02*
X110545714Y-115720380D01*
X111117142Y-116720380D02*
X110688571Y-116148952D01*
X111117142Y-115720380D02*
X110545714Y-116291809D01*
X111450476Y-115720380D02*
X112069523Y-115720380D01*
X111736190Y-116101333D01*
X111879047Y-116101333D01*
X111974285Y-116148952D01*
X112021904Y-116196571D01*
X112069523Y-116291809D01*
X112069523Y-116529904D01*
X112021904Y-116625142D01*
X111974285Y-116672761D01*
X111879047Y-116720380D01*
X111593333Y-116720380D01*
X111498095Y-116672761D01*
X111450476Y-116625142D01*
X112640952Y-116148952D02*
X112545714Y-116101333D01*
X112498095Y-116053714D01*
X112450476Y-115958476D01*
X112450476Y-115910857D01*
X112498095Y-115815619D01*
X112545714Y-115768000D01*
X112640952Y-115720380D01*
X112831428Y-115720380D01*
X112926666Y-115768000D01*
X112974285Y-115815619D01*
X113021904Y-115910857D01*
X113021904Y-115958476D01*
X112974285Y-116053714D01*
X112926666Y-116101333D01*
X112831428Y-116148952D01*
X112640952Y-116148952D01*
X112545714Y-116196571D01*
X112498095Y-116244190D01*
X112450476Y-116339428D01*
X112450476Y-116529904D01*
X112498095Y-116625142D01*
X112545714Y-116672761D01*
X112640952Y-116720380D01*
X112831428Y-116720380D01*
X112926666Y-116672761D01*
X112974285Y-116625142D01*
X113021904Y-116529904D01*
X113021904Y-116339428D01*
X112974285Y-116244190D01*
X112926666Y-116196571D01*
X112831428Y-116148952D01*
X129595714Y-116720380D02*
X129595714Y-115720380D01*
X130167142Y-116720380D02*
X129738571Y-116148952D01*
X130167142Y-115720380D02*
X129595714Y-116291809D01*
X130500476Y-115720380D02*
X131119523Y-115720380D01*
X130786190Y-116101333D01*
X130929047Y-116101333D01*
X131024285Y-116148952D01*
X131071904Y-116196571D01*
X131119523Y-116291809D01*
X131119523Y-116529904D01*
X131071904Y-116625142D01*
X131024285Y-116672761D01*
X130929047Y-116720380D01*
X130643333Y-116720380D01*
X130548095Y-116672761D01*
X130500476Y-116625142D01*
X131595714Y-116720380D02*
X131786190Y-116720380D01*
X131881428Y-116672761D01*
X131929047Y-116625142D01*
X132024285Y-116482285D01*
X132071904Y-116291809D01*
X132071904Y-115910857D01*
X132024285Y-115815619D01*
X131976666Y-115768000D01*
X131881428Y-115720380D01*
X131690952Y-115720380D01*
X131595714Y-115768000D01*
X131548095Y-115815619D01*
X131500476Y-115910857D01*
X131500476Y-116148952D01*
X131548095Y-116244190D01*
X131595714Y-116291809D01*
X131690952Y-116339428D01*
X131881428Y-116339428D01*
X131976666Y-116291809D01*
X132024285Y-116244190D01*
X132071904Y-116148952D01*
X148645714Y-116720380D02*
X148645714Y-115720380D01*
X149217142Y-116720380D02*
X148788571Y-116148952D01*
X149217142Y-115720380D02*
X148645714Y-116291809D01*
X150074285Y-116053714D02*
X150074285Y-116720380D01*
X149836190Y-115672761D02*
X149598095Y-116387047D01*
X150217142Y-116387047D01*
X150788571Y-115720380D02*
X150883809Y-115720380D01*
X150979047Y-115768000D01*
X151026666Y-115815619D01*
X151074285Y-115910857D01*
X151121904Y-116101333D01*
X151121904Y-116339428D01*
X151074285Y-116529904D01*
X151026666Y-116625142D01*
X150979047Y-116672761D01*
X150883809Y-116720380D01*
X150788571Y-116720380D01*
X150693333Y-116672761D01*
X150645714Y-116625142D01*
X150598095Y-116529904D01*
X150550476Y-116339428D01*
X150550476Y-116101333D01*
X150598095Y-115910857D01*
X150645714Y-115815619D01*
X150693333Y-115768000D01*
X150788571Y-115720380D01*
X243895714Y-116720880D02*
X243895714Y-115720880D01*
X244467142Y-116720880D02*
X244038571Y-116149452D01*
X244467142Y-115720880D02*
X243895714Y-116292309D01*
X245324285Y-116054214D02*
X245324285Y-116720880D01*
X245086190Y-115673261D02*
X244848095Y-116387547D01*
X245467142Y-116387547D01*
X245800476Y-115816119D02*
X245848095Y-115768500D01*
X245943333Y-115720880D01*
X246181428Y-115720880D01*
X246276666Y-115768500D01*
X246324285Y-115816119D01*
X246371904Y-115911357D01*
X246371904Y-116006595D01*
X246324285Y-116149452D01*
X245752857Y-116720880D01*
X246371904Y-116720880D01*
X262945714Y-116720380D02*
X262945714Y-115720380D01*
X263517142Y-116720380D02*
X263088571Y-116148952D01*
X263517142Y-115720380D02*
X262945714Y-116291809D01*
X264374285Y-116053714D02*
X264374285Y-116720380D01*
X264136190Y-115672761D02*
X263898095Y-116387047D01*
X264517142Y-116387047D01*
X264802857Y-115720380D02*
X265421904Y-115720380D01*
X265088571Y-116101333D01*
X265231428Y-116101333D01*
X265326666Y-116148952D01*
X265374285Y-116196571D01*
X265421904Y-116291809D01*
X265421904Y-116529904D01*
X265374285Y-116625142D01*
X265326666Y-116672761D01*
X265231428Y-116720380D01*
X264945714Y-116720380D01*
X264850476Y-116672761D01*
X264802857Y-116625142D01*
X281995714Y-116720880D02*
X281995714Y-115720880D01*
X282567142Y-116720880D02*
X282138571Y-116149452D01*
X282567142Y-115720880D02*
X281995714Y-116292309D01*
X283424285Y-116054214D02*
X283424285Y-116720880D01*
X283186190Y-115673261D02*
X282948095Y-116387547D01*
X283567142Y-116387547D01*
X284376666Y-116054214D02*
X284376666Y-116720880D01*
X284138571Y-115673261D02*
X283900476Y-116387547D01*
X284519523Y-116387547D01*
X301045714Y-116720880D02*
X301045714Y-115720880D01*
X301617142Y-116720880D02*
X301188571Y-116149452D01*
X301617142Y-115720880D02*
X301045714Y-116292309D01*
X302474285Y-116054214D02*
X302474285Y-116720880D01*
X302236190Y-115673261D02*
X301998095Y-116387547D01*
X302617142Y-116387547D01*
X303474285Y-115720880D02*
X302998095Y-115720880D01*
X302950476Y-116197071D01*
X302998095Y-116149452D01*
X303093333Y-116101833D01*
X303331428Y-116101833D01*
X303426666Y-116149452D01*
X303474285Y-116197071D01*
X303521904Y-116292309D01*
X303521904Y-116530404D01*
X303474285Y-116625642D01*
X303426666Y-116673261D01*
X303331428Y-116720880D01*
X303093333Y-116720880D01*
X302998095Y-116673261D01*
X302950476Y-116625642D01*
X319120714Y-119572380D02*
X319120714Y-118572380D01*
X319692142Y-119572380D02*
X319263571Y-119000952D01*
X319692142Y-118572380D02*
X319120714Y-119143809D01*
X320549285Y-118905714D02*
X320549285Y-119572380D01*
X320311190Y-118524761D02*
X320073095Y-119239047D01*
X320692142Y-119239047D01*
X320977857Y-118572380D02*
X321644523Y-118572380D01*
X321215952Y-119572380D01*
X184960000Y-116720880D02*
X184960000Y-115720880D01*
X185531428Y-116720880D02*
X185102857Y-116149452D01*
X185531428Y-115720880D02*
X184960000Y-116292309D01*
X186388571Y-116054214D02*
X186388571Y-116720880D01*
X186150476Y-115673261D02*
X185912380Y-116387547D01*
X186531428Y-116387547D01*
X187388571Y-115720880D02*
X186912380Y-115720880D01*
X186864761Y-116197071D01*
X186912380Y-116149452D01*
X187007619Y-116101833D01*
X187245714Y-116101833D01*
X187340952Y-116149452D01*
X187388571Y-116197071D01*
X187436190Y-116292309D01*
X187436190Y-116530404D01*
X187388571Y-116625642D01*
X187340952Y-116673261D01*
X187245714Y-116720880D01*
X187007619Y-116720880D01*
X186912380Y-116673261D01*
X186864761Y-116625642D01*
X187626666Y-116816119D02*
X188388571Y-116816119D01*
X189150476Y-116720880D02*
X188579047Y-116720880D01*
X188864761Y-116720880D02*
X188864761Y-115720880D01*
X188769523Y-115863738D01*
X188674285Y-115958976D01*
X188579047Y-116006595D01*
X190007619Y-116054214D02*
X190007619Y-116720880D01*
X189579047Y-116054214D02*
X189579047Y-116578023D01*
X189626666Y-116673261D01*
X189721904Y-116720880D01*
X189864761Y-116720880D01*
X189960000Y-116673261D01*
X190007619Y-116625642D01*
X191007619Y-116720880D02*
X190436190Y-116720880D01*
X190721904Y-116720880D02*
X190721904Y-115720880D01*
X190626666Y-115863738D01*
X190531428Y-115958976D01*
X190436190Y-116006595D01*
X204010000Y-116720880D02*
X204010000Y-115720880D01*
X204581428Y-116720880D02*
X204152857Y-116149452D01*
X204581428Y-115720880D02*
X204010000Y-116292309D01*
X205438571Y-116054214D02*
X205438571Y-116720880D01*
X205200476Y-115673261D02*
X204962380Y-116387547D01*
X205581428Y-116387547D01*
X206390952Y-115720880D02*
X206200476Y-115720880D01*
X206105238Y-115768500D01*
X206057619Y-115816119D01*
X205962380Y-115958976D01*
X205914761Y-116149452D01*
X205914761Y-116530404D01*
X205962380Y-116625642D01*
X206010000Y-116673261D01*
X206105238Y-116720880D01*
X206295714Y-116720880D01*
X206390952Y-116673261D01*
X206438571Y-116625642D01*
X206486190Y-116530404D01*
X206486190Y-116292309D01*
X206438571Y-116197071D01*
X206390952Y-116149452D01*
X206295714Y-116101833D01*
X206105238Y-116101833D01*
X206010000Y-116149452D01*
X205962380Y-116197071D01*
X205914761Y-116292309D01*
X206676666Y-116816119D02*
X207438571Y-116816119D01*
X208200476Y-116720880D02*
X207629047Y-116720880D01*
X207914761Y-116720880D02*
X207914761Y-115720880D01*
X207819523Y-115863738D01*
X207724285Y-115958976D01*
X207629047Y-116006595D01*
X209057619Y-116054214D02*
X209057619Y-116720880D01*
X208629047Y-116054214D02*
X208629047Y-116578023D01*
X208676666Y-116673261D01*
X208771904Y-116720880D01*
X208914761Y-116720880D01*
X209010000Y-116673261D01*
X209057619Y-116625642D01*
X210057619Y-116720880D02*
X209486190Y-116720880D01*
X209771904Y-116720880D02*
X209771904Y-115720880D01*
X209676666Y-115863738D01*
X209581428Y-115958976D01*
X209486190Y-116006595D01*
X317214761Y-59570880D02*
X317214761Y-58570880D01*
X317786190Y-59570880D02*
X317357619Y-58999452D01*
X317786190Y-58570880D02*
X317214761Y-59142309D01*
X317976666Y-59666119D02*
X318738571Y-59666119D01*
X319310000Y-59047071D02*
X319452857Y-59094690D01*
X319500476Y-59142309D01*
X319548095Y-59237547D01*
X319548095Y-59380404D01*
X319500476Y-59475642D01*
X319452857Y-59523261D01*
X319357619Y-59570880D01*
X318976666Y-59570880D01*
X318976666Y-58570880D01*
X319310000Y-58570880D01*
X319405238Y-58618500D01*
X319452857Y-58666119D01*
X319500476Y-58761357D01*
X319500476Y-58856595D01*
X319452857Y-58951833D01*
X319405238Y-58999452D01*
X319310000Y-59047071D01*
X318976666Y-59047071D01*
X320548095Y-59475642D02*
X320500476Y-59523261D01*
X320357619Y-59570880D01*
X320262380Y-59570880D01*
X320119523Y-59523261D01*
X320024285Y-59428023D01*
X319976666Y-59332785D01*
X319929047Y-59142309D01*
X319929047Y-58999452D01*
X319976666Y-58808976D01*
X320024285Y-58713738D01*
X320119523Y-58618500D01*
X320262380Y-58570880D01*
X320357619Y-58570880D01*
X320500476Y-58618500D01*
X320548095Y-58666119D01*
X320976666Y-59570880D02*
X320976666Y-58570880D01*
X321548095Y-59570880D02*
X321119523Y-58999452D01*
X321548095Y-58570880D02*
X320976666Y-59142309D01*
X321929047Y-59523261D02*
X322071904Y-59570880D01*
X322310000Y-59570880D01*
X322405238Y-59523261D01*
X322452857Y-59475642D01*
X322500476Y-59380404D01*
X322500476Y-59285166D01*
X322452857Y-59189928D01*
X322405238Y-59142309D01*
X322310000Y-59094690D01*
X322119523Y-59047071D01*
X322024285Y-58999452D01*
X321976666Y-58951833D01*
X321929047Y-58856595D01*
X321929047Y-58761357D01*
X321976666Y-58666119D01*
X322024285Y-58618500D01*
X322119523Y-58570880D01*
X322357619Y-58570880D01*
X322500476Y-58618500D01*
X322929047Y-59570880D02*
X322929047Y-58570880D01*
X323310000Y-58570880D01*
X323405238Y-58618500D01*
X323452857Y-58666119D01*
X323500476Y-58761357D01*
X323500476Y-58904214D01*
X323452857Y-58999452D01*
X323405238Y-59047071D01*
X323310000Y-59094690D01*
X322929047Y-59094690D01*
X324500476Y-59475642D02*
X324452857Y-59523261D01*
X324310000Y-59570880D01*
X324214761Y-59570880D01*
X324071904Y-59523261D01*
X323976666Y-59428023D01*
X323929047Y-59332785D01*
X323881428Y-59142309D01*
X323881428Y-58999452D01*
X323929047Y-58808976D01*
X323976666Y-58713738D01*
X324071904Y-58618500D01*
X324214761Y-58570880D01*
X324310000Y-58570880D01*
X324452857Y-58618500D01*
X324500476Y-58666119D01*
X325452857Y-59570880D02*
X324881428Y-59570880D01*
X325167142Y-59570880D02*
X325167142Y-58570880D01*
X325071904Y-58713738D01*
X324976666Y-58808976D01*
X324881428Y-58856595D01*
X317881428Y-78620880D02*
X317881428Y-77620880D01*
X318452857Y-78620880D02*
X318024285Y-78049452D01*
X318452857Y-77620880D02*
X317881428Y-78192309D01*
X318643333Y-78716119D02*
X319405238Y-78716119D01*
X319643333Y-78097071D02*
X319976666Y-78097071D01*
X320119523Y-78620880D02*
X319643333Y-78620880D01*
X319643333Y-77620880D01*
X320119523Y-77620880D01*
X320548095Y-78620880D02*
X320548095Y-77620880D01*
X321119523Y-78620880D01*
X321119523Y-77620880D01*
X321452857Y-77620880D02*
X322024285Y-77620880D01*
X321738571Y-78620880D02*
X321738571Y-77620880D01*
X322357619Y-78097071D02*
X322690952Y-78097071D01*
X322833809Y-78620880D02*
X322357619Y-78620880D01*
X322357619Y-77620880D01*
X322833809Y-77620880D01*
X323833809Y-78620880D02*
X323500476Y-78144690D01*
X323262380Y-78620880D02*
X323262380Y-77620880D01*
X323643333Y-77620880D01*
X323738571Y-77668500D01*
X323786190Y-77716119D01*
X323833809Y-77811357D01*
X323833809Y-77954214D01*
X323786190Y-78049452D01*
X323738571Y-78097071D01*
X323643333Y-78144690D01*
X323262380Y-78144690D01*
X324786190Y-78620880D02*
X324214761Y-78620880D01*
X324500476Y-78620880D02*
X324500476Y-77620880D01*
X324405238Y-77763738D01*
X324310000Y-77858976D01*
X324214761Y-77906595D01*
X317881428Y-97670880D02*
X317881428Y-96670880D01*
X318452857Y-97670880D02*
X318024285Y-97099452D01*
X318452857Y-96670880D02*
X317881428Y-97242309D01*
X318643333Y-97766119D02*
X319405238Y-97766119D01*
X320214761Y-97670880D02*
X319881428Y-97194690D01*
X319643333Y-97670880D02*
X319643333Y-96670880D01*
X320024285Y-96670880D01*
X320119523Y-96718500D01*
X320167142Y-96766119D01*
X320214761Y-96861357D01*
X320214761Y-97004214D01*
X320167142Y-97099452D01*
X320119523Y-97147071D01*
X320024285Y-97194690D01*
X319643333Y-97194690D01*
X320595714Y-97623261D02*
X320738571Y-97670880D01*
X320976666Y-97670880D01*
X321071904Y-97623261D01*
X321119523Y-97575642D01*
X321167142Y-97480404D01*
X321167142Y-97385166D01*
X321119523Y-97289928D01*
X321071904Y-97242309D01*
X320976666Y-97194690D01*
X320786190Y-97147071D01*
X320690952Y-97099452D01*
X320643333Y-97051833D01*
X320595714Y-96956595D01*
X320595714Y-96861357D01*
X320643333Y-96766119D01*
X320690952Y-96718500D01*
X320786190Y-96670880D01*
X321024285Y-96670880D01*
X321167142Y-96718500D01*
X321595714Y-97670880D02*
X321595714Y-96670880D01*
X321595714Y-97147071D02*
X322167142Y-97147071D01*
X322167142Y-97670880D02*
X322167142Y-96670880D01*
X322976666Y-97147071D02*
X322643333Y-97147071D01*
X322643333Y-97670880D02*
X322643333Y-96670880D01*
X323119523Y-96670880D01*
X323357619Y-96670880D02*
X323929047Y-96670880D01*
X323643333Y-97670880D02*
X323643333Y-96670880D01*
X324786190Y-97670880D02*
X324214761Y-97670880D01*
X324500476Y-97670880D02*
X324500476Y-96670880D01*
X324405238Y-96813738D01*
X324310000Y-96908976D01*
X324214761Y-96956595D01*
M02*
