M48
INCH
T1C0.0669
T2C0.1200
T3C0.1201
T4C0.1570
T5C0.1575
%
G90
G05
T1
X10.2Y-4.8875
X10.6Y-4.8875
X9.45Y-4.8875
X9.85Y-4.8875
X7.2Y-3.3875
X7.6Y-3.3875
X6.45Y-3.3875
X6.85Y-3.3875
X8.5125Y-4.8875
X8.9125Y-4.8875
X8.7Y-4.8875
X9.1Y-4.8875
X10.95Y-4.8875
X11.35Y-4.8875
X4.95Y-2.6375
X5.35Y-2.6375
X7.95Y-4.8875
X8.35Y-4.8875
X3.45Y-2.6375
X3.85Y-2.6375
X4.95Y-4.8875
X5.35Y-4.8875
X6.45Y-4.1375
X6.85Y-4.1375
X5.7Y-4.1375
X6.1Y-4.1375
X8.3248Y-4.8878
X8.7248Y-4.8878
X12.45Y-4.1375
X12.85Y-4.1375
X4.2Y-2.6375
X4.6Y-2.6375
X12.45Y-3.3875
X12.85Y-3.3875
X6.8244Y-4.889
X7.2244Y-4.889
X4.95Y-4.1375
X5.35Y-4.1375
X4.2Y-4.1375
X4.6Y-4.1375
X3.45Y-4.1375
X3.85Y-4.1375
X11.7Y-3.3875
X12.1Y-3.3875
X4.2Y-3.3875
X4.6Y-3.3875
X3.45Y-3.3875
X3.85Y-3.3875
X11.7Y-2.6375
X12.1Y-2.6375
X10.95Y-2.6375
X11.35Y-2.6375
X10.2Y-2.6375
X10.6Y-2.6375
X12.45Y-2.6375
X12.85Y-2.6375
X9.45Y-2.6375
X9.85Y-2.6375
X8.7Y-2.6375
X9.1Y-2.6375
X7.95Y-2.6375
X8.35Y-2.6375
X7.2Y-4.8875
X7.6Y-4.8875
X9.45Y-4.1375
X9.85Y-4.1375
X8.7Y-4.1375
X9.1Y-4.1375
X11.7Y-4.8875
X12.1Y-4.8875
X5.7Y-4.8875
X6.1Y-4.8875
X10.95Y-3.3875
X11.35Y-3.3875
X4.2Y-4.8875
X4.6Y-4.8875
X10.2Y-3.3875
X10.6Y-3.3875
X12.45Y-4.8875
X12.85Y-4.8875
X9.45Y-3.3875
X9.85Y-3.3875
X7.5748Y-4.8886
X7.9748Y-4.8886
X10.95Y-4.1375
X11.35Y-4.1375
X7.2Y-2.6375
X7.6Y-2.6375
X10.2Y-4.1375
X10.6Y-4.1375
X5.7Y-3.3875
X6.1Y-3.3875
X7.95Y-4.1375
X8.35Y-4.1375
X7.2Y-4.1375
X7.6Y-4.1375
X6.45Y-4.8875
X6.85Y-4.8875
X6.6375Y-4.8875
X7.0375Y-4.8875
X3.45Y-4.8875
X3.85Y-4.8875
X11.7Y-4.1375
X12.1Y-4.1375
X8.7Y-3.3875
X9.1Y-3.3875
X7.95Y-3.3875
X8.35Y-3.3875
X6.45Y-2.6375
X6.85Y-2.6375
X5.7Y-2.6375
X6.1Y-2.6375
X4.95Y-3.3875
X5.35Y-3.3875
T2
X5.9028Y-5.1616
X10.4028Y-5.1616
T3
X7.3063Y-5.1642
X8.2433Y-5.1642
X8.0563Y-5.1634
X8.9933Y-5.1634
X6.5559Y-5.1646
X7.4929Y-5.1646
T4
X5.9028Y-4.5616
X10.4028Y-4.5616
T5
X4.4Y-2.6375
X12.65Y-3.3875
X6.5559Y-4.5646
X7.0244Y-4.889
X7.4929Y-4.5646
X5.15Y-4.1375
X4.4Y-4.1375
X3.65Y-4.1375
X11.9Y-3.3875
X4.4Y-3.3875
X3.65Y-3.3875
X11.9Y-2.6375
X11.15Y-2.6375
X10.4Y-2.6375
X12.65Y-2.6375
X9.65Y-2.6375
X8.9Y-2.6375
X8.15Y-2.6375
X7.4Y-4.8875
X9.65Y-4.1375
X8.9Y-4.1375
X11.9Y-4.8875
X5.9Y-4.8875
X11.15Y-3.3875
X4.4Y-4.8875
X10.4Y-3.3875
X12.65Y-4.8875
X9.65Y-3.3875
X7.3063Y-4.5642
X7.7748Y-4.8886
X8.2433Y-4.5642
X11.15Y-4.1375
X7.4Y-2.6375
X10.4Y-4.1375
X5.9Y-3.3875
X8.15Y-4.1375
X7.4Y-4.1375
X6.65Y-4.8875
X6.8375Y-4.8875
X3.65Y-4.8875
X11.9Y-4.1375
X8.9Y-3.3875
X8.15Y-3.3875
X6.65Y-2.6375
X5.9Y-2.6375
X5.15Y-3.3875
X10.4Y-4.8875
X9.65Y-4.8875
X7.4Y-3.3875
X6.65Y-3.3875
X8.7125Y-4.8875
X8.9Y-4.8875
X11.15Y-4.8875
X5.15Y-2.6375
X8.15Y-4.8875
X3.65Y-2.6375
X5.15Y-4.8875
X6.65Y-4.1375
X5.9Y-4.1375
X8.0563Y-4.5634
X8.5248Y-4.8878
X8.9933Y-4.5634
X12.65Y-4.1375
T0
M30
