G04 #@! TF.GenerationSoftware,KiCad,Pcbnew,(5.1.5-0-10_14)*
G04 #@! TF.CreationDate,2020-11-29T18:14:47+02:00*
G04 #@! TF.ProjectId,Louhi,4c6f7568-692e-46b6-9963-61645f706362,rev?*
G04 #@! TF.SameCoordinates,Original*
G04 #@! TF.FileFunction,Paste,Bot*
G04 #@! TF.FilePolarity,Positive*
%FSLAX46Y46*%
G04 Gerber Fmt 4.6, Leading zero omitted, Abs format (unit mm)*
G04 Created by KiCad (PCBNEW (5.1.5-0-10_14)) date 2020-11-29 18:14:47*
%MOMM*%
%LPD*%
G04 APERTURE LIST*
%ADD10R,1.200000X1.200000*%
%ADD11R,1.700000X1.000000*%
G04 APERTURE END LIST*
D10*
X291660000Y-123040000D03*
X291660000Y-126190000D03*
X199110000Y-107985000D03*
X199110000Y-111135000D03*
X95780000Y-72575000D03*
X95780000Y-75725000D03*
X98470000Y-72575000D03*
X98470000Y-75725000D03*
X139510000Y-65985000D03*
X139510000Y-69135000D03*
X158610000Y-65950000D03*
X158610000Y-69100000D03*
X177310000Y-66005000D03*
X177310000Y-69155000D03*
X196420000Y-66250000D03*
X196420000Y-69400000D03*
X215460000Y-66235000D03*
X215460000Y-69385000D03*
X234510000Y-66575000D03*
X234510000Y-69725000D03*
X253600000Y-66495000D03*
X253600000Y-69645000D03*
X272580000Y-66405000D03*
X272580000Y-69555000D03*
X291760000Y-66875000D03*
X291760000Y-70025000D03*
X310860000Y-66885000D03*
X310860000Y-70035000D03*
X317925000Y-75440000D03*
X321075000Y-75440000D03*
X94175000Y-94690000D03*
X91025000Y-94690000D03*
X113785000Y-95000000D03*
X110635000Y-95000000D03*
X140220000Y-84935000D03*
X140220000Y-88085000D03*
X159270000Y-85175000D03*
X159270000Y-88325000D03*
X178400000Y-85415000D03*
X178400000Y-88565000D03*
X197290000Y-85415000D03*
X197290000Y-88565000D03*
X216320000Y-85605000D03*
X216320000Y-88755000D03*
X235430000Y-85325000D03*
X235430000Y-88475000D03*
X254610000Y-85050000D03*
X254610000Y-88200000D03*
X273720000Y-85045000D03*
X273720000Y-88195000D03*
X292830000Y-84985000D03*
X292830000Y-88135000D03*
X311060000Y-86015000D03*
X311060000Y-89165000D03*
X317855000Y-94380000D03*
X321005000Y-94380000D03*
X102160000Y-103725000D03*
X102160000Y-106875000D03*
X121050000Y-103035000D03*
X121050000Y-106185000D03*
X140030000Y-103035000D03*
X140030000Y-106185000D03*
X159180000Y-103035000D03*
X159180000Y-106185000D03*
X177280000Y-103515000D03*
X177280000Y-106665000D03*
X196430000Y-103355000D03*
X196430000Y-106505000D03*
X215530000Y-103435000D03*
X215530000Y-106585000D03*
X234440000Y-103285000D03*
X234440000Y-106435000D03*
X253640000Y-103815000D03*
X253640000Y-106965000D03*
X272680000Y-103765000D03*
X272680000Y-106915000D03*
X291690000Y-104145000D03*
X291690000Y-107295000D03*
X310770000Y-104025000D03*
X310770000Y-107175000D03*
X317705000Y-113190000D03*
X320855000Y-113190000D03*
X101770000Y-122855000D03*
X101770000Y-126005000D03*
X120730000Y-122755000D03*
X120730000Y-125905000D03*
X139920000Y-122780000D03*
X139920000Y-125930000D03*
X158920000Y-122525000D03*
X158920000Y-125675000D03*
X177085000Y-132400000D03*
X180235000Y-132400000D03*
X235450000Y-122750000D03*
X235450000Y-125900000D03*
X253560000Y-123255000D03*
X253560000Y-126405000D03*
X272490000Y-123025000D03*
X272490000Y-126175000D03*
X310880000Y-123015000D03*
X310880000Y-126165000D03*
X313300000Y-124565000D03*
X313300000Y-127715000D03*
D11*
X143104000Y-74681000D03*
X136804000Y-74681000D03*
X143104000Y-78481000D03*
X136804000Y-78481000D03*
D10*
X315825000Y-116160000D03*
X318975000Y-116160000D03*
M02*
