M48
INCH
T1C0.0157
T2C0.0276
T3C0.0374
T4C0.0394
T5C0.0430
T6C0.0591
T7C0.0906
%
G90
G05
T1
X4.2921Y-2.4398
X4.3827Y-2.4102
X4.7582Y-3.0297
X4.7996Y-3.011
X7.3961Y-5.0799
X7.6102Y-3.7949
X7.6122Y-5.0051
X7.8976Y-3.7874
X7.9319Y-2.9732
X12.2921Y-3.898
T2
X9.2689Y-3.2677
X9.2689Y-3.5748
X12.2394Y-4.7516
X12.2394Y-5.0587
X4.022Y-3.9921
X4.022Y-4.2992
X7.7673Y-3.2713
X7.7673Y-3.5783
X8.4827Y-2.5161
X8.4827Y-2.8232
X7.839Y-4.1598
X7.839Y-4.4669
X9.2299Y-3.9748
X9.2299Y-4.2819
X8.5165Y-3.2787
X8.5165Y-3.5858
X12.235Y-4.0039
X12.235Y-4.311
X7.7331Y-2.5167
X7.7331Y-2.8238
X8.4854Y-3.9807
X8.4854Y-4.2878
X4.0067Y-4.7453
X4.0067Y-5.0524
X6.9807Y-2.5071
X6.9807Y-2.8142
X6.2705Y-3.2618
X6.2705Y-3.5689
X11.4866Y-2.5413
X11.4866Y-2.8484
X12.4224Y-3.7157
X12.7295Y-3.7157
X7.7335Y-3.9776
X7.7335Y-4.2846
X7.0236Y-3.2713
X7.0236Y-3.5783
X6.2445Y-2.5049
X6.2445Y-2.812
X5.5205Y-3.2524
X5.5205Y-3.5594
X10.7315Y-2.5228
X10.7315Y-2.8299
X9.9827Y-4.761
X9.9827Y-5.0681
X12.2465Y-3.2949
X12.2465Y-3.602
X11.4839Y-4.0087
X11.4839Y-4.3157
X12.3425Y-4.5732
X12.6496Y-4.5732
X5.4925Y-2.5063
X5.4925Y-2.8134
X9.9843Y-2.5264
X9.9843Y-2.8335
X10.728Y-4.752
X10.728Y-5.0591
X12.4165Y-4.4563
X12.7236Y-4.4563
X9.2697Y-4.7411
X9.2697Y-5.0482
X11.5287Y-3.2543
X11.5287Y-3.5614
X10.7354Y-3.9937
X10.7354Y-4.3008
X3.8768Y-2.7657
X3.8768Y-3.0728
X6.9795Y-3.9839
X6.9795Y-4.2909
X6.8803Y-5.2126
X7.1874Y-5.2126
X4.2642Y-3.7402
X4.5713Y-3.7402
X6.2669Y-3.965
X6.2669Y-4.272
X6.2567Y-4.7323
X6.2567Y-5.0394
X3.4921Y-3.728
X3.7992Y-3.728
X10.7764Y-3.2567
X10.7764Y-3.5638
X5.513Y-3.965
X5.513Y-4.272
X5.5087Y-4.7423
X5.5087Y-5.0494
X12.4252Y-2.9701
X12.7323Y-2.9701
X10.024Y-3.2569
X10.024Y-3.564
X12.3346Y-4.8126
X12.3346Y-5.1197
X4.7657Y-3.965
X4.7657Y-4.272
X11.4827Y-4.7526
X11.4827Y-5.0596
X4.7531Y-4.7413
X4.7531Y-5.0484
X9.2327Y-2.5295
X9.2327Y-2.8366
X3.7709Y-2.7657
X3.7709Y-3.0728
X12.2386Y-2.5417
X12.2386Y-2.8488
X9.9858Y-3.9957
X9.9858Y-4.3028
T3
X3.3264Y-3.8941
X3.3264Y-3.9925
X3.3264Y-4.0909
T4
X12.3516Y-4.037
X12.3516Y-4.1354
X12.3516Y-4.2339
X12.9224Y-4.037
X12.9224Y-4.2339
X7.6728Y-4.5972
X7.6728Y-5.1681
X7.7713Y-4.5972
X7.8697Y-4.5972
X7.8697Y-5.1681
T5
X4.091Y-2.41
X4.091Y-2.51
X4.091Y-2.61
X4.091Y-2.71
X4.091Y-2.81
X4.091Y-2.91
X4.091Y-3.01
X4.091Y-3.11
X4.091Y-3.21
X4.091Y-3.31
X4.091Y-3.41
X4.091Y-3.51
X4.691Y-2.41
X4.691Y-2.51
X4.691Y-2.61
X4.691Y-2.71
X4.691Y-2.81
X4.691Y-2.91
X4.691Y-3.01
X4.691Y-3.11
X4.691Y-3.21
X4.691Y-3.31
X4.691Y-3.41
X4.691Y-3.51
T6
X8.75Y-3.2875
X9.0Y-3.1875
X8.0Y-3.2875
X8.25Y-3.1875
X6.5Y-2.5375
X6.75Y-2.4375
X5.75Y-2.5375
X6.0Y-2.4375
X5.0Y-3.2875
X5.25Y-3.1875
X10.25Y-4.7875
X10.5Y-4.6875
X9.5Y-4.7875
X9.75Y-4.6875
X7.25Y-3.2875
X7.5Y-3.1875
X6.5Y-3.2875
X6.75Y-3.1875
X8.5625Y-4.7875
X8.8125Y-4.6875
X8.75Y-4.7875
X9.0Y-4.6875
X11.0Y-4.7875
X11.25Y-4.6875
X5.0Y-2.5375
X5.25Y-2.4375
X8.0Y-4.7875
X8.25Y-4.6875
X3.5Y-2.5375
X3.75Y-2.4375
X5.0Y-4.7875
X5.25Y-4.6875
X6.5Y-4.0375
X6.75Y-3.9375
X5.75Y-4.0375
X6.0Y-3.9375
X8.4248Y-5.0878
X8.6748Y-4.9878
X12.5Y-4.0375
X12.75Y-3.9375
X4.25Y-2.5375
X4.5Y-2.4375
X12.5Y-3.2875
X12.75Y-3.1875
X6.9244Y-5.089
X7.1744Y-4.989
X5.0Y-4.0375
X5.25Y-3.9375
X4.25Y-4.0375
X4.5Y-3.9375
X3.5Y-4.0375
X3.75Y-3.9375
X11.75Y-3.2875
X12.0Y-3.1875
X4.25Y-3.2875
X4.5Y-3.1875
X3.5Y-3.2875
X3.75Y-3.1875
X11.75Y-2.5375
X12.0Y-2.4375
X11.0Y-2.5375
X11.25Y-2.4375
X10.25Y-2.5375
X10.5Y-2.4375
X12.5Y-2.5375
X12.75Y-2.4375
X9.5Y-2.5375
X9.75Y-2.4375
X8.75Y-2.5375
X9.0Y-2.4375
X8.0Y-2.5375
X8.25Y-2.4375
X7.25Y-4.7875
X7.5Y-4.6875
X9.5Y-4.0375
X9.75Y-3.9375
X8.75Y-4.0375
X9.0Y-3.9375
X11.75Y-4.7875
X12.0Y-4.6875
X5.75Y-4.7875
X6.0Y-4.6875
X11.0Y-3.2875
X11.25Y-3.1875
X4.25Y-4.7875
X4.5Y-4.6875
X10.25Y-3.2875
X10.5Y-3.1875
X12.5Y-4.7875
X12.75Y-4.6875
X9.5Y-3.2875
X9.75Y-3.1875
X7.6748Y-5.0886
X7.9248Y-4.9886
X11.0Y-4.0375
X11.25Y-3.9375
X7.25Y-2.5375
X7.5Y-2.4375
X10.25Y-4.0375
X10.5Y-3.9375
X5.75Y-3.2875
X6.0Y-3.1875
X8.0Y-4.0375
X8.25Y-3.9375
X7.25Y-4.0375
X7.5Y-3.9375
X6.5Y-4.7875
X6.75Y-4.6875
X6.6875Y-4.7875
X6.9375Y-4.6875
X3.5Y-4.7875
X3.75Y-4.6875
X11.75Y-4.0375
X12.0Y-3.9375
T7
X6.2173Y-3.7307
X12.9173Y-5.1583
X12.9205Y-2.372
X3.3811Y-5.1575
X10.022Y-4.5047
X8.5512Y-2.9642
X6.2224Y-4.5059
X8.5811Y-4.5315
X12.2484Y-3.7528
X10.7295Y-3.7181
X3.3803Y-2.3701
T0
M30
