G04 #@! TF.GenerationSoftware,KiCad,Pcbnew,(5.1.5-0-10_14)*
G04 #@! TF.CreationDate,2020-11-29T18:14:47+02:00*
G04 #@! TF.ProjectId,Louhi,4c6f7568-692e-46b6-9963-61645f706362,rev?*
G04 #@! TF.SameCoordinates,Original*
G04 #@! TF.FileFunction,Copper,L2,Bot*
G04 #@! TF.FilePolarity,Positive*
%FSLAX46Y46*%
G04 Gerber Fmt 4.6, Leading zero omitted, Abs format (unit mm)*
G04 Created by KiCad (PCBNEW (5.1.5-0-10_14)) date 2020-11-29 18:14:47*
%MOMM*%
%LPD*%
G04 APERTURE LIST*
%ADD10O,1.950000X1.700000*%
%ADD11C,0.100000*%
%ADD12C,3.300000*%
%ADD13C,2.200000*%
%ADD14R,0.500000X2.500000*%
%ADD15C,1.600000*%
%ADD16R,1.600000X1.600000*%
%ADD17R,1.200000X1.200000*%
%ADD18R,2.500000X0.500000*%
%ADD19R,1.700000X1.000000*%
%ADD20C,1.752600*%
%ADD21R,1.752600X1.752600*%
%ADD22R,2.000000X2.000000*%
%ADD23C,2.000000*%
%ADD24C,0.800000*%
%ADD25C,0.250000*%
G04 APERTURE END LIST*
D10*
X84490000Y-98910000D03*
X84490000Y-101410000D03*
G04 #@! TA.AperFunction,ComponentPad*
D11*
G36*
X85239504Y-103061204D02*
G01*
X85263773Y-103064804D01*
X85287571Y-103070765D01*
X85310671Y-103079030D01*
X85332849Y-103089520D01*
X85353893Y-103102133D01*
X85373598Y-103116747D01*
X85391777Y-103133223D01*
X85408253Y-103151402D01*
X85422867Y-103171107D01*
X85435480Y-103192151D01*
X85445970Y-103214329D01*
X85454235Y-103237429D01*
X85460196Y-103261227D01*
X85463796Y-103285496D01*
X85465000Y-103310000D01*
X85465000Y-104510000D01*
X85463796Y-104534504D01*
X85460196Y-104558773D01*
X85454235Y-104582571D01*
X85445970Y-104605671D01*
X85435480Y-104627849D01*
X85422867Y-104648893D01*
X85408253Y-104668598D01*
X85391777Y-104686777D01*
X85373598Y-104703253D01*
X85353893Y-104717867D01*
X85332849Y-104730480D01*
X85310671Y-104740970D01*
X85287571Y-104749235D01*
X85263773Y-104755196D01*
X85239504Y-104758796D01*
X85215000Y-104760000D01*
X83765000Y-104760000D01*
X83740496Y-104758796D01*
X83716227Y-104755196D01*
X83692429Y-104749235D01*
X83669329Y-104740970D01*
X83647151Y-104730480D01*
X83626107Y-104717867D01*
X83606402Y-104703253D01*
X83588223Y-104686777D01*
X83571747Y-104668598D01*
X83557133Y-104648893D01*
X83544520Y-104627849D01*
X83534030Y-104605671D01*
X83525765Y-104582571D01*
X83519804Y-104558773D01*
X83516204Y-104534504D01*
X83515000Y-104510000D01*
X83515000Y-103310000D01*
X83516204Y-103285496D01*
X83519804Y-103261227D01*
X83525765Y-103237429D01*
X83534030Y-103214329D01*
X83544520Y-103192151D01*
X83557133Y-103171107D01*
X83571747Y-103151402D01*
X83588223Y-103133223D01*
X83606402Y-103116747D01*
X83626107Y-103102133D01*
X83647151Y-103089520D01*
X83669329Y-103079030D01*
X83692429Y-103070765D01*
X83716227Y-103064804D01*
X83740496Y-103061204D01*
X83765000Y-103060000D01*
X85215000Y-103060000D01*
X85239504Y-103061204D01*
G37*
G04 #@! TD.AperFunction*
D12*
X272530000Y-94440000D03*
X217960000Y-115100000D03*
X158050000Y-114450000D03*
X311110000Y-95320000D03*
X254560000Y-114420000D03*
X217200000Y-75290000D03*
X157920000Y-94760000D03*
X328100000Y-131020000D03*
X328180000Y-60250000D03*
X85880000Y-131000000D03*
X85860000Y-60200000D03*
D13*
X127000000Y-83502500D03*
X133350000Y-80962500D03*
X146050000Y-83502500D03*
X152400000Y-80962500D03*
D14*
X291660000Y-127315000D03*
X291660000Y-121915000D03*
D15*
X291660000Y-128515000D03*
D16*
X291660000Y-120715000D03*
D17*
X291660000Y-123040000D03*
X291660000Y-126190000D03*
D13*
X107950000Y-64452500D03*
X114300000Y-61912500D03*
D14*
X199110000Y-112260000D03*
X199110000Y-106860000D03*
D15*
X199110000Y-113460000D03*
D16*
X199110000Y-105660000D03*
D17*
X199110000Y-107985000D03*
X199110000Y-111135000D03*
D14*
X95780000Y-76850000D03*
X95780000Y-71450000D03*
D15*
X95780000Y-78050000D03*
D16*
X95780000Y-70250000D03*
D17*
X95780000Y-72575000D03*
X95780000Y-75725000D03*
D14*
X98470000Y-76850000D03*
X98470000Y-71450000D03*
D15*
X98470000Y-78050000D03*
D16*
X98470000Y-70250000D03*
D17*
X98470000Y-72575000D03*
X98470000Y-75725000D03*
D14*
X139510000Y-70260000D03*
X139510000Y-64860000D03*
D15*
X139510000Y-71460000D03*
D16*
X139510000Y-63660000D03*
D17*
X139510000Y-65985000D03*
X139510000Y-69135000D03*
D14*
X158610000Y-70225000D03*
X158610000Y-64825000D03*
D15*
X158610000Y-71425000D03*
D16*
X158610000Y-63625000D03*
D17*
X158610000Y-65950000D03*
X158610000Y-69100000D03*
D14*
X177310000Y-70280000D03*
X177310000Y-64880000D03*
D15*
X177310000Y-71480000D03*
D16*
X177310000Y-63680000D03*
D17*
X177310000Y-66005000D03*
X177310000Y-69155000D03*
D14*
X196420000Y-70525000D03*
X196420000Y-65125000D03*
D15*
X196420000Y-71725000D03*
D16*
X196420000Y-63925000D03*
D17*
X196420000Y-66250000D03*
X196420000Y-69400000D03*
D14*
X215460000Y-70510000D03*
X215460000Y-65110000D03*
D15*
X215460000Y-71710000D03*
D16*
X215460000Y-63910000D03*
D17*
X215460000Y-66235000D03*
X215460000Y-69385000D03*
D14*
X234510000Y-70850000D03*
X234510000Y-65450000D03*
D15*
X234510000Y-72050000D03*
D16*
X234510000Y-64250000D03*
D17*
X234510000Y-66575000D03*
X234510000Y-69725000D03*
D14*
X253600000Y-70770000D03*
X253600000Y-65370000D03*
D15*
X253600000Y-71970000D03*
D16*
X253600000Y-64170000D03*
D17*
X253600000Y-66495000D03*
X253600000Y-69645000D03*
D14*
X272580000Y-70680000D03*
X272580000Y-65280000D03*
D15*
X272580000Y-71880000D03*
D16*
X272580000Y-64080000D03*
D17*
X272580000Y-66405000D03*
X272580000Y-69555000D03*
D14*
X291760000Y-71150000D03*
X291760000Y-65750000D03*
D15*
X291760000Y-72350000D03*
D16*
X291760000Y-64550000D03*
D17*
X291760000Y-66875000D03*
X291760000Y-70025000D03*
D14*
X310860000Y-71160000D03*
X310860000Y-65760000D03*
D15*
X310860000Y-72360000D03*
D16*
X310860000Y-64560000D03*
D17*
X310860000Y-66885000D03*
X310860000Y-70035000D03*
D18*
X322200000Y-75440000D03*
X316800000Y-75440000D03*
D15*
X323400000Y-75440000D03*
D16*
X315600000Y-75440000D03*
D17*
X317925000Y-75440000D03*
X321075000Y-75440000D03*
D18*
X89900000Y-94690000D03*
X95300000Y-94690000D03*
D15*
X88700000Y-94690000D03*
D16*
X96500000Y-94690000D03*
D17*
X94175000Y-94690000D03*
X91025000Y-94690000D03*
D18*
X109510000Y-95000000D03*
X114910000Y-95000000D03*
D15*
X108310000Y-95000000D03*
D16*
X116110000Y-95000000D03*
D17*
X113785000Y-95000000D03*
X110635000Y-95000000D03*
D14*
X140220000Y-89210000D03*
X140220000Y-83810000D03*
D15*
X140220000Y-90410000D03*
D16*
X140220000Y-82610000D03*
D17*
X140220000Y-84935000D03*
X140220000Y-88085000D03*
D14*
X159270000Y-89450000D03*
X159270000Y-84050000D03*
D15*
X159270000Y-90650000D03*
D16*
X159270000Y-82850000D03*
D17*
X159270000Y-85175000D03*
X159270000Y-88325000D03*
D14*
X178400000Y-89690000D03*
X178400000Y-84290000D03*
D15*
X178400000Y-90890000D03*
D16*
X178400000Y-83090000D03*
D17*
X178400000Y-85415000D03*
X178400000Y-88565000D03*
D14*
X197290000Y-89690000D03*
X197290000Y-84290000D03*
D15*
X197290000Y-90890000D03*
D16*
X197290000Y-83090000D03*
D17*
X197290000Y-85415000D03*
X197290000Y-88565000D03*
D14*
X216320000Y-89880000D03*
X216320000Y-84480000D03*
D15*
X216320000Y-91080000D03*
D16*
X216320000Y-83280000D03*
D17*
X216320000Y-85605000D03*
X216320000Y-88755000D03*
D14*
X235430000Y-89600000D03*
X235430000Y-84200000D03*
D15*
X235430000Y-90800000D03*
D16*
X235430000Y-83000000D03*
D17*
X235430000Y-85325000D03*
X235430000Y-88475000D03*
D14*
X254610000Y-89325000D03*
X254610000Y-83925000D03*
D15*
X254610000Y-90525000D03*
D16*
X254610000Y-82725000D03*
D17*
X254610000Y-85050000D03*
X254610000Y-88200000D03*
D14*
X273720000Y-89320000D03*
X273720000Y-83920000D03*
D15*
X273720000Y-90520000D03*
D16*
X273720000Y-82720000D03*
D17*
X273720000Y-85045000D03*
X273720000Y-88195000D03*
D14*
X292830000Y-89260000D03*
X292830000Y-83860000D03*
D15*
X292830000Y-90460000D03*
D16*
X292830000Y-82660000D03*
D17*
X292830000Y-84985000D03*
X292830000Y-88135000D03*
D14*
X311060000Y-90290000D03*
X311060000Y-84890000D03*
D15*
X311060000Y-91490000D03*
D16*
X311060000Y-83690000D03*
D17*
X311060000Y-86015000D03*
X311060000Y-89165000D03*
D18*
X322130000Y-94380000D03*
X316730000Y-94380000D03*
D15*
X323330000Y-94380000D03*
D16*
X315530000Y-94380000D03*
D17*
X317855000Y-94380000D03*
X321005000Y-94380000D03*
D14*
X102160000Y-108000000D03*
X102160000Y-102600000D03*
D15*
X102160000Y-109200000D03*
D16*
X102160000Y-101400000D03*
D17*
X102160000Y-103725000D03*
X102160000Y-106875000D03*
D14*
X121050000Y-107310000D03*
X121050000Y-101910000D03*
D15*
X121050000Y-108510000D03*
D16*
X121050000Y-100710000D03*
D17*
X121050000Y-103035000D03*
X121050000Y-106185000D03*
D14*
X140030000Y-107310000D03*
X140030000Y-101910000D03*
D15*
X140030000Y-108510000D03*
D16*
X140030000Y-100710000D03*
D17*
X140030000Y-103035000D03*
X140030000Y-106185000D03*
D14*
X159180000Y-107310000D03*
X159180000Y-101910000D03*
D15*
X159180000Y-108510000D03*
D16*
X159180000Y-100710000D03*
D17*
X159180000Y-103035000D03*
X159180000Y-106185000D03*
D14*
X177280000Y-107790000D03*
X177280000Y-102390000D03*
D15*
X177280000Y-108990000D03*
D16*
X177280000Y-101190000D03*
D17*
X177280000Y-103515000D03*
X177280000Y-106665000D03*
D14*
X196430000Y-107630000D03*
X196430000Y-102230000D03*
D15*
X196430000Y-108830000D03*
D16*
X196430000Y-101030000D03*
D17*
X196430000Y-103355000D03*
X196430000Y-106505000D03*
D14*
X215530000Y-107710000D03*
X215530000Y-102310000D03*
D15*
X215530000Y-108910000D03*
D16*
X215530000Y-101110000D03*
D17*
X215530000Y-103435000D03*
X215530000Y-106585000D03*
D14*
X234440000Y-107560000D03*
X234440000Y-102160000D03*
D15*
X234440000Y-108760000D03*
D16*
X234440000Y-100960000D03*
D17*
X234440000Y-103285000D03*
X234440000Y-106435000D03*
D14*
X253640000Y-108090000D03*
X253640000Y-102690000D03*
D15*
X253640000Y-109290000D03*
D16*
X253640000Y-101490000D03*
D17*
X253640000Y-103815000D03*
X253640000Y-106965000D03*
D14*
X272680000Y-108040000D03*
X272680000Y-102640000D03*
D15*
X272680000Y-109240000D03*
D16*
X272680000Y-101440000D03*
D17*
X272680000Y-103765000D03*
X272680000Y-106915000D03*
D14*
X291690000Y-108420000D03*
X291690000Y-103020000D03*
D15*
X291690000Y-109620000D03*
D16*
X291690000Y-101820000D03*
D17*
X291690000Y-104145000D03*
X291690000Y-107295000D03*
D14*
X310770000Y-108300000D03*
X310770000Y-102900000D03*
D15*
X310770000Y-109500000D03*
D16*
X310770000Y-101700000D03*
D17*
X310770000Y-104025000D03*
X310770000Y-107175000D03*
D18*
X321980000Y-113190000D03*
X316580000Y-113190000D03*
D15*
X323180000Y-113190000D03*
D16*
X315380000Y-113190000D03*
D17*
X317705000Y-113190000D03*
X320855000Y-113190000D03*
D14*
X101770000Y-127130000D03*
X101770000Y-121730000D03*
D15*
X101770000Y-128330000D03*
D16*
X101770000Y-120530000D03*
D17*
X101770000Y-122855000D03*
X101770000Y-126005000D03*
D14*
X120730000Y-127030000D03*
X120730000Y-121630000D03*
D15*
X120730000Y-128230000D03*
D16*
X120730000Y-120430000D03*
D17*
X120730000Y-122755000D03*
X120730000Y-125905000D03*
D14*
X139920000Y-127055000D03*
X139920000Y-121655000D03*
D15*
X139920000Y-128255000D03*
D16*
X139920000Y-120455000D03*
D17*
X139920000Y-122780000D03*
X139920000Y-125930000D03*
D14*
X158920000Y-126800000D03*
X158920000Y-121400000D03*
D15*
X158920000Y-128000000D03*
D16*
X158920000Y-120200000D03*
D17*
X158920000Y-122525000D03*
X158920000Y-125675000D03*
D18*
X181360000Y-132400000D03*
X175960000Y-132400000D03*
D15*
X182560000Y-132400000D03*
D16*
X174760000Y-132400000D03*
D17*
X177085000Y-132400000D03*
X180235000Y-132400000D03*
D14*
X235450000Y-127025000D03*
X235450000Y-121625000D03*
D15*
X235450000Y-128225000D03*
D16*
X235450000Y-120425000D03*
D17*
X235450000Y-122750000D03*
X235450000Y-125900000D03*
D14*
X253560000Y-127530000D03*
X253560000Y-122130000D03*
D15*
X253560000Y-128730000D03*
D16*
X253560000Y-120930000D03*
D17*
X253560000Y-123255000D03*
X253560000Y-126405000D03*
D14*
X272490000Y-127300000D03*
X272490000Y-121900000D03*
D15*
X272490000Y-128500000D03*
D16*
X272490000Y-120700000D03*
D17*
X272490000Y-123025000D03*
X272490000Y-126175000D03*
D14*
X310880000Y-127290000D03*
X310880000Y-121890000D03*
D15*
X310880000Y-128490000D03*
D16*
X310880000Y-120690000D03*
D17*
X310880000Y-123015000D03*
X310880000Y-126165000D03*
D14*
X313300000Y-128840000D03*
X313300000Y-123440000D03*
D15*
X313300000Y-130040000D03*
D16*
X313300000Y-122240000D03*
D17*
X313300000Y-124565000D03*
X313300000Y-127715000D03*
D19*
X143104000Y-74681000D03*
X136804000Y-74681000D03*
X143104000Y-78481000D03*
X136804000Y-78481000D03*
D20*
X119151000Y-61214000D03*
X103911000Y-89154000D03*
X119151000Y-63754000D03*
X119151000Y-66294000D03*
X119151000Y-68834000D03*
X119151000Y-71374000D03*
X119151000Y-73914000D03*
X119151000Y-76454000D03*
X119151000Y-78994000D03*
X119151000Y-81534000D03*
X119151000Y-84074000D03*
X119151000Y-86614000D03*
X119151000Y-89154000D03*
X103911000Y-86614000D03*
X103911000Y-84074000D03*
X103911000Y-81534000D03*
X103911000Y-78994000D03*
X103911000Y-76454000D03*
X103911000Y-73914000D03*
X103911000Y-71374000D03*
X103911000Y-68834000D03*
X103911000Y-66294000D03*
X103911000Y-63754000D03*
D21*
X103911000Y-61214000D03*
D18*
X320100000Y-116160000D03*
X314700000Y-116160000D03*
D15*
X321300000Y-116160000D03*
D16*
X313500000Y-116160000D03*
D17*
X315825000Y-116160000D03*
X318975000Y-116160000D03*
D13*
X88900000Y-64452500D03*
X95250000Y-61912500D03*
X127000000Y-64452500D03*
X133350000Y-61912500D03*
X146050000Y-64452500D03*
X152400000Y-61912500D03*
X165100000Y-64452500D03*
X171450000Y-61912500D03*
X184150000Y-64452500D03*
X190500000Y-61912500D03*
X203200000Y-64452500D03*
X209550000Y-61912500D03*
X222250000Y-64452500D03*
X228600000Y-61912500D03*
X241300000Y-64452500D03*
X247650000Y-61912500D03*
X260350000Y-64452500D03*
X266700000Y-61912500D03*
X279400000Y-64452500D03*
X285750000Y-61912500D03*
X298450000Y-64452500D03*
X304800000Y-61912500D03*
X88900000Y-83502500D03*
X95250000Y-80962500D03*
X107950000Y-83502500D03*
X114300000Y-80962500D03*
X165100000Y-83502500D03*
X171450000Y-80962500D03*
X184150000Y-83502500D03*
X190500000Y-80962500D03*
X203200000Y-83502500D03*
X209550000Y-80962500D03*
X222250000Y-83502500D03*
X228600000Y-80962500D03*
X241300000Y-83502500D03*
X247650000Y-80962500D03*
X260350000Y-83502500D03*
X266700000Y-80962500D03*
X279400000Y-83502500D03*
X285750000Y-80962500D03*
X298450000Y-83502500D03*
X304800000Y-80962500D03*
X88900000Y-102552500D03*
X95250000Y-100012500D03*
X107950000Y-102552000D03*
X114300000Y-100012000D03*
X127000000Y-102552000D03*
X133350000Y-100012000D03*
X146050000Y-102552000D03*
X152400000Y-100012000D03*
X165100000Y-102552000D03*
X171450000Y-100012000D03*
X184150000Y-102552000D03*
X190500000Y-100012000D03*
X203200000Y-102552000D03*
X209550000Y-100012000D03*
X222250000Y-102552000D03*
X228600000Y-100012000D03*
X241300000Y-102552000D03*
X247650000Y-100012000D03*
X260350000Y-102552000D03*
X266700000Y-100012000D03*
X279400000Y-102552000D03*
X285750000Y-100012000D03*
X298450000Y-102552000D03*
X304800000Y-100012000D03*
X88900000Y-121602000D03*
X95250000Y-119062000D03*
X107950000Y-121602000D03*
X114300000Y-119062000D03*
X127000000Y-121602000D03*
X133350000Y-119062000D03*
X146050000Y-121602000D03*
X152400000Y-119062000D03*
X222250000Y-121602500D03*
X228600000Y-119062500D03*
X241300000Y-121602500D03*
X247650000Y-119062500D03*
X260350000Y-121602000D03*
X266700000Y-119062000D03*
X279400000Y-121602500D03*
X285750000Y-119062500D03*
X298450000Y-121602500D03*
X304800000Y-119062500D03*
X317500000Y-121602500D03*
X323850000Y-119062500D03*
X169862500Y-121602500D03*
X176212500Y-119062500D03*
X165100000Y-121602000D03*
X171450000Y-119062000D03*
X182230000Y-126720000D03*
X175880000Y-129260000D03*
X184150000Y-121602500D03*
X190500000Y-119062500D03*
X201290000Y-126710000D03*
X194940000Y-129250000D03*
X217487500Y-121602500D03*
X223837500Y-119062500D03*
X203200000Y-121602500D03*
X209550000Y-119062500D03*
X220340000Y-126690000D03*
X213990000Y-129230000D03*
X317500000Y-64452500D03*
X323850000Y-61912500D03*
X317500000Y-83502500D03*
X323850000Y-80962500D03*
X317500000Y-102552500D03*
X323850000Y-100012500D03*
D22*
X313730000Y-102540000D03*
D23*
X313730000Y-105040000D03*
X313730000Y-107540000D03*
X328230000Y-102540000D03*
X328230000Y-107540000D03*
D22*
X199890000Y-116770000D03*
D23*
X197390000Y-116770000D03*
X194890000Y-116770000D03*
X199890000Y-131270000D03*
X194890000Y-131270000D03*
D24*
X111320000Y-61220000D03*
X109020000Y-61970000D03*
X187860000Y-129030000D03*
X193350000Y-127130000D03*
X201470000Y-75520000D03*
X120857971Y-76955000D03*
X121910000Y-76480000D03*
X193300000Y-96390000D03*
X312220000Y-99010000D03*
X200600000Y-96200000D03*
D25*
X88900000Y-71170000D02*
X95780000Y-78050000D01*
X88900000Y-64452500D02*
X88900000Y-71170000D01*
X98470000Y-78050000D02*
X101970000Y-74550000D01*
X101970000Y-60817398D02*
X102957398Y-59830000D01*
X101970000Y-74550000D02*
X101970000Y-60817398D01*
X107950000Y-62896866D02*
X107950000Y-64452500D01*
X104883134Y-59830000D02*
X107950000Y-62896866D01*
X102957398Y-59830000D02*
X104883134Y-59830000D01*
X129846489Y-69469991D02*
X131129400Y-69469990D01*
X131129400Y-69469990D02*
X133119410Y-71460000D01*
X127390000Y-67013502D02*
X129846489Y-69469991D01*
X133119410Y-71460000D02*
X139510000Y-71460000D01*
X127000000Y-64452500D02*
X127000000Y-66008134D01*
X127390000Y-66398134D02*
X127000000Y-66008134D01*
X127390000Y-67013502D02*
X127390000Y-66398134D01*
X146050000Y-66008134D02*
X146810000Y-66768134D01*
X146050000Y-64452500D02*
X146050000Y-66008134D01*
X146810000Y-66768134D02*
X146810000Y-69500000D01*
X148735000Y-71425000D02*
X158610000Y-71425000D01*
X146810000Y-69500000D02*
X148735000Y-71425000D01*
X165100000Y-66008134D02*
X165780000Y-66688134D01*
X165100000Y-64452500D02*
X165100000Y-66008134D01*
X165780000Y-66688134D02*
X165780000Y-69310000D01*
X167950000Y-71480000D02*
X177310000Y-71480000D01*
X165780000Y-69310000D02*
X167950000Y-71480000D01*
X184150000Y-66008134D02*
X184970000Y-66828134D01*
X184150000Y-64452500D02*
X184150000Y-66008134D01*
X184970000Y-66828134D02*
X184970000Y-69490000D01*
X187205000Y-71725000D02*
X196420000Y-71725000D01*
X184970000Y-69490000D02*
X187205000Y-71725000D01*
X203200000Y-66008134D02*
X204050000Y-66858134D01*
X203200000Y-64452500D02*
X203200000Y-66008134D01*
X204050000Y-66858134D02*
X204050000Y-69880000D01*
X205880000Y-71710000D02*
X215460000Y-71710000D01*
X204050000Y-69880000D02*
X205880000Y-71710000D01*
X222250000Y-66008134D02*
X222880000Y-66638134D01*
X222250000Y-64452500D02*
X222250000Y-66008134D01*
X222880000Y-66638134D02*
X222880000Y-68950000D01*
X225980000Y-72050000D02*
X234510000Y-72050000D01*
X222880000Y-68950000D02*
X225980000Y-72050000D01*
X241300000Y-66008134D02*
X241960000Y-66668134D01*
X241300000Y-64452500D02*
X241300000Y-66008134D01*
X241960000Y-66668134D02*
X241960000Y-69110000D01*
X244820000Y-71970000D02*
X253600000Y-71970000D01*
X241960000Y-69110000D02*
X244820000Y-71970000D01*
X260350000Y-66008134D02*
X260790000Y-66448134D01*
X260350000Y-64452500D02*
X260350000Y-66008134D01*
X260790000Y-66448134D02*
X260790000Y-68680000D01*
X263990000Y-71880000D02*
X272580000Y-71880000D01*
X260790000Y-68680000D02*
X263990000Y-71880000D01*
X279400000Y-66008134D02*
X280090000Y-66698134D01*
X279400000Y-64452500D02*
X279400000Y-66008134D01*
X280090000Y-66698134D02*
X280090000Y-69640000D01*
X282800000Y-72350000D02*
X291760000Y-72350000D01*
X280090000Y-69640000D02*
X282800000Y-72350000D01*
X298450000Y-66008134D02*
X299150000Y-66708134D01*
X298450000Y-64452500D02*
X298450000Y-66008134D01*
X299150000Y-66708134D02*
X299150000Y-69980000D01*
X300330000Y-71160000D02*
X310860000Y-71160000D01*
X299150000Y-69980000D02*
X300330000Y-71160000D01*
X318130000Y-66638134D02*
X318130000Y-70170000D01*
X318130000Y-70170000D02*
X323400000Y-75440000D01*
X317500000Y-66008134D02*
X318130000Y-66638134D01*
X317500000Y-64452500D02*
X317500000Y-66008134D01*
X88900000Y-93690000D02*
X89900000Y-94690000D01*
X88900000Y-83502500D02*
X88900000Y-93690000D01*
X127000000Y-85058134D02*
X127800000Y-85858134D01*
X127000000Y-83502500D02*
X127000000Y-85058134D01*
X127800000Y-85858134D02*
X127800000Y-88800000D01*
X129410000Y-90410000D02*
X140220000Y-90410000D01*
X127800000Y-88800000D02*
X129410000Y-90410000D01*
X146050000Y-85058134D02*
X146940000Y-85948134D01*
X146050000Y-83502500D02*
X146050000Y-85058134D01*
X146940000Y-85948134D02*
X146940000Y-88360000D01*
X149230000Y-90650000D02*
X159270000Y-90650000D01*
X146940000Y-88360000D02*
X149230000Y-90650000D01*
X165100000Y-85058134D02*
X165990000Y-85948134D01*
X165100000Y-83502500D02*
X165100000Y-85058134D01*
X165990000Y-85948134D02*
X165990000Y-87800000D01*
X169080000Y-90890000D02*
X178400000Y-90890000D01*
X165990000Y-87800000D02*
X169080000Y-90890000D01*
X184150000Y-85058134D02*
X184840000Y-85748134D01*
X184150000Y-83502500D02*
X184150000Y-85058134D01*
X184840000Y-85748134D02*
X184840000Y-88270000D01*
X187460000Y-90890000D02*
X197290000Y-90890000D01*
X184840000Y-88270000D02*
X187460000Y-90890000D01*
X215520001Y-90280001D02*
X206970001Y-90280001D01*
X216320000Y-91080000D02*
X215520001Y-90280001D01*
X206970001Y-90280001D02*
X205070000Y-88380000D01*
X205070000Y-88380000D02*
X205070000Y-88170000D01*
X205070000Y-88170000D02*
X203720000Y-86820000D01*
X203720000Y-86820000D02*
X203720000Y-85650000D01*
X203200000Y-85130000D02*
X203200000Y-83502500D01*
X203720000Y-85650000D02*
X203200000Y-85130000D01*
X222250000Y-85058134D02*
X222880000Y-85688134D01*
X222250000Y-83502500D02*
X222250000Y-85058134D01*
X222880000Y-85688134D02*
X222880000Y-88450000D01*
X225230000Y-90800000D02*
X235430000Y-90800000D01*
X222880000Y-88450000D02*
X225230000Y-90800000D01*
X241300000Y-85058134D02*
X242140000Y-85898134D01*
X241300000Y-83502500D02*
X241300000Y-85058134D01*
X242140000Y-85898134D02*
X242140000Y-88660000D01*
X244005000Y-90525000D02*
X254610000Y-90525000D01*
X242140000Y-88660000D02*
X244005000Y-90525000D01*
X264390000Y-90520000D02*
X273720000Y-90520000D01*
X261280000Y-87410000D02*
X264390000Y-90520000D01*
X261280000Y-85988134D02*
X261280000Y-87410000D01*
X260350000Y-85058134D02*
X261280000Y-85988134D01*
X260350000Y-83502500D02*
X260350000Y-85058134D01*
X279400000Y-85058134D02*
X280080000Y-85738134D01*
X279400000Y-83502500D02*
X279400000Y-85058134D01*
X280080000Y-85738134D02*
X280080000Y-88910000D01*
X281630000Y-90460000D02*
X292830000Y-90460000D01*
X280080000Y-88910000D02*
X281630000Y-90460000D01*
X298450000Y-85058134D02*
X299100000Y-85708134D01*
X298450000Y-83502500D02*
X298450000Y-85058134D01*
X299100000Y-85708134D02*
X299100000Y-88450000D01*
X302140000Y-91490000D02*
X311060000Y-91490000D01*
X299100000Y-88450000D02*
X302140000Y-91490000D01*
X88900000Y-104108134D02*
X89590000Y-104798134D01*
X88900000Y-102552500D02*
X88900000Y-104108134D01*
X89590000Y-104798134D02*
X89590000Y-107230000D01*
X91560000Y-109200000D02*
X102160000Y-109200000D01*
X89590000Y-107230000D02*
X91560000Y-109200000D01*
X107950000Y-104107634D02*
X108560000Y-104717634D01*
X107950000Y-102552000D02*
X107950000Y-104107634D01*
X108560000Y-104717634D02*
X108560000Y-106730000D01*
X110340000Y-108510000D02*
X121050000Y-108510000D01*
X108560000Y-106730000D02*
X110340000Y-108510000D01*
X127000000Y-104107634D02*
X127910000Y-105017634D01*
X127000000Y-102552000D02*
X127000000Y-104107634D01*
X127910000Y-105017634D02*
X127910000Y-106670000D01*
X129750000Y-108510000D02*
X140030000Y-108510000D01*
X127910000Y-106670000D02*
X129750000Y-108510000D01*
X146050000Y-104107634D02*
X146800000Y-104857634D01*
X146050000Y-102552000D02*
X146050000Y-104107634D01*
X146800000Y-104857634D02*
X146800000Y-106960000D01*
X148350000Y-108510000D02*
X159180000Y-108510000D01*
X146800000Y-106960000D02*
X148350000Y-108510000D01*
X165100000Y-104107634D02*
X165870000Y-104877634D01*
X165100000Y-102552000D02*
X165100000Y-104107634D01*
X165870000Y-104877634D02*
X165870000Y-107170000D01*
X167690000Y-108990000D02*
X177280000Y-108990000D01*
X165870000Y-107170000D02*
X167690000Y-108990000D01*
X184150000Y-104107634D02*
X184880000Y-104837634D01*
X184150000Y-102552000D02*
X184150000Y-104107634D01*
X184880000Y-104837634D02*
X184880000Y-107020000D01*
X186690000Y-108830000D02*
X196430000Y-108830000D01*
X184880000Y-107020000D02*
X186690000Y-108830000D01*
X203200000Y-104107634D02*
X203830000Y-104737634D01*
X203200000Y-102552000D02*
X203200000Y-104107634D01*
X203830000Y-104737634D02*
X203830000Y-106950000D01*
X205790000Y-108910000D02*
X215530000Y-108910000D01*
X203830000Y-106950000D02*
X205790000Y-108910000D01*
X222250000Y-104107634D02*
X223000000Y-104857634D01*
X222250000Y-102552000D02*
X222250000Y-104107634D01*
X223000000Y-104857634D02*
X223000000Y-107260000D01*
X224500000Y-108760000D02*
X234440000Y-108760000D01*
X223000000Y-107260000D02*
X224500000Y-108760000D01*
X241300000Y-104107634D02*
X242030000Y-104837634D01*
X241300000Y-102552000D02*
X241300000Y-104107634D01*
X242030000Y-104837634D02*
X242030000Y-107550000D01*
X242030000Y-107550000D02*
X242720000Y-108240000D01*
X242720000Y-108240000D02*
X250590000Y-108240000D01*
X251640000Y-109290000D02*
X253640000Y-109290000D01*
X250590000Y-108240000D02*
X251640000Y-109290000D01*
X260350000Y-104107634D02*
X261060000Y-104817634D01*
X260350000Y-102552000D02*
X260350000Y-104107634D01*
X261060000Y-104817634D02*
X261060000Y-106610000D01*
X261060000Y-106610000D02*
X262690000Y-108240000D01*
X271680000Y-108240000D02*
X272680000Y-109240000D01*
X262690000Y-108240000D02*
X271680000Y-108240000D01*
X279400000Y-102552000D02*
X288802000Y-102552000D01*
X288802000Y-102552000D02*
X290200000Y-103950000D01*
X291190000Y-108420000D02*
X291690000Y-108420000D01*
X290200000Y-107430000D02*
X291190000Y-108420000D01*
X290200000Y-103950000D02*
X290200000Y-107430000D01*
X299549999Y-101452001D02*
X303112001Y-101452001D01*
X298450000Y-102552000D02*
X299549999Y-101452001D01*
X303112001Y-101452001D02*
X305500000Y-103840000D01*
X305500000Y-103840000D02*
X305500000Y-106140000D01*
X307660000Y-108300000D02*
X310770000Y-108300000D01*
X305500000Y-106140000D02*
X307660000Y-108300000D01*
X321980000Y-112690000D02*
X318150000Y-108860000D01*
X321980000Y-113190000D02*
X321980000Y-112690000D01*
X318150000Y-108860000D02*
X318150000Y-105160000D01*
X318150000Y-105160000D02*
X318130000Y-105140000D01*
X318130000Y-105140000D02*
X318130000Y-103770000D01*
X317500000Y-103140000D02*
X317500000Y-102552500D01*
X318130000Y-103770000D02*
X317500000Y-103140000D01*
X88900000Y-123157634D02*
X89670000Y-123927634D01*
X88900000Y-121602000D02*
X88900000Y-123157634D01*
X89670000Y-123927634D02*
X89670000Y-126100000D01*
X91900000Y-128330000D02*
X101770000Y-128330000D01*
X89670000Y-126100000D02*
X91900000Y-128330000D01*
X107950000Y-123157634D02*
X108700000Y-123907634D01*
X107950000Y-121602000D02*
X107950000Y-123157634D01*
X108700000Y-123907634D02*
X108700000Y-126020000D01*
X110910000Y-128230000D02*
X120730000Y-128230000D01*
X108700000Y-126020000D02*
X110910000Y-128230000D01*
X127000000Y-123157634D02*
X127700000Y-123857634D01*
X127000000Y-121602000D02*
X127000000Y-123157634D01*
X127700000Y-123857634D02*
X127700000Y-126270000D01*
X129685000Y-128255000D02*
X139920000Y-128255000D01*
X127700000Y-126270000D02*
X129685000Y-128255000D01*
X146640000Y-124363002D02*
X150276998Y-128000000D01*
X150276998Y-128000000D02*
X158920000Y-128000000D01*
X146050000Y-123157634D02*
X146640000Y-123747634D01*
X146640000Y-123747634D02*
X146640000Y-124363002D01*
X146050000Y-121602000D02*
X146050000Y-123157634D01*
X310240000Y-130040000D02*
X313300000Y-130040000D01*
X308650000Y-128450000D02*
X310240000Y-130040000D01*
X299260000Y-125880000D02*
X301830000Y-128450000D01*
X298450000Y-121602500D02*
X298450000Y-123158134D01*
X301830000Y-128450000D02*
X308650000Y-128450000D01*
X299260000Y-123968134D02*
X299260000Y-125880000D01*
X298450000Y-123158134D02*
X299260000Y-123968134D01*
X321300000Y-116160000D02*
X318975000Y-116160000D01*
X318975000Y-120127500D02*
X317500000Y-121602500D01*
X318975000Y-116160000D02*
X318975000Y-120127500D01*
X169862000Y-121602000D02*
X169862500Y-121602500D01*
X165100000Y-121602000D02*
X169862000Y-121602000D01*
X181130001Y-125620001D02*
X181130001Y-122620001D01*
X182230000Y-126720000D02*
X181130001Y-125620001D01*
X181130001Y-122620001D02*
X179810000Y-121300000D01*
X179810000Y-121300000D02*
X172120000Y-121300000D01*
X171817500Y-121602500D02*
X169862500Y-121602500D01*
X172120000Y-121300000D02*
X171817500Y-121602500D01*
X253600000Y-63120000D02*
X253600000Y-64170000D01*
X256630000Y-60090000D02*
X253600000Y-63120000D01*
X268050000Y-60090000D02*
X256630000Y-60090000D01*
X271020000Y-63060000D02*
X268050000Y-60090000D01*
X271020000Y-67420000D02*
X271020000Y-63060000D01*
X273800000Y-68070000D02*
X271670000Y-68070000D01*
X274100000Y-62146410D02*
X274100000Y-67770000D01*
X276506400Y-59740010D02*
X274100000Y-62146410D01*
X271670000Y-68070000D02*
X271020000Y-67420000D01*
X274100000Y-67770000D02*
X273800000Y-68070000D01*
X290600000Y-62340000D02*
X290600000Y-60650000D01*
X289690010Y-59740010D02*
X276506400Y-59740010D01*
X290600000Y-60650000D02*
X289690010Y-59740010D01*
X291760000Y-63500000D02*
X290600000Y-62340000D01*
X291760000Y-64550000D02*
X291760000Y-63500000D01*
X294530000Y-66270000D02*
X294530000Y-71970000D01*
X298000000Y-75440000D02*
X315600000Y-75440000D01*
X294530000Y-71970000D02*
X298000000Y-75440000D01*
X292810000Y-64550000D02*
X294530000Y-66270000D01*
X291760000Y-64550000D02*
X292810000Y-64550000D01*
X215460000Y-62860000D02*
X215460000Y-63910000D01*
X229240000Y-59860000D02*
X218460000Y-59860000D01*
X229610000Y-60230000D02*
X229240000Y-59860000D01*
X231860000Y-60230000D02*
X229610000Y-60230000D01*
X233720000Y-68220000D02*
X232790000Y-67290000D01*
X248973609Y-60089999D02*
X248683620Y-59800010D01*
X236020000Y-62326410D02*
X236020000Y-67510000D01*
X236020000Y-67510000D02*
X235310000Y-68220000D01*
X218460000Y-59860000D02*
X215460000Y-62860000D01*
X235310000Y-68220000D02*
X233720000Y-68220000D01*
X245906400Y-60410010D02*
X237936400Y-60410010D01*
X232790000Y-61160000D02*
X231860000Y-60230000D01*
X246516400Y-59800010D02*
X245906400Y-60410010D01*
X248683620Y-59800010D02*
X246516400Y-59800010D01*
X237936400Y-60410010D02*
X236020000Y-62326410D01*
X251840000Y-60090000D02*
X248973609Y-60089999D01*
X252460000Y-61980000D02*
X252460000Y-60710000D01*
X253600000Y-63120000D02*
X252460000Y-61980000D01*
X232790000Y-67290000D02*
X232790000Y-61160000D01*
X252460000Y-60710000D02*
X251840000Y-60090000D01*
X215460000Y-62860000D02*
X214270000Y-61670000D01*
X214270000Y-60610000D02*
X213520000Y-59860000D01*
X214270000Y-61670000D02*
X214270000Y-60610000D01*
X213520000Y-59860000D02*
X200071410Y-59860000D01*
X200071410Y-59860000D02*
X198030000Y-61901410D01*
X198030000Y-61901410D02*
X198030000Y-67250000D01*
X198030000Y-67250000D02*
X197440000Y-67840000D01*
X197440000Y-67840000D02*
X195370000Y-67840000D01*
X195370000Y-67840000D02*
X194610000Y-67080000D01*
X194610000Y-67080000D02*
X194610000Y-61490000D01*
X194610000Y-61490000D02*
X193410000Y-60290000D01*
X193410000Y-60290000D02*
X191480000Y-60290000D01*
X191480000Y-60290000D02*
X191060000Y-59870000D01*
X191060000Y-59870000D02*
X189420000Y-59870000D01*
X189420000Y-59870000D02*
X188700000Y-60590000D01*
X177310000Y-62630000D02*
X177310000Y-63680000D01*
X179350000Y-60590000D02*
X177310000Y-62630000D01*
X188700000Y-60590000D02*
X179350000Y-60590000D01*
X173333609Y-60589999D02*
X172823620Y-60080010D01*
X175270000Y-60590000D02*
X173333609Y-60589999D01*
X177310000Y-62630000D02*
X175270000Y-60590000D01*
X170176400Y-60080010D02*
X169606400Y-60650010D01*
X172823620Y-60080010D02*
X170176400Y-60080010D01*
X169606400Y-60650010D02*
X161171400Y-60650010D01*
X161171400Y-60650010D02*
X160110000Y-61711410D01*
X160110000Y-61711410D02*
X160110000Y-66830000D01*
X160110000Y-66830000D02*
X159530000Y-67410000D01*
X159530000Y-67410000D02*
X157450000Y-67410000D01*
X157450000Y-67410000D02*
X156580000Y-66540000D01*
X156580000Y-66540000D02*
X156580000Y-62650000D01*
X156580000Y-62650000D02*
X154320000Y-60390000D01*
X154320000Y-60390000D02*
X153750000Y-60390000D01*
X153750000Y-60390000D02*
X153380000Y-60020000D01*
X153380000Y-60020000D02*
X151410000Y-60020000D01*
X151410000Y-60020000D02*
X150910000Y-60520000D01*
X139510000Y-62610000D02*
X139510000Y-63660000D01*
X141600000Y-60520000D02*
X139510000Y-62610000D01*
X150910000Y-60520000D02*
X141600000Y-60520000D01*
X111719999Y-59670001D02*
X112089990Y-59300010D01*
X111719999Y-60820001D02*
X111719999Y-59670001D01*
X111320000Y-61220000D02*
X111719999Y-60820001D01*
X131193600Y-59300010D02*
X131863600Y-59970010D01*
X112089990Y-59300010D02*
X131193600Y-59300010D01*
X134033600Y-59970010D02*
X134583590Y-60520000D01*
X131863600Y-59970010D02*
X134033600Y-59970010D01*
X134583590Y-60520000D02*
X137490000Y-60520000D01*
X139510000Y-62540000D02*
X139510000Y-63660000D01*
X137490000Y-60520000D02*
X139510000Y-62540000D01*
X310860000Y-64260000D02*
X305890000Y-59290000D01*
X310860000Y-65760000D02*
X310860000Y-64260000D01*
X276320000Y-59290000D02*
X272580000Y-63030000D01*
X272580000Y-63030000D02*
X272580000Y-64080000D01*
X305890000Y-59290000D02*
X276320000Y-59290000D01*
X272380000Y-62830000D02*
X271426410Y-62830000D01*
X272580000Y-63030000D02*
X272380000Y-62830000D01*
X271426410Y-62830000D02*
X268236400Y-59639990D01*
X268236400Y-59639990D02*
X249160010Y-59639990D01*
X249160010Y-59639990D02*
X248870020Y-59350000D01*
X248870020Y-59350000D02*
X246330000Y-59350000D01*
X246330000Y-59350000D02*
X245720000Y-59960000D01*
X234510000Y-63200000D02*
X234510000Y-64250000D01*
X237750000Y-59960000D02*
X234510000Y-63200000D01*
X245720000Y-59960000D02*
X237750000Y-59960000D01*
X234510000Y-62243590D02*
X232046400Y-59779990D01*
X234510000Y-64250000D02*
X234510000Y-62243590D01*
X229796400Y-59779990D02*
X229426400Y-59409990D01*
X232046400Y-59779990D02*
X229796400Y-59779990D01*
X199885010Y-59409990D02*
X196420000Y-62875000D01*
X196420000Y-62875000D02*
X196420000Y-63925000D01*
X229426400Y-59409990D02*
X199885010Y-59409990D01*
X195370000Y-63925000D02*
X195060010Y-63615010D01*
X196420000Y-63925000D02*
X195370000Y-63925000D01*
X195060009Y-61303599D02*
X193596400Y-59839990D01*
X195060010Y-63615010D02*
X195060009Y-61303599D01*
X191246400Y-59419990D02*
X189233599Y-59419991D01*
X191666400Y-59839990D02*
X191246400Y-59419990D01*
X193596400Y-59839990D02*
X191666400Y-59839990D01*
X189233599Y-59419991D02*
X188513600Y-60139990D01*
X188513600Y-60139990D02*
X173520010Y-60139990D01*
X173520010Y-60139990D02*
X173010020Y-59630000D01*
X173010020Y-59630000D02*
X169990000Y-59630000D01*
X169990000Y-59630000D02*
X169420000Y-60200000D01*
X158610000Y-62575000D02*
X158610000Y-63625000D01*
X160985000Y-60200000D02*
X158610000Y-62575000D01*
X169420000Y-60200000D02*
X160985000Y-60200000D01*
X157030010Y-63095010D02*
X157030009Y-62463599D01*
X157560000Y-63625000D02*
X157030010Y-63095010D01*
X158610000Y-63625000D02*
X157560000Y-63625000D01*
X154506400Y-59939990D02*
X153936400Y-59939990D01*
X157030009Y-62463599D02*
X154506400Y-59939990D01*
X153936400Y-59939990D02*
X153566400Y-59569990D01*
X151223599Y-59569991D02*
X150723600Y-60069990D01*
X153566400Y-59569990D02*
X151223599Y-59569991D01*
X150723600Y-60069990D02*
X134769990Y-60069990D01*
X134769990Y-60069990D02*
X134220000Y-59520000D01*
X134220000Y-59520000D02*
X132050000Y-59520000D01*
X110980000Y-60010000D02*
X109020000Y-61970000D01*
X110980000Y-60010000D02*
X110980000Y-59750000D01*
X110980000Y-59750000D02*
X111880000Y-58850000D01*
X131380000Y-58850000D02*
X132050000Y-59520000D01*
X111880000Y-58850000D02*
X131380000Y-58850000D01*
X96500000Y-95740000D02*
X96500000Y-94690000D01*
X96710000Y-95950000D02*
X96500000Y-95740000D01*
X102420010Y-91786506D02*
X98256516Y-95950000D01*
X102420010Y-72864990D02*
X102420010Y-91786506D01*
X98256516Y-95950000D02*
X96710000Y-95950000D01*
X103911000Y-71374000D02*
X102420010Y-72864990D01*
X179450000Y-83090000D02*
X180389990Y-82150010D01*
X180389990Y-82150010D02*
X180389991Y-81743599D01*
X178400000Y-83090000D02*
X179450000Y-83090000D01*
X180389991Y-81743599D02*
X182993600Y-79139990D01*
X188673600Y-79139990D02*
X189653600Y-78159990D01*
X182993600Y-79139990D02*
X188673600Y-79139990D01*
X216320000Y-82230000D02*
X216320000Y-83280000D01*
X212249990Y-78159990D02*
X216320000Y-82230000D01*
X189653600Y-78159990D02*
X212249990Y-78159990D01*
X217920000Y-80630000D02*
X218183590Y-80630000D01*
X216320000Y-82230000D02*
X217920000Y-80630000D01*
X218183590Y-80630000D02*
X219803600Y-79009990D01*
X226493600Y-79009990D02*
X227353590Y-78150000D01*
X219803600Y-79009990D02*
X226493600Y-79009990D01*
X227353590Y-78150000D02*
X229836410Y-78150000D01*
X229836410Y-78150000D02*
X230106410Y-78420000D01*
X254610000Y-81675000D02*
X254610000Y-82725000D01*
X251355000Y-78420000D02*
X254610000Y-81675000D01*
X230106410Y-78420000D02*
X251355000Y-78420000D01*
X256579991Y-79953599D02*
X258393600Y-78139990D01*
X255660000Y-82725000D02*
X256579990Y-81805010D01*
X256579990Y-81805010D02*
X256579991Y-79953599D01*
X254610000Y-82725000D02*
X255660000Y-82725000D01*
X292830000Y-81610000D02*
X292830000Y-82660000D01*
X289359990Y-78139990D02*
X292830000Y-81610000D01*
X258393600Y-78139990D02*
X289359990Y-78139990D01*
X292830000Y-81493590D02*
X295673600Y-78649990D01*
X292830000Y-82660000D02*
X292830000Y-81493590D01*
X295673600Y-78649990D02*
X303283600Y-78649990D01*
X310076410Y-81570000D02*
X312130000Y-81570000D01*
X312130000Y-81570000D02*
X313510000Y-82950000D01*
X314480000Y-94380000D02*
X315530000Y-94380000D01*
X313510000Y-93410000D02*
X314480000Y-94380000D01*
X313510000Y-82950000D02*
X313510000Y-93410000D01*
X141773590Y-82610000D02*
X140220000Y-82610000D01*
X142193600Y-82189990D02*
X141773590Y-82610000D01*
X148303600Y-81409990D02*
X145193600Y-81409990D01*
X144413600Y-82189990D02*
X142193600Y-82189990D01*
X169660000Y-78720000D02*
X154086410Y-78720000D01*
X153976401Y-78609991D02*
X151103600Y-78609990D01*
X154086410Y-78720000D02*
X153976401Y-78609991D01*
X151103600Y-78609990D02*
X148303600Y-81409990D01*
X174500000Y-78140000D02*
X170240000Y-78140000D01*
X145193600Y-81409990D02*
X144413600Y-82189990D01*
X170240000Y-78140000D02*
X169660000Y-78720000D01*
X178400000Y-82040000D02*
X174500000Y-78140000D01*
X178400000Y-83090000D02*
X178400000Y-82040000D01*
X104787299Y-72250299D02*
X103911000Y-71374000D01*
X112400299Y-72250299D02*
X104787299Y-72250299D01*
X117820009Y-77670009D02*
X117820009Y-77680000D01*
X112400299Y-72250299D02*
X117820009Y-77670009D01*
X137953590Y-82610000D02*
X140220000Y-82610000D01*
X133357970Y-78879202D02*
X135134799Y-80656031D01*
X133199972Y-76539972D02*
X133199972Y-78879202D01*
X133010010Y-76350010D02*
X133199972Y-76539972D01*
X123596400Y-76350010D02*
X133010010Y-76350010D01*
X135999621Y-80656031D02*
X137953590Y-82610000D01*
X117820010Y-77680000D02*
X122266410Y-77680000D01*
X122266410Y-77680000D02*
X123596400Y-76350010D01*
X135134799Y-80656031D02*
X135999621Y-80656031D01*
X133199972Y-78879202D02*
X133357970Y-78879202D01*
X117820009Y-77670009D02*
X117820010Y-77680000D01*
X307156401Y-78649991D02*
X310076410Y-81570000D01*
X303283600Y-78649990D02*
X307156401Y-78649991D01*
X114910000Y-91750000D02*
X116110000Y-92950000D01*
X116110000Y-92950000D02*
X116110000Y-95000000D01*
X114910000Y-85360000D02*
X114910000Y-91750000D01*
X103911000Y-73914000D02*
X105124691Y-72700309D01*
X117370000Y-82900000D02*
X114910000Y-85360000D01*
X112213899Y-72700309D02*
X117370000Y-77856410D01*
X105124691Y-72700309D02*
X112213899Y-72700309D01*
X117370000Y-77856410D02*
X117370000Y-80320000D01*
X117370000Y-80320000D02*
X117370000Y-82900000D01*
X193860000Y-78610000D02*
X197290000Y-82040000D01*
X188860000Y-79590000D02*
X189840000Y-78610000D01*
X180840000Y-81930000D02*
X183180000Y-79590000D01*
X197290000Y-82040000D02*
X197290000Y-83090000D01*
X159270000Y-81800000D02*
X161899991Y-79170009D01*
X179510000Y-86910000D02*
X180840000Y-85580000D01*
X176630000Y-80906410D02*
X176630000Y-86020000D01*
X169846400Y-79170010D02*
X170426400Y-78590010D01*
X177520000Y-86910000D02*
X179510000Y-86910000D01*
X174313600Y-78590010D02*
X176630000Y-80906410D01*
X189840000Y-78610000D02*
X193860000Y-78610000D01*
X180840000Y-85580000D02*
X180840000Y-81930000D01*
X176630000Y-86020000D02*
X177520000Y-86910000D01*
X161899991Y-79170009D02*
X169846400Y-79170010D01*
X183180000Y-79590000D02*
X188860000Y-79590000D01*
X170426400Y-78590010D02*
X174313600Y-78590010D01*
X159270000Y-82850000D02*
X159270000Y-81800000D01*
X197290000Y-82040000D02*
X200720000Y-78610000D01*
X200720000Y-78610000D02*
X212063590Y-78610000D01*
X212063590Y-78610000D02*
X214630000Y-81176410D01*
X214630000Y-81176410D02*
X214630000Y-86430000D01*
X214630000Y-86430000D02*
X215350000Y-87150000D01*
X215350000Y-87150000D02*
X217550000Y-87150000D01*
X217550000Y-87150000D02*
X218630000Y-86070000D01*
X218630000Y-86070000D02*
X218630000Y-80820000D01*
X218630000Y-80820000D02*
X219990000Y-79460000D01*
X219990000Y-79460000D02*
X226680000Y-79460000D01*
X226680000Y-79460000D02*
X227520000Y-78620000D01*
X227520000Y-78620000D02*
X229670000Y-78620000D01*
X234050000Y-83000000D02*
X235430000Y-83000000D01*
X229670000Y-78620000D02*
X234050000Y-83000000D01*
X273720000Y-81670000D02*
X273720000Y-82720000D01*
X270640000Y-78590000D02*
X273720000Y-81670000D01*
X257030000Y-80140000D02*
X258580000Y-78590000D01*
X257030000Y-85740000D02*
X257030000Y-80140000D01*
X253680000Y-86690000D02*
X256080000Y-86690000D01*
X256080000Y-86690000D02*
X257030000Y-85740000D01*
X252980000Y-85990000D02*
X253680000Y-86690000D01*
X258580000Y-78590000D02*
X270640000Y-78590000D01*
X235430000Y-83000000D02*
X235430000Y-79940000D01*
X252980000Y-80681410D02*
X252980000Y-85990000D01*
X236499990Y-78870010D02*
X251168600Y-78870010D01*
X251168600Y-78870010D02*
X252980000Y-80681410D01*
X235430000Y-79940000D02*
X236499990Y-78870010D01*
X157580000Y-82850000D02*
X159270000Y-82850000D01*
X148490000Y-81860000D02*
X151290000Y-79060000D01*
X145380000Y-81860000D02*
X148490000Y-81860000D01*
X122337291Y-78242709D02*
X122337291Y-78130010D01*
X141760000Y-86580000D02*
X142380000Y-85960000D01*
X144600000Y-82640000D02*
X145380000Y-81860000D01*
X138530000Y-83336410D02*
X138530000Y-85730000D01*
X153790000Y-79060000D02*
X157580000Y-82850000D01*
X136406410Y-83336410D02*
X138530000Y-83336410D01*
X131640000Y-80270000D02*
X131640000Y-82050000D01*
X135820000Y-82750000D02*
X136406410Y-83336410D01*
X139380000Y-86580000D02*
X141760000Y-86580000D01*
X132340000Y-82750000D02*
X135820000Y-82750000D01*
X117370000Y-80320000D02*
X120260000Y-80320000D01*
X138530000Y-85730000D02*
X139380000Y-86580000D01*
X120260000Y-80320000D02*
X122337291Y-78242709D01*
X132280000Y-79630000D02*
X131640000Y-80270000D01*
X151290000Y-79060000D02*
X153790000Y-79060000D01*
X131640000Y-82050000D02*
X132340000Y-82750000D01*
X122337291Y-78130010D02*
X122452811Y-78130009D01*
X122452811Y-78130009D02*
X123782800Y-76800020D01*
X123782800Y-76800020D02*
X131163610Y-76800020D01*
X131163610Y-76800020D02*
X132280000Y-77916410D01*
X132280000Y-77916410D02*
X132280000Y-79630000D01*
X144600000Y-82640000D02*
X143210000Y-82640000D01*
X142380000Y-83470000D02*
X142380000Y-85960000D01*
X143210000Y-82640000D02*
X142380000Y-83470000D01*
X308400000Y-82080000D02*
X310010000Y-83690000D01*
X310010000Y-83690000D02*
X311060000Y-83690000D01*
X308400000Y-80530000D02*
X308400000Y-82080000D01*
X306970000Y-79100000D02*
X308400000Y-80530000D01*
X294310000Y-86600000D02*
X294940000Y-85970000D01*
X291740000Y-86600000D02*
X294310000Y-86600000D01*
X294940000Y-85970000D02*
X294940000Y-80020000D01*
X291110000Y-85970000D02*
X291740000Y-86600000D01*
X274790000Y-78590000D02*
X289173590Y-78590000D01*
X289173590Y-78590000D02*
X291110000Y-80526410D01*
X273720000Y-82720000D02*
X273720000Y-79660000D01*
X295860000Y-79100000D02*
X306970000Y-79100000D01*
X291110000Y-80526410D02*
X291110000Y-85970000D01*
X294940000Y-80020000D02*
X295860000Y-79100000D01*
X273720000Y-79660000D02*
X274790000Y-78590000D01*
X292190000Y-103020000D02*
X294950000Y-105780000D01*
X291690000Y-103020000D02*
X292190000Y-103020000D01*
X294950000Y-105780000D02*
X294950000Y-107450000D01*
X294950000Y-107450000D02*
X299170000Y-111670000D01*
X299170000Y-111670000D02*
X313050000Y-111670000D01*
X315080000Y-113190000D02*
X316580000Y-113190000D01*
X314570000Y-113190000D02*
X315080000Y-113190000D01*
X313050000Y-111670000D02*
X314570000Y-113190000D01*
X291690000Y-100770000D02*
X287700010Y-96780010D01*
X287700010Y-96780010D02*
X276926400Y-96780010D01*
X291690000Y-101820000D02*
X291690000Y-100770000D01*
X276926400Y-96780010D02*
X274470000Y-99236410D01*
X274470000Y-103760002D02*
X274130000Y-104100002D01*
X274470000Y-99236410D02*
X274470000Y-103760002D01*
X274130000Y-104100002D02*
X274130000Y-104810000D01*
X274130000Y-104810000D02*
X273640000Y-105300000D01*
X273640000Y-105300000D02*
X271790000Y-105300000D01*
X271790000Y-105300000D02*
X269980000Y-103490000D01*
X269980000Y-103490000D02*
X269980000Y-102430000D01*
X269980000Y-102430000D02*
X269520000Y-101970000D01*
X269520000Y-101970000D02*
X262690000Y-101970000D01*
X262690000Y-101970000D02*
X261390000Y-100670000D01*
X254690000Y-101490000D02*
X253640000Y-101490000D01*
X255510000Y-100670000D02*
X254690000Y-101490000D01*
X261390000Y-100670000D02*
X255510000Y-100670000D01*
X237986400Y-97000010D02*
X235928205Y-99058205D01*
X250200010Y-97000010D02*
X237986400Y-97000010D01*
X253640000Y-100440000D02*
X250200010Y-97000010D01*
X253640000Y-101490000D02*
X253640000Y-100440000D01*
X235928205Y-99058205D02*
X235950000Y-99080000D01*
X235950000Y-99080000D02*
X235950000Y-104180000D01*
X235950000Y-104180000D02*
X235360000Y-104770000D01*
X235360000Y-104770000D02*
X233510000Y-104770000D01*
X231950000Y-100450000D02*
X229100010Y-97600010D01*
X231950000Y-103210000D02*
X231950000Y-100450000D01*
X233510000Y-104770000D02*
X231950000Y-103210000D01*
X199376410Y-97670000D02*
X198110000Y-98936410D01*
X198110000Y-98936410D02*
X198110000Y-104200000D01*
X198110000Y-104200000D02*
X197370000Y-104940000D01*
X197370000Y-104940000D02*
X195570000Y-104940000D01*
X195570000Y-104940000D02*
X193700000Y-103070000D01*
X193700000Y-103070000D02*
X193700000Y-99560000D01*
X193700000Y-99560000D02*
X192300000Y-98160000D01*
X192300000Y-98160000D02*
X180190000Y-98160000D01*
X180190000Y-98160000D02*
X178910000Y-99440000D01*
X178330000Y-101190000D02*
X177280000Y-101190000D01*
X178910000Y-100610000D02*
X178330000Y-101190000D01*
X178910000Y-99440000D02*
X178910000Y-100610000D01*
X176230000Y-101190000D02*
X173200000Y-98160000D01*
X177280000Y-101190000D02*
X176230000Y-101190000D01*
X173200000Y-98160000D02*
X161316410Y-98160000D01*
X161316410Y-98160000D02*
X160750000Y-98726410D01*
X160750000Y-98726410D02*
X160750000Y-104000000D01*
X160750000Y-104000000D02*
X160020000Y-104730000D01*
X159089998Y-104730000D02*
X159079998Y-104720000D01*
X160020000Y-104730000D02*
X159089998Y-104730000D01*
X159079998Y-104720000D02*
X158330000Y-104720000D01*
X158330000Y-104720000D02*
X156490000Y-102880000D01*
X156490000Y-102880000D02*
X156490000Y-99660000D01*
X156490000Y-99660000D02*
X154900000Y-98070000D01*
X140030000Y-100410000D02*
X140030000Y-101910000D01*
X142370000Y-98070000D02*
X140030000Y-100410000D01*
X154900000Y-98070000D02*
X142370000Y-98070000D01*
X102160000Y-100350000D02*
X102160000Y-101400000D01*
X104410000Y-98100000D02*
X102160000Y-100350000D01*
X118740000Y-99770000D02*
X117070000Y-98100000D01*
X138220000Y-100600000D02*
X138220000Y-98300000D01*
X122700000Y-104100000D02*
X122130000Y-104670000D01*
X120020000Y-104670000D02*
X118740000Y-103390000D01*
X122130000Y-104670000D02*
X120020000Y-104670000D01*
X122700000Y-98646410D02*
X122700000Y-104100000D01*
X123276410Y-98070000D02*
X122700000Y-98646410D01*
X117070000Y-98100000D02*
X104410000Y-98100000D01*
X138220000Y-98300000D02*
X137990000Y-98070000D01*
X139530000Y-101910000D02*
X138220000Y-100600000D01*
X140030000Y-101910000D02*
X139530000Y-101910000D01*
X137990000Y-98070000D02*
X123276410Y-98070000D01*
X118740000Y-103390000D02*
X118740000Y-99770000D01*
X202860000Y-97670000D02*
X202870000Y-97660000D01*
X199376410Y-97670000D02*
X202860000Y-97670000D01*
X215530000Y-100060000D02*
X215530000Y-101110000D01*
X213130000Y-97660000D02*
X215530000Y-100060000D01*
X202870000Y-97660000D02*
X213130000Y-97660000D01*
X229040020Y-97660000D02*
X229100010Y-97600010D01*
X213130000Y-97660000D02*
X229040020Y-97660000D01*
X310770000Y-100650000D02*
X306450000Y-96330000D01*
X310770000Y-101700000D02*
X310770000Y-100650000D01*
X276740000Y-96330000D02*
X272680000Y-100390000D01*
X272680000Y-100390000D02*
X272680000Y-101440000D01*
X306450000Y-96330000D02*
X276740000Y-96330000D01*
X196430000Y-99980000D02*
X196430000Y-101030000D01*
X159180000Y-99660000D02*
X159180000Y-100710000D01*
X161130010Y-97709990D02*
X159180000Y-99660000D01*
X194159990Y-97709990D02*
X161130010Y-97709990D01*
X196430000Y-99980000D02*
X194159990Y-97709990D01*
X155086400Y-97619990D02*
X123090010Y-97619990D01*
X156716410Y-99250000D02*
X155086400Y-97619990D01*
X158770000Y-99250000D02*
X156716410Y-99250000D01*
X123090010Y-97619990D02*
X121050000Y-99660000D01*
X159180000Y-99660000D02*
X158770000Y-99250000D01*
X105504999Y-80587999D02*
X105504999Y-96254999D01*
X105504999Y-96254999D02*
X106899990Y-97649990D01*
X103911000Y-78994000D02*
X105504999Y-80587999D01*
X121050000Y-99660000D02*
X121050000Y-100710000D01*
X119039990Y-97649990D02*
X121050000Y-99660000D01*
X106899990Y-97649990D02*
X119039990Y-97649990D01*
X270460000Y-98160000D02*
X270460000Y-98170000D01*
X268850000Y-96550000D02*
X270460000Y-98160000D01*
X237800000Y-96550000D02*
X268850000Y-96550000D01*
X233160000Y-98370000D02*
X235980000Y-98370000D01*
X270460000Y-98170000D02*
X272680000Y-100390000D01*
X235980000Y-98370000D02*
X237800000Y-96550000D01*
X231940000Y-97150000D02*
X233160000Y-98370000D01*
X199260000Y-97150000D02*
X231940000Y-97150000D01*
X196430000Y-99980000D02*
X199260000Y-97150000D01*
X233160000Y-98630000D02*
X233160000Y-98370000D01*
X234440000Y-99910000D02*
X233160000Y-98630000D01*
X234440000Y-100960000D02*
X234440000Y-99910000D01*
X102820000Y-120530000D02*
X106660000Y-116690000D01*
X101770000Y-120530000D02*
X102820000Y-120530000D01*
X139920000Y-119405000D02*
X139920000Y-120455000D01*
X137205000Y-116690000D02*
X139920000Y-119405000D01*
X106660000Y-116690000D02*
X137205000Y-116690000D01*
X183436400Y-129410010D02*
X184456400Y-128390010D01*
X178449990Y-129410010D02*
X183436400Y-129410010D01*
X175960000Y-131900000D02*
X178449990Y-129410010D01*
X175960000Y-132400000D02*
X175960000Y-131900000D01*
X187220010Y-128390010D02*
X187860000Y-129030000D01*
X184456400Y-128390010D02*
X187220010Y-128390010D01*
X231985000Y-126590000D02*
X235450000Y-123125000D01*
X225980000Y-129280000D02*
X228670000Y-126590000D01*
X215060000Y-126980000D02*
X217360000Y-129280000D01*
X217360000Y-129280000D02*
X225980000Y-129280000D01*
X213150000Y-126980000D02*
X215060000Y-126980000D01*
X235450000Y-123125000D02*
X235450000Y-121625000D01*
X211500000Y-128630000D02*
X213150000Y-126980000D01*
X200320000Y-128630000D02*
X211500000Y-128630000D01*
X198820000Y-127130000D02*
X200320000Y-128630000D01*
X228670000Y-126590000D02*
X231985000Y-126590000D01*
X193350000Y-127130000D02*
X198820000Y-127130000D01*
X120730000Y-121480000D02*
X123760000Y-124510000D01*
X120730000Y-120430000D02*
X120730000Y-121480000D01*
X123760000Y-124510000D02*
X123760000Y-126460000D01*
X123760000Y-126460000D02*
X127660000Y-130360000D01*
X159390000Y-130360000D02*
X161710000Y-128040000D01*
X161710000Y-121940000D02*
X159970000Y-120200000D01*
X159970000Y-120200000D02*
X158920000Y-120200000D01*
X161710000Y-128040000D02*
X161710000Y-121940000D01*
X254610000Y-120930000D02*
X258340000Y-117200000D01*
X253560000Y-120930000D02*
X254610000Y-120930000D01*
X291660000Y-119665000D02*
X291660000Y-120715000D01*
X289195000Y-117200000D02*
X291660000Y-119665000D01*
X313300000Y-122240000D02*
X313300000Y-124565000D01*
X313300000Y-123440000D02*
X313300000Y-124565000D01*
X312800000Y-123440000D02*
X311800000Y-124440000D01*
X313300000Y-123440000D02*
X312800000Y-123440000D01*
X311800000Y-124440000D02*
X310060000Y-124440000D01*
X310060000Y-124440000D02*
X308300000Y-122680000D01*
X308300000Y-122680000D02*
X306290000Y-122680000D01*
X306290000Y-122680000D02*
X304510000Y-120900000D01*
X304510000Y-120900000D02*
X300450000Y-120900000D01*
X300450000Y-120900000D02*
X299160000Y-119610000D01*
X299160000Y-119610000D02*
X297330000Y-119610000D01*
X296225000Y-120715000D02*
X291660000Y-120715000D01*
X297330000Y-119610000D02*
X296225000Y-120715000D01*
X198060000Y-105660000D02*
X197770000Y-105950000D01*
X199110000Y-105660000D02*
X198060000Y-105660000D01*
X195600000Y-112770000D02*
X164740000Y-112770000D01*
X158920000Y-118590000D02*
X158920000Y-120200000D01*
X164740000Y-112770000D02*
X158920000Y-118590000D01*
X253560000Y-124370000D02*
X253560000Y-122130000D01*
X251060000Y-128330000D02*
X251060000Y-126870000D01*
X249590000Y-129800000D02*
X251060000Y-128330000D01*
X251060000Y-126870000D02*
X253560000Y-124370000D01*
X233750000Y-129800000D02*
X249590000Y-129800000D01*
X230990010Y-127040010D02*
X233750000Y-129800000D01*
X217173600Y-129730010D02*
X226166401Y-129730009D01*
X214873600Y-127430010D02*
X217173600Y-129730010D01*
X211686401Y-129080009D02*
X213336400Y-127430010D01*
X195870000Y-127610000D02*
X197340009Y-129080009D01*
X184270000Y-127940000D02*
X193920000Y-127940000D01*
X183250000Y-128960000D02*
X184270000Y-127940000D01*
X226166401Y-129730009D02*
X228856400Y-127040010D01*
X177250000Y-126840000D02*
X179370000Y-128960000D01*
X179370000Y-128960000D02*
X183250000Y-128960000D01*
X228856400Y-127040010D02*
X230990010Y-127040010D01*
X161710000Y-128040000D02*
X173710000Y-128040000D01*
X197340009Y-129080009D02*
X211686401Y-129080009D01*
X193920000Y-127940000D02*
X194250000Y-127610000D01*
X174910000Y-126840000D02*
X177250000Y-126840000D01*
X213336400Y-127430010D02*
X214873600Y-127430010D01*
X194250000Y-127610000D02*
X195870000Y-127610000D01*
X173710000Y-128040000D02*
X174910000Y-126840000D01*
X197770000Y-105950000D02*
X197770000Y-109400000D01*
X197770000Y-109400000D02*
X196990000Y-110180000D01*
X196990000Y-111380000D02*
X195600000Y-112770000D01*
X196990000Y-110180000D02*
X196990000Y-111380000D01*
X159390000Y-130360000D02*
X152980000Y-130360000D01*
X152980000Y-130360000D02*
X151440000Y-128820000D01*
X151440000Y-128820000D02*
X148670000Y-128820000D01*
X147130000Y-130360000D02*
X127660000Y-130360000D01*
X148670000Y-128820000D02*
X147130000Y-130360000D01*
X258340000Y-117200000D02*
X260890000Y-117200000D01*
X260890000Y-117200000D02*
X264740000Y-121050000D01*
X264740000Y-121050000D02*
X267920000Y-121050000D01*
X271770000Y-117200000D02*
X289195000Y-117200000D01*
X267920000Y-121050000D02*
X271770000Y-117200000D01*
X204755634Y-121602500D02*
X205288134Y-121070000D01*
X203200000Y-121602500D02*
X204755634Y-121602500D01*
X205288134Y-121070000D02*
X214450000Y-121070000D01*
X214982500Y-121602500D02*
X217487500Y-121602500D01*
X214450000Y-121070000D02*
X214982500Y-121602500D01*
X218980000Y-128050000D02*
X220340000Y-126690000D01*
X216766410Y-128050000D02*
X218980000Y-128050000D01*
X215246401Y-126529991D02*
X216766410Y-128050000D01*
X214029990Y-126529990D02*
X215246401Y-126529991D01*
X213940000Y-126440000D02*
X214029990Y-126529990D01*
X213940000Y-123298998D02*
X213940000Y-126440000D01*
X215636498Y-121602500D02*
X213940000Y-123298998D01*
X217487500Y-121602500D02*
X215636498Y-121602500D01*
X84130000Y-101920000D02*
X85142000Y-101920000D01*
X85715000Y-101410000D02*
X84490000Y-101410000D01*
X86940000Y-100185000D02*
X85715000Y-101410000D01*
X86940000Y-99560000D02*
X86940000Y-100185000D01*
X89730000Y-96770000D02*
X86940000Y-99560000D01*
X98442917Y-96400009D02*
X97229990Y-96400010D01*
X102930000Y-91912926D02*
X98442917Y-96400009D01*
X96860000Y-96770000D02*
X89730000Y-96770000D01*
X97229990Y-96400010D02*
X96860000Y-96770000D01*
X102930000Y-90135000D02*
X102930000Y-91912926D01*
X103911000Y-89154000D02*
X102930000Y-90135000D01*
X111056000Y-63754000D02*
X108590000Y-66220000D01*
X106577502Y-68834000D02*
X103911000Y-68834000D01*
X108590000Y-66821502D02*
X106577502Y-68834000D01*
X108590000Y-66220000D02*
X108590000Y-66821502D01*
X103911000Y-68834000D02*
X103911000Y-66294000D01*
X135704000Y-74681000D02*
X130943000Y-69920000D01*
X136804000Y-74681000D02*
X135704000Y-74681000D01*
X125317000Y-69920000D02*
X119151000Y-63754000D01*
X130943000Y-69920000D02*
X125317000Y-69920000D01*
X136804000Y-74681000D02*
X143104000Y-74681000D01*
X119151000Y-63754000D02*
X111056000Y-63754000D01*
X143104000Y-75431000D02*
X144860000Y-77187000D01*
X143104000Y-74681000D02*
X143104000Y-75431000D01*
X147663590Y-79500000D02*
X150353637Y-76809953D01*
X144860000Y-79140000D02*
X145220000Y-79500000D01*
X145220000Y-79500000D02*
X147663590Y-79500000D01*
X144860000Y-77187000D02*
X144860000Y-79140000D01*
X154742773Y-76809953D02*
X154852780Y-76919960D01*
X150353637Y-76809953D02*
X154742773Y-76809953D01*
X154852780Y-76919960D02*
X168883630Y-76919960D01*
X169463628Y-76339964D02*
X175245601Y-76339963D01*
X168883630Y-76919960D02*
X169463628Y-76339964D01*
X178905629Y-79999990D02*
X179587962Y-79999990D01*
X175245601Y-76339963D02*
X178905629Y-79999990D01*
X179587962Y-79999990D02*
X182248000Y-77339954D01*
X187923636Y-77339954D02*
X188903638Y-76359952D01*
X182248000Y-77339954D02*
X187923636Y-77339954D01*
X188903638Y-76359952D02*
X200630048Y-76359952D01*
X200630048Y-76359952D02*
X201470000Y-75520000D01*
X317699990Y-109046400D02*
X317699990Y-107929990D01*
X262333590Y-108520000D02*
X262503600Y-108690010D01*
X318490000Y-114630000D02*
X319240000Y-113880000D01*
X224226795Y-109123205D02*
X224313600Y-109210010D01*
X314180000Y-114630000D02*
X318490000Y-114630000D01*
X270470010Y-108690010D02*
X271260000Y-109480000D01*
X313990000Y-114440000D02*
X314180000Y-114630000D01*
X313990000Y-113246410D02*
X313990000Y-114440000D01*
X312863600Y-112120010D02*
X313990000Y-113246410D01*
X293620000Y-109930000D02*
X296793590Y-109930000D01*
X290960000Y-111180000D02*
X292370000Y-111180000D01*
X236679990Y-108690010D02*
X250403600Y-108690010D01*
X222880000Y-110470000D02*
X224226795Y-109123205D01*
X233830000Y-110270000D02*
X235100000Y-110270000D01*
X319240000Y-110586410D02*
X317699990Y-109046400D01*
X298983600Y-112120010D02*
X312863600Y-112120010D01*
X290260000Y-110480000D02*
X290960000Y-111180000D01*
X290260000Y-109850000D02*
X290260000Y-110480000D01*
X289940000Y-109530000D02*
X290260000Y-109850000D01*
X274580000Y-109530000D02*
X289940000Y-109530000D01*
X272050000Y-110720000D02*
X273390000Y-110720000D01*
X271260000Y-109930000D02*
X272050000Y-110720000D01*
X273390000Y-110720000D02*
X274580000Y-109530000D01*
X296793590Y-109930000D02*
X298983600Y-112120010D01*
X197390000Y-111616410D02*
X197450000Y-111556410D01*
X256560000Y-108520000D02*
X262333590Y-108520000D01*
X262503600Y-108690010D02*
X270470010Y-108690010D01*
X197450000Y-111556410D02*
X197450000Y-110356410D01*
X252950000Y-110690000D02*
X254390000Y-110690000D01*
X197390000Y-116770000D02*
X197390000Y-111616410D01*
X252000010Y-109740010D02*
X252950000Y-110690000D01*
X251453600Y-109740010D02*
X252000010Y-109740010D01*
X319240000Y-113880000D02*
X319240000Y-110586410D01*
X315340000Y-106650000D02*
X313730000Y-105040000D01*
X317699990Y-107929990D02*
X316420000Y-106650000D01*
X224313600Y-109210010D02*
X232770010Y-109210010D01*
X250403600Y-108690010D02*
X251453600Y-109740010D01*
X215020000Y-110470000D02*
X222880000Y-110470000D01*
X213910010Y-109360010D02*
X215020000Y-110470000D01*
X254390000Y-110690000D02*
X256560000Y-108520000D01*
X271260000Y-109480000D02*
X271260000Y-109930000D01*
X197450000Y-110356410D02*
X198420000Y-109386410D01*
X204056410Y-109386410D02*
X204082810Y-109360010D01*
X292370000Y-111180000D02*
X293620000Y-109930000D01*
X198420000Y-109386410D02*
X204056410Y-109386410D01*
X232770010Y-109210010D02*
X233830000Y-110270000D01*
X316420000Y-106650000D02*
X315340000Y-106650000D01*
X235100000Y-110270000D02*
X236679990Y-108690010D01*
X204082810Y-109360010D02*
X213910010Y-109360010D01*
X133979980Y-74999980D02*
X122720020Y-74999980D01*
X134550000Y-75570000D02*
X133979980Y-74999980D01*
X134550000Y-78160000D02*
X134550000Y-75570000D01*
X135696001Y-79306001D02*
X134550000Y-78160000D01*
X147740038Y-80059962D02*
X137409962Y-80059962D01*
X150066903Y-77737459D02*
X150062541Y-77737459D01*
X154666380Y-77369970D02*
X154556372Y-77259962D01*
X169070030Y-77369970D02*
X154666380Y-77369970D01*
X169650027Y-76789973D02*
X169070030Y-77369970D01*
X154556372Y-77259962D02*
X150544400Y-77259962D01*
X238149980Y-60860020D02*
X236470010Y-62539990D01*
X188110038Y-77789962D02*
X182434399Y-77789963D01*
X137409962Y-80059962D02*
X136656001Y-79306001D01*
X212826372Y-76809962D02*
X189090038Y-76809962D01*
X215296381Y-79279971D02*
X212826372Y-76809962D01*
X217620029Y-79279971D02*
X215296381Y-79279971D01*
X150544400Y-77259962D02*
X150066903Y-77737459D01*
X189090038Y-76809962D02*
X188110038Y-77789962D01*
X178719230Y-80450000D02*
X175059200Y-76789972D01*
X218050000Y-78850000D02*
X217620029Y-79279971D01*
X120300011Y-75304989D02*
X119151000Y-76454000D01*
X218054362Y-78850000D02*
X218050000Y-78850000D01*
X219244400Y-77659962D02*
X218054362Y-78850000D01*
X230395610Y-76799972D02*
X226707209Y-76799971D01*
X175059200Y-76789972D02*
X169650027Y-76789973D01*
X230665610Y-77069970D02*
X230395610Y-76799972D01*
X234700030Y-77069970D02*
X230665610Y-77069970D01*
X235250000Y-76520000D02*
X234700030Y-77069970D01*
X235250000Y-74840000D02*
X235250000Y-76520000D01*
X236470010Y-73619990D02*
X235250000Y-74840000D01*
X122415011Y-75304989D02*
X120300011Y-75304989D01*
X136656001Y-79306001D02*
X135696001Y-79306001D01*
X179774362Y-80450000D02*
X178719230Y-80450000D01*
X150062541Y-77737459D02*
X147740038Y-80059962D01*
X226707209Y-76799971D02*
X225847218Y-77659962D01*
X122720020Y-74999980D02*
X122415011Y-75304989D01*
X236470010Y-62539990D02*
X236470010Y-73619990D01*
X225847218Y-77659962D02*
X219244400Y-77659962D01*
X244870020Y-60860020D02*
X238149980Y-60860020D01*
X182434399Y-77789963D02*
X179774362Y-80450000D01*
X245922500Y-61912500D02*
X244870020Y-60860020D01*
X247650000Y-61912500D02*
X245922500Y-61912500D01*
X285750000Y-61912500D02*
X278707500Y-61912500D01*
X278707500Y-61912500D02*
X276450000Y-64170000D01*
X276450000Y-69675002D02*
X275060000Y-71065002D01*
X276450000Y-64170000D02*
X276450000Y-69675002D01*
X275060000Y-76370000D02*
X274190028Y-77239972D01*
X275060000Y-71065002D02*
X275060000Y-76370000D01*
X274190028Y-77239972D02*
X258020798Y-77239973D01*
X255943581Y-79317190D02*
X253525010Y-79317190D01*
X258020798Y-77239973D02*
X255943581Y-79317190D01*
X253525010Y-79317190D02*
X251727800Y-77519980D01*
X234429980Y-77519980D02*
X234399980Y-77519980D01*
X251727800Y-77519980D02*
X234429980Y-77519980D01*
X230209211Y-77249981D02*
X230479210Y-77519980D01*
X226893610Y-77249980D02*
X230209211Y-77249981D01*
X226033618Y-78109972D02*
X226893610Y-77249980D01*
X219430800Y-78109972D02*
X226033618Y-78109972D01*
X212639972Y-77259972D02*
X215109981Y-79729981D01*
X188300798Y-78239972D02*
X189280800Y-77259972D01*
X179960770Y-80900000D02*
X182620800Y-78239972D01*
X215109981Y-79729981D02*
X217810789Y-79729981D01*
X169867200Y-77239982D02*
X174872801Y-77239981D01*
X178532820Y-80900000D02*
X179960770Y-80900000D01*
X154369972Y-77709972D02*
X154479980Y-77819980D01*
X189280800Y-77259972D02*
X212639972Y-77259972D01*
X144820799Y-80509971D02*
X147930800Y-80509970D01*
X169287200Y-77819980D02*
X169867200Y-77239982D01*
X150730800Y-77709972D02*
X154369972Y-77709972D01*
X230479210Y-77519980D02*
X234429980Y-77519980D01*
X217810789Y-79729981D02*
X219430800Y-78109972D01*
X154479980Y-77819980D02*
X169287200Y-77819980D01*
X174872801Y-77239981D02*
X178532820Y-80900000D01*
X182620800Y-78239972D02*
X188300798Y-78239972D01*
X147930800Y-80509970D02*
X150730800Y-77709972D01*
X134099991Y-78348403D02*
X135507599Y-79756011D01*
X134099990Y-75789990D02*
X134099991Y-78348403D01*
X133759990Y-75449990D02*
X134099990Y-75789990D01*
X122684999Y-75754999D02*
X122990008Y-75449990D01*
X136469601Y-79756011D02*
X137223562Y-80509972D01*
X121492287Y-75754999D02*
X122684999Y-75754999D01*
X137223562Y-80509972D02*
X144820799Y-80509972D01*
X135507599Y-79756011D02*
X136469601Y-79756011D01*
X120857971Y-76389315D02*
X121492287Y-75754999D01*
X122990008Y-75449990D02*
X133759990Y-75449990D01*
X120857971Y-76955000D02*
X120857971Y-76389315D01*
X258207199Y-77689981D02*
X256129982Y-79767200D01*
X189467199Y-77709981D02*
X188487200Y-78689980D01*
X230022810Y-77699990D02*
X227080010Y-77699990D01*
X217733599Y-80179991D02*
X214906401Y-80179991D01*
X154272810Y-78269990D02*
X154162800Y-78159982D01*
X169473600Y-78269990D02*
X154272810Y-78269990D01*
X174686400Y-77689990D02*
X170053599Y-77689991D01*
X180097180Y-81400000D02*
X178396410Y-81400000D01*
X178396410Y-81400000D02*
X174686400Y-77689990D01*
X182807199Y-78689981D02*
X180097180Y-81400000D01*
X214906401Y-80179991D02*
X212436390Y-77709980D01*
X219617199Y-78559981D02*
X217997190Y-80179990D01*
X226220020Y-78559980D02*
X219617199Y-78559981D01*
X230292810Y-77969990D02*
X230022810Y-77699990D01*
X154162800Y-78159982D02*
X150917199Y-78159981D01*
X227080010Y-77699990D02*
X226220020Y-78559980D01*
X289546390Y-77689980D02*
X258207199Y-77689981D01*
X251541400Y-77969990D02*
X230292810Y-77969990D01*
X212436390Y-77709980D02*
X189467199Y-77709981D01*
X253338610Y-79767200D02*
X251541400Y-77969990D01*
X170053599Y-77689991D02*
X169473600Y-78269990D01*
X256129982Y-79767200D02*
X253338610Y-79767200D01*
X217997190Y-80179990D02*
X217733599Y-80179991D01*
X150917199Y-78159981D02*
X150439701Y-78637479D01*
X293777180Y-79910000D02*
X291766410Y-79910000D01*
X295487199Y-78199981D02*
X293777180Y-79910000D01*
X303097200Y-78199980D02*
X295487199Y-78199981D01*
X291766410Y-79910000D02*
X289546390Y-77689980D01*
X188487200Y-78689980D02*
X182807199Y-78689981D01*
X323850000Y-80962500D02*
X310105320Y-80962500D01*
X122830000Y-76480000D02*
X121910000Y-76480000D01*
X123410000Y-75900000D02*
X122830000Y-76480000D01*
X133570000Y-75900000D02*
X123410000Y-75900000D01*
X133649982Y-75979982D02*
X133570000Y-75900000D01*
X133649982Y-78534804D02*
X133649982Y-75979982D01*
X136186021Y-80206021D02*
X135321199Y-80206021D01*
X135321199Y-80206021D02*
X133649982Y-78534804D01*
X148117200Y-80959980D02*
X136939980Y-80959980D01*
X136939980Y-80959980D02*
X136186021Y-80206021D01*
X150518590Y-78558590D02*
X148117200Y-80959980D01*
X307342800Y-78199982D02*
X303097201Y-78199981D01*
X310105320Y-80962500D02*
X307342800Y-78199982D01*
X135043295Y-77820295D02*
X135704000Y-78481000D01*
X135043295Y-74656705D02*
X135043295Y-77820295D01*
X130756600Y-70370010D02*
X135043295Y-74656705D01*
X135704000Y-78481000D02*
X136804000Y-78481000D01*
X125130600Y-70370010D02*
X130756600Y-70370010D01*
X121054590Y-66294000D02*
X125130600Y-70370010D01*
X119151000Y-66294000D02*
X121054590Y-66294000D01*
X136804000Y-78481000D02*
X143104000Y-78481000D01*
X317500000Y-85058134D02*
X318250000Y-85808134D01*
X317500000Y-83502500D02*
X317500000Y-85058134D01*
X320630000Y-94380000D02*
X322130000Y-94380000D01*
X318250000Y-92000000D02*
X320630000Y-94380000D01*
X318250000Y-85808134D02*
X318250000Y-92000000D01*
X192734315Y-96390000D02*
X193300000Y-96390000D01*
X160310011Y-96809971D02*
X192314343Y-96809971D01*
X157089211Y-98349981D02*
X158770000Y-98349981D01*
X158770000Y-98349981D02*
X160310011Y-96809971D01*
X123966380Y-96719970D02*
X155459200Y-96719970D01*
X121260010Y-88086600D02*
X121260010Y-94013600D01*
X155459200Y-96719970D02*
X157089211Y-98349981D01*
X121260010Y-94013600D02*
X123966380Y-96719970D01*
X192314343Y-96809971D02*
X192734315Y-96390000D01*
X120626705Y-87453295D02*
X121260010Y-88086600D01*
X120626705Y-85549705D02*
X120626705Y-87453295D01*
X119151000Y-84074000D02*
X120626705Y-85549705D01*
X194179963Y-96789999D02*
X194369972Y-96599990D01*
X193699999Y-96789999D02*
X194179963Y-96789999D01*
X193300000Y-96390000D02*
X193699999Y-96789999D01*
X198537190Y-96599990D02*
X198887200Y-96249980D01*
X194369972Y-96599990D02*
X198537190Y-96599990D01*
X198887200Y-96249980D02*
X199280020Y-96249980D01*
X199280020Y-96249980D02*
X200250000Y-95280000D01*
X200250000Y-95280000D02*
X200970000Y-95280000D01*
X200970000Y-95280000D02*
X201919990Y-96229990D01*
X201919990Y-96229990D02*
X232292810Y-96229990D01*
X233409990Y-97279990D02*
X233599980Y-97469980D01*
X233342810Y-97279990D02*
X233409990Y-97279990D01*
X232292810Y-96229990D02*
X233342810Y-97279990D01*
X233599980Y-97469980D02*
X235607200Y-97469980D01*
X235607200Y-97469980D02*
X237427201Y-95649981D01*
X237427201Y-95649981D02*
X269222802Y-95649982D01*
X269222802Y-95649982D02*
X271482820Y-97910000D01*
X273887180Y-97910000D02*
X276367200Y-95429980D01*
X271482820Y-97910000D02*
X273887180Y-97910000D01*
X276367200Y-95429980D02*
X300510000Y-95429980D01*
X300510000Y-95429980D02*
X306822801Y-95429981D01*
X306822801Y-95429981D02*
X311182810Y-99789990D01*
X311440010Y-99789990D02*
X312220000Y-99010000D01*
X311182810Y-99789990D02*
X311440010Y-99789990D01*
X120810000Y-88273000D02*
X119151000Y-86614000D01*
X200600000Y-96200000D02*
X200100010Y-96699990D01*
X123779980Y-97169980D02*
X120810000Y-94200000D01*
X156902810Y-98799990D02*
X155272800Y-97169980D01*
X155272800Y-97169980D02*
X123779980Y-97169980D01*
X158956401Y-98799991D02*
X156902810Y-98799990D01*
X160496412Y-97259980D02*
X158956401Y-98799991D01*
X200100010Y-96699990D02*
X199073600Y-96699990D01*
X120810000Y-94200000D02*
X120810000Y-88273000D01*
X194556372Y-97050000D02*
X194346391Y-97259981D01*
X194346391Y-97259981D02*
X160496412Y-97259980D01*
X198723590Y-97050000D02*
X194556372Y-97050000D01*
X199073600Y-96699990D02*
X198723590Y-97050000D01*
X200600000Y-96200000D02*
X201080000Y-96680000D01*
X231409990Y-96699990D02*
X232126401Y-96699991D01*
X231390000Y-96680000D02*
X231409990Y-96699990D01*
X201080000Y-96680000D02*
X231390000Y-96680000D01*
X233190000Y-97730000D02*
X233379990Y-97919990D01*
X233156410Y-97730000D02*
X233190000Y-97730000D01*
X232126401Y-96699991D02*
X233156410Y-97730000D01*
X235793600Y-97919990D02*
X237613600Y-96099990D01*
X233379990Y-97919990D02*
X235793600Y-97919990D01*
X237613600Y-96099990D02*
X269036401Y-96099991D01*
X269036401Y-96099991D02*
X271296410Y-98360000D01*
X274073590Y-98360000D02*
X276553600Y-95879990D01*
X271296410Y-98360000D02*
X274073590Y-98360000D01*
X312680000Y-100240000D02*
X310996410Y-100240000D01*
X313730000Y-101290000D02*
X312680000Y-100240000D01*
X313730000Y-102540000D02*
X313730000Y-101290000D01*
X310996410Y-100240000D02*
X306636400Y-95879990D01*
X306636400Y-95879990D02*
X276553600Y-95879990D01*
X185705634Y-121602500D02*
X186098134Y-121210000D01*
X184150000Y-121602500D02*
X185705634Y-121602500D01*
X186098134Y-121210000D02*
X192930000Y-121210000D01*
X192930000Y-121210000D02*
X194730000Y-123010000D01*
X194730000Y-123010000D02*
X194730000Y-126270000D01*
X199704356Y-126679990D02*
X199734366Y-126710000D01*
X195139990Y-126679990D02*
X199704356Y-126679990D01*
X199734366Y-126710000D02*
X201290000Y-126710000D01*
X194730000Y-126270000D02*
X195139990Y-126679990D01*
X192930000Y-121210000D02*
X194300000Y-121210000D01*
X194300000Y-121210000D02*
X196040000Y-119470000D01*
X196040000Y-119470000D02*
X200980000Y-119470000D01*
X200980000Y-119470000D02*
X201790000Y-118660000D01*
X201790000Y-116140000D02*
X199110000Y-113460000D01*
X201790000Y-118660000D02*
X201790000Y-116140000D01*
M02*
