G04 #@! TF.GenerationSoftware,KiCad,Pcbnew,(5.1.5-0-10_14)*
G04 #@! TF.CreationDate,2021-01-26T16:27:08+02:00*
G04 #@! TF.ProjectId,Louhi-FR4-plate,4c6f7568-692d-4465-9234-2d706c617465,rev?*
G04 #@! TF.SameCoordinates,Original*
G04 #@! TF.FileFunction,Profile,NP*
%FSLAX46Y46*%
G04 Gerber Fmt 4.6, Leading zero omitted, Abs format (unit mm)*
G04 Created by KiCad (PCBNEW (5.1.5-0-10_14)) date 2021-01-26 16:27:08*
%MOMM*%
%LPD*%
G04 APERTURE LIST*
%ADD10C,0.200000*%
G04 APERTURE END LIST*
D10*
X271057201Y-98387628D02*
X271417706Y-97714685D01*
X270579515Y-98974870D02*
X271057201Y-98387628D01*
X271047517Y-21821085D02*
X270557114Y-21227856D01*
X271408734Y-22493263D02*
X271047517Y-21821085D01*
X271631696Y-23216074D02*
X271408734Y-22493263D01*
X271704786Y-23887585D02*
X271631696Y-23216074D01*
X21369126Y-98996673D02*
X21960942Y-99479649D01*
X20882981Y-98409117D02*
X21369126Y-98996673D01*
X20223696Y-96336978D02*
X20294653Y-97009933D01*
X21938332Y-20763646D02*
X21350000Y-21250000D01*
X268590759Y-100052523D02*
X269316651Y-99826922D01*
X267932792Y-100121453D02*
X268590759Y-100052523D01*
X20509368Y-22515138D02*
X20286771Y-23253780D01*
X23337128Y-20175528D02*
X22608897Y-20401207D01*
X24010083Y-20104570D02*
X23337128Y-20175528D01*
X24123869Y-20104570D02*
X24010083Y-20104570D01*
X20286771Y-23253780D02*
X20223696Y-23894106D01*
X271704786Y-24013278D02*
X271704786Y-23887585D01*
X271637011Y-96984712D02*
X271704786Y-96320073D01*
X271417706Y-97714685D02*
X271637011Y-96984712D01*
X268562952Y-20170142D02*
X267898186Y-20104570D01*
X269296760Y-20390809D02*
X268562952Y-20170142D01*
X269964902Y-20748891D02*
X269296760Y-20390809D01*
X270557114Y-21227856D02*
X269964902Y-20748891D01*
X269990796Y-99464243D02*
X270579515Y-98974870D01*
X269316651Y-99826922D02*
X269990796Y-99464243D01*
X20868008Y-21841250D02*
X20509368Y-22515138D01*
X20520332Y-97738164D02*
X20882981Y-98409117D01*
X20294653Y-97009933D02*
X20520332Y-97738164D01*
X22637548Y-99839212D02*
X23368248Y-100059942D01*
X21960942Y-99479649D02*
X22637548Y-99839212D01*
X267135889Y-24036659D02*
X267135889Y-38136659D01*
X253035889Y-24036659D02*
X267135889Y-24036659D01*
X253035889Y-38136659D02*
X253035889Y-24036659D01*
X267135889Y-38136659D02*
X253035889Y-38136659D01*
X267135889Y-62136659D02*
X267135889Y-76236659D01*
X253035889Y-62136659D02*
X267135889Y-62136659D01*
X253035889Y-76236659D02*
X253035889Y-62136659D01*
X267135889Y-76236659D02*
X253035889Y-76236659D01*
X233985889Y-95286659D02*
X233985889Y-81186659D01*
X248085889Y-95286659D02*
X233985889Y-95286659D01*
X248085889Y-81186659D02*
X248085889Y-95286659D01*
X233985889Y-81186659D02*
X248085889Y-81186659D01*
X233985889Y-57186659D02*
X233985889Y-43086659D01*
X248085889Y-57186659D02*
X233985889Y-57186659D01*
X248085889Y-43086659D02*
X248085889Y-57186659D01*
X233985889Y-43086659D02*
X248085889Y-43086659D01*
X229035889Y-24036659D02*
X229035889Y-38136659D01*
X214935889Y-24036659D02*
X229035889Y-24036659D01*
X214935889Y-38136659D02*
X214935889Y-24036659D01*
X229035889Y-38136659D02*
X214935889Y-38136659D01*
X229035889Y-62136659D02*
X229035889Y-76236659D01*
X214935889Y-62136659D02*
X229035889Y-62136659D01*
X214935889Y-76236659D02*
X214935889Y-62136659D01*
X229035889Y-76236659D02*
X214935889Y-76236659D01*
X214935889Y-95286659D02*
X214935889Y-81186659D01*
X229035889Y-95286659D02*
X214935889Y-95286659D01*
X229035889Y-81186659D02*
X229035889Y-95286659D01*
X214935889Y-81186659D02*
X229035889Y-81186659D01*
X229035889Y-43086659D02*
X229035889Y-57186659D01*
X214935889Y-43086659D02*
X229035889Y-43086659D01*
X214935889Y-57186659D02*
X214935889Y-43086659D01*
X229035889Y-57186659D02*
X214935889Y-57186659D01*
X248085889Y-24036659D02*
X248085889Y-38136659D01*
X233985889Y-24036659D02*
X248085889Y-24036659D01*
X233985889Y-38136659D02*
X233985889Y-24036659D01*
X248085889Y-38136659D02*
X233985889Y-38136659D01*
X233985889Y-76236659D02*
X233985889Y-62136659D01*
X248085889Y-76236659D02*
X233985889Y-76236659D01*
X248085889Y-62136659D02*
X248085889Y-76236659D01*
X233985889Y-62136659D02*
X248085889Y-62136659D01*
X253035889Y-95286659D02*
X253035889Y-81186659D01*
X267135889Y-95286659D02*
X253035889Y-95286659D01*
X267135889Y-81186659D02*
X267135889Y-95286659D01*
X253035889Y-81186659D02*
X267135889Y-81186659D01*
X267135889Y-43086659D02*
X267135889Y-57186659D01*
X253035889Y-43086659D02*
X267135889Y-43086659D01*
X253035889Y-57186659D02*
X253035889Y-43086659D01*
X267135889Y-57186659D02*
X253035889Y-57186659D01*
X209985889Y-24036659D02*
X209985889Y-38136659D01*
X195885889Y-24036659D02*
X209985889Y-24036659D01*
X195885889Y-38136659D02*
X195885889Y-24036659D01*
X209985889Y-38136659D02*
X195885889Y-38136659D01*
X195885889Y-76236659D02*
X195885889Y-62136659D01*
X209985889Y-76236659D02*
X195885889Y-76236659D01*
X209985889Y-62136659D02*
X209985889Y-76236659D01*
X195885889Y-62136659D02*
X209985889Y-62136659D01*
X176835889Y-57186659D02*
X176835889Y-43086659D01*
X190935889Y-57186659D02*
X176835889Y-57186659D01*
X190935889Y-43086659D02*
X190935889Y-57186659D01*
X176835889Y-43086659D02*
X190935889Y-43086659D01*
X152835889Y-24036659D02*
X152835889Y-38136659D01*
X138735889Y-24036659D02*
X152835889Y-24036659D01*
X138735889Y-38136659D02*
X138735889Y-24036659D01*
X152835889Y-38136659D02*
X138735889Y-38136659D01*
X171885889Y-43086659D02*
X171885889Y-57186659D01*
X157785889Y-43086659D02*
X171885889Y-43086659D01*
X157785889Y-57186659D02*
X157785889Y-43086659D01*
X171885889Y-57186659D02*
X157785889Y-57186659D01*
X152835889Y-43086659D02*
X152835889Y-57186659D01*
X138735889Y-43086659D02*
X152835889Y-43086659D01*
X138735889Y-57186659D02*
X138735889Y-43086659D01*
X152835889Y-57186659D02*
X138735889Y-57186659D01*
X152835889Y-76236659D02*
X138735889Y-76236659D01*
X152835889Y-62136659D02*
X152835889Y-76236659D01*
X138735889Y-62136659D02*
X152835889Y-62136659D01*
X138735889Y-76236659D02*
X138735889Y-62136659D01*
X157785889Y-76236659D02*
X157785889Y-62136659D01*
X171885889Y-76236659D02*
X157785889Y-76236659D01*
X171885889Y-62136659D02*
X171885889Y-76236659D01*
X157785889Y-62136659D02*
X171885889Y-62136659D01*
X171885889Y-24036659D02*
X171885889Y-38136659D01*
X157785889Y-24036659D02*
X171885889Y-24036659D01*
X157785889Y-38136659D02*
X157785889Y-24036659D01*
X171885889Y-38136659D02*
X157785889Y-38136659D01*
X190935889Y-24036659D02*
X190935889Y-38136659D01*
X176835889Y-24036659D02*
X190935889Y-24036659D01*
X176835889Y-38136659D02*
X176835889Y-24036659D01*
X190935889Y-38136659D02*
X176835889Y-38136659D01*
X176835889Y-76236659D02*
X176835889Y-62136659D01*
X190935889Y-76236659D02*
X176835889Y-76236659D01*
X190935889Y-62136659D02*
X190935889Y-76236659D01*
X176835889Y-62136659D02*
X190935889Y-62136659D01*
X209985889Y-43086659D02*
X209985889Y-57186659D01*
X195885889Y-43086659D02*
X209985889Y-43086659D01*
X195885889Y-57186659D02*
X195885889Y-43086659D01*
X209985889Y-57186659D02*
X195885889Y-57186659D01*
X210031550Y-95202717D02*
X206531550Y-95202717D01*
X210031550Y-81102717D02*
X210031550Y-95202717D01*
X195981550Y-81102717D02*
X210031550Y-81102717D01*
X95681550Y-81102717D02*
X195981550Y-81102717D01*
X81631550Y-81102717D02*
X95681550Y-81102717D01*
X81631550Y-95202717D02*
X81631550Y-81102717D01*
X85060821Y-95202717D02*
X81631550Y-95202717D01*
X85060821Y-97312281D02*
X85060821Y-95202717D01*
X92060821Y-97312281D02*
X85060821Y-97312281D01*
X92060821Y-97316061D02*
X92060821Y-97312281D01*
X199495718Y-97316061D02*
X92060821Y-97316061D01*
X206460821Y-97312281D02*
X199495718Y-97316061D01*
X206531550Y-97312281D02*
X206460821Y-97312281D01*
X206531550Y-97202717D02*
X206531550Y-97312281D01*
X206531550Y-95202717D02*
X206531550Y-97202717D01*
X119685889Y-57186659D02*
X119685889Y-43086659D01*
X133785889Y-57186659D02*
X119685889Y-57186659D01*
X133785889Y-43086659D02*
X133785889Y-57186659D01*
X119685889Y-43086659D02*
X133785889Y-43086659D01*
X114735889Y-24036659D02*
X114735889Y-38136659D01*
X100635889Y-24036659D02*
X114735889Y-24036659D01*
X100635889Y-38136659D02*
X100635889Y-24036659D01*
X114735889Y-38136659D02*
X100635889Y-38136659D01*
X100635889Y-76236659D02*
X100635889Y-62136659D01*
X114735889Y-76236659D02*
X100635889Y-76236659D01*
X114735889Y-62136659D02*
X114735889Y-76236659D01*
X100635889Y-62136659D02*
X114735889Y-62136659D01*
X81585889Y-57186659D02*
X81585889Y-43086659D01*
X95685889Y-57186659D02*
X81585889Y-57186659D01*
X95685889Y-43086659D02*
X95685889Y-57186659D01*
X81585889Y-43086659D02*
X95685889Y-43086659D01*
X95685889Y-24036659D02*
X95685889Y-38136659D01*
X81585889Y-24036659D02*
X95685889Y-24036659D01*
X81585889Y-38136659D02*
X81585889Y-24036659D01*
X95685889Y-38136659D02*
X81585889Y-38136659D01*
X81585889Y-76236659D02*
X81585889Y-62136659D01*
X95685889Y-76236659D02*
X81585889Y-76236659D01*
X95685889Y-62136659D02*
X95685889Y-76236659D01*
X81585889Y-62136659D02*
X95685889Y-62136659D01*
X114735889Y-43086659D02*
X114735889Y-57186659D01*
X100635889Y-43086659D02*
X114735889Y-43086659D01*
X100635889Y-57186659D02*
X100635889Y-43086659D01*
X114735889Y-57186659D02*
X100635889Y-57186659D01*
X133785889Y-24036659D02*
X133785889Y-38136659D01*
X119685889Y-24036659D02*
X133785889Y-24036659D01*
X119685889Y-38136659D02*
X119685889Y-24036659D01*
X133785889Y-38136659D02*
X119685889Y-38136659D01*
X119685889Y-76236659D02*
X119685889Y-62136659D01*
X133785889Y-76236659D02*
X119685889Y-76236659D01*
X133785889Y-62136659D02*
X133785889Y-76236659D01*
X119685889Y-62136659D02*
X133785889Y-62136659D01*
X57585889Y-38136659D02*
X43485889Y-38136659D01*
X57585889Y-24036659D02*
X57585889Y-38136659D01*
X43485889Y-24036659D02*
X57585889Y-24036659D01*
X43485889Y-38136659D02*
X43485889Y-24036659D01*
X57585889Y-81186659D02*
X57585889Y-95286659D01*
X43485889Y-81186659D02*
X57585889Y-81186659D01*
X43485889Y-95286659D02*
X43485889Y-81186659D01*
X57585889Y-95286659D02*
X43485889Y-95286659D01*
X76635889Y-95286659D02*
X62535889Y-95286659D01*
X76635889Y-81186659D02*
X76635889Y-95286659D01*
X62535889Y-81186659D02*
X76635889Y-81186659D01*
X62535889Y-95286659D02*
X62535889Y-81186659D01*
X62535889Y-57186659D02*
X62535889Y-43086659D01*
X76635889Y-57186659D02*
X62535889Y-57186659D01*
X76635889Y-43086659D02*
X76635889Y-57186659D01*
X62535889Y-43086659D02*
X76635889Y-43086659D01*
X38535889Y-24036659D02*
X38535889Y-38136659D01*
X24435889Y-24036659D02*
X38535889Y-24036659D01*
X24435889Y-38136659D02*
X24435889Y-24036659D01*
X38535889Y-38136659D02*
X24435889Y-38136659D01*
X57585889Y-62136659D02*
X57585889Y-76236659D01*
X43485889Y-62136659D02*
X57585889Y-62136659D01*
X43485889Y-76236659D02*
X43485889Y-62136659D01*
X57585889Y-76236659D02*
X43485889Y-76236659D01*
X24435889Y-62136659D02*
X38535889Y-62136659D01*
X24435889Y-76236659D02*
X24435889Y-62136659D01*
X38535889Y-76236659D02*
X24435889Y-76236659D01*
X38535889Y-62136659D02*
X38535889Y-76236659D01*
X62535889Y-62136659D02*
X76635889Y-62136659D01*
X62535889Y-76236659D02*
X62535889Y-62136659D01*
X76635889Y-76236659D02*
X62535889Y-76236659D01*
X76635889Y-62136659D02*
X76635889Y-76236659D01*
X24435889Y-81186659D02*
X38535889Y-81186659D01*
X24435889Y-95286659D02*
X24435889Y-81186659D01*
X38535889Y-95286659D02*
X24435889Y-95286659D01*
X38535889Y-81186659D02*
X38535889Y-95286659D01*
X43485889Y-57186659D02*
X43485889Y-43086659D01*
X57585889Y-57186659D02*
X43485889Y-57186659D01*
X57585889Y-43086659D02*
X57585889Y-57186659D01*
X43485889Y-43086659D02*
X57585889Y-43086659D01*
X38535889Y-43086659D02*
X38535889Y-57186659D01*
X24435889Y-43086659D02*
X38535889Y-43086659D01*
X24435889Y-57186659D02*
X24435889Y-43086659D01*
X38535889Y-57186659D02*
X24435889Y-57186659D01*
X76635889Y-24036659D02*
X76635889Y-38136659D01*
X62535889Y-24036659D02*
X76635889Y-24036659D01*
X62535889Y-38136659D02*
X62535889Y-24036659D01*
X76635889Y-38136659D02*
X62535889Y-38136659D01*
X271705376Y-54340037D02*
X271704786Y-24013278D01*
X271704786Y-96320073D02*
X271705364Y-66344955D01*
X20225364Y-46696777D02*
X20223696Y-34745982D01*
X272705364Y-55344974D02*
G75*
G02X271705376Y-54340037I0J1000000D01*
G01*
X274205364Y-55344974D02*
X272705364Y-55344974D01*
X274205364Y-55344974D02*
G75*
G02X275205364Y-56344974I0J-1000000D01*
G01*
X275205364Y-64344974D02*
X275205364Y-56344974D01*
X275205364Y-64344974D02*
G75*
G02X274205364Y-65344974I-1000000J0D01*
G01*
X272705364Y-65344974D02*
X274205364Y-65344974D01*
X271705364Y-66344955D02*
G75*
G02X272705364Y-65344974I1000000J-19D01*
G01*
X19225364Y-65344974D02*
G75*
G02X20225364Y-66344974I0J-1000000D01*
G01*
X17725364Y-65344974D02*
X19225364Y-65344974D01*
X17725364Y-65344974D02*
G75*
G02X16725364Y-64344974I0J1000000D01*
G01*
X16725364Y-56344974D02*
X16725364Y-64344974D01*
X19225364Y-55344974D02*
X17725364Y-55344974D01*
X20225364Y-54344974D02*
G75*
G02X19225364Y-55344974I-1000000J0D01*
G01*
X16725364Y-56344974D02*
G75*
G02X17725364Y-55344974I1000000J0D01*
G01*
X20223696Y-46639043D02*
G75*
G02X20225364Y-46696777I-998332J-57739D01*
G01*
X152008005Y-100116453D02*
X225542009Y-100116446D01*
X225542009Y-100116446D02*
G75*
G02X226542014Y-101116446I5J-1000000D01*
G01*
X226542014Y-101116446D02*
X226542014Y-102618104D01*
X227542014Y-103618104D02*
G75*
G02X226542014Y-102618104I0J1000000D01*
G01*
X227542014Y-103618104D02*
X235542014Y-103618104D01*
X236542014Y-102618104D02*
G75*
G02X235542014Y-103618104I-1000000J0D01*
G01*
X236542014Y-101118104D02*
G75*
G02X237542014Y-100118104I1000000J0D01*
G01*
X236542014Y-102618104D02*
X236542014Y-101118104D01*
X140008006Y-100116437D02*
G75*
G02X141008004Y-101116439I-2J-1000000D01*
G01*
X141008004Y-101116439D02*
X141008002Y-102616439D01*
X142008001Y-103616440D02*
G75*
G02X141008002Y-102616439I1J1000000D01*
G01*
X142008001Y-103616440D02*
X150008001Y-103616450D01*
X151008002Y-102616451D02*
G75*
G02X150008001Y-103616450I-1000000J1D01*
G01*
X151008004Y-101116452D02*
G75*
G02X152008005Y-100116453I1000000J-1D01*
G01*
X151008002Y-102616451D02*
X151008004Y-101116451D01*
X53007943Y-100116446D02*
G75*
G02X54007942Y-101116447I-1J-1000000D01*
G01*
X54007942Y-101116447D02*
X54007940Y-102616447D01*
X55007939Y-103616448D02*
G75*
G02X54007940Y-102616447I1J1000000D01*
G01*
X55007939Y-103616448D02*
X63007939Y-103616457D01*
X64007940Y-102616458D02*
G75*
G02X63007939Y-103616457I-1000000J1D01*
G01*
X64007942Y-101116458D02*
G75*
G02X65007943Y-100116459I1000000J-1D01*
G01*
X64007940Y-102616458D02*
X64007942Y-101116458D01*
X237542014Y-20104570D02*
G75*
G02X236542014Y-19104570I0J1000000D01*
G01*
X236542014Y-19104570D02*
X236542014Y-17604570D01*
X235542014Y-16604570D02*
G75*
G02X236542014Y-17604570I0J-1000000D01*
G01*
X235542014Y-16604570D02*
X227542014Y-16604570D01*
X226542014Y-17604570D02*
G75*
G02X227542014Y-16604570I1000000J0D01*
G01*
X226542014Y-17604570D02*
X226542014Y-19104570D01*
X226542014Y-19104570D02*
G75*
G02X225542014Y-20104570I-1000000J0D01*
G01*
X152042014Y-20104570D02*
G75*
G02X151042014Y-19104570I0J1000000D01*
G01*
X151042014Y-19104570D02*
X151042014Y-17604570D01*
X150042014Y-16604570D02*
G75*
G02X151042014Y-17604570I0J-1000000D01*
G01*
X150042014Y-16604570D02*
X142042014Y-16604570D01*
X141042014Y-17604570D02*
G75*
G02X142042014Y-16604570I1000000J0D01*
G01*
X141042014Y-19104570D02*
G75*
G02X140042014Y-20104570I-1000000J0D01*
G01*
X141042014Y-17604570D02*
X141042014Y-19104570D01*
X78542014Y-20104570D02*
G75*
G02X77542014Y-19104570I0J1000000D01*
G01*
X67542014Y-19104570D02*
G75*
G02X66542014Y-20104570I-1000000J0D01*
G01*
X76542014Y-16604570D02*
G75*
G02X77542014Y-17604570I0J-1000000D01*
G01*
X67542014Y-17604570D02*
G75*
G02X68542014Y-16604570I1000000J0D01*
G01*
X67542014Y-17604570D02*
X67542014Y-19104570D01*
X76542014Y-16604570D02*
X68542014Y-16604570D01*
X77542014Y-19104570D02*
X77542014Y-17604570D01*
X20225364Y-66344974D02*
X20223696Y-96223192D01*
X20223696Y-46639044D02*
X20225364Y-54344974D01*
X20223696Y-96223192D02*
X20223696Y-96336978D01*
X267804866Y-100121453D02*
X267932792Y-100121453D01*
X23368248Y-100059942D02*
X23997025Y-100121453D01*
X20223696Y-23894106D02*
X20223696Y-34745982D01*
X237542014Y-100118104D02*
X267804866Y-100121453D01*
X65007943Y-100116459D02*
X140008006Y-100116437D01*
X23997025Y-100121453D02*
X53007943Y-100116446D01*
X225542014Y-20104570D02*
X152042014Y-20104570D01*
X267898186Y-20104570D02*
X237542014Y-20104570D01*
X140042014Y-20104570D02*
X78542014Y-20104570D01*
X66542014Y-20104570D02*
X24123869Y-20104570D01*
X22608897Y-20401207D02*
X21938332Y-20763646D01*
X21350000Y-21250000D02*
X20868008Y-21841250D01*
M02*
