G04 #@! TF.GenerationSoftware,KiCad,Pcbnew,(5.1.5-0-10_14)*
G04 #@! TF.CreationDate,2021-01-26T16:27:08+02:00*
G04 #@! TF.ProjectId,Louhi-FR4-plate,4c6f7568-692d-4465-9234-2d706c617465,rev?*
G04 #@! TF.SameCoordinates,Original*
G04 #@! TF.FileFunction,Soldermask,Bot*
G04 #@! TF.FilePolarity,Negative*
%FSLAX46Y46*%
G04 Gerber Fmt 4.6, Leading zero omitted, Abs format (unit mm)*
G04 Created by KiCad (PCBNEW (5.1.5-0-10_14)) date 2021-01-26 16:27:08*
%MOMM*%
%LPD*%
G04 APERTURE LIST*
%ADD10C,0.010000*%
%ADD11C,0.100000*%
G04 APERTURE END LIST*
D10*
G36*
X224077235Y-97083487D02*
G01*
X224022381Y-97132896D01*
X223989127Y-97200485D01*
X223984000Y-97239598D01*
X224001362Y-97313894D01*
X224046414Y-97368191D01*
X224108610Y-97398043D01*
X224177401Y-97399006D01*
X224242239Y-97366633D01*
X224255478Y-97354011D01*
X224291938Y-97289332D01*
X224296784Y-97217068D01*
X224274348Y-97148352D01*
X224228962Y-97094318D01*
X224164959Y-97066100D01*
X224142750Y-97064333D01*
X224077235Y-97083487D01*
G37*
X224077235Y-97083487D02*
X224022381Y-97132896D01*
X223989127Y-97200485D01*
X223984000Y-97239598D01*
X224001362Y-97313894D01*
X224046414Y-97368191D01*
X224108610Y-97398043D01*
X224177401Y-97399006D01*
X224242239Y-97366633D01*
X224255478Y-97354011D01*
X224291938Y-97289332D01*
X224296784Y-97217068D01*
X224274348Y-97148352D01*
X224228962Y-97094318D01*
X224164959Y-97066100D01*
X224142750Y-97064333D01*
X224077235Y-97083487D01*
G36*
X216115232Y-97046826D02*
G01*
X216074673Y-97058201D01*
X216067797Y-97069625D01*
X216070410Y-97097352D01*
X216077674Y-97160876D01*
X216088840Y-97254005D01*
X216103158Y-97370550D01*
X216119881Y-97504320D01*
X216131167Y-97593500D01*
X216148921Y-97733234D01*
X216164760Y-97858074D01*
X216177947Y-97962195D01*
X216187744Y-98039768D01*
X216193414Y-98084967D01*
X216194537Y-98094227D01*
X216177562Y-98092494D01*
X216155674Y-98087340D01*
X216127706Y-98069329D01*
X216076453Y-98026444D01*
X216008086Y-97964215D01*
X215928778Y-97888172D01*
X215886160Y-97845905D01*
X215655639Y-97614667D01*
X215380361Y-97614667D01*
X215650709Y-97885615D01*
X215921056Y-98156564D01*
X215790255Y-98377740D01*
X215730979Y-98477826D01*
X215671753Y-98577580D01*
X215620236Y-98664117D01*
X215589620Y-98715333D01*
X215519786Y-98831750D01*
X215637898Y-98838185D01*
X215708130Y-98840012D01*
X215762745Y-98837847D01*
X215782854Y-98834319D01*
X215802618Y-98813358D01*
X215839263Y-98762437D01*
X215888347Y-98688166D01*
X215945431Y-98597157D01*
X215975593Y-98547426D01*
X216047195Y-98431871D01*
X216105722Y-98345373D01*
X216149124Y-98290761D01*
X216175348Y-98270867D01*
X216176047Y-98270833D01*
X216193372Y-98278617D01*
X216207222Y-98306519D01*
X216219571Y-98361358D01*
X216232395Y-98449959D01*
X216235787Y-98477208D01*
X216248113Y-98576370D01*
X216259996Y-98668780D01*
X216269593Y-98740221D01*
X216272856Y-98762958D01*
X216284744Y-98842333D01*
X216537055Y-98842333D01*
X216524423Y-98762958D01*
X216518973Y-98723603D01*
X216509489Y-98649616D01*
X216496638Y-98546558D01*
X216481083Y-98419993D01*
X216463490Y-98275481D01*
X216444525Y-98118585D01*
X216424852Y-97954866D01*
X216405136Y-97789885D01*
X216386042Y-97629205D01*
X216368235Y-97478387D01*
X216352381Y-97342994D01*
X216339145Y-97228586D01*
X216329191Y-97140725D01*
X216323184Y-97084974D01*
X216321667Y-97067342D01*
X216301358Y-97052459D01*
X216242974Y-97044414D01*
X216194667Y-97043167D01*
X216115232Y-97046826D01*
G37*
X216115232Y-97046826D02*
X216074673Y-97058201D01*
X216067797Y-97069625D01*
X216070410Y-97097352D01*
X216077674Y-97160876D01*
X216088840Y-97254005D01*
X216103158Y-97370550D01*
X216119881Y-97504320D01*
X216131167Y-97593500D01*
X216148921Y-97733234D01*
X216164760Y-97858074D01*
X216177947Y-97962195D01*
X216187744Y-98039768D01*
X216193414Y-98084967D01*
X216194537Y-98094227D01*
X216177562Y-98092494D01*
X216155674Y-98087340D01*
X216127706Y-98069329D01*
X216076453Y-98026444D01*
X216008086Y-97964215D01*
X215928778Y-97888172D01*
X215886160Y-97845905D01*
X215655639Y-97614667D01*
X215380361Y-97614667D01*
X215650709Y-97885615D01*
X215921056Y-98156564D01*
X215790255Y-98377740D01*
X215730979Y-98477826D01*
X215671753Y-98577580D01*
X215620236Y-98664117D01*
X215589620Y-98715333D01*
X215519786Y-98831750D01*
X215637898Y-98838185D01*
X215708130Y-98840012D01*
X215762745Y-98837847D01*
X215782854Y-98834319D01*
X215802618Y-98813358D01*
X215839263Y-98762437D01*
X215888347Y-98688166D01*
X215945431Y-98597157D01*
X215975593Y-98547426D01*
X216047195Y-98431871D01*
X216105722Y-98345373D01*
X216149124Y-98290761D01*
X216175348Y-98270867D01*
X216176047Y-98270833D01*
X216193372Y-98278617D01*
X216207222Y-98306519D01*
X216219571Y-98361358D01*
X216232395Y-98449959D01*
X216235787Y-98477208D01*
X216248113Y-98576370D01*
X216259996Y-98668780D01*
X216269593Y-98740221D01*
X216272856Y-98762958D01*
X216284744Y-98842333D01*
X216537055Y-98842333D01*
X216524423Y-98762958D01*
X216518973Y-98723603D01*
X216509489Y-98649616D01*
X216496638Y-98546558D01*
X216481083Y-98419993D01*
X216463490Y-98275481D01*
X216444525Y-98118585D01*
X216424852Y-97954866D01*
X216405136Y-97789885D01*
X216386042Y-97629205D01*
X216368235Y-97478387D01*
X216352381Y-97342994D01*
X216339145Y-97228586D01*
X216329191Y-97140725D01*
X216323184Y-97084974D01*
X216321667Y-97067342D01*
X216301358Y-97052459D01*
X216242974Y-97044414D01*
X216194667Y-97043167D01*
X216115232Y-97046826D01*
G36*
X216593078Y-97602192D02*
G01*
X216566690Y-97631029D01*
X216560175Y-97687648D01*
X216565227Y-97746069D01*
X216579720Y-97862063D01*
X216680146Y-97852413D01*
X216741005Y-97849312D01*
X216783986Y-97858992D01*
X216826328Y-97888155D01*
X216865605Y-97924507D01*
X216924532Y-97992824D01*
X216972255Y-98076491D01*
X217010885Y-98181711D01*
X217042533Y-98314683D01*
X217069309Y-98481611D01*
X217077755Y-98547831D01*
X217113399Y-98842333D01*
X217236116Y-98842333D01*
X217314768Y-98838333D01*
X217353954Y-98826026D01*
X217359453Y-98815875D01*
X217357252Y-98788655D01*
X217350729Y-98725036D01*
X217340505Y-98630660D01*
X217327203Y-98511172D01*
X217311445Y-98372214D01*
X217293851Y-98219431D01*
X217291721Y-98201082D01*
X217223369Y-97612748D01*
X217116476Y-97618999D01*
X217009584Y-97625250D01*
X217013514Y-97887000D01*
X216956209Y-97809042D01*
X216861006Y-97699536D01*
X216764992Y-97627736D01*
X216670870Y-97595500D01*
X216643081Y-97593824D01*
X216593078Y-97602192D01*
G37*
X216593078Y-97602192D02*
X216566690Y-97631029D01*
X216560175Y-97687648D01*
X216565227Y-97746069D01*
X216579720Y-97862063D01*
X216680146Y-97852413D01*
X216741005Y-97849312D01*
X216783986Y-97858992D01*
X216826328Y-97888155D01*
X216865605Y-97924507D01*
X216924532Y-97992824D01*
X216972255Y-98076491D01*
X217010885Y-98181711D01*
X217042533Y-98314683D01*
X217069309Y-98481611D01*
X217077755Y-98547831D01*
X217113399Y-98842333D01*
X217236116Y-98842333D01*
X217314768Y-98838333D01*
X217353954Y-98826026D01*
X217359453Y-98815875D01*
X217357252Y-98788655D01*
X217350729Y-98725036D01*
X217340505Y-98630660D01*
X217327203Y-98511172D01*
X217311445Y-98372214D01*
X217293851Y-98219431D01*
X217291721Y-98201082D01*
X217223369Y-97612748D01*
X217116476Y-97618999D01*
X217009584Y-97625250D01*
X217013514Y-97887000D01*
X216956209Y-97809042D01*
X216861006Y-97699536D01*
X216764992Y-97627736D01*
X216670870Y-97595500D01*
X216643081Y-97593824D01*
X216593078Y-97602192D01*
G36*
X220140030Y-97619155D02*
G01*
X220096506Y-97631566D01*
X220082569Y-97644098D01*
X220076304Y-97673345D01*
X220065447Y-97737668D01*
X220051062Y-97830186D01*
X220034214Y-97944021D01*
X220015968Y-98072293D01*
X220013056Y-98093225D01*
X219995122Y-98219160D01*
X219978732Y-98327964D01*
X219964848Y-98413762D01*
X219954430Y-98470675D01*
X219948439Y-98492825D01*
X219947800Y-98492419D01*
X219937841Y-98467624D01*
X219913937Y-98409790D01*
X219878579Y-98324891D01*
X219834256Y-98218899D01*
X219783459Y-98097788D01*
X219762782Y-98048583D01*
X219584801Y-97625250D01*
X219359084Y-97625250D01*
X219291995Y-98016833D01*
X219270446Y-98145827D01*
X219251522Y-98265219D01*
X219236437Y-98366846D01*
X219226408Y-98442543D01*
X219222683Y-98482500D01*
X219220297Y-98516235D01*
X219214025Y-98522594D01*
X219201044Y-98497748D01*
X219178531Y-98437871D01*
X219168050Y-98408417D01*
X219141500Y-98335179D01*
X219103890Y-98233862D01*
X219059488Y-98115847D01*
X219012561Y-97992517D01*
X218993463Y-97942750D01*
X218871287Y-97625250D01*
X218750060Y-97618902D01*
X218684867Y-97616800D01*
X218640860Y-97617893D01*
X218628834Y-97620859D01*
X218636710Y-97641700D01*
X218659016Y-97696770D01*
X218693771Y-97781277D01*
X218738992Y-97890429D01*
X218792698Y-98019434D01*
X218852905Y-98163498D01*
X218880960Y-98230457D01*
X219133085Y-98831750D01*
X219249475Y-98838041D01*
X219289194Y-98841430D01*
X219319223Y-98843345D01*
X219341786Y-98838757D01*
X219359104Y-98822637D01*
X219373401Y-98789956D01*
X219386899Y-98735684D01*
X219401822Y-98654792D01*
X219420392Y-98542250D01*
X219444034Y-98397833D01*
X219463758Y-98282307D01*
X219482341Y-98179509D01*
X219498222Y-98097646D01*
X219509837Y-98044923D01*
X219513804Y-98031415D01*
X219524449Y-98029754D01*
X219544712Y-98057543D01*
X219575792Y-98117143D01*
X219618886Y-98210920D01*
X219675194Y-98341237D01*
X219696286Y-98391248D01*
X219747976Y-98513339D01*
X219795192Y-98622920D01*
X219835144Y-98713667D01*
X219865037Y-98779254D01*
X219882080Y-98813353D01*
X219883729Y-98815875D01*
X219915980Y-98831695D01*
X219974824Y-98841087D01*
X220007923Y-98842333D01*
X220077863Y-98837023D01*
X220116247Y-98822301D01*
X220120612Y-98815875D01*
X220126720Y-98787631D01*
X220138591Y-98724490D01*
X220155078Y-98633153D01*
X220175031Y-98520321D01*
X220197300Y-98392695D01*
X220220736Y-98256974D01*
X220244191Y-98119861D01*
X220266513Y-97988056D01*
X220286555Y-97868260D01*
X220303167Y-97767173D01*
X220315200Y-97691496D01*
X220321504Y-97647930D01*
X220322167Y-97640746D01*
X220303712Y-97624268D01*
X220257776Y-97615309D01*
X220198501Y-97613671D01*
X220140030Y-97619155D01*
G37*
X220140030Y-97619155D02*
X220096506Y-97631566D01*
X220082569Y-97644098D01*
X220076304Y-97673345D01*
X220065447Y-97737668D01*
X220051062Y-97830186D01*
X220034214Y-97944021D01*
X220015968Y-98072293D01*
X220013056Y-98093225D01*
X219995122Y-98219160D01*
X219978732Y-98327964D01*
X219964848Y-98413762D01*
X219954430Y-98470675D01*
X219948439Y-98492825D01*
X219947800Y-98492419D01*
X219937841Y-98467624D01*
X219913937Y-98409790D01*
X219878579Y-98324891D01*
X219834256Y-98218899D01*
X219783459Y-98097788D01*
X219762782Y-98048583D01*
X219584801Y-97625250D01*
X219359084Y-97625250D01*
X219291995Y-98016833D01*
X219270446Y-98145827D01*
X219251522Y-98265219D01*
X219236437Y-98366846D01*
X219226408Y-98442543D01*
X219222683Y-98482500D01*
X219220297Y-98516235D01*
X219214025Y-98522594D01*
X219201044Y-98497748D01*
X219178531Y-98437871D01*
X219168050Y-98408417D01*
X219141500Y-98335179D01*
X219103890Y-98233862D01*
X219059488Y-98115847D01*
X219012561Y-97992517D01*
X218993463Y-97942750D01*
X218871287Y-97625250D01*
X218750060Y-97618902D01*
X218684867Y-97616800D01*
X218640860Y-97617893D01*
X218628834Y-97620859D01*
X218636710Y-97641700D01*
X218659016Y-97696770D01*
X218693771Y-97781277D01*
X218738992Y-97890429D01*
X218792698Y-98019434D01*
X218852905Y-98163498D01*
X218880960Y-98230457D01*
X219133085Y-98831750D01*
X219249475Y-98838041D01*
X219289194Y-98841430D01*
X219319223Y-98843345D01*
X219341786Y-98838757D01*
X219359104Y-98822637D01*
X219373401Y-98789956D01*
X219386899Y-98735684D01*
X219401822Y-98654792D01*
X219420392Y-98542250D01*
X219444034Y-98397833D01*
X219463758Y-98282307D01*
X219482341Y-98179509D01*
X219498222Y-98097646D01*
X219509837Y-98044923D01*
X219513804Y-98031415D01*
X219524449Y-98029754D01*
X219544712Y-98057543D01*
X219575792Y-98117143D01*
X219618886Y-98210920D01*
X219675194Y-98341237D01*
X219696286Y-98391248D01*
X219747976Y-98513339D01*
X219795192Y-98622920D01*
X219835144Y-98713667D01*
X219865037Y-98779254D01*
X219882080Y-98813353D01*
X219883729Y-98815875D01*
X219915980Y-98831695D01*
X219974824Y-98841087D01*
X220007923Y-98842333D01*
X220077863Y-98837023D01*
X220116247Y-98822301D01*
X220120612Y-98815875D01*
X220126720Y-98787631D01*
X220138591Y-98724490D01*
X220155078Y-98633153D01*
X220175031Y-98520321D01*
X220197300Y-98392695D01*
X220220736Y-98256974D01*
X220244191Y-98119861D01*
X220266513Y-97988056D01*
X220286555Y-97868260D01*
X220303167Y-97767173D01*
X220315200Y-97691496D01*
X220321504Y-97647930D01*
X220322167Y-97640746D01*
X220303712Y-97624268D01*
X220257776Y-97615309D01*
X220198501Y-97613671D01*
X220140030Y-97619155D01*
G36*
X222216908Y-97044182D02*
G01*
X222179758Y-97049659D01*
X222166994Y-97063240D01*
X222169647Y-97088567D01*
X222170160Y-97090791D01*
X222175026Y-97121710D01*
X222184254Y-97189914D01*
X222197247Y-97290649D01*
X222213409Y-97419156D01*
X222232144Y-97570681D01*
X222252855Y-97740468D01*
X222274947Y-97923759D01*
X222282914Y-97990375D01*
X222384586Y-98842333D01*
X222506960Y-98842333D01*
X222576558Y-98840552D01*
X222613595Y-98833079D01*
X222627768Y-98816720D01*
X222629334Y-98802019D01*
X222626860Y-98772764D01*
X222619887Y-98707125D01*
X222609088Y-98610738D01*
X222595138Y-98489235D01*
X222578708Y-98348249D01*
X222560472Y-98193414D01*
X222541104Y-98030364D01*
X222521277Y-97864732D01*
X222501664Y-97702152D01*
X222482939Y-97548256D01*
X222465775Y-97408679D01*
X222450845Y-97289053D01*
X222438822Y-97195013D01*
X222430380Y-97132191D01*
X222427336Y-97111958D01*
X222419287Y-97074028D01*
X222404226Y-97053469D01*
X222371331Y-97044961D01*
X222309779Y-97043183D01*
X222287413Y-97043167D01*
X222216908Y-97044182D01*
G37*
X222216908Y-97044182D02*
X222179758Y-97049659D01*
X222166994Y-97063240D01*
X222169647Y-97088567D01*
X222170160Y-97090791D01*
X222175026Y-97121710D01*
X222184254Y-97189914D01*
X222197247Y-97290649D01*
X222213409Y-97419156D01*
X222232144Y-97570681D01*
X222252855Y-97740468D01*
X222274947Y-97923759D01*
X222282914Y-97990375D01*
X222384586Y-98842333D01*
X222506960Y-98842333D01*
X222576558Y-98840552D01*
X222613595Y-98833079D01*
X222627768Y-98816720D01*
X222629334Y-98802019D01*
X222626860Y-98772764D01*
X222619887Y-98707125D01*
X222609088Y-98610738D01*
X222595138Y-98489235D01*
X222578708Y-98348249D01*
X222560472Y-98193414D01*
X222541104Y-98030364D01*
X222521277Y-97864732D01*
X222501664Y-97702152D01*
X222482939Y-97548256D01*
X222465775Y-97408679D01*
X222450845Y-97289053D01*
X222438822Y-97195013D01*
X222430380Y-97132191D01*
X222427336Y-97111958D01*
X222419287Y-97074028D01*
X222404226Y-97053469D01*
X222371331Y-97044961D01*
X222309779Y-97043183D01*
X222287413Y-97043167D01*
X222216908Y-97044182D01*
G36*
X225334357Y-97045592D02*
G01*
X225288952Y-97051892D01*
X225275586Y-97059042D01*
X225278127Y-97084393D01*
X225284893Y-97144447D01*
X225295036Y-97231879D01*
X225307709Y-97339362D01*
X225317818Y-97424167D01*
X225331768Y-97541673D01*
X225343756Y-97644545D01*
X225352940Y-97725401D01*
X225358477Y-97776854D01*
X225359733Y-97791484D01*
X225345881Y-97789741D01*
X225310480Y-97765148D01*
X225285162Y-97743989D01*
X225161181Y-97654585D01*
X225037054Y-97605323D01*
X224934854Y-97593500D01*
X224865914Y-97596950D01*
X224817630Y-97612835D01*
X224770404Y-97649456D01*
X224745475Y-97673711D01*
X224708190Y-97715009D01*
X224680219Y-97758429D01*
X224661085Y-97809570D01*
X224650310Y-97874027D01*
X224647415Y-97957399D01*
X224651922Y-98065281D01*
X224663354Y-98203272D01*
X224681232Y-98376967D01*
X224683572Y-98398498D01*
X224731983Y-98842333D01*
X224998942Y-98842333D01*
X224988529Y-98784125D01*
X224980176Y-98729488D01*
X224968959Y-98645079D01*
X224955876Y-98539689D01*
X224941930Y-98422108D01*
X224928119Y-98301124D01*
X224915444Y-98185528D01*
X224904906Y-98084109D01*
X224897504Y-98005658D01*
X224894239Y-97958963D01*
X224894167Y-97954913D01*
X224912568Y-97882540D01*
X224960974Y-97829235D01*
X225029191Y-97805526D01*
X225039158Y-97805167D01*
X225116966Y-97824877D01*
X225196306Y-97879259D01*
X225271994Y-97961184D01*
X225338847Y-98063526D01*
X225391682Y-98179159D01*
X225425315Y-98300955D01*
X225431722Y-98344917D01*
X225441192Y-98428449D01*
X225453675Y-98533526D01*
X225466738Y-98639711D01*
X225468932Y-98657125D01*
X225492372Y-98842333D01*
X225616603Y-98842333D01*
X225682753Y-98839299D01*
X225727816Y-98831428D01*
X225740834Y-98822709D01*
X225738397Y-98798084D01*
X225731524Y-98736942D01*
X225720875Y-98644793D01*
X225707105Y-98527146D01*
X225690875Y-98389510D01*
X225672841Y-98237394D01*
X225653662Y-98076308D01*
X225633996Y-97911760D01*
X225614500Y-97749260D01*
X225595834Y-97594316D01*
X225578654Y-97452439D01*
X225563619Y-97329137D01*
X225551387Y-97229920D01*
X225542616Y-97160297D01*
X225539027Y-97133125D01*
X225526573Y-97043167D01*
X225400870Y-97043167D01*
X225334357Y-97045592D01*
G37*
X225334357Y-97045592D02*
X225288952Y-97051892D01*
X225275586Y-97059042D01*
X225278127Y-97084393D01*
X225284893Y-97144447D01*
X225295036Y-97231879D01*
X225307709Y-97339362D01*
X225317818Y-97424167D01*
X225331768Y-97541673D01*
X225343756Y-97644545D01*
X225352940Y-97725401D01*
X225358477Y-97776854D01*
X225359733Y-97791484D01*
X225345881Y-97789741D01*
X225310480Y-97765148D01*
X225285162Y-97743989D01*
X225161181Y-97654585D01*
X225037054Y-97605323D01*
X224934854Y-97593500D01*
X224865914Y-97596950D01*
X224817630Y-97612835D01*
X224770404Y-97649456D01*
X224745475Y-97673711D01*
X224708190Y-97715009D01*
X224680219Y-97758429D01*
X224661085Y-97809570D01*
X224650310Y-97874027D01*
X224647415Y-97957399D01*
X224651922Y-98065281D01*
X224663354Y-98203272D01*
X224681232Y-98376967D01*
X224683572Y-98398498D01*
X224731983Y-98842333D01*
X224998942Y-98842333D01*
X224988529Y-98784125D01*
X224980176Y-98729488D01*
X224968959Y-98645079D01*
X224955876Y-98539689D01*
X224941930Y-98422108D01*
X224928119Y-98301124D01*
X224915444Y-98185528D01*
X224904906Y-98084109D01*
X224897504Y-98005658D01*
X224894239Y-97958963D01*
X224894167Y-97954913D01*
X224912568Y-97882540D01*
X224960974Y-97829235D01*
X225029191Y-97805526D01*
X225039158Y-97805167D01*
X225116966Y-97824877D01*
X225196306Y-97879259D01*
X225271994Y-97961184D01*
X225338847Y-98063526D01*
X225391682Y-98179159D01*
X225425315Y-98300955D01*
X225431722Y-98344917D01*
X225441192Y-98428449D01*
X225453675Y-98533526D01*
X225466738Y-98639711D01*
X225468932Y-98657125D01*
X225492372Y-98842333D01*
X225616603Y-98842333D01*
X225682753Y-98839299D01*
X225727816Y-98831428D01*
X225740834Y-98822709D01*
X225738397Y-98798084D01*
X225731524Y-98736942D01*
X225720875Y-98644793D01*
X225707105Y-98527146D01*
X225690875Y-98389510D01*
X225672841Y-98237394D01*
X225653662Y-98076308D01*
X225633996Y-97911760D01*
X225614500Y-97749260D01*
X225595834Y-97594316D01*
X225578654Y-97452439D01*
X225563619Y-97329137D01*
X225551387Y-97229920D01*
X225542616Y-97160297D01*
X225539027Y-97133125D01*
X225526573Y-97043167D01*
X225400870Y-97043167D01*
X225334357Y-97045592D01*
G36*
X214770407Y-97601114D02*
G01*
X214655652Y-97627344D01*
X214563078Y-97673326D01*
X214542266Y-97690018D01*
X214510667Y-97723168D01*
X214506216Y-97750900D01*
X214530218Y-97787102D01*
X214553835Y-97813301D01*
X214606336Y-97869951D01*
X214690575Y-97826975D01*
X214792494Y-97791082D01*
X214891169Y-97784939D01*
X214977971Y-97806782D01*
X215044270Y-97854851D01*
X215074732Y-97905410D01*
X215082095Y-97962382D01*
X215055954Y-98013597D01*
X214993445Y-98062251D01*
X214891708Y-98111539D01*
X214889112Y-98112612D01*
X214755405Y-98179288D01*
X214662092Y-98253065D01*
X214607608Y-98335417D01*
X214592567Y-98391988D01*
X214597195Y-98508256D01*
X214638163Y-98621392D01*
X214709928Y-98722108D01*
X214806946Y-98801115D01*
X214850402Y-98824024D01*
X214940196Y-98850048D01*
X215050697Y-98861294D01*
X215163698Y-98857520D01*
X215260992Y-98838484D01*
X215284349Y-98829782D01*
X215348124Y-98795571D01*
X215402581Y-98756044D01*
X215405347Y-98753505D01*
X215452413Y-98709289D01*
X215409349Y-98648811D01*
X215362888Y-98602402D01*
X215309898Y-98591620D01*
X215242227Y-98615696D01*
X215216220Y-98630587D01*
X215130548Y-98662915D01*
X215030234Y-98672140D01*
X214936585Y-98656947D01*
X214916510Y-98649087D01*
X214861385Y-98602990D01*
X214829288Y-98534481D01*
X214827122Y-98460290D01*
X214831761Y-98443670D01*
X214852946Y-98408825D01*
X214895405Y-98375636D01*
X214967083Y-98338571D01*
X215009775Y-98319672D01*
X215131999Y-98261734D01*
X215217805Y-98205636D01*
X215272282Y-98144898D01*
X215300523Y-98073042D01*
X215307615Y-97983587D01*
X215305771Y-97942853D01*
X215279688Y-97846272D01*
X215220613Y-97754157D01*
X215137512Y-97676594D01*
X215039352Y-97623672D01*
X215015204Y-97615939D01*
X214894528Y-97596644D01*
X214770407Y-97601114D01*
G37*
X214770407Y-97601114D02*
X214655652Y-97627344D01*
X214563078Y-97673326D01*
X214542266Y-97690018D01*
X214510667Y-97723168D01*
X214506216Y-97750900D01*
X214530218Y-97787102D01*
X214553835Y-97813301D01*
X214606336Y-97869951D01*
X214690575Y-97826975D01*
X214792494Y-97791082D01*
X214891169Y-97784939D01*
X214977971Y-97806782D01*
X215044270Y-97854851D01*
X215074732Y-97905410D01*
X215082095Y-97962382D01*
X215055954Y-98013597D01*
X214993445Y-98062251D01*
X214891708Y-98111539D01*
X214889112Y-98112612D01*
X214755405Y-98179288D01*
X214662092Y-98253065D01*
X214607608Y-98335417D01*
X214592567Y-98391988D01*
X214597195Y-98508256D01*
X214638163Y-98621392D01*
X214709928Y-98722108D01*
X214806946Y-98801115D01*
X214850402Y-98824024D01*
X214940196Y-98850048D01*
X215050697Y-98861294D01*
X215163698Y-98857520D01*
X215260992Y-98838484D01*
X215284349Y-98829782D01*
X215348124Y-98795571D01*
X215402581Y-98756044D01*
X215405347Y-98753505D01*
X215452413Y-98709289D01*
X215409349Y-98648811D01*
X215362888Y-98602402D01*
X215309898Y-98591620D01*
X215242227Y-98615696D01*
X215216220Y-98630587D01*
X215130548Y-98662915D01*
X215030234Y-98672140D01*
X214936585Y-98656947D01*
X214916510Y-98649087D01*
X214861385Y-98602990D01*
X214829288Y-98534481D01*
X214827122Y-98460290D01*
X214831761Y-98443670D01*
X214852946Y-98408825D01*
X214895405Y-98375636D01*
X214967083Y-98338571D01*
X215009775Y-98319672D01*
X215131999Y-98261734D01*
X215217805Y-98205636D01*
X215272282Y-98144898D01*
X215300523Y-98073042D01*
X215307615Y-97983587D01*
X215305771Y-97942853D01*
X215279688Y-97846272D01*
X215220613Y-97754157D01*
X215137512Y-97676594D01*
X215039352Y-97623672D01*
X215015204Y-97615939D01*
X214894528Y-97596644D01*
X214770407Y-97601114D01*
G36*
X217868555Y-97601909D02*
G01*
X217758197Y-97640712D01*
X217662084Y-97708790D01*
X217585632Y-97806433D01*
X217539558Y-97914884D01*
X217510775Y-98074664D01*
X217516337Y-98233162D01*
X217552779Y-98385027D01*
X217616640Y-98524905D01*
X217704455Y-98647441D01*
X217812762Y-98747284D01*
X217938097Y-98819078D01*
X218076996Y-98857472D01*
X218152584Y-98862465D01*
X218233793Y-98857430D01*
X218307546Y-98845142D01*
X218343084Y-98834128D01*
X218413091Y-98788438D01*
X218485372Y-98717354D01*
X218547403Y-98635148D01*
X218586415Y-98556842D01*
X218600160Y-98484393D01*
X218605573Y-98381664D01*
X218604502Y-98329243D01*
X218355157Y-98329243D01*
X218350887Y-98439590D01*
X218330233Y-98527984D01*
X218322963Y-98543977D01*
X218264774Y-98617651D01*
X218186104Y-98654664D01*
X218088252Y-98654652D01*
X218007431Y-98631812D01*
X217949404Y-98592573D01*
X217890294Y-98524169D01*
X217839299Y-98438500D01*
X217817040Y-98385517D01*
X217776770Y-98234301D01*
X217765529Y-98095677D01*
X217783069Y-97975664D01*
X217829142Y-97880280D01*
X217838247Y-97868767D01*
X217880915Y-97827216D01*
X217928019Y-97808862D01*
X217987925Y-97805167D01*
X218094032Y-97821471D01*
X218182190Y-97872397D01*
X218256915Y-97960960D01*
X218280197Y-98000427D01*
X218318758Y-98096268D01*
X218344096Y-98210338D01*
X218355157Y-98329243D01*
X218604502Y-98329243D01*
X218603742Y-98292099D01*
X218596164Y-98188312D01*
X218582238Y-98108862D01*
X218557688Y-98035804D01*
X218526412Y-97967638D01*
X218444369Y-97836875D01*
X218344062Y-97733650D01*
X218230909Y-97658251D01*
X218110329Y-97610968D01*
X217987738Y-97592091D01*
X217868555Y-97601909D01*
G37*
X217868555Y-97601909D02*
X217758197Y-97640712D01*
X217662084Y-97708790D01*
X217585632Y-97806433D01*
X217539558Y-97914884D01*
X217510775Y-98074664D01*
X217516337Y-98233162D01*
X217552779Y-98385027D01*
X217616640Y-98524905D01*
X217704455Y-98647441D01*
X217812762Y-98747284D01*
X217938097Y-98819078D01*
X218076996Y-98857472D01*
X218152584Y-98862465D01*
X218233793Y-98857430D01*
X218307546Y-98845142D01*
X218343084Y-98834128D01*
X218413091Y-98788438D01*
X218485372Y-98717354D01*
X218547403Y-98635148D01*
X218586415Y-98556842D01*
X218600160Y-98484393D01*
X218605573Y-98381664D01*
X218604502Y-98329243D01*
X218355157Y-98329243D01*
X218350887Y-98439590D01*
X218330233Y-98527984D01*
X218322963Y-98543977D01*
X218264774Y-98617651D01*
X218186104Y-98654664D01*
X218088252Y-98654652D01*
X218007431Y-98631812D01*
X217949404Y-98592573D01*
X217890294Y-98524169D01*
X217839299Y-98438500D01*
X217817040Y-98385517D01*
X217776770Y-98234301D01*
X217765529Y-98095677D01*
X217783069Y-97975664D01*
X217829142Y-97880280D01*
X217838247Y-97868767D01*
X217880915Y-97827216D01*
X217928019Y-97808862D01*
X217987925Y-97805167D01*
X218094032Y-97821471D01*
X218182190Y-97872397D01*
X218256915Y-97960960D01*
X218280197Y-98000427D01*
X218318758Y-98096268D01*
X218344096Y-98210338D01*
X218355157Y-98329243D01*
X218604502Y-98329243D01*
X218603742Y-98292099D01*
X218596164Y-98188312D01*
X218582238Y-98108862D01*
X218557688Y-98035804D01*
X218526412Y-97967638D01*
X218444369Y-97836875D01*
X218344062Y-97733650D01*
X218230909Y-97658251D01*
X218110329Y-97610968D01*
X217987738Y-97592091D01*
X217868555Y-97601909D01*
G36*
X220626360Y-98552523D02*
G01*
X220569699Y-98589256D01*
X220554554Y-98610335D01*
X220533708Y-98684063D01*
X220545402Y-98752860D01*
X220582027Y-98810424D01*
X220635973Y-98850447D01*
X220699632Y-98866626D01*
X220765395Y-98852655D01*
X220809000Y-98821167D01*
X220847281Y-98756239D01*
X220852300Y-98681842D01*
X220826271Y-98611609D01*
X220771406Y-98559172D01*
X220766002Y-98556239D01*
X220697425Y-98540077D01*
X220626360Y-98552523D01*
G37*
X220626360Y-98552523D02*
X220569699Y-98589256D01*
X220554554Y-98610335D01*
X220533708Y-98684063D01*
X220545402Y-98752860D01*
X220582027Y-98810424D01*
X220635973Y-98850447D01*
X220699632Y-98866626D01*
X220765395Y-98852655D01*
X220809000Y-98821167D01*
X220847281Y-98756239D01*
X220852300Y-98681842D01*
X220826271Y-98611609D01*
X220771406Y-98559172D01*
X220766002Y-98556239D01*
X220697425Y-98540077D01*
X220626360Y-98552523D01*
G36*
X221174481Y-97605139D02*
G01*
X221091714Y-97620434D01*
X221032044Y-97641014D01*
X221008710Y-97659222D01*
X221008256Y-97684062D01*
X221012416Y-97745363D01*
X221020658Y-97837569D01*
X221032446Y-97955120D01*
X221047249Y-98092461D01*
X221064532Y-98244032D01*
X221066354Y-98259569D01*
X221134864Y-98842333D01*
X221234251Y-98842333D01*
X221299027Y-98838112D01*
X221336692Y-98819595D01*
X221354390Y-98778004D01*
X221359266Y-98704558D01*
X221359334Y-98688625D01*
X221359334Y-98601880D01*
X221435691Y-98691087D01*
X221496182Y-98751458D01*
X221563385Y-98803815D01*
X221593598Y-98821897D01*
X221674276Y-98849174D01*
X221768656Y-98861489D01*
X221855974Y-98856966D01*
X221888500Y-98848551D01*
X221970446Y-98796716D01*
X222034259Y-98710359D01*
X222077048Y-98594454D01*
X222093100Y-98496732D01*
X222091249Y-98383743D01*
X221834946Y-98383743D01*
X221834202Y-98468450D01*
X221829057Y-98522553D01*
X221816339Y-98557760D01*
X221792878Y-98585783D01*
X221776195Y-98600701D01*
X221707750Y-98643110D01*
X221639946Y-98646354D01*
X221571633Y-98617090D01*
X221505477Y-98558524D01*
X221441234Y-98466357D01*
X221382839Y-98349273D01*
X221334222Y-98215957D01*
X221299317Y-98075091D01*
X221286169Y-97986686D01*
X221276799Y-97908976D01*
X221267300Y-97846224D01*
X221259739Y-97812061D01*
X221268330Y-97792124D01*
X221307225Y-97783816D01*
X221366217Y-97786485D01*
X221435098Y-97799480D01*
X221503660Y-97822149D01*
X221518066Y-97828547D01*
X221640876Y-97908622D01*
X221735448Y-98018365D01*
X221799730Y-98154183D01*
X221831671Y-98312483D01*
X221834946Y-98383743D01*
X222091249Y-98383743D01*
X222090064Y-98311508D01*
X222047870Y-98135238D01*
X221969511Y-97973487D01*
X221857980Y-97831819D01*
X221716273Y-97715799D01*
X221652859Y-97678377D01*
X221559141Y-97634423D01*
X221471686Y-97609845D01*
X221366455Y-97597899D01*
X221365879Y-97597862D01*
X221269489Y-97596993D01*
X221174481Y-97605139D01*
G37*
X221174481Y-97605139D02*
X221091714Y-97620434D01*
X221032044Y-97641014D01*
X221008710Y-97659222D01*
X221008256Y-97684062D01*
X221012416Y-97745363D01*
X221020658Y-97837569D01*
X221032446Y-97955120D01*
X221047249Y-98092461D01*
X221064532Y-98244032D01*
X221066354Y-98259569D01*
X221134864Y-98842333D01*
X221234251Y-98842333D01*
X221299027Y-98838112D01*
X221336692Y-98819595D01*
X221354390Y-98778004D01*
X221359266Y-98704558D01*
X221359334Y-98688625D01*
X221359334Y-98601880D01*
X221435691Y-98691087D01*
X221496182Y-98751458D01*
X221563385Y-98803815D01*
X221593598Y-98821897D01*
X221674276Y-98849174D01*
X221768656Y-98861489D01*
X221855974Y-98856966D01*
X221888500Y-98848551D01*
X221970446Y-98796716D01*
X222034259Y-98710359D01*
X222077048Y-98594454D01*
X222093100Y-98496732D01*
X222091249Y-98383743D01*
X221834946Y-98383743D01*
X221834202Y-98468450D01*
X221829057Y-98522553D01*
X221816339Y-98557760D01*
X221792878Y-98585783D01*
X221776195Y-98600701D01*
X221707750Y-98643110D01*
X221639946Y-98646354D01*
X221571633Y-98617090D01*
X221505477Y-98558524D01*
X221441234Y-98466357D01*
X221382839Y-98349273D01*
X221334222Y-98215957D01*
X221299317Y-98075091D01*
X221286169Y-97986686D01*
X221276799Y-97908976D01*
X221267300Y-97846224D01*
X221259739Y-97812061D01*
X221268330Y-97792124D01*
X221307225Y-97783816D01*
X221366217Y-97786485D01*
X221435098Y-97799480D01*
X221503660Y-97822149D01*
X221518066Y-97828547D01*
X221640876Y-97908622D01*
X221735448Y-98018365D01*
X221799730Y-98154183D01*
X221831671Y-98312483D01*
X221834946Y-98383743D01*
X222091249Y-98383743D01*
X222090064Y-98311508D01*
X222047870Y-98135238D01*
X221969511Y-97973487D01*
X221857980Y-97831819D01*
X221716273Y-97715799D01*
X221652859Y-97678377D01*
X221559141Y-97634423D01*
X221471686Y-97609845D01*
X221366455Y-97597899D01*
X221365879Y-97597862D01*
X221269489Y-97596993D01*
X221174481Y-97605139D01*
G36*
X223179631Y-97601570D02*
G01*
X223059061Y-97636539D01*
X222953263Y-97701999D01*
X222869043Y-97797484D01*
X222848878Y-97832152D01*
X222803670Y-97961522D01*
X222789855Y-98107664D01*
X222805368Y-98261411D01*
X222848146Y-98413596D01*
X222916126Y-98555053D01*
X223007244Y-98676615D01*
X223047836Y-98715975D01*
X223166552Y-98796263D01*
X223300235Y-98845991D01*
X223438811Y-98863320D01*
X223572202Y-98846407D01*
X223636178Y-98823467D01*
X223726775Y-98761352D01*
X223804564Y-98667885D01*
X223861749Y-98553747D01*
X223881227Y-98487678D01*
X223890181Y-98390526D01*
X223640797Y-98390526D01*
X223620869Y-98497429D01*
X223578642Y-98580531D01*
X223516648Y-98636261D01*
X223437421Y-98661045D01*
X223343492Y-98651312D01*
X223253750Y-98613101D01*
X223200116Y-98565321D01*
X223145220Y-98485121D01*
X223126750Y-98450530D01*
X223092531Y-98374653D01*
X223071979Y-98304581D01*
X223061110Y-98222813D01*
X223056935Y-98143833D01*
X223059622Y-98014982D01*
X223079472Y-97920928D01*
X223118607Y-97856898D01*
X223179146Y-97818119D01*
X223205319Y-97809750D01*
X223310863Y-97801622D01*
X223406744Y-97833308D01*
X223490521Y-97902910D01*
X223559754Y-98008530D01*
X223603628Y-98119604D01*
X223635894Y-98263394D01*
X223640797Y-98390526D01*
X223890181Y-98390526D01*
X223894855Y-98339827D01*
X223875983Y-98181430D01*
X223828061Y-98024299D01*
X223754535Y-97880250D01*
X223673497Y-97775881D01*
X223561904Y-97684246D01*
X223437858Y-97624959D01*
X223308165Y-97597555D01*
X223179631Y-97601570D01*
G37*
X223179631Y-97601570D02*
X223059061Y-97636539D01*
X222953263Y-97701999D01*
X222869043Y-97797484D01*
X222848878Y-97832152D01*
X222803670Y-97961522D01*
X222789855Y-98107664D01*
X222805368Y-98261411D01*
X222848146Y-98413596D01*
X222916126Y-98555053D01*
X223007244Y-98676615D01*
X223047836Y-98715975D01*
X223166552Y-98796263D01*
X223300235Y-98845991D01*
X223438811Y-98863320D01*
X223572202Y-98846407D01*
X223636178Y-98823467D01*
X223726775Y-98761352D01*
X223804564Y-98667885D01*
X223861749Y-98553747D01*
X223881227Y-98487678D01*
X223890181Y-98390526D01*
X223640797Y-98390526D01*
X223620869Y-98497429D01*
X223578642Y-98580531D01*
X223516648Y-98636261D01*
X223437421Y-98661045D01*
X223343492Y-98651312D01*
X223253750Y-98613101D01*
X223200116Y-98565321D01*
X223145220Y-98485121D01*
X223126750Y-98450530D01*
X223092531Y-98374653D01*
X223071979Y-98304581D01*
X223061110Y-98222813D01*
X223056935Y-98143833D01*
X223059622Y-98014982D01*
X223079472Y-97920928D01*
X223118607Y-97856898D01*
X223179146Y-97818119D01*
X223205319Y-97809750D01*
X223310863Y-97801622D01*
X223406744Y-97833308D01*
X223490521Y-97902910D01*
X223559754Y-98008530D01*
X223603628Y-98119604D01*
X223635894Y-98263394D01*
X223640797Y-98390526D01*
X223890181Y-98390526D01*
X223894855Y-98339827D01*
X223875983Y-98181430D01*
X223828061Y-98024299D01*
X223754535Y-97880250D01*
X223673497Y-97775881D01*
X223561904Y-97684246D01*
X223437858Y-97624959D01*
X223308165Y-97597555D01*
X223179631Y-97601570D01*
G36*
X226201866Y-97615598D02*
G01*
X226092994Y-97666279D01*
X226006068Y-97748101D01*
X225942467Y-97855204D01*
X225903570Y-97981729D01*
X225890757Y-98121816D01*
X225905405Y-98269605D01*
X225948893Y-98419235D01*
X225991206Y-98510850D01*
X226050758Y-98599644D01*
X226130203Y-98687483D01*
X226218433Y-98764206D01*
X226304340Y-98819649D01*
X226348915Y-98838109D01*
X226444111Y-98856492D01*
X226550675Y-98861627D01*
X226651090Y-98853699D01*
X226725084Y-98834128D01*
X226799514Y-98785282D01*
X226873291Y-98710106D01*
X226934334Y-98623033D01*
X226969673Y-98541908D01*
X226980686Y-98474530D01*
X226986372Y-98383091D01*
X226985687Y-98289236D01*
X226731144Y-98289236D01*
X226730415Y-98424940D01*
X226709491Y-98526493D01*
X226667014Y-98597658D01*
X226604168Y-98641110D01*
X226551608Y-98663082D01*
X226517164Y-98670013D01*
X226479771Y-98662892D01*
X226437201Y-98648953D01*
X226338106Y-98594205D01*
X226256220Y-98504691D01*
X226194659Y-98385563D01*
X226156538Y-98241973D01*
X226147828Y-98170347D01*
X226148723Y-98064058D01*
X226166386Y-97965159D01*
X226197660Y-97884367D01*
X226239385Y-97832397D01*
X226249285Y-97826092D01*
X226319404Y-97807154D01*
X226406928Y-97808301D01*
X226492837Y-97828041D01*
X226536356Y-97848595D01*
X226609716Y-97916757D01*
X226668944Y-98018020D01*
X226710563Y-98144511D01*
X226731093Y-98288360D01*
X226731144Y-98289236D01*
X226985687Y-98289236D01*
X226985660Y-98285651D01*
X226985295Y-98278146D01*
X226959364Y-98107230D01*
X226903005Y-97954932D01*
X226820379Y-97824772D01*
X226715647Y-97720268D01*
X226592970Y-97644940D01*
X226456510Y-97602307D01*
X226310427Y-97595888D01*
X226201866Y-97615598D01*
G37*
X226201866Y-97615598D02*
X226092994Y-97666279D01*
X226006068Y-97748101D01*
X225942467Y-97855204D01*
X225903570Y-97981729D01*
X225890757Y-98121816D01*
X225905405Y-98269605D01*
X225948893Y-98419235D01*
X225991206Y-98510850D01*
X226050758Y-98599644D01*
X226130203Y-98687483D01*
X226218433Y-98764206D01*
X226304340Y-98819649D01*
X226348915Y-98838109D01*
X226444111Y-98856492D01*
X226550675Y-98861627D01*
X226651090Y-98853699D01*
X226725084Y-98834128D01*
X226799514Y-98785282D01*
X226873291Y-98710106D01*
X226934334Y-98623033D01*
X226969673Y-98541908D01*
X226980686Y-98474530D01*
X226986372Y-98383091D01*
X226985687Y-98289236D01*
X226731144Y-98289236D01*
X226730415Y-98424940D01*
X226709491Y-98526493D01*
X226667014Y-98597658D01*
X226604168Y-98641110D01*
X226551608Y-98663082D01*
X226517164Y-98670013D01*
X226479771Y-98662892D01*
X226437201Y-98648953D01*
X226338106Y-98594205D01*
X226256220Y-98504691D01*
X226194659Y-98385563D01*
X226156538Y-98241973D01*
X226147828Y-98170347D01*
X226148723Y-98064058D01*
X226166386Y-97965159D01*
X226197660Y-97884367D01*
X226239385Y-97832397D01*
X226249285Y-97826092D01*
X226319404Y-97807154D01*
X226406928Y-97808301D01*
X226492837Y-97828041D01*
X226536356Y-97848595D01*
X226609716Y-97916757D01*
X226668944Y-98018020D01*
X226710563Y-98144511D01*
X226731093Y-98288360D01*
X226731144Y-98289236D01*
X226985687Y-98289236D01*
X226985660Y-98285651D01*
X226985295Y-98278146D01*
X226959364Y-98107230D01*
X226903005Y-97954932D01*
X226820379Y-97824772D01*
X226715647Y-97720268D01*
X226592970Y-97644940D01*
X226456510Y-97602307D01*
X226310427Y-97595888D01*
X226201866Y-97615598D01*
G36*
X227404458Y-97601579D02*
G01*
X227308589Y-97641686D01*
X227229150Y-97715499D01*
X227194937Y-97769803D01*
X227155033Y-97887787D01*
X227141321Y-98029163D01*
X227153012Y-98184705D01*
X227189315Y-98345186D01*
X227249439Y-98501381D01*
X227259346Y-98521652D01*
X227319278Y-98615568D01*
X227399178Y-98706244D01*
X227487745Y-98782881D01*
X227573676Y-98834678D01*
X227596021Y-98843358D01*
X227686516Y-98859785D01*
X227788347Y-98857989D01*
X227884613Y-98839766D01*
X227958413Y-98806910D01*
X227961735Y-98804529D01*
X228022325Y-98759733D01*
X228047443Y-98975658D01*
X228060865Y-99091030D01*
X228072055Y-99170953D01*
X228084606Y-99221910D01*
X228102111Y-99250383D01*
X228128162Y-99262853D01*
X228166353Y-99265804D01*
X228208177Y-99265667D01*
X228274535Y-99264050D01*
X228308908Y-99256354D01*
X228321608Y-99238306D01*
X228323124Y-99218042D01*
X228320635Y-99187170D01*
X228313663Y-99120264D01*
X228302919Y-99023299D01*
X228289117Y-98902254D01*
X228272968Y-98763106D01*
X228255184Y-98611834D01*
X228240547Y-98488649D01*
X227988476Y-98488649D01*
X227988128Y-98550948D01*
X227971439Y-98591912D01*
X227934933Y-98621517D01*
X227889259Y-98643665D01*
X227805279Y-98668759D01*
X227727821Y-98662459D01*
X227643815Y-98625375D01*
X227593146Y-98590026D01*
X227550026Y-98541411D01*
X227505950Y-98468819D01*
X227480871Y-98420134D01*
X227440774Y-98335419D01*
X227417234Y-98269262D01*
X227405929Y-98203394D01*
X227402538Y-98119546D01*
X227402417Y-98088521D01*
X227403764Y-97999462D01*
X227409546Y-97941052D01*
X227422376Y-97901645D01*
X227444868Y-97869597D01*
X227453732Y-97859845D01*
X227521462Y-97814489D01*
X227599259Y-97807527D01*
X227681729Y-97837943D01*
X227763481Y-97904721D01*
X227778054Y-97920932D01*
X227834402Y-98003649D01*
X227889105Y-98113843D01*
X227936059Y-98236891D01*
X227969161Y-98358173D01*
X227975962Y-98395044D01*
X227988476Y-98488649D01*
X228240547Y-98488649D01*
X228236478Y-98454414D01*
X228217562Y-98296824D01*
X228199148Y-98145042D01*
X228181949Y-98005046D01*
X228166677Y-97882813D01*
X228154044Y-97784321D01*
X228144762Y-97715547D01*
X228141409Y-97692965D01*
X228128582Y-97612514D01*
X227931584Y-97625250D01*
X227925184Y-97748680D01*
X227918785Y-97872110D01*
X227834988Y-97776911D01*
X227732022Y-97682844D01*
X227622037Y-97622223D01*
X227510895Y-97595113D01*
X227404458Y-97601579D01*
G37*
X227404458Y-97601579D02*
X227308589Y-97641686D01*
X227229150Y-97715499D01*
X227194937Y-97769803D01*
X227155033Y-97887787D01*
X227141321Y-98029163D01*
X227153012Y-98184705D01*
X227189315Y-98345186D01*
X227249439Y-98501381D01*
X227259346Y-98521652D01*
X227319278Y-98615568D01*
X227399178Y-98706244D01*
X227487745Y-98782881D01*
X227573676Y-98834678D01*
X227596021Y-98843358D01*
X227686516Y-98859785D01*
X227788347Y-98857989D01*
X227884613Y-98839766D01*
X227958413Y-98806910D01*
X227961735Y-98804529D01*
X228022325Y-98759733D01*
X228047443Y-98975658D01*
X228060865Y-99091030D01*
X228072055Y-99170953D01*
X228084606Y-99221910D01*
X228102111Y-99250383D01*
X228128162Y-99262853D01*
X228166353Y-99265804D01*
X228208177Y-99265667D01*
X228274535Y-99264050D01*
X228308908Y-99256354D01*
X228321608Y-99238306D01*
X228323124Y-99218042D01*
X228320635Y-99187170D01*
X228313663Y-99120264D01*
X228302919Y-99023299D01*
X228289117Y-98902254D01*
X228272968Y-98763106D01*
X228255184Y-98611834D01*
X228240547Y-98488649D01*
X227988476Y-98488649D01*
X227988128Y-98550948D01*
X227971439Y-98591912D01*
X227934933Y-98621517D01*
X227889259Y-98643665D01*
X227805279Y-98668759D01*
X227727821Y-98662459D01*
X227643815Y-98625375D01*
X227593146Y-98590026D01*
X227550026Y-98541411D01*
X227505950Y-98468819D01*
X227480871Y-98420134D01*
X227440774Y-98335419D01*
X227417234Y-98269262D01*
X227405929Y-98203394D01*
X227402538Y-98119546D01*
X227402417Y-98088521D01*
X227403764Y-97999462D01*
X227409546Y-97941052D01*
X227422376Y-97901645D01*
X227444868Y-97869597D01*
X227453732Y-97859845D01*
X227521462Y-97814489D01*
X227599259Y-97807527D01*
X227681729Y-97837943D01*
X227763481Y-97904721D01*
X227778054Y-97920932D01*
X227834402Y-98003649D01*
X227889105Y-98113843D01*
X227936059Y-98236891D01*
X227969161Y-98358173D01*
X227975962Y-98395044D01*
X227988476Y-98488649D01*
X228240547Y-98488649D01*
X228236478Y-98454414D01*
X228217562Y-98296824D01*
X228199148Y-98145042D01*
X228181949Y-98005046D01*
X228166677Y-97882813D01*
X228154044Y-97784321D01*
X228144762Y-97715547D01*
X228141409Y-97692965D01*
X228128582Y-97612514D01*
X227931584Y-97625250D01*
X227925184Y-97748680D01*
X227918785Y-97872110D01*
X227834988Y-97776911D01*
X227732022Y-97682844D01*
X227622037Y-97622223D01*
X227510895Y-97595113D01*
X227404458Y-97601579D01*
G36*
X224107582Y-97615468D02*
G01*
X224061712Y-97617550D01*
X224047878Y-97619958D01*
X224054785Y-97696472D01*
X224066334Y-97801355D01*
X224081653Y-97928364D01*
X224099867Y-98071260D01*
X224120105Y-98223801D01*
X224141492Y-98379746D01*
X224163156Y-98532856D01*
X224184224Y-98676888D01*
X224203822Y-98805602D01*
X224221077Y-98912758D01*
X224235116Y-98992114D01*
X224245067Y-99037429D01*
X224246985Y-99043128D01*
X224313180Y-99157497D01*
X224401026Y-99235834D01*
X224443696Y-99257811D01*
X224508006Y-99275887D01*
X224585273Y-99285095D01*
X224658684Y-99284662D01*
X224711422Y-99273816D01*
X224717903Y-99270398D01*
X224732923Y-99236235D01*
X224727725Y-99181283D01*
X224713332Y-99133611D01*
X224686544Y-99107995D01*
X224633451Y-99092324D01*
X224623153Y-99090240D01*
X224541369Y-99060198D01*
X224500227Y-99021624D01*
X224487028Y-98985618D01*
X224471145Y-98913179D01*
X224452384Y-98803098D01*
X224430550Y-98654160D01*
X224405452Y-98465156D01*
X224384565Y-98297986D01*
X224364553Y-98134356D01*
X224346274Y-97984773D01*
X224330342Y-97854259D01*
X224317368Y-97747837D01*
X224307965Y-97670530D01*
X224302746Y-97627362D01*
X224301878Y-97619958D01*
X224282429Y-97617166D01*
X224232263Y-97615248D01*
X224174500Y-97614667D01*
X224107582Y-97615468D01*
G37*
X224107582Y-97615468D02*
X224061712Y-97617550D01*
X224047878Y-97619958D01*
X224054785Y-97696472D01*
X224066334Y-97801355D01*
X224081653Y-97928364D01*
X224099867Y-98071260D01*
X224120105Y-98223801D01*
X224141492Y-98379746D01*
X224163156Y-98532856D01*
X224184224Y-98676888D01*
X224203822Y-98805602D01*
X224221077Y-98912758D01*
X224235116Y-98992114D01*
X224245067Y-99037429D01*
X224246985Y-99043128D01*
X224313180Y-99157497D01*
X224401026Y-99235834D01*
X224443696Y-99257811D01*
X224508006Y-99275887D01*
X224585273Y-99285095D01*
X224658684Y-99284662D01*
X224711422Y-99273816D01*
X224717903Y-99270398D01*
X224732923Y-99236235D01*
X224727725Y-99181283D01*
X224713332Y-99133611D01*
X224686544Y-99107995D01*
X224633451Y-99092324D01*
X224623153Y-99090240D01*
X224541369Y-99060198D01*
X224500227Y-99021624D01*
X224487028Y-98985618D01*
X224471145Y-98913179D01*
X224452384Y-98803098D01*
X224430550Y-98654160D01*
X224405452Y-98465156D01*
X224384565Y-98297986D01*
X224364553Y-98134356D01*
X224346274Y-97984773D01*
X224330342Y-97854259D01*
X224317368Y-97747837D01*
X224307965Y-97670530D01*
X224302746Y-97627362D01*
X224301878Y-97619958D01*
X224282429Y-97617166D01*
X224232263Y-97615248D01*
X224174500Y-97614667D01*
X224107582Y-97615468D01*
D11*
G36*
X210382295Y-80081986D02*
G01*
X210551992Y-80133462D01*
X210708376Y-80217052D01*
X210845453Y-80329547D01*
X210957948Y-80466624D01*
X211041538Y-80623008D01*
X211093014Y-80792705D01*
X211111000Y-80975316D01*
X211111000Y-95254684D01*
X211093014Y-95437297D01*
X211078882Y-95483884D01*
X211073500Y-95520168D01*
X211073500Y-96719684D01*
X211055514Y-96902295D01*
X211004038Y-97071992D01*
X210920448Y-97228376D01*
X210807953Y-97365453D01*
X210670876Y-97477948D01*
X210514492Y-97561538D01*
X210344795Y-97613014D01*
X210162184Y-97631000D01*
X81582816Y-97631000D01*
X81400205Y-97613014D01*
X81230508Y-97561538D01*
X81074124Y-97477948D01*
X80937047Y-97365453D01*
X80824552Y-97228376D01*
X80740962Y-97071992D01*
X80689486Y-96902295D01*
X80671500Y-96719684D01*
X80671500Y-82440316D01*
X80689486Y-82257703D01*
X80703618Y-82211116D01*
X80709000Y-82174832D01*
X80709000Y-80975316D01*
X80726986Y-80792705D01*
X80778462Y-80623008D01*
X80862052Y-80466624D01*
X80974547Y-80329547D01*
X81111624Y-80217052D01*
X81268008Y-80133462D01*
X81437705Y-80081986D01*
X81620316Y-80064000D01*
X210199684Y-80064000D01*
X210382295Y-80081986D01*
G37*
G36*
X38932295Y-80081986D02*
G01*
X39101992Y-80133462D01*
X39258376Y-80217052D01*
X39395453Y-80329547D01*
X39507948Y-80466624D01*
X39591538Y-80623008D01*
X39643014Y-80792705D01*
X39661000Y-80975316D01*
X39661000Y-95254684D01*
X39643014Y-95437295D01*
X39591538Y-95606992D01*
X39507948Y-95763376D01*
X39395453Y-95900453D01*
X39258376Y-96012948D01*
X39101992Y-96096538D01*
X38932295Y-96148014D01*
X38749684Y-96166000D01*
X24470316Y-96166000D01*
X24287705Y-96148014D01*
X24118008Y-96096538D01*
X23961624Y-96012948D01*
X23824547Y-95900453D01*
X23712052Y-95763376D01*
X23628462Y-95606992D01*
X23576986Y-95437295D01*
X23559000Y-95254684D01*
X23559000Y-80975316D01*
X23576986Y-80792705D01*
X23628462Y-80623008D01*
X23712052Y-80466624D01*
X23824547Y-80329547D01*
X23961624Y-80217052D01*
X24118008Y-80133462D01*
X24287705Y-80081986D01*
X24470316Y-80064000D01*
X38749684Y-80064000D01*
X38932295Y-80081986D01*
G37*
G36*
X77032295Y-80081986D02*
G01*
X77201992Y-80133462D01*
X77358376Y-80217052D01*
X77495453Y-80329547D01*
X77607948Y-80466624D01*
X77691538Y-80623008D01*
X77743014Y-80792705D01*
X77761000Y-80975316D01*
X77761000Y-95254684D01*
X77743014Y-95437295D01*
X77691538Y-95606992D01*
X77607948Y-95763376D01*
X77495453Y-95900453D01*
X77358376Y-96012948D01*
X77201992Y-96096538D01*
X77032295Y-96148014D01*
X76849684Y-96166000D01*
X62570316Y-96166000D01*
X62387705Y-96148014D01*
X62218008Y-96096538D01*
X62061624Y-96012948D01*
X61924547Y-95900453D01*
X61812052Y-95763376D01*
X61728462Y-95606992D01*
X61676986Y-95437295D01*
X61659000Y-95254684D01*
X61659000Y-80975316D01*
X61676986Y-80792705D01*
X61728462Y-80623008D01*
X61812052Y-80466624D01*
X61924547Y-80329547D01*
X62061624Y-80217052D01*
X62218008Y-80133462D01*
X62387705Y-80081986D01*
X62570316Y-80064000D01*
X76849684Y-80064000D01*
X77032295Y-80081986D01*
G37*
G36*
X57982295Y-80081986D02*
G01*
X58151992Y-80133462D01*
X58308376Y-80217052D01*
X58445453Y-80329547D01*
X58557948Y-80466624D01*
X58641538Y-80623008D01*
X58693014Y-80792705D01*
X58711000Y-80975316D01*
X58711000Y-95254684D01*
X58693014Y-95437295D01*
X58641538Y-95606992D01*
X58557948Y-95763376D01*
X58445453Y-95900453D01*
X58308376Y-96012948D01*
X58151992Y-96096538D01*
X57982295Y-96148014D01*
X57799684Y-96166000D01*
X43520316Y-96166000D01*
X43337705Y-96148014D01*
X43168008Y-96096538D01*
X43011624Y-96012948D01*
X42874547Y-95900453D01*
X42762052Y-95763376D01*
X42678462Y-95606992D01*
X42626986Y-95437295D01*
X42609000Y-95254684D01*
X42609000Y-80975316D01*
X42626986Y-80792705D01*
X42678462Y-80623008D01*
X42762052Y-80466624D01*
X42874547Y-80329547D01*
X43011624Y-80217052D01*
X43168008Y-80133462D01*
X43337705Y-80081986D01*
X43520316Y-80064000D01*
X57799684Y-80064000D01*
X57982295Y-80081986D01*
G37*
G36*
X229432295Y-80081986D02*
G01*
X229601992Y-80133462D01*
X229758376Y-80217052D01*
X229895453Y-80329547D01*
X230007948Y-80466624D01*
X230091538Y-80623008D01*
X230143014Y-80792705D01*
X230161000Y-80975316D01*
X230161000Y-95254684D01*
X230143014Y-95437295D01*
X230091538Y-95606992D01*
X230007948Y-95763376D01*
X229895453Y-95900453D01*
X229758376Y-96012948D01*
X229601992Y-96096538D01*
X229432295Y-96148014D01*
X229249684Y-96166000D01*
X214970316Y-96166000D01*
X214787705Y-96148014D01*
X214618008Y-96096538D01*
X214461624Y-96012948D01*
X214324547Y-95900453D01*
X214212052Y-95763376D01*
X214128462Y-95606992D01*
X214076986Y-95437295D01*
X214059000Y-95254684D01*
X214059000Y-80975316D01*
X214076986Y-80792705D01*
X214128462Y-80623008D01*
X214212052Y-80466624D01*
X214324547Y-80329547D01*
X214461624Y-80217052D01*
X214618008Y-80133462D01*
X214787705Y-80081986D01*
X214970316Y-80064000D01*
X229249684Y-80064000D01*
X229432295Y-80081986D01*
G37*
G36*
X248482295Y-80081986D02*
G01*
X248651992Y-80133462D01*
X248808376Y-80217052D01*
X248945453Y-80329547D01*
X249057948Y-80466624D01*
X249141538Y-80623008D01*
X249193014Y-80792705D01*
X249211000Y-80975316D01*
X249211000Y-95254684D01*
X249193014Y-95437295D01*
X249141538Y-95606992D01*
X249057948Y-95763376D01*
X248945453Y-95900453D01*
X248808376Y-96012948D01*
X248651992Y-96096538D01*
X248482295Y-96148014D01*
X248299684Y-96166000D01*
X234020316Y-96166000D01*
X233837705Y-96148014D01*
X233668008Y-96096538D01*
X233511624Y-96012948D01*
X233374547Y-95900453D01*
X233262052Y-95763376D01*
X233178462Y-95606992D01*
X233126986Y-95437295D01*
X233109000Y-95254684D01*
X233109000Y-80975316D01*
X233126986Y-80792705D01*
X233178462Y-80623008D01*
X233262052Y-80466624D01*
X233374547Y-80329547D01*
X233511624Y-80217052D01*
X233668008Y-80133462D01*
X233837705Y-80081986D01*
X234020316Y-80064000D01*
X248299684Y-80064000D01*
X248482295Y-80081986D01*
G37*
G36*
X267532295Y-80081986D02*
G01*
X267701992Y-80133462D01*
X267858376Y-80217052D01*
X267995453Y-80329547D01*
X268107948Y-80466624D01*
X268191538Y-80623008D01*
X268243014Y-80792705D01*
X268261000Y-80975316D01*
X268261000Y-95254684D01*
X268243014Y-95437295D01*
X268191538Y-95606992D01*
X268107948Y-95763376D01*
X267995453Y-95900453D01*
X267858376Y-96012948D01*
X267701992Y-96096538D01*
X267532295Y-96148014D01*
X267349684Y-96166000D01*
X253070316Y-96166000D01*
X252887705Y-96148014D01*
X252718008Y-96096538D01*
X252561624Y-96012948D01*
X252424547Y-95900453D01*
X252312052Y-95763376D01*
X252228462Y-95606992D01*
X252176986Y-95437295D01*
X252159000Y-95254684D01*
X252159000Y-80975316D01*
X252176986Y-80792705D01*
X252228462Y-80623008D01*
X252312052Y-80466624D01*
X252424547Y-80329547D01*
X252561624Y-80217052D01*
X252718008Y-80133462D01*
X252887705Y-80081986D01*
X253070316Y-80064000D01*
X267349684Y-80064000D01*
X267532295Y-80081986D01*
G37*
G36*
X191332295Y-61031986D02*
G01*
X191501992Y-61083462D01*
X191658376Y-61167052D01*
X191795453Y-61279547D01*
X191907948Y-61416624D01*
X191991538Y-61573008D01*
X192043014Y-61742705D01*
X192061000Y-61925316D01*
X192061000Y-76204684D01*
X192043014Y-76387295D01*
X191991538Y-76556992D01*
X191907948Y-76713376D01*
X191795453Y-76850453D01*
X191658376Y-76962948D01*
X191501992Y-77046538D01*
X191332295Y-77098014D01*
X191149684Y-77116000D01*
X176870316Y-77116000D01*
X176687705Y-77098014D01*
X176518008Y-77046538D01*
X176361624Y-76962948D01*
X176224547Y-76850453D01*
X176112052Y-76713376D01*
X176028462Y-76556992D01*
X175976986Y-76387295D01*
X175959000Y-76204684D01*
X175959000Y-61925316D01*
X175976986Y-61742705D01*
X176028462Y-61573008D01*
X176112052Y-61416624D01*
X176224547Y-61279547D01*
X176361624Y-61167052D01*
X176518008Y-61083462D01*
X176687705Y-61031986D01*
X176870316Y-61014000D01*
X191149684Y-61014000D01*
X191332295Y-61031986D01*
G37*
G36*
X248482295Y-61031986D02*
G01*
X248651992Y-61083462D01*
X248808376Y-61167052D01*
X248945453Y-61279547D01*
X249057948Y-61416624D01*
X249141538Y-61573008D01*
X249193014Y-61742705D01*
X249211000Y-61925316D01*
X249211000Y-76204684D01*
X249193014Y-76387295D01*
X249141538Y-76556992D01*
X249057948Y-76713376D01*
X248945453Y-76850453D01*
X248808376Y-76962948D01*
X248651992Y-77046538D01*
X248482295Y-77098014D01*
X248299684Y-77116000D01*
X234020316Y-77116000D01*
X233837705Y-77098014D01*
X233668008Y-77046538D01*
X233511624Y-76962948D01*
X233374547Y-76850453D01*
X233262052Y-76713376D01*
X233178462Y-76556992D01*
X233126986Y-76387295D01*
X233109000Y-76204684D01*
X233109000Y-61925316D01*
X233126986Y-61742705D01*
X233178462Y-61573008D01*
X233262052Y-61416624D01*
X233374547Y-61279547D01*
X233511624Y-61167052D01*
X233668008Y-61083462D01*
X233837705Y-61031986D01*
X234020316Y-61014000D01*
X248299684Y-61014000D01*
X248482295Y-61031986D01*
G37*
G36*
X210382295Y-61031986D02*
G01*
X210551992Y-61083462D01*
X210708376Y-61167052D01*
X210845453Y-61279547D01*
X210957948Y-61416624D01*
X211041538Y-61573008D01*
X211093014Y-61742705D01*
X211111000Y-61925316D01*
X211111000Y-76204684D01*
X211093014Y-76387295D01*
X211041538Y-76556992D01*
X210957948Y-76713376D01*
X210845453Y-76850453D01*
X210708376Y-76962948D01*
X210551992Y-77046538D01*
X210382295Y-77098014D01*
X210199684Y-77116000D01*
X195920316Y-77116000D01*
X195737705Y-77098014D01*
X195568008Y-77046538D01*
X195411624Y-76962948D01*
X195274547Y-76850453D01*
X195162052Y-76713376D01*
X195078462Y-76556992D01*
X195026986Y-76387295D01*
X195009000Y-76204684D01*
X195009000Y-61925316D01*
X195026986Y-61742705D01*
X195078462Y-61573008D01*
X195162052Y-61416624D01*
X195274547Y-61279547D01*
X195411624Y-61167052D01*
X195568008Y-61083462D01*
X195737705Y-61031986D01*
X195920316Y-61014000D01*
X210199684Y-61014000D01*
X210382295Y-61031986D01*
G37*
G36*
X172282295Y-61031986D02*
G01*
X172451992Y-61083462D01*
X172608376Y-61167052D01*
X172745453Y-61279547D01*
X172857948Y-61416624D01*
X172941538Y-61573008D01*
X172993014Y-61742705D01*
X173011000Y-61925316D01*
X173011000Y-76204684D01*
X172993014Y-76387295D01*
X172941538Y-76556992D01*
X172857948Y-76713376D01*
X172745453Y-76850453D01*
X172608376Y-76962948D01*
X172451992Y-77046538D01*
X172282295Y-77098014D01*
X172099684Y-77116000D01*
X157820316Y-77116000D01*
X157637705Y-77098014D01*
X157468008Y-77046538D01*
X157311624Y-76962948D01*
X157174547Y-76850453D01*
X157062052Y-76713376D01*
X156978462Y-76556992D01*
X156926986Y-76387295D01*
X156909000Y-76204684D01*
X156909000Y-61925316D01*
X156926986Y-61742705D01*
X156978462Y-61573008D01*
X157062052Y-61416624D01*
X157174547Y-61279547D01*
X157311624Y-61167052D01*
X157468008Y-61083462D01*
X157637705Y-61031986D01*
X157820316Y-61014000D01*
X172099684Y-61014000D01*
X172282295Y-61031986D01*
G37*
G36*
X153232295Y-61031986D02*
G01*
X153401992Y-61083462D01*
X153558376Y-61167052D01*
X153695453Y-61279547D01*
X153807948Y-61416624D01*
X153891538Y-61573008D01*
X153943014Y-61742705D01*
X153961000Y-61925316D01*
X153961000Y-76204684D01*
X153943014Y-76387295D01*
X153891538Y-76556992D01*
X153807948Y-76713376D01*
X153695453Y-76850453D01*
X153558376Y-76962948D01*
X153401992Y-77046538D01*
X153232295Y-77098014D01*
X153049684Y-77116000D01*
X138770316Y-77116000D01*
X138587705Y-77098014D01*
X138418008Y-77046538D01*
X138261624Y-76962948D01*
X138124547Y-76850453D01*
X138012052Y-76713376D01*
X137928462Y-76556992D01*
X137876986Y-76387295D01*
X137859000Y-76204684D01*
X137859000Y-61925316D01*
X137876986Y-61742705D01*
X137928462Y-61573008D01*
X138012052Y-61416624D01*
X138124547Y-61279547D01*
X138261624Y-61167052D01*
X138418008Y-61083462D01*
X138587705Y-61031986D01*
X138770316Y-61014000D01*
X153049684Y-61014000D01*
X153232295Y-61031986D01*
G37*
G36*
X38932295Y-61031986D02*
G01*
X39101992Y-61083462D01*
X39258376Y-61167052D01*
X39395453Y-61279547D01*
X39507948Y-61416624D01*
X39591538Y-61573008D01*
X39643014Y-61742705D01*
X39661000Y-61925316D01*
X39661000Y-76204684D01*
X39643014Y-76387295D01*
X39591538Y-76556992D01*
X39507948Y-76713376D01*
X39395453Y-76850453D01*
X39258376Y-76962948D01*
X39101992Y-77046538D01*
X38932295Y-77098014D01*
X38749684Y-77116000D01*
X24470316Y-77116000D01*
X24287705Y-77098014D01*
X24118008Y-77046538D01*
X23961624Y-76962948D01*
X23824547Y-76850453D01*
X23712052Y-76713376D01*
X23628462Y-76556992D01*
X23576986Y-76387295D01*
X23559000Y-76204684D01*
X23559000Y-61925316D01*
X23576986Y-61742705D01*
X23628462Y-61573008D01*
X23712052Y-61416624D01*
X23824547Y-61279547D01*
X23961624Y-61167052D01*
X24118008Y-61083462D01*
X24287705Y-61031986D01*
X24470316Y-61014000D01*
X38749684Y-61014000D01*
X38932295Y-61031986D01*
G37*
G36*
X57982295Y-61031986D02*
G01*
X58151992Y-61083462D01*
X58308376Y-61167052D01*
X58445453Y-61279547D01*
X58557948Y-61416624D01*
X58641538Y-61573008D01*
X58693014Y-61742705D01*
X58711000Y-61925316D01*
X58711000Y-76204684D01*
X58693014Y-76387295D01*
X58641538Y-76556992D01*
X58557948Y-76713376D01*
X58445453Y-76850453D01*
X58308376Y-76962948D01*
X58151992Y-77046538D01*
X57982295Y-77098014D01*
X57799684Y-77116000D01*
X43520316Y-77116000D01*
X43337705Y-77098014D01*
X43168008Y-77046538D01*
X43011624Y-76962948D01*
X42874547Y-76850453D01*
X42762052Y-76713376D01*
X42678462Y-76556992D01*
X42626986Y-76387295D01*
X42609000Y-76204684D01*
X42609000Y-61925316D01*
X42626986Y-61742705D01*
X42678462Y-61573008D01*
X42762052Y-61416624D01*
X42874547Y-61279547D01*
X43011624Y-61167052D01*
X43168008Y-61083462D01*
X43337705Y-61031986D01*
X43520316Y-61014000D01*
X57799684Y-61014000D01*
X57982295Y-61031986D01*
G37*
G36*
X77032295Y-61031986D02*
G01*
X77201992Y-61083462D01*
X77358376Y-61167052D01*
X77495453Y-61279547D01*
X77607948Y-61416624D01*
X77691538Y-61573008D01*
X77743014Y-61742705D01*
X77761000Y-61925316D01*
X77761000Y-76204684D01*
X77743014Y-76387295D01*
X77691538Y-76556992D01*
X77607948Y-76713376D01*
X77495453Y-76850453D01*
X77358376Y-76962948D01*
X77201992Y-77046538D01*
X77032295Y-77098014D01*
X76849684Y-77116000D01*
X62570316Y-77116000D01*
X62387705Y-77098014D01*
X62218008Y-77046538D01*
X62061624Y-76962948D01*
X61924547Y-76850453D01*
X61812052Y-76713376D01*
X61728462Y-76556992D01*
X61676986Y-76387295D01*
X61659000Y-76204684D01*
X61659000Y-61925316D01*
X61676986Y-61742705D01*
X61728462Y-61573008D01*
X61812052Y-61416624D01*
X61924547Y-61279547D01*
X62061624Y-61167052D01*
X62218008Y-61083462D01*
X62387705Y-61031986D01*
X62570316Y-61014000D01*
X76849684Y-61014000D01*
X77032295Y-61031986D01*
G37*
G36*
X134182295Y-61031986D02*
G01*
X134351992Y-61083462D01*
X134508376Y-61167052D01*
X134645453Y-61279547D01*
X134757948Y-61416624D01*
X134841538Y-61573008D01*
X134893014Y-61742705D01*
X134911000Y-61925316D01*
X134911000Y-76204684D01*
X134893014Y-76387295D01*
X134841538Y-76556992D01*
X134757948Y-76713376D01*
X134645453Y-76850453D01*
X134508376Y-76962948D01*
X134351992Y-77046538D01*
X134182295Y-77098014D01*
X133999684Y-77116000D01*
X119720316Y-77116000D01*
X119537705Y-77098014D01*
X119368008Y-77046538D01*
X119211624Y-76962948D01*
X119074547Y-76850453D01*
X118962052Y-76713376D01*
X118878462Y-76556992D01*
X118826986Y-76387295D01*
X118809000Y-76204684D01*
X118809000Y-61925316D01*
X118826986Y-61742705D01*
X118878462Y-61573008D01*
X118962052Y-61416624D01*
X119074547Y-61279547D01*
X119211624Y-61167052D01*
X119368008Y-61083462D01*
X119537705Y-61031986D01*
X119720316Y-61014000D01*
X133999684Y-61014000D01*
X134182295Y-61031986D01*
G37*
G36*
X96082295Y-61031986D02*
G01*
X96251992Y-61083462D01*
X96408376Y-61167052D01*
X96545453Y-61279547D01*
X96657948Y-61416624D01*
X96741538Y-61573008D01*
X96793014Y-61742705D01*
X96811000Y-61925316D01*
X96811000Y-76204684D01*
X96793014Y-76387295D01*
X96741538Y-76556992D01*
X96657948Y-76713376D01*
X96545453Y-76850453D01*
X96408376Y-76962948D01*
X96251992Y-77046538D01*
X96082295Y-77098014D01*
X95899684Y-77116000D01*
X81620316Y-77116000D01*
X81437705Y-77098014D01*
X81268008Y-77046538D01*
X81111624Y-76962948D01*
X80974547Y-76850453D01*
X80862052Y-76713376D01*
X80778462Y-76556992D01*
X80726986Y-76387295D01*
X80709000Y-76204684D01*
X80709000Y-61925316D01*
X80726986Y-61742705D01*
X80778462Y-61573008D01*
X80862052Y-61416624D01*
X80974547Y-61279547D01*
X81111624Y-61167052D01*
X81268008Y-61083462D01*
X81437705Y-61031986D01*
X81620316Y-61014000D01*
X95899684Y-61014000D01*
X96082295Y-61031986D01*
G37*
G36*
X229432295Y-61031986D02*
G01*
X229601992Y-61083462D01*
X229758376Y-61167052D01*
X229895453Y-61279547D01*
X230007948Y-61416624D01*
X230091538Y-61573008D01*
X230143014Y-61742705D01*
X230161000Y-61925316D01*
X230161000Y-76204684D01*
X230143014Y-76387295D01*
X230091538Y-76556992D01*
X230007948Y-76713376D01*
X229895453Y-76850453D01*
X229758376Y-76962948D01*
X229601992Y-77046538D01*
X229432295Y-77098014D01*
X229249684Y-77116000D01*
X214970316Y-77116000D01*
X214787705Y-77098014D01*
X214618008Y-77046538D01*
X214461624Y-76962948D01*
X214324547Y-76850453D01*
X214212052Y-76713376D01*
X214128462Y-76556992D01*
X214076986Y-76387295D01*
X214059000Y-76204684D01*
X214059000Y-61925316D01*
X214076986Y-61742705D01*
X214128462Y-61573008D01*
X214212052Y-61416624D01*
X214324547Y-61279547D01*
X214461624Y-61167052D01*
X214618008Y-61083462D01*
X214787705Y-61031986D01*
X214970316Y-61014000D01*
X229249684Y-61014000D01*
X229432295Y-61031986D01*
G37*
G36*
X267532295Y-61031986D02*
G01*
X267701992Y-61083462D01*
X267858376Y-61167052D01*
X267995453Y-61279547D01*
X268107948Y-61416624D01*
X268191538Y-61573008D01*
X268243014Y-61742705D01*
X268261000Y-61925316D01*
X268261000Y-76204684D01*
X268243014Y-76387295D01*
X268191538Y-76556992D01*
X268107948Y-76713376D01*
X267995453Y-76850453D01*
X267858376Y-76962948D01*
X267701992Y-77046538D01*
X267532295Y-77098014D01*
X267349684Y-77116000D01*
X253070316Y-77116000D01*
X252887705Y-77098014D01*
X252718008Y-77046538D01*
X252561624Y-76962948D01*
X252424547Y-76850453D01*
X252312052Y-76713376D01*
X252228462Y-76556992D01*
X252176986Y-76387295D01*
X252159000Y-76204684D01*
X252159000Y-61925316D01*
X252176986Y-61742705D01*
X252228462Y-61573008D01*
X252312052Y-61416624D01*
X252424547Y-61279547D01*
X252561624Y-61167052D01*
X252718008Y-61083462D01*
X252887705Y-61031986D01*
X253070316Y-61014000D01*
X267349684Y-61014000D01*
X267532295Y-61031986D01*
G37*
G36*
X115132295Y-61031986D02*
G01*
X115301992Y-61083462D01*
X115458376Y-61167052D01*
X115595453Y-61279547D01*
X115707948Y-61416624D01*
X115791538Y-61573008D01*
X115843014Y-61742705D01*
X115861000Y-61925316D01*
X115861000Y-76204684D01*
X115843014Y-76387295D01*
X115791538Y-76556992D01*
X115707948Y-76713376D01*
X115595453Y-76850453D01*
X115458376Y-76962948D01*
X115301992Y-77046538D01*
X115132295Y-77098014D01*
X114949684Y-77116000D01*
X100670316Y-77116000D01*
X100487705Y-77098014D01*
X100318008Y-77046538D01*
X100161624Y-76962948D01*
X100024547Y-76850453D01*
X99912052Y-76713376D01*
X99828462Y-76556992D01*
X99776986Y-76387295D01*
X99759000Y-76204684D01*
X99759000Y-61925316D01*
X99776986Y-61742705D01*
X99828462Y-61573008D01*
X99912052Y-61416624D01*
X100024547Y-61279547D01*
X100161624Y-61167052D01*
X100318008Y-61083462D01*
X100487705Y-61031986D01*
X100670316Y-61014000D01*
X114949684Y-61014000D01*
X115132295Y-61031986D01*
G37*
G36*
X210382295Y-41981986D02*
G01*
X210551992Y-42033462D01*
X210708376Y-42117052D01*
X210845453Y-42229547D01*
X210957948Y-42366624D01*
X211041538Y-42523008D01*
X211093014Y-42692705D01*
X211111000Y-42875316D01*
X211111000Y-57154684D01*
X211093014Y-57337295D01*
X211041538Y-57506992D01*
X210957948Y-57663376D01*
X210845453Y-57800453D01*
X210708376Y-57912948D01*
X210551992Y-57996538D01*
X210382295Y-58048014D01*
X210199684Y-58066000D01*
X195920316Y-58066000D01*
X195737705Y-58048014D01*
X195568008Y-57996538D01*
X195411624Y-57912948D01*
X195274547Y-57800453D01*
X195162052Y-57663376D01*
X195078462Y-57506992D01*
X195026986Y-57337295D01*
X195009000Y-57154684D01*
X195009000Y-42875316D01*
X195026986Y-42692705D01*
X195078462Y-42523008D01*
X195162052Y-42366624D01*
X195274547Y-42229547D01*
X195411624Y-42117052D01*
X195568008Y-42033462D01*
X195737705Y-41981986D01*
X195920316Y-41964000D01*
X210199684Y-41964000D01*
X210382295Y-41981986D01*
G37*
G36*
X229432295Y-41981986D02*
G01*
X229601992Y-42033462D01*
X229758376Y-42117052D01*
X229895453Y-42229547D01*
X230007948Y-42366624D01*
X230091538Y-42523008D01*
X230143014Y-42692705D01*
X230161000Y-42875316D01*
X230161000Y-57154684D01*
X230143014Y-57337295D01*
X230091538Y-57506992D01*
X230007948Y-57663376D01*
X229895453Y-57800453D01*
X229758376Y-57912948D01*
X229601992Y-57996538D01*
X229432295Y-58048014D01*
X229249684Y-58066000D01*
X214970316Y-58066000D01*
X214787705Y-58048014D01*
X214618008Y-57996538D01*
X214461624Y-57912948D01*
X214324547Y-57800453D01*
X214212052Y-57663376D01*
X214128462Y-57506992D01*
X214076986Y-57337295D01*
X214059000Y-57154684D01*
X214059000Y-42875316D01*
X214076986Y-42692705D01*
X214128462Y-42523008D01*
X214212052Y-42366624D01*
X214324547Y-42229547D01*
X214461624Y-42117052D01*
X214618008Y-42033462D01*
X214787705Y-41981986D01*
X214970316Y-41964000D01*
X229249684Y-41964000D01*
X229432295Y-41981986D01*
G37*
G36*
X38932295Y-41981986D02*
G01*
X39101992Y-42033462D01*
X39258376Y-42117052D01*
X39395453Y-42229547D01*
X39507948Y-42366624D01*
X39591538Y-42523008D01*
X39643014Y-42692705D01*
X39661000Y-42875316D01*
X39661000Y-57154684D01*
X39643014Y-57337295D01*
X39591538Y-57506992D01*
X39507948Y-57663376D01*
X39395453Y-57800453D01*
X39258376Y-57912948D01*
X39101992Y-57996538D01*
X38932295Y-58048014D01*
X38749684Y-58066000D01*
X24470316Y-58066000D01*
X24287705Y-58048014D01*
X24118008Y-57996538D01*
X23961624Y-57912948D01*
X23824547Y-57800453D01*
X23712052Y-57663376D01*
X23628462Y-57506992D01*
X23576986Y-57337295D01*
X23559000Y-57154684D01*
X23559000Y-42875316D01*
X23576986Y-42692705D01*
X23628462Y-42523008D01*
X23712052Y-42366624D01*
X23824547Y-42229547D01*
X23961624Y-42117052D01*
X24118008Y-42033462D01*
X24287705Y-41981986D01*
X24470316Y-41964000D01*
X38749684Y-41964000D01*
X38932295Y-41981986D01*
G37*
G36*
X248482295Y-41981986D02*
G01*
X248651992Y-42033462D01*
X248808376Y-42117052D01*
X248945453Y-42229547D01*
X249057948Y-42366624D01*
X249141538Y-42523008D01*
X249193014Y-42692705D01*
X249211000Y-42875316D01*
X249211000Y-57154684D01*
X249193014Y-57337295D01*
X249141538Y-57506992D01*
X249057948Y-57663376D01*
X248945453Y-57800453D01*
X248808376Y-57912948D01*
X248651992Y-57996538D01*
X248482295Y-58048014D01*
X248299684Y-58066000D01*
X234020316Y-58066000D01*
X233837705Y-58048014D01*
X233668008Y-57996538D01*
X233511624Y-57912948D01*
X233374547Y-57800453D01*
X233262052Y-57663376D01*
X233178462Y-57506992D01*
X233126986Y-57337295D01*
X233109000Y-57154684D01*
X233109000Y-42875316D01*
X233126986Y-42692705D01*
X233178462Y-42523008D01*
X233262052Y-42366624D01*
X233374547Y-42229547D01*
X233511624Y-42117052D01*
X233668008Y-42033462D01*
X233837705Y-41981986D01*
X234020316Y-41964000D01*
X248299684Y-41964000D01*
X248482295Y-41981986D01*
G37*
G36*
X267532295Y-41981986D02*
G01*
X267701992Y-42033462D01*
X267858376Y-42117052D01*
X267995453Y-42229547D01*
X268107948Y-42366624D01*
X268191538Y-42523008D01*
X268243014Y-42692705D01*
X268261000Y-42875316D01*
X268261000Y-57154684D01*
X268243014Y-57337295D01*
X268191538Y-57506992D01*
X268107948Y-57663376D01*
X267995453Y-57800453D01*
X267858376Y-57912948D01*
X267701992Y-57996538D01*
X267532295Y-58048014D01*
X267349684Y-58066000D01*
X253070316Y-58066000D01*
X252887705Y-58048014D01*
X252718008Y-57996538D01*
X252561624Y-57912948D01*
X252424547Y-57800453D01*
X252312052Y-57663376D01*
X252228462Y-57506992D01*
X252176986Y-57337295D01*
X252159000Y-57154684D01*
X252159000Y-42875316D01*
X252176986Y-42692705D01*
X252228462Y-42523008D01*
X252312052Y-42366624D01*
X252424547Y-42229547D01*
X252561624Y-42117052D01*
X252718008Y-42033462D01*
X252887705Y-41981986D01*
X253070316Y-41964000D01*
X267349684Y-41964000D01*
X267532295Y-41981986D01*
G37*
G36*
X191332295Y-41981986D02*
G01*
X191501992Y-42033462D01*
X191658376Y-42117052D01*
X191795453Y-42229547D01*
X191907948Y-42366624D01*
X191991538Y-42523008D01*
X192043014Y-42692705D01*
X192061000Y-42875316D01*
X192061000Y-57154684D01*
X192043014Y-57337295D01*
X191991538Y-57506992D01*
X191907948Y-57663376D01*
X191795453Y-57800453D01*
X191658376Y-57912948D01*
X191501992Y-57996538D01*
X191332295Y-58048014D01*
X191149684Y-58066000D01*
X176870316Y-58066000D01*
X176687705Y-58048014D01*
X176518008Y-57996538D01*
X176361624Y-57912948D01*
X176224547Y-57800453D01*
X176112052Y-57663376D01*
X176028462Y-57506992D01*
X175976986Y-57337295D01*
X175959000Y-57154684D01*
X175959000Y-42875316D01*
X175976986Y-42692705D01*
X176028462Y-42523008D01*
X176112052Y-42366624D01*
X176224547Y-42229547D01*
X176361624Y-42117052D01*
X176518008Y-42033462D01*
X176687705Y-41981986D01*
X176870316Y-41964000D01*
X191149684Y-41964000D01*
X191332295Y-41981986D01*
G37*
G36*
X172282295Y-41981986D02*
G01*
X172451992Y-42033462D01*
X172608376Y-42117052D01*
X172745453Y-42229547D01*
X172857948Y-42366624D01*
X172941538Y-42523008D01*
X172993014Y-42692705D01*
X173011000Y-42875316D01*
X173011000Y-57154684D01*
X172993014Y-57337295D01*
X172941538Y-57506992D01*
X172857948Y-57663376D01*
X172745453Y-57800453D01*
X172608376Y-57912948D01*
X172451992Y-57996538D01*
X172282295Y-58048014D01*
X172099684Y-58066000D01*
X157820316Y-58066000D01*
X157637705Y-58048014D01*
X157468008Y-57996538D01*
X157311624Y-57912948D01*
X157174547Y-57800453D01*
X157062052Y-57663376D01*
X156978462Y-57506992D01*
X156926986Y-57337295D01*
X156909000Y-57154684D01*
X156909000Y-42875316D01*
X156926986Y-42692705D01*
X156978462Y-42523008D01*
X157062052Y-42366624D01*
X157174547Y-42229547D01*
X157311624Y-42117052D01*
X157468008Y-42033462D01*
X157637705Y-41981986D01*
X157820316Y-41964000D01*
X172099684Y-41964000D01*
X172282295Y-41981986D01*
G37*
G36*
X153232295Y-41981986D02*
G01*
X153401992Y-42033462D01*
X153558376Y-42117052D01*
X153695453Y-42229547D01*
X153807948Y-42366624D01*
X153891538Y-42523008D01*
X153943014Y-42692705D01*
X153961000Y-42875316D01*
X153961000Y-57154684D01*
X153943014Y-57337295D01*
X153891538Y-57506992D01*
X153807948Y-57663376D01*
X153695453Y-57800453D01*
X153558376Y-57912948D01*
X153401992Y-57996538D01*
X153232295Y-58048014D01*
X153049684Y-58066000D01*
X138770316Y-58066000D01*
X138587705Y-58048014D01*
X138418008Y-57996538D01*
X138261624Y-57912948D01*
X138124547Y-57800453D01*
X138012052Y-57663376D01*
X137928462Y-57506992D01*
X137876986Y-57337295D01*
X137859000Y-57154684D01*
X137859000Y-42875316D01*
X137876986Y-42692705D01*
X137928462Y-42523008D01*
X138012052Y-42366624D01*
X138124547Y-42229547D01*
X138261624Y-42117052D01*
X138418008Y-42033462D01*
X138587705Y-41981986D01*
X138770316Y-41964000D01*
X153049684Y-41964000D01*
X153232295Y-41981986D01*
G37*
G36*
X134182295Y-41981986D02*
G01*
X134351992Y-42033462D01*
X134508376Y-42117052D01*
X134645453Y-42229547D01*
X134757948Y-42366624D01*
X134841538Y-42523008D01*
X134893014Y-42692705D01*
X134911000Y-42875316D01*
X134911000Y-57154684D01*
X134893014Y-57337295D01*
X134841538Y-57506992D01*
X134757948Y-57663376D01*
X134645453Y-57800453D01*
X134508376Y-57912948D01*
X134351992Y-57996538D01*
X134182295Y-58048014D01*
X133999684Y-58066000D01*
X119720316Y-58066000D01*
X119537705Y-58048014D01*
X119368008Y-57996538D01*
X119211624Y-57912948D01*
X119074547Y-57800453D01*
X118962052Y-57663376D01*
X118878462Y-57506992D01*
X118826986Y-57337295D01*
X118809000Y-57154684D01*
X118809000Y-42875316D01*
X118826986Y-42692705D01*
X118878462Y-42523008D01*
X118962052Y-42366624D01*
X119074547Y-42229547D01*
X119211624Y-42117052D01*
X119368008Y-42033462D01*
X119537705Y-41981986D01*
X119720316Y-41964000D01*
X133999684Y-41964000D01*
X134182295Y-41981986D01*
G37*
G36*
X115132295Y-41981986D02*
G01*
X115301992Y-42033462D01*
X115458376Y-42117052D01*
X115595453Y-42229547D01*
X115707948Y-42366624D01*
X115791538Y-42523008D01*
X115843014Y-42692705D01*
X115861000Y-42875316D01*
X115861000Y-57154684D01*
X115843014Y-57337295D01*
X115791538Y-57506992D01*
X115707948Y-57663376D01*
X115595453Y-57800453D01*
X115458376Y-57912948D01*
X115301992Y-57996538D01*
X115132295Y-58048014D01*
X114949684Y-58066000D01*
X100670316Y-58066000D01*
X100487705Y-58048014D01*
X100318008Y-57996538D01*
X100161624Y-57912948D01*
X100024547Y-57800453D01*
X99912052Y-57663376D01*
X99828462Y-57506992D01*
X99776986Y-57337295D01*
X99759000Y-57154684D01*
X99759000Y-42875316D01*
X99776986Y-42692705D01*
X99828462Y-42523008D01*
X99912052Y-42366624D01*
X100024547Y-42229547D01*
X100161624Y-42117052D01*
X100318008Y-42033462D01*
X100487705Y-41981986D01*
X100670316Y-41964000D01*
X114949684Y-41964000D01*
X115132295Y-41981986D01*
G37*
G36*
X96082295Y-41981986D02*
G01*
X96251992Y-42033462D01*
X96408376Y-42117052D01*
X96545453Y-42229547D01*
X96657948Y-42366624D01*
X96741538Y-42523008D01*
X96793014Y-42692705D01*
X96811000Y-42875316D01*
X96811000Y-57154684D01*
X96793014Y-57337295D01*
X96741538Y-57506992D01*
X96657948Y-57663376D01*
X96545453Y-57800453D01*
X96408376Y-57912948D01*
X96251992Y-57996538D01*
X96082295Y-58048014D01*
X95899684Y-58066000D01*
X81620316Y-58066000D01*
X81437705Y-58048014D01*
X81268008Y-57996538D01*
X81111624Y-57912948D01*
X80974547Y-57800453D01*
X80862052Y-57663376D01*
X80778462Y-57506992D01*
X80726986Y-57337295D01*
X80709000Y-57154684D01*
X80709000Y-42875316D01*
X80726986Y-42692705D01*
X80778462Y-42523008D01*
X80862052Y-42366624D01*
X80974547Y-42229547D01*
X81111624Y-42117052D01*
X81268008Y-42033462D01*
X81437705Y-41981986D01*
X81620316Y-41964000D01*
X95899684Y-41964000D01*
X96082295Y-41981986D01*
G37*
G36*
X77032295Y-41981986D02*
G01*
X77201992Y-42033462D01*
X77358376Y-42117052D01*
X77495453Y-42229547D01*
X77607948Y-42366624D01*
X77691538Y-42523008D01*
X77743014Y-42692705D01*
X77761000Y-42875316D01*
X77761000Y-57154684D01*
X77743014Y-57337295D01*
X77691538Y-57506992D01*
X77607948Y-57663376D01*
X77495453Y-57800453D01*
X77358376Y-57912948D01*
X77201992Y-57996538D01*
X77032295Y-58048014D01*
X76849684Y-58066000D01*
X62570316Y-58066000D01*
X62387705Y-58048014D01*
X62218008Y-57996538D01*
X62061624Y-57912948D01*
X61924547Y-57800453D01*
X61812052Y-57663376D01*
X61728462Y-57506992D01*
X61676986Y-57337295D01*
X61659000Y-57154684D01*
X61659000Y-42875316D01*
X61676986Y-42692705D01*
X61728462Y-42523008D01*
X61812052Y-42366624D01*
X61924547Y-42229547D01*
X62061624Y-42117052D01*
X62218008Y-42033462D01*
X62387705Y-41981986D01*
X62570316Y-41964000D01*
X76849684Y-41964000D01*
X77032295Y-41981986D01*
G37*
G36*
X57982295Y-41981986D02*
G01*
X58151992Y-42033462D01*
X58308376Y-42117052D01*
X58445453Y-42229547D01*
X58557948Y-42366624D01*
X58641538Y-42523008D01*
X58693014Y-42692705D01*
X58711000Y-42875316D01*
X58711000Y-57154684D01*
X58693014Y-57337295D01*
X58641538Y-57506992D01*
X58557948Y-57663376D01*
X58445453Y-57800453D01*
X58308376Y-57912948D01*
X58151992Y-57996538D01*
X57982295Y-58048014D01*
X57799684Y-58066000D01*
X43520316Y-58066000D01*
X43337705Y-58048014D01*
X43168008Y-57996538D01*
X43011624Y-57912948D01*
X42874547Y-57800453D01*
X42762052Y-57663376D01*
X42678462Y-57506992D01*
X42626986Y-57337295D01*
X42609000Y-57154684D01*
X42609000Y-42875316D01*
X42626986Y-42692705D01*
X42678462Y-42523008D01*
X42762052Y-42366624D01*
X42874547Y-42229547D01*
X43011624Y-42117052D01*
X43168008Y-42033462D01*
X43337705Y-41981986D01*
X43520316Y-41964000D01*
X57799684Y-41964000D01*
X57982295Y-41981986D01*
G37*
G36*
X153232295Y-22931986D02*
G01*
X153401992Y-22983462D01*
X153558376Y-23067052D01*
X153695453Y-23179547D01*
X153807948Y-23316624D01*
X153891538Y-23473008D01*
X153943014Y-23642705D01*
X153961000Y-23825316D01*
X153961000Y-38104684D01*
X153943014Y-38287295D01*
X153891538Y-38456992D01*
X153807948Y-38613376D01*
X153695453Y-38750453D01*
X153558376Y-38862948D01*
X153401992Y-38946538D01*
X153232295Y-38998014D01*
X153049684Y-39016000D01*
X138770316Y-39016000D01*
X138587705Y-38998014D01*
X138418008Y-38946538D01*
X138261624Y-38862948D01*
X138124547Y-38750453D01*
X138012052Y-38613376D01*
X137928462Y-38456992D01*
X137876986Y-38287295D01*
X137859000Y-38104684D01*
X137859000Y-23825316D01*
X137876986Y-23642705D01*
X137928462Y-23473008D01*
X138012052Y-23316624D01*
X138124547Y-23179547D01*
X138261624Y-23067052D01*
X138418008Y-22983462D01*
X138587705Y-22931986D01*
X138770316Y-22914000D01*
X153049684Y-22914000D01*
X153232295Y-22931986D01*
G37*
G36*
X172282295Y-22931986D02*
G01*
X172451992Y-22983462D01*
X172608376Y-23067052D01*
X172745453Y-23179547D01*
X172857948Y-23316624D01*
X172941538Y-23473008D01*
X172993014Y-23642705D01*
X173011000Y-23825316D01*
X173011000Y-38104684D01*
X172993014Y-38287295D01*
X172941538Y-38456992D01*
X172857948Y-38613376D01*
X172745453Y-38750453D01*
X172608376Y-38862948D01*
X172451992Y-38946538D01*
X172282295Y-38998014D01*
X172099684Y-39016000D01*
X157820316Y-39016000D01*
X157637705Y-38998014D01*
X157468008Y-38946538D01*
X157311624Y-38862948D01*
X157174547Y-38750453D01*
X157062052Y-38613376D01*
X156978462Y-38456992D01*
X156926986Y-38287295D01*
X156909000Y-38104684D01*
X156909000Y-23825316D01*
X156926986Y-23642705D01*
X156978462Y-23473008D01*
X157062052Y-23316624D01*
X157174547Y-23179547D01*
X157311624Y-23067052D01*
X157468008Y-22983462D01*
X157637705Y-22931986D01*
X157820316Y-22914000D01*
X172099684Y-22914000D01*
X172282295Y-22931986D01*
G37*
G36*
X191332295Y-22931986D02*
G01*
X191501992Y-22983462D01*
X191658376Y-23067052D01*
X191795453Y-23179547D01*
X191907948Y-23316624D01*
X191991538Y-23473008D01*
X192043014Y-23642705D01*
X192061000Y-23825316D01*
X192061000Y-38104684D01*
X192043014Y-38287295D01*
X191991538Y-38456992D01*
X191907948Y-38613376D01*
X191795453Y-38750453D01*
X191658376Y-38862948D01*
X191501992Y-38946538D01*
X191332295Y-38998014D01*
X191149684Y-39016000D01*
X176870316Y-39016000D01*
X176687705Y-38998014D01*
X176518008Y-38946538D01*
X176361624Y-38862948D01*
X176224547Y-38750453D01*
X176112052Y-38613376D01*
X176028462Y-38456992D01*
X175976986Y-38287295D01*
X175959000Y-38104684D01*
X175959000Y-23825316D01*
X175976986Y-23642705D01*
X176028462Y-23473008D01*
X176112052Y-23316624D01*
X176224547Y-23179547D01*
X176361624Y-23067052D01*
X176518008Y-22983462D01*
X176687705Y-22931986D01*
X176870316Y-22914000D01*
X191149684Y-22914000D01*
X191332295Y-22931986D01*
G37*
G36*
X210382295Y-22931986D02*
G01*
X210551992Y-22983462D01*
X210708376Y-23067052D01*
X210845453Y-23179547D01*
X210957948Y-23316624D01*
X211041538Y-23473008D01*
X211093014Y-23642705D01*
X211111000Y-23825316D01*
X211111000Y-38104684D01*
X211093014Y-38287295D01*
X211041538Y-38456992D01*
X210957948Y-38613376D01*
X210845453Y-38750453D01*
X210708376Y-38862948D01*
X210551992Y-38946538D01*
X210382295Y-38998014D01*
X210199684Y-39016000D01*
X195920316Y-39016000D01*
X195737705Y-38998014D01*
X195568008Y-38946538D01*
X195411624Y-38862948D01*
X195274547Y-38750453D01*
X195162052Y-38613376D01*
X195078462Y-38456992D01*
X195026986Y-38287295D01*
X195009000Y-38104684D01*
X195009000Y-23825316D01*
X195026986Y-23642705D01*
X195078462Y-23473008D01*
X195162052Y-23316624D01*
X195274547Y-23179547D01*
X195411624Y-23067052D01*
X195568008Y-22983462D01*
X195737705Y-22931986D01*
X195920316Y-22914000D01*
X210199684Y-22914000D01*
X210382295Y-22931986D01*
G37*
G36*
X229432295Y-22931986D02*
G01*
X229601992Y-22983462D01*
X229758376Y-23067052D01*
X229895453Y-23179547D01*
X230007948Y-23316624D01*
X230091538Y-23473008D01*
X230143014Y-23642705D01*
X230161000Y-23825316D01*
X230161000Y-38104684D01*
X230143014Y-38287295D01*
X230091538Y-38456992D01*
X230007948Y-38613376D01*
X229895453Y-38750453D01*
X229758376Y-38862948D01*
X229601992Y-38946538D01*
X229432295Y-38998014D01*
X229249684Y-39016000D01*
X214970316Y-39016000D01*
X214787705Y-38998014D01*
X214618008Y-38946538D01*
X214461624Y-38862948D01*
X214324547Y-38750453D01*
X214212052Y-38613376D01*
X214128462Y-38456992D01*
X214076986Y-38287295D01*
X214059000Y-38104684D01*
X214059000Y-23825316D01*
X214076986Y-23642705D01*
X214128462Y-23473008D01*
X214212052Y-23316624D01*
X214324547Y-23179547D01*
X214461624Y-23067052D01*
X214618008Y-22983462D01*
X214787705Y-22931986D01*
X214970316Y-22914000D01*
X229249684Y-22914000D01*
X229432295Y-22931986D01*
G37*
G36*
X267532295Y-22931986D02*
G01*
X267701992Y-22983462D01*
X267858376Y-23067052D01*
X267995453Y-23179547D01*
X268107948Y-23316624D01*
X268191538Y-23473008D01*
X268243014Y-23642705D01*
X268261000Y-23825316D01*
X268261000Y-38104684D01*
X268243014Y-38287295D01*
X268191538Y-38456992D01*
X268107948Y-38613376D01*
X267995453Y-38750453D01*
X267858376Y-38862948D01*
X267701992Y-38946538D01*
X267532295Y-38998014D01*
X267349684Y-39016000D01*
X253070316Y-39016000D01*
X252887705Y-38998014D01*
X252718008Y-38946538D01*
X252561624Y-38862948D01*
X252424547Y-38750453D01*
X252312052Y-38613376D01*
X252228462Y-38456992D01*
X252176986Y-38287295D01*
X252159000Y-38104684D01*
X252159000Y-23825316D01*
X252176986Y-23642705D01*
X252228462Y-23473008D01*
X252312052Y-23316624D01*
X252424547Y-23179547D01*
X252561624Y-23067052D01*
X252718008Y-22983462D01*
X252887705Y-22931986D01*
X253070316Y-22914000D01*
X267349684Y-22914000D01*
X267532295Y-22931986D01*
G37*
G36*
X248482295Y-22931986D02*
G01*
X248651992Y-22983462D01*
X248808376Y-23067052D01*
X248945453Y-23179547D01*
X249057948Y-23316624D01*
X249141538Y-23473008D01*
X249193014Y-23642705D01*
X249211000Y-23825316D01*
X249211000Y-38104684D01*
X249193014Y-38287295D01*
X249141538Y-38456992D01*
X249057948Y-38613376D01*
X248945453Y-38750453D01*
X248808376Y-38862948D01*
X248651992Y-38946538D01*
X248482295Y-38998014D01*
X248299684Y-39016000D01*
X234020316Y-39016000D01*
X233837705Y-38998014D01*
X233668008Y-38946538D01*
X233511624Y-38862948D01*
X233374547Y-38750453D01*
X233262052Y-38613376D01*
X233178462Y-38456992D01*
X233126986Y-38287295D01*
X233109000Y-38104684D01*
X233109000Y-23825316D01*
X233126986Y-23642705D01*
X233178462Y-23473008D01*
X233262052Y-23316624D01*
X233374547Y-23179547D01*
X233511624Y-23067052D01*
X233668008Y-22983462D01*
X233837705Y-22931986D01*
X234020316Y-22914000D01*
X248299684Y-22914000D01*
X248482295Y-22931986D01*
G37*
G36*
X134182295Y-22931986D02*
G01*
X134351992Y-22983462D01*
X134508376Y-23067052D01*
X134645453Y-23179547D01*
X134757948Y-23316624D01*
X134841538Y-23473008D01*
X134893014Y-23642705D01*
X134911000Y-23825316D01*
X134911000Y-38104684D01*
X134893014Y-38287295D01*
X134841538Y-38456992D01*
X134757948Y-38613376D01*
X134645453Y-38750453D01*
X134508376Y-38862948D01*
X134351992Y-38946538D01*
X134182295Y-38998014D01*
X133999684Y-39016000D01*
X119720316Y-39016000D01*
X119537705Y-38998014D01*
X119368008Y-38946538D01*
X119211624Y-38862948D01*
X119074547Y-38750453D01*
X118962052Y-38613376D01*
X118878462Y-38456992D01*
X118826986Y-38287295D01*
X118809000Y-38104684D01*
X118809000Y-23825316D01*
X118826986Y-23642705D01*
X118878462Y-23473008D01*
X118962052Y-23316624D01*
X119074547Y-23179547D01*
X119211624Y-23067052D01*
X119368008Y-22983462D01*
X119537705Y-22931986D01*
X119720316Y-22914000D01*
X133999684Y-22914000D01*
X134182295Y-22931986D01*
G37*
G36*
X38932295Y-22931986D02*
G01*
X39101992Y-22983462D01*
X39258376Y-23067052D01*
X39395453Y-23179547D01*
X39507948Y-23316624D01*
X39591538Y-23473008D01*
X39643014Y-23642705D01*
X39661000Y-23825316D01*
X39661000Y-38104684D01*
X39643014Y-38287295D01*
X39591538Y-38456992D01*
X39507948Y-38613376D01*
X39395453Y-38750453D01*
X39258376Y-38862948D01*
X39101992Y-38946538D01*
X38932295Y-38998014D01*
X38749684Y-39016000D01*
X24470316Y-39016000D01*
X24287705Y-38998014D01*
X24118008Y-38946538D01*
X23961624Y-38862948D01*
X23824547Y-38750453D01*
X23712052Y-38613376D01*
X23628462Y-38456992D01*
X23576986Y-38287295D01*
X23559000Y-38104684D01*
X23559000Y-23825316D01*
X23576986Y-23642705D01*
X23628462Y-23473008D01*
X23712052Y-23316624D01*
X23824547Y-23179547D01*
X23961624Y-23067052D01*
X24118008Y-22983462D01*
X24287705Y-22931986D01*
X24470316Y-22914000D01*
X38749684Y-22914000D01*
X38932295Y-22931986D01*
G37*
G36*
X115132295Y-22931986D02*
G01*
X115301992Y-22983462D01*
X115458376Y-23067052D01*
X115595453Y-23179547D01*
X115707948Y-23316624D01*
X115791538Y-23473008D01*
X115843014Y-23642705D01*
X115861000Y-23825316D01*
X115861000Y-38104684D01*
X115843014Y-38287295D01*
X115791538Y-38456992D01*
X115707948Y-38613376D01*
X115595453Y-38750453D01*
X115458376Y-38862948D01*
X115301992Y-38946538D01*
X115132295Y-38998014D01*
X114949684Y-39016000D01*
X100670316Y-39016000D01*
X100487705Y-38998014D01*
X100318008Y-38946538D01*
X100161624Y-38862948D01*
X100024547Y-38750453D01*
X99912052Y-38613376D01*
X99828462Y-38456992D01*
X99776986Y-38287295D01*
X99759000Y-38104684D01*
X99759000Y-23825316D01*
X99776986Y-23642705D01*
X99828462Y-23473008D01*
X99912052Y-23316624D01*
X100024547Y-23179547D01*
X100161624Y-23067052D01*
X100318008Y-22983462D01*
X100487705Y-22931986D01*
X100670316Y-22914000D01*
X114949684Y-22914000D01*
X115132295Y-22931986D01*
G37*
G36*
X57982295Y-22931986D02*
G01*
X58151992Y-22983462D01*
X58308376Y-23067052D01*
X58445453Y-23179547D01*
X58557948Y-23316624D01*
X58641538Y-23473008D01*
X58693014Y-23642705D01*
X58711000Y-23825316D01*
X58711000Y-38104684D01*
X58693014Y-38287295D01*
X58641538Y-38456992D01*
X58557948Y-38613376D01*
X58445453Y-38750453D01*
X58308376Y-38862948D01*
X58151992Y-38946538D01*
X57982295Y-38998014D01*
X57799684Y-39016000D01*
X43520316Y-39016000D01*
X43337705Y-38998014D01*
X43168008Y-38946538D01*
X43011624Y-38862948D01*
X42874547Y-38750453D01*
X42762052Y-38613376D01*
X42678462Y-38456992D01*
X42626986Y-38287295D01*
X42609000Y-38104684D01*
X42609000Y-23825316D01*
X42626986Y-23642705D01*
X42678462Y-23473008D01*
X42762052Y-23316624D01*
X42874547Y-23179547D01*
X43011624Y-23067052D01*
X43168008Y-22983462D01*
X43337705Y-22931986D01*
X43520316Y-22914000D01*
X57799684Y-22914000D01*
X57982295Y-22931986D01*
G37*
G36*
X77032295Y-22931986D02*
G01*
X77201992Y-22983462D01*
X77358376Y-23067052D01*
X77495453Y-23179547D01*
X77607948Y-23316624D01*
X77691538Y-23473008D01*
X77743014Y-23642705D01*
X77761000Y-23825316D01*
X77761000Y-38104684D01*
X77743014Y-38287295D01*
X77691538Y-38456992D01*
X77607948Y-38613376D01*
X77495453Y-38750453D01*
X77358376Y-38862948D01*
X77201992Y-38946538D01*
X77032295Y-38998014D01*
X76849684Y-39016000D01*
X62570316Y-39016000D01*
X62387705Y-38998014D01*
X62218008Y-38946538D01*
X62061624Y-38862948D01*
X61924547Y-38750453D01*
X61812052Y-38613376D01*
X61728462Y-38456992D01*
X61676986Y-38287295D01*
X61659000Y-38104684D01*
X61659000Y-23825316D01*
X61676986Y-23642705D01*
X61728462Y-23473008D01*
X61812052Y-23316624D01*
X61924547Y-23179547D01*
X62061624Y-23067052D01*
X62218008Y-22983462D01*
X62387705Y-22931986D01*
X62570316Y-22914000D01*
X76849684Y-22914000D01*
X77032295Y-22931986D01*
G37*
G36*
X96082295Y-22931986D02*
G01*
X96251992Y-22983462D01*
X96408376Y-23067052D01*
X96545453Y-23179547D01*
X96657948Y-23316624D01*
X96741538Y-23473008D01*
X96793014Y-23642705D01*
X96811000Y-23825316D01*
X96811000Y-38104684D01*
X96793014Y-38287295D01*
X96741538Y-38456992D01*
X96657948Y-38613376D01*
X96545453Y-38750453D01*
X96408376Y-38862948D01*
X96251992Y-38946538D01*
X96082295Y-38998014D01*
X95899684Y-39016000D01*
X81620316Y-39016000D01*
X81437705Y-38998014D01*
X81268008Y-38946538D01*
X81111624Y-38862948D01*
X80974547Y-38750453D01*
X80862052Y-38613376D01*
X80778462Y-38456992D01*
X80726986Y-38287295D01*
X80709000Y-38104684D01*
X80709000Y-23825316D01*
X80726986Y-23642705D01*
X80778462Y-23473008D01*
X80862052Y-23316624D01*
X80974547Y-23179547D01*
X81111624Y-23067052D01*
X81268008Y-22983462D01*
X81437705Y-22931986D01*
X81620316Y-22914000D01*
X95899684Y-22914000D01*
X96082295Y-22931986D01*
G37*
M02*
